<?xml version="1.0" encoding="UTF-8"?>
<svg width="64px" height="64px" viewBox="0 0 64 64" version="1.1" xmlns="http://www.w3.org/2000/svg" xmlns:xlink="http://www.w3.org/1999/xlink">
    <!-- Generator: Sketch 49 (51002) - http://www.bohemiancoding.com/sketch -->
    <title>analysis</title>
    <desc>Created with Sketch.</desc>
    <defs></defs>
    <g id="Page-1" stroke="none" stroke-width="1" fill="none" fill-rule="evenodd">
        <g id="grid" transform="translate(-440.000000, -188.000000)">
            <g id="analysis" transform="translate(440.000000, 188.000000)">
                <rect id="wrapper" fill-opacity="0.00999999978" fill="#FFFFFF" x="0" y="0" width="64" height="64"></rect>
                <g id="icon" transform="translate(10.000000, 10.000000)" fill="#6C5CE7" fill-rule="nonzero">
                    <path d="M44.120358,0.0240014823 L0.701835002,0.0240014823 C0.314105524,0.0240014823 0,0.336107714 0,0.721088012 L0,43.1076188 C0,43.4925991 0.314105524,43.8047923 0.701835002,43.8047923 L44.1204455,43.8047923 C44.5080874,43.8047923 44.8222805,43.4926861 44.8222805,43.1076188 L44.8222805,0.721088012 C44.822193,0.336107714 44.5080874,0.0240014823 44.120358,0.0240014823 Z M43.4186105,42.4105323 L1.40358246,42.4105323 L1.40358246,1.4182615 L43.4186105,1.4182615 L43.4186105,42.4105323 Z" id="Shape"></path>
                    <path d="M41.0791897,10.2994187 L41.0791897,4.43923068 C41.0791897,4.05425039 40.7650841,3.74205719 40.3773547,3.74205719 L31.7685171,3.74205719 L22.4110965,3.74205719 L13.0536758,3.74205719 L4.44475074,3.74205719 C4.05710881,3.74205719 3.74291574,4.05416342 3.74291574,4.43923068 L3.74291574,12.6191272 L3.74291574,21.5426348 L3.74291574,28.0072949 C2.66420664,28.3116615 1.8714141,29.2983312 1.8714141,30.4660555 C1.8714141,31.6338667 2.66420664,32.6205363 3.74291574,32.924816 L3.74291574,39.3894761 C3.74291574,39.7744564 4.05702127,40.0866496 4.44475074,40.0866496 L13.0535883,40.0866496 L22.4110965,40.0866496 L31.7685171,40.0866496 L40.3773547,40.0866496 C40.7649966,40.0866496 41.0791897,39.7745434 41.0791897,39.3894761 L41.0791897,30.4660555 L41.0791897,21.5425478 L41.0791897,14.9386617 C41.9721318,14.5282886 42.576356,13.6293635 42.576356,12.6190402 C42.576356,11.6087169 41.9722193,10.7098788 41.0791897,10.2994187 Z M32.4703521,5.13640418 L39.6756072,5.13640418 L39.6756072,10.084275 C38.646185,10.2148917 37.8053312,10.9515459 37.5279063,11.9219537 L32.4703521,11.9219537 L32.4703521,5.13640418 Z M32.4703521,13.3162137 L37.529307,13.3162137 C37.5943517,13.5421407 37.6904743,13.7584149 37.8148734,13.9587751 L32.923389,19.2595373 C32.7782421,19.1867502 32.6267046,19.12779 32.4704397,19.0837003 L32.4704397,13.3162137 L32.4703521,13.3162137 Z M23.1129315,5.13640418 L31.0667697,5.13640418 L31.0667697,11.9219537 L23.1129315,11.9219537 L23.1129315,5.13640418 Z M23.1129315,13.3162137 L31.0667697,13.3162137 L31.0667697,19.0837873 C30.2112961,19.3251065 29.5363369,19.9955827 29.2933166,20.8454613 L23.1129315,20.8454613 L23.1129315,13.3162137 Z M23.1129315,22.2397213 L29.2929664,22.2397213 C29.3427786,22.413993 29.4111499,22.5823512 29.4971175,22.7421871 L23.7108525,28.2601801 C23.5230721,28.1502603 23.3225102,28.0650376 23.1129315,28.0063383 L23.1129315,22.2397213 Z M13.7554233,5.13640418 L21.7092615,5.13640418 L21.7092615,11.9219537 L13.7554233,11.9219537 L13.7554233,5.13640418 Z M13.7554233,13.3162137 L21.7092615,13.3162137 L21.7092615,20.8453743 L15.5288764,20.8453743 C15.2859436,19.9955827 14.6108968,19.3250196 13.7554233,19.0837003 L13.7554233,13.3162137 Z M15.3250755,22.7423611 C15.411043,22.5823512 15.4795019,22.4141669 15.5292265,22.2398953 L21.7092615,22.2398953 L21.7092615,28.0065123 C21.4996827,28.0652985 21.2991209,28.1504342 21.1113404,28.260354 L15.3250755,22.7423611 Z M20.1396968,29.2663292 C20.0537293,29.4263391 19.9852704,29.5945234 19.9355457,29.768882 L13.7555108,29.768882 L13.7555108,24.002265 C13.9650896,23.9434787 14.1656514,23.858343 14.3534319,23.7484232 L20.1396968,29.2663292 Z M5.14658575,5.13640418 L12.3518408,5.13640418 L12.3518408,11.9219537 L5.14658575,11.9219537 L5.14658575,5.13640418 Z M5.14658575,13.3162137 L12.3518408,13.3162137 L12.3518408,19.0837873 C11.4963672,19.3251065 10.8213205,19.9955827 10.5783877,20.8454613 L5.14658575,20.8454613 L5.14658575,13.3162137 Z M5.14667329,22.2397213 L10.5797884,22.2397213 C10.6444829,22.464083 10.7397301,22.6790528 10.8629036,22.8781955 L5.83021173,28.3124442 C5.61853192,28.1778272 5.38873064,28.0741686 5.14667329,28.0062514 L5.14667329,22.2397213 Z M3.2750841,30.4660555 C3.2750841,29.8253202 3.79973137,29.3041576 4.44475074,29.3041576 C4.79404869,29.3041576 5.12242378,29.4577323 5.34592194,29.725401 C5.34600949,29.725488 5.34600949,29.7255749 5.34609703,29.7256619 C5.52162144,29.9361967 5.61441738,30.1922125 5.61441738,30.4660555 C5.61441738,31.1067907 5.08977011,31.6279533 4.44475074,31.6279533 C3.79981892,31.6279533 3.2750841,31.1067907 3.2750841,30.4660555 Z M12.3518408,38.6923896 L5.14658575,38.6923896 L5.14658575,32.924816 C6.00205932,32.6834968 6.67710606,32.0129336 6.92003884,31.163142 L12.3518408,31.163142 L12.3518408,38.6923896 Z M12.3518408,29.7689689 L6.91872569,29.7689689 C6.87889347,29.629569 6.82741798,29.4938215 6.76438677,29.3630308 L11.8946895,23.8235583 C12.0411495,23.8973889 12.1940877,23.9569578 12.3517533,24.0014823 L12.3517533,29.7689689 L12.3518408,29.7689689 Z M12.263422,22.3965136 C12.2633345,22.3964267 12.2633345,22.3964267 12.2632469,22.3963397 C12.0186508,22.1726737 11.8839216,21.8696115 11.8839216,21.5426348 C11.8840092,20.9018126 12.4086564,20.38065 13.0536758,20.38065 C13.6986952,20.38065 14.2233424,20.9018126 14.2233424,21.5425478 C14.2233424,21.8425664 14.1073475,22.1279753 13.8968058,22.3459018 C13.8967182,22.3459888 13.8966307,22.3460757 13.8965431,22.3461627 C13.6732201,22.5771335 13.3739094,22.7045326 13.0536758,22.7045326 C12.7613686,22.7046196 12.4807922,22.5952215 12.263422,22.3965136 Z M21.7092615,38.6923896 L13.7554233,38.6923896 L13.7554233,31.163229 L19.9358084,31.163229 C20.1787412,32.0130206 20.8537879,32.6835837 21.7092615,32.924903 L21.7092615,38.6923896 Z M21.2414298,30.4660555 C21.2414298,30.1660369 21.3574248,29.880628 21.5679665,29.6627015 C21.5680541,29.6626145 21.5681416,29.6625276 21.5682291,29.6624406 C21.7915522,29.4314698 22.0908629,29.3041576 22.4110965,29.3041576 C22.73133,29.3041576 23.0305532,29.4313829 23.2539638,29.6624406 C23.2540514,29.6625276 23.2541389,29.6626145 23.2542264,29.6627015 C23.4648557,29.880715 23.5807631,30.16595 23.5807631,30.4660555 C23.5807631,31.1067907 23.0561158,31.6279533 22.4110965,31.6279533 C21.7660771,31.6279533 21.2414298,31.1067907 21.2414298,30.4660555 Z M31.0667697,38.6923896 L23.1129315,38.6923896 L23.1129315,32.924816 C23.9684051,32.6834968 24.6434518,32.0129336 24.8863846,31.163142 L31.0667697,31.163142 L31.0667697,38.6923896 Z M31.0667697,29.7689689 L24.8867347,29.7689689 C24.8369226,29.5946973 24.7685512,29.426426 24.6825837,29.2665031 L30.4688486,23.7485102 C30.6566291,23.858517 30.8571909,23.9436526 31.0667697,24.0023519 L31.0667697,29.7689689 Z M30.9257374,22.3461627 C30.9256498,22.3460757 30.9255623,22.3459888 30.9254747,22.3459018 C30.714933,22.1278883 30.598938,21.8426533 30.598938,21.5425478 C30.598938,20.9018126 31.1235853,20.38065 31.7686047,20.38065 C32.0600365,20.38065 32.3400001,20.4896132 32.5571951,20.6872776 C32.5572827,20.6873646 32.5573702,20.6875385 32.5575453,20.6876255 C32.5576329,20.6877124 32.5577204,20.6877124 32.5578079,20.6877994 C32.8031919,20.9115523 32.9383589,21.2150493 32.9383589,21.5426348 C32.9382713,22.18337 32.4136241,22.7045326 31.7686047,22.7045326 C31.4483711,22.7045326 31.1490604,22.5772204 30.9257374,22.3461627 Z M39.6756072,38.6923896 L32.4703521,38.6923896 L32.4703521,31.163229 L39.6756072,31.163229 L39.6756072,38.6923896 Z M39.6756072,29.7689689 L32.4703521,29.7689689 L32.4703521,24.0013953 C33.3258257,23.7600761 34.0007849,23.0895129 34.2438052,22.2397213 L39.6756072,22.2397213 L39.6756072,29.7689689 Z M39.6756072,20.8454613 L34.2424045,20.8454613 C34.1773598,20.6195343 34.0812373,20.4032601 33.9568382,20.2028999 L38.8483226,14.9021377 C39.1071883,15.0319718 39.3865391,15.1171075 39.6756072,15.1540663 L39.6756072,20.8454613 Z M40.2382483,13.7574583 C40.2373729,13.7576323 40.236585,13.7577192 40.2357095,13.7578062 C40.1592842,13.7730245 40.081108,13.7808511 40.0031069,13.7808511 C39.7117626,13.7808511 39.4317114,13.6718878 39.2145164,13.4742235 C39.2144289,13.4741365 39.2143413,13.4739626 39.2141662,13.4738756 C39.2140787,13.4737886 39.2139911,13.4737886 39.2139911,13.4737017 C38.9685196,13.2499487 38.8334402,12.9464517 38.8334402,12.6188663 C38.8334402,11.9781311 39.3580875,11.4569684 40.0031069,11.4569684 C40.081108,11.4569684 40.1592842,11.464795 40.2357095,11.4800133 C40.236585,11.4801873 40.2373729,11.4802742 40.2382483,11.4803612 C40.7797914,11.5900201 41.1727735,12.0687454 41.1727735,12.6190402 C41.1727735,13.1693351 40.7797914,13.6480603 40.2382483,13.7574583 Z" id="Shape"></path>
                </g>
            </g>
        </g>
    </g>
</svg>