<?xml version="1.0" encoding="UTF-8"?>
<svg width="64px" height="64px" viewBox="0 0 64 64" version="1.1" xmlns="http://www.w3.org/2000/svg" xmlns:xlink="http://www.w3.org/1999/xlink">
    <!-- Generator: Sketch 49 (51002) - http://www.bohemiancoding.com/sketch -->
    <title>analysis-1</title>
    <desc>Created with Sketch.</desc>
    <defs></defs>
    <g id="Page-1" stroke="none" stroke-width="1" fill="none" fill-rule="evenodd">
        <g id="grid" transform="translate(-692.000000, -20.000000)">
            <g id="analysis-1" transform="translate(692.000000, 20.000000)">
                <rect id="wrapper" fill-opacity="0.00999999978" fill="#FFFFFF" x="0" y="0" width="64" height="64"></rect>
                <g id="icon" transform="translate(10.000000, 10.000000)" fill="#6C5CE7" fill-rule="nonzero">
                    <path d="M28.9958443,9.48318093 C23.6148175,4.10191634 14.8592573,4.10191634 9.47814294,9.48318093 C6.87145228,12.0899416 5.43582896,15.5559922 5.43582896,19.2426654 C5.43582896,22.9293385 6.87145228,26.3953891 9.4780554,29.0021498 C12.168525,31.6927821 15.7027374,33.0382296 19.2368623,33.0382296 C22.7710747,33.0382296 26.3051996,31.6928696 28.9957568,29.0021498 C34.3767836,23.6207101 34.3767836,14.8646206 28.9958443,9.48318093 Z M27.9928602,27.9991051 C23.1649322,32.8276751 15.3089675,32.8274125 10.4810395,27.9991051 C8.14214395,25.6603307 6.8541187,22.550428 6.8541187,19.2426654 C6.8541187,15.9349027 8.14223149,12.8250875 10.480952,10.4861381 C12.8949597,8.07198444 16.0659548,6.86495136 19.2369499,6.86495136 C22.4079449,6.86495136 25.5788524,8.07207198 27.9929477,10.4862257 C32.8209632,15.3145331 32.8209632,23.1707977 27.9928602,27.9991051 Z" id="Shape"></path>
                    <path d="M34.3828241,12.9174514 C34.2318118,12.5560506 33.8168563,12.3853307 33.4551272,12.5363521 C33.0937483,12.6873735 32.9232139,13.1027043 33.0740511,13.4641926 C33.8367287,15.2904572 34.2234076,17.2347374 34.2234076,19.2426654 C34.2234076,19.6344455 34.5408398,19.9518969 34.9325087,19.9518969 C35.3241777,19.9518969 35.6416974,19.6344455 35.6416974,19.2426654 C35.6417849,17.04607 35.2182502,14.9179377 34.3828241,12.9174514 Z" id="Shape"></path>
                    <path d="M32.6243409,9.75388132 C32.0924275,9.00656615 31.4910047,8.29593385 30.8369684,7.64185798 C27.7383717,4.54324903 23.6188445,2.83675097 19.2368623,2.83675097 C18.8451934,2.83675097 18.5276737,3.15420233 18.5276737,3.54589494 C18.5276737,3.93758755 18.8451934,4.25512646 19.2368623,4.25512646 C23.2399569,4.25512646 27.0034453,5.81410506 29.8339843,8.64490272 C30.4325181,9.24338521 30.982553,9.89325875 31.4687687,10.5765759 C31.6071748,10.7710214 31.8254203,10.8745039 32.0471676,10.8745039 C32.189338,10.8745039 32.3329966,10.8317802 32.4578334,10.7430058 C32.7768414,10.5158171 32.8513408,10.0729961 32.6243409,9.75388132 Z" id="Shape"></path>
                    <path d="M44.6099879,40.4047471 L39.2613521,35.0557879 C38.9842774,34.7789591 38.5353551,34.7789591 38.258368,35.0557879 L37.1552343,36.1589883 L33.3342299,32.3377529 C36.6562372,28.7673444 38.478452,24.1453016 38.478452,19.2426654 C38.478452,14.1028599 36.4769484,9.27052529 32.8427615,5.63603113 C29.2084871,2.00162451 24.3765321,0 19.2369499,0 C14.09728,0 9.26541261,2.00162451 5.63113816,5.63603113 C-1.87106393,13.1387743 -1.87106393,25.3465564 5.63113816,32.8492996 C9.26532507,36.4836187 14.09728,38.4852432 19.2369499,38.4852432 C24.1393772,38.4852432 28.7609655,36.6629183 32.3311582,33.3407101 L36.1521626,37.1619455 L35.0490289,38.2651459 C34.7721293,38.5422374 34.7721293,38.9911868 35.0490289,39.2681031 L40.3976647,44.6170623 C40.5361583,44.7554767 40.7177232,44.8247276 40.8992005,44.8247276 C41.0806779,44.8247276 41.2621553,44.7554767 41.4007364,44.6170623 L44.6099879,41.4076167 C44.8867999,41.1307879 44.8867999,40.681751 44.6099879,40.4047471 Z M31.8397774,31.8462549 C28.4734732,35.2129377 23.9976445,37.0669553 19.2369499,37.0669553 C14.4762552,37.0669553 10.000339,35.2129377 6.63403473,31.8462549 C-0.315243588,24.8965564 -0.315243588,13.5886868 6.63403473,6.63907588 C10.0004265,3.272393 14.4762552,1.41837549 19.2369499,1.41837549 C23.9976445,1.41837549 28.4734732,3.272393 31.8397774,6.63907588 C35.2062568,10.0056712 37.0601622,14.4817704 37.0601622,19.2426654 C37.0601622,24.0035603 35.2062568,28.4797471 31.8397774,31.8462549 Z M40.8992881,43.1128016 L36.5534613,38.7667121 L37.6557196,37.6643872 C37.6559822,37.6641245 37.6564199,37.6638619 37.6566826,37.6635117 C37.6569452,37.663249 37.6572078,37.6628113 37.657558,37.6625486 L38.7598163,36.5602237 L43.105643,40.9063132 L40.8992881,43.1128016 Z" id="Shape"></path>
                    <path d="M28.979999,23.0723054 L28.1762635,23.0723054 L28.1762635,12.0562354 C28.1762635,11.6644553 27.8588313,11.3470039 27.4671624,11.3470039 L24.0632145,11.3470039 C23.671458,11.3470039 23.3540259,11.6644553 23.3540259,12.0562354 L23.3540259,23.0723054 L21.3684552,23.0723054 L21.3684552,15.4603016 C21.3684552,15.0685214 21.0509355,14.7511576 20.6592666,14.7511576 L17.2554062,14.7511576 C16.8637373,14.7511576 16.5462176,15.0686089 16.5462176,15.4603016 L16.5462176,23.0723054 L14.560647,23.0723054 L14.560647,14.3255837 C14.560647,13.9338035 14.2431272,13.6163521 13.8514583,13.6163521 L10.447598,13.6163521 C10.055929,13.6163521 9.73840931,13.9338035 9.73840931,14.3255837 L9.73840931,23.0722179 L8.93467385,23.0722179 C8.54300492,23.0722179 8.22548521,23.3896693 8.22548521,23.7813619 C8.22548521,24.1730545 8.54300492,24.4905934 8.93467385,24.4905934 L10.4475104,24.4905934 L13.8513708,24.4905934 L17.2553187,24.4905934 L20.659179,24.4905934 L24.0630394,24.4905934 L27.4669873,24.4905934 L28.9798239,24.4905934 C29.3715803,24.4905934 29.6890125,24.173142 29.6890125,23.7813619 C29.6890125,23.3895817 29.3717554,23.0723054 28.979999,23.0723054 Z M13.1424448,23.0723054 L11.1568741,23.0723054 L11.1568741,15.0348152 L13.1424448,15.0348152 L13.1424448,23.0723054 Z M19.950253,23.0723054 L17.9646824,23.0723054 L17.9646824,16.1695331 L19.950253,16.1695331 L19.950253,23.0723054 Z M26.7580613,23.0723054 L24.7724907,23.0723054 L24.7724907,12.7653794 L26.7580613,12.7653794 L26.7580613,23.0723054 Z" id="Shape"></path>
                </g>
            </g>
        </g>
    </g>
</svg>