<?xml version="1.0" encoding="UTF-8"?>
<svg width="64px" height="64px" viewBox="0 0 64 64" version="1.1" xmlns="http://www.w3.org/2000/svg" xmlns:xlink="http://www.w3.org/1999/xlink">
    <!-- Generator: Sketch 49 (51002) - http://www.bohemiancoding.com/sketch -->
    <title>approve</title>
    <desc>Created with Sketch.</desc>
    <defs></defs>
    <g id="Page-1" stroke="none" stroke-width="1" fill="none" fill-rule="evenodd">
        <g id="grid" transform="translate(-272.000000, -272.000000)">
            <g id="approve" transform="translate(272.000000, 272.000000)">
                <rect id="wrapper" fill-opacity="0.00999999978" fill="#FFFFFF" x="0" y="0" width="64" height="64"></rect>
                <g id="icon" transform="translate(16.000000, 10.000000)" fill="#6C5CE7" fill-rule="nonzero">
                    <path d="M31.9156028,3.71223735 L23.7607928,3.71223735 L21.2852568,3.71223735 C20.6576745,1.52964981 18.6676645,0 16.3473849,0 C14.0271053,0 12.0371827,1.52964981 11.4095131,3.71223735 L8.93397698,3.71223735 L0.779167068,3.71223735 C0.39530949,3.71223735 0.0841846613,4.02382296 0.0841846613,4.40824903 L0.0841846613,44.1288911 C0.0841846613,44.5134047 0.395396909,44.8249027 0.779167068,44.8249027 L31.9156028,44.8249027 C32.2994603,44.8249027 32.6105852,44.5133171 32.6105852,44.1288911 L32.6105852,4.40824903 C32.6105852,4.02373541 32.2994603,3.71223735 31.9156028,3.71223735 Z M9.62895939,7.37798638 L9.62895939,5.1042607 L11.9620022,5.1042607 C11.9653241,5.1042607 11.9685587,5.10382296 11.9718806,5.10382296 C11.9870915,5.10364786 12.002215,5.10268482 12.0171637,5.10145914 C12.0252063,5.1008463 12.0332488,5.10023346 12.0412914,5.09944553 C12.0563275,5.0977821 12.0710139,5.09533074 12.0857878,5.09270428 C12.0938303,5.09121595 12.1018729,5.08990272 12.1099155,5.0882393 C12.1238151,5.0851751 12.1374525,5.08149805 12.1510899,5.07764591 C12.159657,5.07519455 12.1681366,5.07300584 12.1764414,5.07020428 C12.1891172,5.06608949 12.2014433,5.06127432 12.2137694,5.05654669 C12.2225988,5.0531323 12.2314281,5.04980545 12.2400826,5.04604086 C12.2517968,5.04096304 12.2629864,5.03518482 12.2742635,5.02949416 C12.2830054,5.02511673 12.2917473,5.02082685 12.300227,5.01601167 C12.3113292,5.00979572 12.3220818,5.00305447 12.3328343,4.99613813 C12.3407895,4.99114786 12.348832,4.98624514 12.3566124,4.98081712 C12.3675397,4.97328794 12.3779426,4.96514591 12.3884329,4.95700389 C12.3954265,4.95166342 12.40242,4.94632296 12.4091513,4.9406323 C12.4198164,4.93170233 12.4298696,4.92215953 12.4400102,4.91252918 C12.4459547,4.90683852 12.4519867,4.90141051 12.4576689,4.89554475 C12.4677221,4.88530156 12.477076,4.87462062 12.4864298,4.86376459 C12.4915876,4.85772374 12.497095,4.85177043 12.5020779,4.84555447 C12.5109072,4.83469844 12.5190372,4.82340467 12.5271672,4.8119358 C12.53215,4.80493191 12.5373078,4.79810311 12.5420284,4.79092412 C12.5491968,4.78006809 12.5557532,4.76886187 12.5623097,4.75748054 C12.5672051,4.74898833 12.5723629,4.74049611 12.5768212,4.73174125 C12.5821538,4.72141051 12.5871367,4.71081712 12.5920322,4.70022374 C12.5968402,4.6897179 12.6017357,4.67938716 12.6061067,4.66861868 C12.6098657,4.65916342 12.613275,4.64953307 12.6166844,4.63981518 C12.6210553,4.62738327 12.6254263,4.61486381 12.6290105,4.60216926 C12.6316331,4.5932393 12.6337311,4.58413424 12.6359166,4.57502918 C12.6392385,4.5613716 12.6423856,4.54771401 12.6450082,4.53370623 C12.6456201,4.53020428 12.6466692,4.52670233 12.6472811,4.52320039 C12.9514124,2.70866732 14.5073862,1.3917607 16.3472101,1.3917607 C18.1869465,1.3917607 19.7430952,2.70866732 20.0471391,4.52311284 C20.047751,4.52696498 20.0488874,4.53064202 20.0495868,4.53440661 C20.0516848,4.54578794 20.05422,4.55716926 20.05693,4.56837549 C20.0593777,4.57870623 20.0619129,4.58894942 20.0647977,4.59910506 C20.0678574,4.60987354 20.0711793,4.62037938 20.0746761,4.63097276 C20.0782603,4.6416537 20.0821941,4.65224708 20.0863028,4.66266537 C20.0899744,4.67203307 20.0937335,4.68131323 20.0977548,4.69050584 C20.1028251,4.70188716 20.1083325,4.71309339 20.1139273,4.72421206 C20.1179486,4.73200389 20.121795,4.73979572 20.1260786,4.74741245 C20.1328973,4.75966926 20.1402405,4.77148833 20.1477585,4.7831323 C20.1517798,4.78934825 20.1554514,4.7955642 20.1596475,4.80169261 C20.1686517,4.81491245 20.1782678,4.82743191 20.1880588,4.83986381 C20.1913807,4.8441537 20.1945278,4.84870623 20.198112,4.85282101 C20.2117494,4.86919261 20.2259113,4.88503891 20.2409474,4.90000973 C20.2410348,4.90009728 20.2411222,4.90018482 20.2412096,4.90027237 C20.2562457,4.91524319 20.2718937,4.92942607 20.2880663,4.94299611 C20.294273,4.94816148 20.3009169,4.95280156 20.3073859,4.95787938 C20.3175265,4.96575875 20.3275798,4.97363813 20.3381575,4.98090467 C20.3463749,4.98668288 20.3550294,4.99184825 20.363509,4.99710117 C20.3727755,5.00296693 20.3820419,5.00883268 20.3915706,5.01417315 C20.4007496,5.01933852 20.4101034,5.02406615 20.4195447,5.02879377 C20.4291608,5.0336965 20.4388644,5.03842412 20.4487427,5.04288911 C20.458184,5.04717899 20.4677127,5.05103113 20.4774162,5.05488327 C20.4880813,5.05917315 20.4988339,5.06302529 20.5097613,5.06678988 C20.5189403,5.06985409 20.5280319,5.07291829 20.5373858,5.07571984 C20.5499741,5.07939689 20.5626499,5.08254864 20.5755005,5.08552529 C20.5835431,5.08736381 20.5914108,5.08937743 20.5996282,5.09104086 C20.6158882,5.09419261 20.632323,5.09655642 20.6488452,5.09857004 C20.6539155,5.09918288 20.6590732,5.10014591 20.6641436,5.10058366 C20.6864354,5.10277237 20.7089896,5.1040856 20.731806,5.1040856 C20.7321557,5.1040856 20.7325054,5.10399805 20.7329424,5.10399805 L23.065723,5.10399805 L23.065723,7.37772374 L23.065723,9.28033074 L9.62895939,9.28033074 L9.62895939,7.37798638 Z M8.93397698,10.6726167 L23.7608803,10.6726167 C24.1447378,10.6726167 24.4558627,10.3610311 24.4558627,9.97660506 L24.4558627,8.0740856 L28.2552747,8.0740856 L28.2552747,33.7810798 L21.9075064,33.7810798 C21.5236488,33.7810798 21.212524,34.0926654 21.212524,34.4770914 L21.212524,40.8342607 L4.43958258,40.8342607 L4.43958258,8.0740856 L8.23899458,8.0740856 L8.23899458,9.97660506 C8.23890716,10.3610311 8.5501194,10.6726167 8.93397698,10.6726167 Z M27.2722461,35.1731907 L22.6024014,39.8499514 L22.6024014,35.1731907 L27.2722461,35.1731907 Z M31.2206203,43.4327918 L1.47414947,43.4327918 L1.47414947,5.1042607 L8.23890716,5.1042607 L8.23890716,6.68197471 L3.74451276,6.68197471 C3.36065518,6.68197471 3.04953035,6.99356031 3.04953035,7.37798638 L3.04953035,41.5302724 C3.04953035,41.914786 3.3607426,42.226284 3.74451276,42.226284 L21.907419,42.226284 C21.9303228,42.226284 21.9532266,42.2250584 21.9759556,42.2228696 C21.9864459,42.2218191 21.9964991,42.219893 22.006902,42.2184047 C22.0189659,42.2166537 22.0312045,42.2152529 22.0430936,42.2128016 C22.0549826,42.2105253 22.0663471,42.2071984 22.0779738,42.2042218 C22.0883767,42.2015953 22.098867,42.1993191 22.1090076,42.1962549 C22.1202847,42.1928405 22.1312121,42.1885506 22.1424017,42.1845233 C22.1527172,42.1808463 22.1630327,42.1773444 22.1732607,42.1732296 C22.1836636,42.1689397 22.1936294,42.1638619 22.20377,42.1590467 C22.2141729,42.154144 22.2247506,42.1495039 22.2348912,42.1439883 C22.2445947,42.138823 22.2537738,42.1328696 22.263215,42.127179 C22.2732682,42.1211381 22.2834089,42.1154475 22.2931998,42.1088813 C22.3035153,42.1020525 22.3131314,42.0944358 22.3229223,42.0869942 C22.3312271,42.0807782 22.3397068,42.075 22.3477494,42.0684339 C22.364359,42.0547763 22.3801819,42.0404183 22.3953928,42.0252724 C22.3964418,42.0241342 22.3975783,42.0233463 22.3986273,42.0222957 L29.441378,34.9691148 C29.4423396,34.9681518 29.4430389,34.9671887 29.4440005,34.9662257 C29.4592115,34.9508171 29.4737231,34.9348833 29.4874479,34.9181615 C29.4940043,34.910107 29.499774,34.9016148 29.5059807,34.8932977 C29.5134114,34.8834047 29.5211043,34.8736868 29.5279229,34.8634436 C29.5344794,34.8535506 29.5402491,34.8433074 29.5463684,34.8330642 C29.5519632,34.823784 29.5577329,34.8145914 29.5628906,34.8050486 C29.5684854,34.7945428 29.5732935,34.7837743 29.5782764,34.7730934 C29.5829096,34.7632004 29.5878051,34.7534825 29.5920886,34.7434144 C29.5964596,34.7329086 29.5998689,34.7222276 29.6037154,34.7116342 C29.6075618,34.7008658 29.6117579,34.6900973 29.6150799,34.6790661 C29.6183144,34.6683852 29.6206747,34.6576167 29.6232973,34.6468482 C29.6260947,34.635642 29.6292418,34.6245233 29.6315147,34.6130545 C29.6340498,34.6004475 29.6355359,34.5878405 29.6372843,34.5750584 C29.638683,34.5652529 29.6405188,34.555535 29.6415679,34.545642 C29.6437533,34.5227043 29.6450646,34.4995914 29.6449772,34.4765661 L29.6449772,7.37798638 C29.6449772,6.99347276 29.333765,6.68197471 28.9499948,6.68197471 L24.4556878,6.68197471 L24.4556878,5.1042607 L31.2206203,5.1042607 L31.2206203,43.4327918 Z" id="Shape"></path>
                    <path d="M16.3473849,13.3639494 C11.4675594,13.3639494 7.49759259,17.3397957 7.49759259,22.2268482 C7.49759259,27.1139008 11.4675594,31.0897471 16.3473849,31.0897471 C21.2272104,31.0897471 25.1971772,27.1139008 25.1971772,22.2268482 C25.1971772,17.3397957 21.2272104,13.3639494 16.3473849,13.3639494 Z M16.3473849,29.6976362 C12.2340507,29.6976362 8.88764482,26.3462743 8.88764482,22.2268482 C8.88764482,18.1074222 12.2340507,14.7560603 16.3473849,14.7560603 C20.4607191,14.7560603 23.807125,18.1074222 23.807125,22.2268482 C23.807125,26.3462743 20.4607191,29.6976362 16.3473849,29.6976362 Z" id="Shape"></path>
                    <path d="M20.5455157,18.5792218 C20.2740792,18.3074708 19.8340111,18.3074708 19.562662,18.5792218 L13.5673679,24.58357 L11.8347199,22.848356 C11.5632834,22.5766051 11.1232153,22.5766051 10.8518662,22.848356 C10.5804296,23.1202821 10.5804296,23.5609144 10.8518662,23.8327529 L13.0758973,26.0600778 C13.2115718,26.1959533 13.3894699,26.2638911 13.5672804,26.2638911 C13.745091,26.2638911 13.9230765,26.1959533 14.0586636,26.0600778 L20.5454283,19.5637062 C20.8169523,19.2917802 20.8169523,18.8511479 20.5455157,18.5792218 Z" id="Shape"></path>
                </g>
            </g>
        </g>
    </g>
</svg>