<?xml version="1.0" encoding="UTF-8"?>
<svg width="64px" height="64px" viewBox="0 0 64 64" version="1.1" xmlns="http://www.w3.org/2000/svg" xmlns:xlink="http://www.w3.org/1999/xlink">
    <!-- Generator: Sketch 49 (51002) - http://www.bohemiancoding.com/sketch -->
    <title>attach</title>
    <desc>Created with Sketch.</desc>
    <defs></defs>
    <g id="Page-1" stroke="none" stroke-width="1" fill="none" fill-rule="evenodd">
        <g id="grid" transform="translate(-104.000000, -188.000000)">
            <g id="attach" transform="translate(104.000000, 188.000000)">
                <rect id="wrapper" fill-opacity="0.00999999978" fill="#FFFFFF" x="0" y="0" width="64" height="64"></rect>
                <g id="icon" transform="translate(13.000000, 10.000000)" fill="#6C5CE7" fill-rule="nonzero">
                    <path d="M37.5846448,3.04546693 L19.877977,3.04546693 L19.877977,2.61717899 C19.877977,1.17402724 18.6939716,0 17.2387512,0 L14.1676297,0 C12.7124092,0 11.5284039,1.17402724 11.5284039,2.61717899 L11.5284039,3.04546693 L7.25765023,3.04546693 C6.86000947,3.04546693 6.53785335,3.36501946 6.53785335,3.75925097 L6.53785335,9.51697471 L0.731715509,9.51697471 C0.334074745,9.51697471 0.0119186286,9.83652724 0.0119186286,10.2307588 L0.0119186286,36.8777626 C0.0119186286,36.9014883 0.0131546345,36.925214 0.0155383602,36.9488521 C0.0165095077,36.9584825 0.0183635166,36.9677626 0.0196878087,36.9773054 C0.0216301037,36.9908755 0.0232192542,37.0044455 0.0259561245,37.017928 C0.0281632779,37.0292218 0.0313415789,37.0401654 0.0340784491,37.0511965 C0.0369918917,37.0627529 0.0395521897,37.0742218 0.042995349,37.0856907 C0.0463502223,37.0966342 0.0504996707,37.1071401 0.0542959746,37.117821 C0.058357137,37.1291148 0.0621534409,37.1404961 0.0667443201,37.1516148 C0.0709820547,37.1615953 0.0758377922,37.1712257 0.0804286714,37.1810311 C0.0858141258,37.1923249 0.0908464356,37.2037938 0.096849893,37.2149125 C0.101970489,37.2243677 0.107709088,37.2332101 0.113182828,37.2423152 C0.119716003,37.2531712 0.125984318,37.2642023 0.133047209,37.2747957 C0.139756956,37.2847763 0.147261278,37.294144 0.154500741,37.3038619 C0.161298773,37.3128794 0.167655375,37.3221595 0.174983125,37.3309144 C0.189020621,37.3477237 0.203852692,37.3639202 0.219302766,37.3795039 C0.220450486,37.380642 0.221421633,37.3819553 0.222569353,37.3830934 L7.5164169,44.6160117 C7.51738805,44.6169747 7.51844748,44.6177626 7.51933034,44.6185506 C7.53522185,44.6341342 7.55181964,44.6491051 7.56921201,44.6632879 C7.57724605,44.6698541 7.5858098,44.6755447 7.5941087,44.6817607 C7.60470304,44.6895525 7.61494423,44.6976946 7.62589171,44.7049611 C7.63569147,44.7115272 7.64593266,44.7171304 7.655909,44.7231712 C7.66597362,44.7291245 7.67586166,44.735428 7.68627943,44.7409436 C7.69652062,44.7463716 7.70720324,44.7510117 7.71779758,44.7560019 C7.72856849,44.7610798 7.73907454,44.7663327 7.75011031,44.7708852 C7.7603515,44.7750875 7.77094583,44.7785019 7.7813636,44.782179 C7.79310566,44.7863813 7.80458285,44.7908463 7.81650148,44.7943482 C7.82709582,44.7975 7.83769015,44.7997763 7.84837278,44.8024027 C7.86046798,44.8054669 7.87247489,44.8087938 7.88474667,44.8111576 C7.89710673,44.8136089 7.90964336,44.8150097 7.9220917,44.8167607 C7.93286261,44.818249 7.94345695,44.8203502 7.95431614,44.8213132 C7.97788854,44.8235895 8.00163751,44.8248152 8.0252982,44.8248152 L29.1390163,44.8248152 C29.5366571,44.8248152 29.8588132,44.5052626 29.8588132,44.1110311 L29.8588132,41.0180253 L37.5844682,41.0180253 C37.982109,41.0180253 38.3042651,40.6984728 38.3042651,40.3042412 L38.3042651,3.75916342 C38.3044417,3.36501946 37.9822856,3.04546693 37.5846448,3.04546693 Z M12.9679976,2.61717899 C12.9679976,1.96117704 13.5061016,1.42756809 14.1676297,1.42756809 L17.2387512,1.42756809 C17.9002793,1.42756809 18.4383833,1.96117704 18.4383833,2.61717899 L18.4383833,3.04546693 L12.9679976,3.04546693 L12.9679976,2.61717899 Z M12.9679976,10.9445428 L16.5189544,10.9445428 L16.5189544,14.4658366 L12.9679976,14.4658366 L12.9679976,10.9445428 Z M16.2767855,15.8933171 C16.0576593,16.1816148 15.7106948,16.369144 15.3194106,16.369144 L14.1677179,16.369144 C13.7764338,16.369144 13.429381,16.1815272 13.2103431,15.8933171 L16.2767855,15.8933171 Z M7.9775354,4.47294747 L11.5284921,4.47294747 L11.5284921,9.51697471 L7.9775354,9.51697471 L7.9775354,4.47294747 Z M7.30576618,40.3043288 L7.30576618,42.3878988 L2.46945156,37.5919844 L7.25773852,37.5919844 L7.30576618,37.5919844 L7.30576618,40.3043288 Z M28.419396,40.3043288 L28.4194843,43.3973346 L8.74527165,43.3973346 L8.74527165,40.3043288 L8.74527165,36.8782004 C8.74527165,36.4839689 8.42311553,36.1644163 8.02547477,36.1644163 L7.25773852,36.1644163 L1.45151239,36.1644163 L1.45151239,10.9445428 L7.25773852,10.9445428 L11.5284921,10.9445428 L11.5284921,14.4658366 L7.25773852,14.4658366 L5.72217772,14.4658366 C5.32453696,14.4658366 5.00238084,14.7853891 5.00238084,15.1796206 C5.00238084,15.5738521 5.32453696,15.8934047 5.72217772,15.8934047 L7.25773852,15.8934047 L11.62905,15.8934047 C11.9432604,16.9904767 12.9619942,17.7967996 14.1677179,17.7967996 L15.3194106,17.7967996 C16.5251344,17.7967996 17.5438681,16.9905642 17.8580785,15.8934047 L24.5326871,15.8934047 C24.9303278,15.8934047 25.2524839,15.5738521 25.2524839,15.1796206 C25.2524839,14.7853891 24.9303278,14.4658366 24.5326871,14.4658366 L17.9586364,14.4658366 L17.9586364,10.9445428 L28.4194843,10.9445428 L28.4194843,40.3043288 L28.419396,40.3043288 Z M36.8649362,39.5905447 L29.8589898,39.5905447 L29.8589898,10.2307588 C29.8589898,9.83652724 29.5368336,9.51697471 29.1391929,9.51697471 L17.9585481,9.51697471 L17.9585481,6.04330739 C17.9585481,5.64907588 17.636392,5.32952335 17.2387512,5.32952335 C16.8411105,5.32952335 16.5189544,5.64907588 16.5189544,6.04330739 L16.5189544,9.51697471 L12.9679976,9.51697471 L12.9679976,4.47294747 L36.8649362,4.47294747 L36.8649362,39.5905447 Z" id="Shape"></path>
                    <path d="M24.5325988,20.5566829 L7.25773852,20.5566829 L5.72217772,20.5566829 C5.32453696,20.5566829 5.00238084,20.8762354 5.00238084,21.2704669 C5.00238084,21.6646984 5.32453696,21.984251 5.72217772,21.984251 L7.25773852,21.984251 L24.5325988,21.984251 C24.9302395,21.984251 25.2523957,21.6646984 25.2523957,21.2704669 C25.2523957,20.8762354 24.9302395,20.5566829 24.5325988,20.5566829 Z" id="Shape"></path>
                    <path d="M24.5325988,26.6475292 L7.25773852,26.6475292 L5.72217772,26.6475292 C5.32453696,26.6475292 5.00238084,26.9670817 5.00238084,27.3613132 C5.00238084,27.7555447 5.32453696,28.0750973 5.72217772,28.0750973 L7.25773852,28.0750973 L24.5325988,28.0750973 C24.9302395,28.0750973 25.2523957,27.7555447 25.2523957,27.3613132 C25.2523957,26.9670817 24.9302395,26.6475292 24.5325988,26.6475292 Z" id="Shape"></path>
                    <path d="M24.5325988,32.7383755 L7.25773852,32.7383755 L5.72217772,32.7383755 C5.32453696,32.7383755 5.00238084,33.057928 5.00238084,33.4521595 C5.00238084,33.8463911 5.32453696,34.1659436 5.72217772,34.1659436 L7.25773852,34.1659436 L24.5325988,34.1659436 C24.9302395,34.1659436 25.2523957,33.8463911 25.2523957,33.4521595 C25.2523957,33.057928 24.9302395,32.7383755 24.5325988,32.7383755 Z" id="Shape"></path>
                </g>
            </g>
        </g>
    </g>
</svg>