<?xml version="1.0" encoding="UTF-8"?>
<svg width="64px" height="64px" viewBox="0 0 64 64" version="1.1" xmlns="http://www.w3.org/2000/svg" xmlns:xlink="http://www.w3.org/1999/xlink">
    <!-- Generator: Sketch 49 (51002) - http://www.bohemiancoding.com/sketch -->
    <title>attractive</title>
    <desc>Created with Sketch.</desc>
    <defs></defs>
    <g id="Page-1" stroke="none" stroke-width="1" fill="none" fill-rule="evenodd">
        <g id="grid" transform="translate(-272.000000, -20.000000)">
            <g id="attractive" transform="translate(272.000000, 20.000000)">
                <rect id="wrapper" fill-opacity="0.00999999978" fill="#FFFFFF" x="0" y="0" width="64" height="64"></rect>
                <g id="icon" transform="translate(10.000000, 16.000000)" fill="#6C5CE7" fill-rule="nonzero">
                    <path d="M44.6443049,19.8890908 C44.5428421,19.7751013 42.1143022,17.0639526 38.1638212,14.3166841 C34.4971557,11.7667319 28.7877538,8.72712705 22.4110965,8.72712705 C16.0344392,8.72712705 10.3250373,11.7667319 6.65837178,14.3167708 C2.70789077,17.0640392 0.279438359,19.7751013 0.177888078,19.8891775 C-0.059266845,20.1559614 -0.059266845,20.555531 0.177888078,20.822315 C0.279350816,20.9363045 2.70789077,23.6474532 6.65837178,26.3947217 C10.3250373,28.9445874 16.0344392,31.9841922 22.4110965,31.9841922 C28.7877538,31.9841922 34.4971557,28.9445874 38.1639087,26.3945485 C42.1143897,23.64728 44.5428421,20.9362179 44.6443924,20.8221418 C44.8814598,20.5554444 44.8814598,20.1558748 44.6443049,19.8890908 Z M7.50806749,25.2589843 C4.63095544,23.262089 2.55127572,21.2424131 1.68949903,20.3553565 C2.54681101,19.4722842 4.61134573,17.4665539 7.47926573,15.4721705 C10.265858,13.5343488 14.2788449,11.3016789 18.8303986,10.472743 C14.7362589,11.9294008 11.8003177,15.8093751 11.8003177,20.3556163 C11.8003177,24.9017709 14.7359963,28.7816586 18.8300484,30.238403 C14.2904882,29.4115459 10.2879189,27.1885772 7.50806749,25.2589843 Z M13.2277995,20.3556163 C13.2277995,15.3454481 17.3474143,11.2693703 22.4110965,11.2693703 C27.4747787,11.2693703 31.5943934,15.3454481 31.5943934,20.3556163 C31.5943934,25.3657845 27.4747787,29.4418623 22.4110965,29.4418623 C17.3474143,29.4418623 13.2277995,25.3657845 13.2277995,20.3556163 Z M37.3430148,25.2390621 C34.5565101,27.1769704 30.5434356,29.4095537 25.9918819,30.238403 C30.0860216,28.7818318 33.0219628,24.9017709 33.0219628,20.3556163 C33.0219628,15.8094617 30.0862842,11.929574 25.9922321,10.4728296 C30.5318798,11.2996867 34.5344492,13.5226554 37.3143005,15.4521617 C40.1913251,17.449057 42.2711799,19.4688195 43.132869,20.3557895 C42.2753819,21.2389484 40.2109348,23.2446787 37.3430148,25.2390621 Z" id="Shape"></path>
                    <path d="M29.5899134,17.4507894 C29.4403019,17.0899381 29.0233329,16.9172215 28.6587149,17.0655118 C28.2940093,17.2135422 28.1197105,17.6260179 28.2693221,17.9868692 C28.581239,18.739148 28.7394298,19.5362084 28.7394298,20.3556163 C28.7395174,20.7458312 29.0589631,21.0619009 29.4532583,21.0619009 C29.8475535,21.0619009 30.1669992,20.7458312 30.1669992,20.3557029 C30.1669116,19.3514519 29.972828,18.3740524 29.5899134,17.4507894 Z" id="Shape"></path>
                    <path d="M27.9242262,14.9629423 C26.4542859,13.4918193 24.496379,12.6817662 22.4110965,12.6817662 C22.0168012,12.6817662 21.6973556,12.9978359 21.6973556,13.3879641 C21.6973556,13.7780924 22.0168012,14.0941621 22.4110965,14.0941621 C24.1120637,14.0941621 25.7094671,14.7552319 26.9092487,15.955933 C27.0488803,16.0955615 27.2327213,16.1656356 27.4167374,16.1656356 C27.5980397,16.1656356 27.7794295,16.0976403 27.9185359,15.9615632 C28.1987621,15.6873301 28.2013009,15.2402937 27.9242262,14.9629423 Z" id="Shape"></path>
                    <path d="M26.2683438,17.0485346 C25.5603808,16.673911 24.3296964,16.4923593 22.4110965,17.6361523 C20.4925841,16.4925326 19.2617246,16.6738244 18.5538491,17.0485346 C17.6353443,17.5349822 17.1295189,18.5756995 17.1295189,19.9790005 C17.1295189,22.6051768 21.4923291,25.8383732 21.9897504,26.1985316 C22.1152,26.2893074 22.2631482,26.3346953 22.4110965,26.3346953 C22.5590447,26.3346953 22.706993,26.2893074 22.8324426,26.1985316 C23.3298639,25.8383732 27.6926741,22.6051768 27.6926741,19.9790005 C27.6926741,18.5756995 27.1869362,17.5349822 26.2683438,17.0485346 Z M22.4108338,24.7424801 C20.7693961,23.4714451 18.5570007,21.3072901 18.5570007,19.9790005 C18.5570007,19.1336072 18.8012466,18.5193977 19.2274076,18.293844 C19.3792078,18.2134624 19.5619108,18.1739645 19.7708767,18.1739645 C20.3513766,18.1739645 21.1340142,18.4788604 22.0152255,19.0600683 C22.2550067,19.2182331 22.5672738,19.2182331 22.8069675,19.0600683 C24.0054359,18.2695043 25.0218141,17.990334 25.5947853,18.293844 C26.0209463,18.5194844 26.2651923,19.1336072 26.2651923,19.9790005 C26.2652798,21.3048648 24.0523591,23.4702324 22.4108338,24.7424801 Z" id="Shape"></path>
                    <path d="M22.4110965,0.0645305363 C22.0168012,0.0645305363 21.6973556,0.380600237 21.6973556,0.770728472 L21.6973556,5.66699374 C21.6973556,6.05712198 22.0168012,6.37319168 22.4110965,6.37319168 C22.8053917,6.37319168 23.1248374,6.05712198 23.1248374,5.66699374 L23.1248374,0.770728472 C23.1248374,0.380600237 22.8053917,0.0645305363 22.4110965,0.0645305363 Z" id="Shape"></path>
                    <path d="M32.6650485,2.78304179 C32.323542,2.58806429 31.8869633,2.70369954 31.6900783,3.0415104 L29.2158407,7.28172966 C29.0187807,7.6194539 29.1357386,8.05141871 29.4770701,8.24639621 C29.5895633,8.31058027 29.7122115,8.34115649 29.8332839,8.34115649 C30.0799811,8.34115649 30.3198499,8.21452072 30.4520403,7.98792759 L32.9262779,3.74770834 C33.123338,3.4099841 33.0063801,2.9781059 32.6650485,2.78304179 Z" id="Shape"></path>
                    <path d="M15.6064398,7.28172966 L13.1322022,3.0415104 C12.9352297,2.70369954 12.4984759,2.58815091 12.1572319,2.78304179 C11.8159004,2.97801929 11.6989425,3.4099841 11.8960026,3.74770834 L14.3702402,7.98792759 C14.5024306,8.21443411 14.7422994,8.34115649 14.9889965,8.34115649 C15.1101565,8.34115649 15.2328923,8.31066689 15.3452104,8.24639621 C15.6865419,8.05141871 15.8034998,7.61954052 15.6064398,7.28172966 Z" id="Shape"></path>
                </g>
            </g>
        </g>
    </g>
</svg>