<?xml version="1.0" encoding="UTF-8"?>
<svg width="64px" height="64px" viewBox="0 0 64 64" version="1.1" xmlns="http://www.w3.org/2000/svg" xmlns:xlink="http://www.w3.org/1999/xlink">
    <!-- Generator: Sketch 49 (51002) - http://www.bohemiancoding.com/sketch -->
    <title>design-tool</title>
    <desc>Created with Sketch.</desc>
    <defs></defs>
    <g id="Page-1" stroke="none" stroke-width="1" fill="none" fill-rule="evenodd">
        <g id="grid" transform="translate(-776.000000, -188.000000)">
            <g id="design-tool" transform="translate(776.000000, 188.000000)">
                <rect id="wrapper" fill-opacity="0.00999999978" fill="#FFFFFF" x="0" y="0" width="64" height="64"></rect>
                <g id="icon" transform="translate(10.000000, 10.000000)" fill="#6C5CE7" fill-rule="nonzero">
                    <path d="M43.5937091,43.6167315 L1.22643639,0.961021401 C1.0254796,0.758696498 0.72287051,0.69811284 0.460348428,0.807636187 C0.197652432,0.917071984 0.0263478605,1.17534047 0.0263478605,1.46153696 L0.0263478605,44.1172471 C0.0263478605,44.5082393 0.341130881,44.8250778 0.729305301,44.8250778 L6.35331265,44.8250778 L11.97732,44.8250778 L17.6013273,44.8250778 L23.2253347,44.8250778 L28.849342,44.8250778 L34.4733494,44.8250778 L43.096752,44.8250778 C43.3811002,44.8250778 43.6373614,44.6526946 43.7462311,44.3881226 C43.8549269,44.1235506 43.7947529,43.8192315 43.5937091,43.6167315 Z M35.1762199,43.4095039 L35.1762199,43.4094163 L35.1762199,41.0973444 C35.1762199,40.7063521 34.8614369,40.3896012 34.4732624,40.3896012 C34.0850011,40.3896012 33.770305,40.7064397 33.770305,41.0973444 L33.770305,43.4094163 L29.5522125,43.4094163 L29.5522125,41.0973444 C29.5522125,40.7063521 29.2374295,40.3896012 28.8492551,40.3896012 C28.4609937,40.3896012 28.1462976,40.7064397 28.1462976,41.0973444 L28.1462976,43.4094163 L23.9282921,43.4094163 L23.9282921,41.0973444 C23.9282921,40.7063521 23.6135091,40.3896012 23.2253347,40.3896012 C22.8370733,40.3896012 22.5223773,40.7064397 22.5223773,41.0973444 L22.5223773,43.4094163 L18.3043717,43.4094163 L18.3043717,41.0973444 C18.3043717,40.7063521 17.9895887,40.3896012 17.6014143,40.3896012 C17.2132399,40.3896012 16.8984569,40.7064397 16.8984569,41.0973444 L16.8984569,43.4094163 L12.6804514,43.4094163 L12.6804514,41.0973444 C12.6804514,40.7063521 12.3656683,40.3896012 11.9774939,40.3896012 C11.5893195,40.3896012 11.2745365,40.7064397 11.2745365,41.0973444 L11.2745365,43.4094163 L7.05635705,43.4094163 L7.05635705,41.0973444 C7.05635705,40.7063521 6.74157403,40.3896012 6.35339961,40.3896012 C5.96522519,40.3896012 5.65044217,40.7064397 5.65044217,41.0973444 L5.65044217,43.4094163 L1.4323497,43.4095039 L1.4323497,3.17022374 L41.3994454,43.4095039 L35.1762199,43.4094163 L35.1762199,43.4095039 Z" id="Shape"></path>
                    <path d="M30.0953437,37.9535603 L6.84957417,14.6299903 C6.64844347,14.4281031 6.34609525,14.3679572 6.08374708,14.4776556 C5.82139891,14.5873541 5.65035521,14.8453599 5.65035521,15.1313813 L5.65035521,38.4549514 C5.65035521,38.8459436 5.96513823,39.1626946 6.35331265,39.1626946 L29.5990822,39.1626946 C29.8836912,39.1626946 30.1401263,38.9899611 30.2488221,38.725214 C30.3575179,38.4604669 30.2969092,38.1557977 30.0953437,37.9535603 Z M7.05635705,37.7471206 L7.05635705,16.8359533 L27.8977756,37.7471206 L7.05635705,37.7471206 Z" id="Shape"></path>
                    <path d="M15.4738463,19.0802626 L4.97574563,8.51069066 C4.70122353,8.23438716 4.25609252,8.23438716 3.98165738,8.51069066 C3.70713528,8.78716926 3.70713528,9.23524319 3.98165738,9.51172179 L14.4797581,20.0812938 C14.6169756,20.2194455 14.7969759,20.2885214 14.9768022,20.2885214 C15.1566285,20.2885214 15.3366287,20.2194455 15.4738463,20.0812938 C15.7483684,19.8047276 15.7483684,19.3566537 15.4738463,19.0802626 Z" id="Shape"></path>
                    <path d="M19.2231556,23.232607 L17.3484575,21.3451459 C17.0739354,21.0688424 16.6288043,21.0688424 16.3543692,21.3451459 C16.0798471,21.6216245 16.0798471,22.0696984 16.3543692,22.346177 L18.2290673,24.2336381 C18.3662849,24.3717899 18.5462851,24.4408658 18.7261114,24.4408658 C18.9059377,24.4408658 19.085938,24.3717899 19.2231556,24.2336381 C19.4976777,23.957072 19.4976777,23.5089981 19.2231556,23.232607 Z" id="Shape"></path>
                    <path d="M43.59397,24.1270039 L38.2914413,18.7888132 L22.0682027,2.45512646 C22.0678549,2.45477626 22.0673332,2.45433852 22.0669854,2.45390078 L22.0649854,2.45188716 C22.061681,2.44856031 22.0581158,2.44593385 22.0548984,2.44269455 C22.041594,2.4298249 22.0281157,2.41713035 22.0138549,2.40531128 C22.007594,2.40005837 22.0008114,2.39550584 21.9943766,2.39051556 C21.9825505,2.38149805 21.9708113,2.37230545 21.9583765,2.36390078 C21.9496809,2.35803502 21.9405504,2.3529572 21.9316808,2.34744163 C21.9210721,2.34096304 21.9105504,2.33422179 21.8995069,2.32826848 C21.8885503,2.32231518 21.8773329,2.3173249 21.8661155,2.31215953 C21.8565503,2.307607 21.8472459,2.30279183 21.8374198,2.29876459 C21.8238546,2.29307393 21.8099415,2.2883463 21.7961154,2.28370623 C21.7881154,2.28099222 21.7804632,2.27784047 21.7723763,2.27530156 C21.7553328,2.27013619 21.7379414,2.26593385 21.7205501,2.26208171 C21.7155066,2.26094358 21.710724,2.2593677 21.7055936,2.25831712 L21.7024631,2.25761673 C21.7022023,2.25752918 21.7019414,2.25752918 21.7015936,2.25744163 L12.4356684,0.391780156 C12.4097553,0.386177043 12.3834944,0.382062257 12.3567988,0.379523346 C12.3530596,0.379173152 12.3494074,0.379173152 12.3457553,0.378822957 C12.3397553,0.378385214 12.3336683,0.378297665 12.3276683,0.377859922 C12.3147987,0.377159533 12.302103,0.376021401 12.2891465,0.376196498 C12.2805378,0.376196498 12.272016,0.376896887 12.2634073,0.377159533 C12.2564508,0.377422179 12.2494943,0.377859922 12.2426247,0.378297665 C12.2389725,0.378560311 12.2353203,0.378560311 12.2317551,0.378822957 C12.2283638,0.379085603 12.2249725,0.378998054 12.2215812,0.379348249 C12.2071464,0.380749027 12.1929725,0.38311284 12.1787116,0.385389105 C12.1735811,0.386264591 12.1682768,0.386877432 12.1631463,0.387840467 C12.1094941,0.397645914 12.057581,0.413492218 12.0083635,0.435116732 C12.0042766,0.436867704 12.0001896,0.43905642 11.9961026,0.44098249 C11.9819287,0.447461089 11.9677548,0.454027237 11.9541026,0.461468872 C11.9482765,0.464708171 11.9428852,0.468385214 11.937146,0.471624514 C11.931233,0.475038911 11.9254069,0.478715953 11.9195808,0.482305447 C11.9118417,0.487120623 11.9037547,0.491673152 11.8961895,0.496838521 C11.8879286,0.502441634 11.8802764,0.508657588 11.8722764,0.514610895 C11.8706242,0.515836576 11.868972,0.517062257 11.8674068,0.518287938 C11.8627981,0.521789883 11.8580155,0.525029183 11.8534937,0.528531128 C11.8494937,0.531770428 11.8453198,0.534659533 11.8414937,0.537986381 C11.834885,0.543326848 11.8290589,0.549280156 11.8226241,0.554970817 C11.8118415,0.564601167 11.800885,0.574231518 11.7906241,0.584474708 C11.7864502,0.588677043 11.7826241,0.593317121 11.7786241,0.597607004 C11.7669719,0.609951362 11.7554936,0.622558366 11.744711,0.635690661 C11.7425371,0.638317121 11.7407979,0.641206226 11.738624,0.643832685 C11.7385371,0.643920233 11.7385371,0.644007782 11.7384501,0.644095331 C11.734711,0.648910506 11.7311458,0.65381323 11.7274936,0.658715953 C11.7194936,0.669309339 11.7115805,0.679727626 11.7041892,0.690933852 C11.7033196,0.692159533 11.7027109,0.693472763 11.7018414,0.694785992 C11.6982762,0.700389105 11.6950588,0.706254864 11.6915805,0.711770428 C11.6881022,0.717461089 11.684624,0.722976654 11.6814066,0.728667315 C11.6774935,0.735583658 11.6732326,0.742237354 11.6694935,0.749328794 C11.6683631,0.751429961 11.6674935,0.753618677 11.666537,0.755632296 C11.6609718,0.76631323 11.6558413,0.777344358 11.6508848,0.788375486 C11.6488848,0.79266537 11.6466239,0.796780156 11.6447978,0.80098249 C11.6434935,0.804134241 11.6419283,0.807110895 11.6405369,0.810262646 C11.6312326,0.832412451 11.6233195,0.855087549 11.616276,0.878200389 C11.6160152,0.879250973 11.6158413,0.880389105 11.6154065,0.881439689 C11.6081891,0.905690661 11.6024499,0.930642023 11.5978412,0.955680934 C11.5966238,0.962159533 11.5958412,0.968900778 11.5948847,0.975379377 C11.5928847,0.988511673 11.5905369,1.00146887 11.5893195,1.01477626 C11.5886238,1.02195525 11.5886238,1.02895914 11.5881891,1.03613813 C11.5876673,1.04384241 11.5872325,1.05154669 11.5869717,1.05925097 C11.5867108,1.06748054 11.5860151,1.07562257 11.5860151,1.08385214 C11.5860151,1.09645914 11.5870586,1.1089786 11.5876673,1.12149805 C11.5880151,1.1282393 11.5881021,1.13480545 11.5887108,1.14154669 C11.5889717,1.14531128 11.5890586,1.14907588 11.5894064,1.15284047 C11.5919282,1.17857977 11.5956673,1.20396887 11.6009717,1.22909533 L13.4545393,10.5602043 C13.4547132,10.5610798 13.4548871,10.5618677 13.4549741,10.5627432 L13.4554089,10.5649319 C13.4580176,10.5783268 13.4616698,10.591284 13.4650611,10.6044163 C13.4688872,10.6192996 13.473235,10.6340078 13.4780176,10.6486284 C13.4824524,10.6621109 13.4868002,10.6756809 13.4920176,10.6887257 C13.4951481,10.69643 13.4988002,10.7039591 13.5021046,10.7115759 C13.5076698,10.7241829 13.5131481,10.7367899 13.519322,10.7489591 C13.5230611,10.7564008 13.527409,10.7635798 13.531409,10.7709339 C13.5381916,10.7831907 13.5450612,10.7952724 13.5526264,10.8070039 C13.5569742,10.8138327 13.561496,10.8204864 13.5661047,10.8272276 C13.5743656,10.8393093 13.5829743,10.8511284 13.5919308,10.8625973 C13.5966265,10.8686381 13.6013221,10.8745914 13.6061917,10.8804572 C13.6163656,10.892714 13.6270613,10.9045331 13.6381917,10.9160019 C13.641583,10.9195039 13.6443657,10.9232685 13.647757,10.9266829 L29.874126,27.2634339 L35.1764807,32.6017996 C35.3136983,32.7399514 35.4936986,32.8090272 35.6735249,32.8090272 C35.8533512,32.8090272 36.0333514,32.7399514 36.170569,32.6017996 L43.5937961,25.1281226 C43.7257093,24.9953113 43.7997094,24.8153113 43.7997094,24.627607 C43.7997094,24.4399027 43.7258832,24.2599027 43.59397,24.1270039 Z M21.5679412,3.95343385 L36.8000481,19.2892412 L35.4082202,20.6905447 L20.1761133,5.35473735 L21.5679412,3.95343385 Z M34.414045,21.6915759 L32.7570863,23.3598152 L17.5248925,8.02392023 L18.3524588,7.19071984 C18.3527196,7.1904572 18.3531544,7.19019455 18.3534153,7.18984436 L19.1819381,6.35568093 L34.414045,21.6915759 Z M13.5159307,3.65217899 L13.1849737,1.98621595 L13.647583,2.0793677 L14.8397585,2.31942607 L13.5159307,3.65217899 Z M13.8474094,5.32050584 L16.4968042,2.65307393 L20.1421133,3.38708171 L17.3592401,6.18881323 C17.3589792,6.18907588 17.3587183,6.18951362 17.3583705,6.18977626 L16.0345427,7.52261673 C16.0342818,7.52287938 16.033847,7.52314202 16.0335862,7.52349222 L14.5763669,8.9906323 L13.8474094,5.32050584 Z M15.1388893,10.4263424 L16.5307173,9.02503891 L31.7629111,24.3607588 L30.3710832,25.7620623 L15.1388893,10.4263424 Z M35.673351,31.1006031 L31.3651714,26.7630934 L33.2540435,24.8613619 L37.7941363,20.2903599 L42.1023159,24.6278696 L35.673351,31.1006031 Z" id="Shape"></path>
                    <path d="M39.8443999,24.3650486 L37.9697887,22.4775875 C37.6953536,22.201284 37.2502226,22.201284 36.9756135,22.4775875 C36.7010914,22.7540661 36.7010914,23.2021401 36.9756135,23.4786187 L38.8503116,25.3660798 C38.9875292,25.5042315 39.1675294,25.5733074 39.3473558,25.5733074 C39.5271821,25.5733074 39.7071823,25.5042315 39.8443999,25.3660798 C40.118922,25.0895136 40.118922,24.6414397 39.8443999,24.3650486 Z" id="Shape"></path>
                    <path d="M43.5936222,8.76650778 L38.2913544,3.42814202 L35.6402205,0.758784047 C34.6352626,-0.252928016 32.9999562,-0.252840467 31.9948244,0.758784047 L29.6087343,3.16111868 C28.6036895,4.17309339 28.6036895,5.81944553 29.6087343,6.83142023 L32.2599552,9.50060311 L37.562223,14.8390564 C37.6940493,14.9717802 37.8728321,15.046284 38.0592671,15.046284 C38.2457021,15.046284 38.4245719,14.9716926 38.5563112,14.8390564 L43.5935352,9.76753891 C43.8681443,9.49106031 43.8681443,9.04298638 43.5936222,8.76650778 Z M30.6030835,5.83030156 C30.1462133,5.37040856 30.1462133,4.6220428 30.6030835,4.16223735 L32.9890866,1.75990272 C33.4459567,1.29992218 34.1892621,1.29992218 34.6461322,1.75990272 L36.800222,3.92865759 L32.7572602,7.99914397 L30.6030835,5.83030156 Z M38.059441,13.3375973 L33.7513484,9 L37.7943103,4.92960117 L42.1024898,9.26702335 L38.059441,13.3375973 Z" id="Shape"></path>
                    <path d="M40.4123137,8.76650778 L38.2914413,6.63110895 C38.0169192,6.35480545 37.5717882,6.35480545 37.2973531,6.63110895 C37.022831,6.90758755 37.022831,7.35566148 37.2973531,7.63214008 L39.4182254,9.76753891 C39.555443,9.90569066 39.7354432,9.97476654 39.9152695,9.97476654 C40.0950959,9.97476654 40.2750961,9.90569066 40.4123137,9.76753891 C40.6868358,9.49106031 40.6868358,9.04298638 40.4123137,8.76650778 Z" id="Shape"></path>
                </g>
            </g>
        </g>
    </g>
</svg>