<?xml version="1.0" encoding="UTF-8"?>
<svg width="64px" height="64px" viewBox="0 0 64 64" version="1.1" xmlns="http://www.w3.org/2000/svg" xmlns:xlink="http://www.w3.org/1999/xlink">
    <!-- Generator: Sketch 49 (51002) - http://www.bohemiancoding.com/sketch -->
    <title>grid</title>
    <desc>Created with Sketch.</desc>
    <defs></defs>
    <g id="Page-1" stroke="none" stroke-width="1" fill="none" fill-rule="evenodd">
        <g id="grid" transform="translate(-104.000000, -272.000000)">
            <g transform="translate(104.000000, 272.000000)">
                <rect id="wrapper" fill-opacity="0.00999999978" fill="#FFFFFF" x="0" y="0" width="64" height="64"></rect>
                <g id="icon" transform="translate(9.000000, 10.000000)" fill="#6C5CE7" fill-rule="nonzero">
                    <path d="M22.9091208,25.5402335 C22.5128646,25.5402335 22.1916895,25.859433 22.1916895,26.2532518 L22.1916895,28.9324291 C22.1916895,29.326159 22.5127752,29.6454475 22.9091208,29.6454475 C23.305377,29.6454475 23.6265522,29.3262479 23.6265522,28.9324291 L23.6265522,26.2532518 C23.6265522,25.859433 23.305377,25.5402335 22.9091208,25.5402335 Z" id="Shape"></path>
                    <path d="M22.9091208,14.8237021 C22.5128646,14.8237021 22.1916895,15.1429016 22.1916895,15.5367204 L22.1916895,18.2158977 C22.1916895,18.6096276 22.5127752,18.9289161 22.9091208,18.9289161 C23.305377,18.9289161 23.6265522,18.6097165 23.6265522,18.2158977 L23.6265522,15.5367204 C23.6265522,15.1429906 23.305377,14.8237021 22.9091208,14.8237021 Z" id="Shape"></path>
                    <path d="M22.9091208,30.8984992 C22.5128646,30.8984992 22.1916895,31.2176987 22.1916895,31.6115175 L22.1916895,34.2906948 C22.1916895,34.6844247 22.5127752,35.0037132 22.9091208,35.0037132 C23.305377,35.0037132 23.6265522,34.6845136 23.6265522,34.2906948 L23.6265522,31.6115175 C23.6265522,31.2176987 23.305377,30.8984992 22.9091208,30.8984992 Z" id="Shape"></path>
                    <path d="M22.9091208,9.46543635 C22.5128646,9.46543635 22.1916895,9.78463591 22.1916895,10.1784547 L22.1916895,12.857632 C22.1916895,13.2513619 22.5127752,13.5706504 22.9091208,13.5706504 C23.305377,13.5706504 23.6265522,13.2514508 23.6265522,12.857632 L23.6265522,10.1784547 C23.6265522,9.78472485 23.305377,9.46543635 22.9091208,9.46543635 Z" id="Shape"></path>
                    <path d="M13.4741426,21.5215564 L10.7783834,21.5215564 C10.3821272,21.5215564 10.0609521,21.840756 10.0609521,22.2345748 C10.0609521,22.6283936 10.3820377,22.9475931 10.7783834,22.9475931 L13.4741426,22.9475931 C13.8703988,22.9475931 14.1915739,22.6283936 14.1915739,22.2345748 C14.1915739,21.840756 13.8703988,21.5215564 13.4741426,21.5215564 Z" id="Shape"></path>
                    <path d="M18.8655715,21.5215564 L16.1697228,21.5215564 C15.7734666,21.5215564 15.4522915,21.840756 15.4522915,22.2345748 C15.4522915,22.6283936 15.7733771,22.9475931 16.1697228,22.9475931 L18.8655715,22.9475931 C19.2618277,22.9475931 19.5830029,22.6283936 19.5830029,22.2345748 C19.5830029,21.840756 19.2618277,21.5215564 18.8655715,21.5215564 Z" id="Shape"></path>
                    <path d="M24.2570004,21.5215564 L23.6265522,21.5215564 L23.6265522,20.8949861 C23.6265522,20.5012563 23.3054665,20.1819678 22.9091208,20.1819678 C22.5128646,20.1819678 22.1916895,20.5011673 22.1916895,20.8949861 L22.1916895,21.5215564 L21.5612412,21.5215564 C21.164985,21.5215564 20.8438099,21.840756 20.8438099,22.2345748 C20.8438099,22.6283936 21.1648956,22.9475931 21.5612412,22.9475931 L22.1916895,22.9475931 L22.1916895,23.5741634 C22.1916895,23.9678933 22.5127752,24.2871818 22.9091208,24.2871818 C23.305377,24.2871818 23.6265522,23.9679822 23.6265522,23.5741634 L23.6265522,22.9475931 L24.2570004,22.9475931 C24.6532566,22.9475931 24.9744318,22.6283936 24.9744318,22.2345748 C24.9744318,21.840756 24.6531672,21.5215564 24.2570004,21.5215564 Z" id="Shape"></path>
                    <path d="M35.0397688,21.5215564 L32.3439201,21.5215564 C31.9476639,21.5215564 31.6264888,21.840756 31.6264888,22.2345748 C31.6264888,22.6283936 31.9475744,22.9475931 32.3439201,22.9475931 L35.0397688,22.9475931 C35.436025,22.9475931 35.7572001,22.6283936 35.7572001,22.2345748 C35.7572001,21.840756 35.436025,21.5215564 35.0397688,21.5215564 Z" id="Shape"></path>
                    <path d="M29.6483399,21.5215564 L26.9525807,21.5215564 C26.5563245,21.5215564 26.2351493,21.840756 26.2351493,22.2345748 C26.2351493,22.6283936 26.556235,22.9475931 26.9525807,22.9475931 L29.6483399,22.9475931 C30.0445961,22.9475931 30.3657712,22.6283936 30.3657712,22.2345748 C30.3657712,21.840756 30.0445961,21.5215564 29.6483399,21.5215564 Z" id="Shape"></path>
                    <path d="M39.3616281,5.36040022 L6.45661355,5.36040022 C6.06035735,5.36040022 5.73918221,5.67959978 5.73918221,6.07341857 L5.73918221,38.395731 C5.73918221,38.7894608 6.06026786,39.1087493 6.45661355,39.1087493 L39.3616281,39.1087493 C39.7578843,39.1087493 40.0790595,38.7895497 40.0790595,38.395731 L40.0790595,6.07341857 C40.07897,5.67968872 39.7578843,5.36040022 39.3616281,5.36040022 Z M38.6441968,21.5215564 L37.735528,21.5215564 C37.3392718,21.5215564 37.0180967,21.840756 37.0180967,22.2345748 C37.0180967,22.6283936 37.3391823,22.9475931 37.735528,22.9475931 L38.6441968,22.9475931 L38.6441968,37.6827126 L23.6265522,37.6827126 L23.6265522,36.9696943 C23.6265522,36.5759644 23.3054665,36.2566759 22.9091208,36.2566759 C22.5128646,36.2566759 22.1916895,36.5758755 22.1916895,36.9696943 L22.1916895,37.6827126 L7.17404489,37.6827126 L7.17404489,22.9475931 L8.08280317,22.9475931 C8.47905937,22.9475931 8.80023451,22.6283936 8.80023451,22.2345748 C8.80023451,21.840756 8.47914886,21.5215564 8.08280317,21.5215564 L7.17404489,21.5215564 L7.17404489,6.78643691 L22.1916895,6.78643691 L22.1916895,7.49945525 C22.1916895,7.8931851 22.5127752,8.2124736 22.9091208,8.2124736 C23.305377,8.2124736 23.6265522,7.89327404 23.6265522,7.49945525 L23.6265522,6.78643691 L38.6441968,6.78643691 L38.6441968,21.5215564 Z" id="Shape"></path>
                    <path d="M39.3616281,0.0367315175 C38.9653719,0.0367315175 38.6441968,0.355931073 38.6441968,0.749749861 L38.6441968,3.79188438 C38.6441968,4.18561423 38.9652824,4.50490272 39.3616281,4.50490272 C39.7578843,4.50490272 40.0790595,4.18570317 40.0790595,3.79188438 L40.0790595,0.749749861 C40.07897,0.356020011 39.7578843,0.0367315175 39.3616281,0.0367315175 Z" id="Shape"></path>
                    <path d="M45.1008104,5.36040022 L42.0398475,5.36040022 C41.6435913,5.36040022 41.3224162,5.67959978 41.3224162,6.07341857 C41.3224162,6.46723735 41.6435019,6.78643691 42.0398475,6.78643691 L45.1008104,6.78643691 C45.4970666,6.78643691 45.8182417,6.46723735 45.8182417,6.07341857 C45.8182417,5.67959978 45.497156,5.36040022 45.1008104,5.36040022 Z" id="Shape"></path>
                    <path d="M6.45661355,0.0367315175 C6.06035735,0.0367315175 5.73918221,0.355931073 5.73918221,0.749749861 L5.73918221,3.79188438 C5.73918221,4.18561423 6.06026786,4.50490272 6.45661355,4.50490272 C6.85286975,4.50490272 7.17404489,4.18570317 7.17404489,3.79188438 L7.17404489,0.749749861 C7.17404489,0.356020011 6.85295924,0.0367315175 6.45661355,0.0367315175 Z" id="Shape"></path>
                    <path d="M3.77830465,5.36040022 L0.717431335,5.36040022 C0.321085647,5.36040022 0,5.67968872 0,6.07341857 C0,6.46714842 0.321085647,6.78643691 0.717431335,6.78643691 L3.77839414,6.78643691 C4.17465034,6.78643691 4.49582548,6.46723735 4.49582548,6.07341857 C4.49582548,5.67959978 4.17465034,5.36040022 3.77830465,5.36040022 Z" id="Shape"></path>
                    <path d="M39.3616281,39.9643357 C38.9653719,39.9643357 38.6441968,40.2835353 38.6441968,40.6773541 L38.6441968,43.7194886 C38.6441968,44.1132185 38.9652824,44.4325069 39.3616281,44.4325069 C39.7578843,44.4325069 40.0790595,44.1133074 40.0790595,43.7194886 L40.0790595,40.6773541 C40.07897,40.2835353 39.7578843,39.9643357 39.3616281,39.9643357 Z" id="Shape"></path>
                    <path d="M45.1008104,37.6827126 L42.0398475,37.6827126 C41.6435913,37.6827126 41.3224162,38.0019122 41.3224162,38.395731 C41.3224162,38.7895497 41.6435019,39.1087493 42.0398475,39.1087493 L45.1008104,39.1087493 C45.4970666,39.1087493 45.8182417,38.7895497 45.8182417,38.395731 C45.8182417,38.0019122 45.497156,37.6827126 45.1008104,37.6827126 Z" id="Shape"></path>
                    <path d="M6.45661355,39.9643357 C6.06035735,39.9643357 5.73918221,40.2835353 5.73918221,40.6773541 L5.73918221,43.7194886 C5.73918221,44.1132185 6.06026786,44.4325069 6.45661355,44.4325069 C6.85286975,44.4325069 7.17404489,44.1133074 7.17404489,43.7194886 L7.17404489,40.6773541 C7.17404489,40.2835353 6.85295924,39.9643357 6.45661355,39.9643357 Z" id="Shape"></path>
                    <path d="M3.77830465,37.6827126 L0.717431335,37.6827126 C0.321175136,37.6827126 0,38.0019122 0,38.395731 C0,38.7895497 0.321085647,39.1087493 0.717431335,39.1087493 L3.77839414,39.1087493 C4.17465034,39.1087493 4.49582548,38.7895497 4.49582548,38.395731 C4.49582548,38.0019122 4.17465034,37.6827126 3.77830465,37.6827126 Z" id="Shape"></path>
                </g>
            </g>
        </g>
    </g>
</svg>