<?xml version="1.0" encoding="UTF-8"?>
<svg width="64px" height="64px" viewBox="0 0 64 64" version="1.1" xmlns="http://www.w3.org/2000/svg" xmlns:xlink="http://www.w3.org/1999/xlink">
    <!-- Generator: Sketch 49 (51002) - http://www.bohemiancoding.com/sketch -->
    <title>headphones</title>
    <desc>Created with Sketch.</desc>
    <defs></defs>
    <g id="Page-1" stroke="none" stroke-width="1" fill="none" fill-rule="evenodd">
        <g id="grid" transform="translate(-188.000000, -356.000000)">
            <g id="headphones" transform="translate(188.000000, 356.000000)">
                <rect id="wrapper" fill-opacity="0.00999999978" fill="#FFFFFF" x="0" y="0" width="64" height="64"></rect>
                <g id="icon" transform="translate(10.000000, 10.000000)" fill="#6C5CE7" fill-rule="nonzero">
                    <path d="M42.5739923,32.3254086 C42.4527448,31.958142 42.0572239,31.7584436 41.6893668,31.8796984 C41.3220349,32.0007782 41.1225236,32.3968482 41.2436836,32.7642023 C41.4185952,33.2943093 41.5071891,33.84893 41.5071891,34.4125681 C41.5071891,34.6332782 41.4934448,34.8553891 41.4661313,35.0725973 C41.4181575,35.4564105 41.6902422,35.8065175 42.0741198,35.8545817 C42.1036219,35.8582588 42.1329489,35.8600973 42.1620133,35.8600973 C42.5099981,35.8600973 42.8116725,35.6009533 42.8561445,35.246644 C42.890549,34.9718288 42.9079702,34.6911479 42.9079702,34.4125681 C42.9078826,33.699572 42.7955645,32.9973444 42.5739923,32.3254086 Z" id="Shape"></path>
                    <path d="M3.13273862,31.8795233 C2.76540674,31.7582685 2.36944819,31.9579669 2.24837575,32.325321 C2.02671599,32.9974319 1.91439788,33.699572 1.91439788,34.412393 C1.91439788,34.6912354 1.93190655,34.9718288 1.96631109,35.246644 C2.01078311,35.6009533 2.31236993,35.8600097 2.66044227,35.8600097 C2.68950666,35.8600097 2.71883368,35.8581712 2.74842334,35.8544942 C3.13221336,35.8063424 3.40429808,35.4562354 3.35623678,35.0724222 C3.3290108,34.8553016 3.3152665,34.6331907 3.3152665,34.4124805 C3.3152665,33.8490175 3.40386036,33.2943969 3.57877197,32.7641148 C3.69958179,32.3967607 3.49998296,32.0006907 3.13273862,31.8795233 Z" id="Shape"></path>
                    <path d="M40.666773,27.1093482 L40.666773,24.7003599 C40.666773,24.31357 40.3532802,23.9999708 39.9664262,23.9999708 L38.5190721,23.9999708 L38.5190721,16.1089494 C38.5190721,7.22643969 31.2930692,0 22.4110965,0 C13.5291237,0 6.30312088,7.22643969 6.30312088,16.1089494 L6.30312088,23.9999708 L4.85576675,23.9999708 C4.46900025,23.9999708 4.15541999,24.31357 4.15541999,24.7003599 L4.15541999,27.1093482 C1.61097265,28.6563327 0.0467481466,31.4163035 0.0467481466,34.4124805 C0.0467481466,37.4086576 1.61106019,40.1685409 4.15541999,41.7156128 L4.15541999,44.1245136 C4.15541999,44.5113035 4.46900025,44.8249027 4.85576675,44.8249027 L11.9526431,44.8249027 C12.3394097,44.8249027 12.6529899,44.5113035 12.6529899,44.1245136 L12.6529899,24.7003599 C12.6529899,24.31357 12.3394097,23.9999708 11.9526431,23.9999708 L10.8787489,23.9999708 L10.8787489,16.1089494 C10.8787489,9.74959144 16.0521229,4.57590467 22.4110965,4.57590467 C28.7701576,4.57590467 33.943444,9.74959144 33.943444,16.1089494 L33.943444,23.9999708 L32.8695498,23.9999708 C32.4826958,23.9999708 32.169203,24.31357 32.169203,24.7003599 L32.169203,44.1245136 C32.169203,44.5113035 32.4826958,44.8249027 32.8695498,44.8249027 L39.9664262,44.8249027 C40.3532802,44.8249027 40.666773,44.5113035 40.666773,44.1245136 L40.666773,41.7155253 C43.2112203,40.1685409 44.7754448,37.40857 44.7754448,34.412393 C44.7755324,31.4163035 43.2112203,28.6565078 40.666773,27.1093482 Z M4.15541999,40.013142 C2.46101853,38.6707588 1.44744168,36.6179183 1.44744168,34.4124805 C1.44744168,32.2070428 2.46110608,30.1542023 4.15541999,28.8118191 L4.15541999,40.013142 Z M11.2522088,25.400749 L11.2522088,43.4241245 L5.55611352,43.4241245 L5.55611352,41.3148152 C5.55611352,41.3131518 5.55611352,41.3114008 5.55611352,41.3096498 L5.55611352,27.5153113 C5.55611352,27.5136479 5.55611352,27.5118969 5.55611352,27.5101459 L5.55611352,25.400749 L7.00346765,25.400749 L10.1784022,25.400749 L11.2522088,25.400749 Z M22.4110965,3.17512646 C15.2798155,3.17512646 9.4780554,8.97723735 9.4780554,16.1089494 L9.4780554,23.9999708 L7.70381441,23.9999708 L7.70381441,16.1089494 C7.70381441,7.99879377 14.3014311,1.40077821 22.4110965,1.40077821 C30.5207618,1.40077821 37.1183785,7.99879377 37.1183785,16.1089494 L37.1183785,23.9999708 L35.3441376,23.9999708 L35.3441376,16.1089494 C35.3441376,8.97723735 29.5423774,3.17512646 22.4110965,3.17512646 Z M39.2660794,27.5102335 C39.2660794,27.5118969 39.2660794,27.5134728 39.2660794,27.5152237 L39.2660794,41.3098249 C39.2660794,41.3114008 39.2660794,41.3130642 39.2660794,41.3148152 L39.2660794,43.4241245 L33.5698966,43.4241245 L33.5698966,25.400749 L34.6437908,25.400749 L37.8187253,25.400749 L39.2660794,25.400749 L39.2660794,27.5102335 Z M40.666773,40.013142 L40.666773,28.8117315 C42.3611744,30.1541148 43.3747513,32.2069553 43.3747513,34.412393 C43.3747513,36.6178307 42.3611744,38.6707588 40.666773,40.013142 Z" id="Shape"></path>
                </g>
            </g>
        </g>
    </g>
</svg>