<?xml version="1.0" encoding="UTF-8"?>
<svg width="64px" height="64px" viewBox="0 0 64 64" version="1.1" xmlns="http://www.w3.org/2000/svg" xmlns:xlink="http://www.w3.org/1999/xlink">
    <!-- Generator: Sketch 49 (51002) - http://www.bohemiancoding.com/sketch -->
    <title>image</title>
    <desc>Created with Sketch.</desc>
    <defs></defs>
    <g id="Page-1" stroke="none" stroke-width="1" fill="none" fill-rule="evenodd">
        <g id="grid" transform="translate(-776.000000, -356.000000)">
            <g id="image" transform="translate(776.000000, 356.000000)">
                <rect id="wrapper" fill-opacity="0.00999999978" fill="#FFFFFF" x="0" y="0" width="64" height="64"></rect>
                <g id="icon" transform="translate(10.000000, 10.000000)" fill="#6C5CE7" fill-rule="nonzero">
                    <path d="M43.0960563,0 L0.73008791,0 C0.341826534,0 0.0271304702,0.31692607 0.0271304702,0.707743191 L0.0271304702,35.8127335 L0.0271304702,38.4550389 L0.0271304702,44.1171595 C0.0271304702,44.5080642 0.34191349,44.8249027 0.73008791,44.8249027 L43.0960563,44.8249027 C43.4843177,44.8249027 43.7990138,44.5079767 43.7990138,44.1171595 L43.7990138,38.4550389 L43.7990138,36.1901556 L43.7990138,0.707743191 C43.7990138,0.31692607 43.4843177,0 43.0960563,0 Z M42.3930989,43.4094163 L1.43304535,43.4094163 L1.43304535,39.1628696 L42.3930989,39.1628696 L42.3930989,43.4094163 Z M42.3930989,37.7472957 L1.43304535,37.7472957 L1.43304535,36.0370331 L12.3585379,20.4243969 L23.7794224,36.4147179 C23.8975964,36.5801848 24.080988,36.6862938 24.2824665,36.7059047 C24.483945,36.725428 24.6841192,36.6567023 24.8315977,36.5171498 L33.7180441,28.106965 L42.3930119,36.4917607 L42.3930989,37.7472957 Z M42.3930989,34.5297082 L34.2098708,26.6203016 C33.9399574,26.3593191 33.5142177,26.3571304 33.2416087,26.6151362 L24.4527276,34.9329572 L12.9232343,18.7907393 C12.7911471,18.605749 12.5787121,18.4962257 12.3525379,18.4962257 C12.3514074,18.4962257 12.350277,18.4962257 12.3491466,18.4962257 C12.121668,18.4973638 11.9088851,18.6091634 11.7778415,18.7963424 L1.43304535,33.5793677 L1.43304535,1.41548638 L42.3930989,1.41548638 L42.3930989,34.5297082 Z" id="Shape"></path>
                    <path d="M28.8490812,13.589037 C25.5672508,13.589037 22.8972473,16.2772179 22.8972473,19.5813911 C22.8972473,22.8855642 25.5672508,25.5737451 28.8490812,25.5737451 C32.1309115,25.5737451 34.800915,22.8855642 34.800915,19.5813911 C34.801002,16.2772179 32.1309985,13.589037 28.8490812,13.589037 Z M28.8490812,24.1582588 C26.3424692,24.1582588 24.3031622,22.1050681 24.3031622,19.5813911 C24.3031622,17.057714 26.3424692,15.0045233 28.8490812,15.0045233 C31.3556931,15.0045233 33.3950002,17.057714 33.3950002,19.5813911 C33.3950002,22.1050681 31.3556931,24.1582588 28.8490812,24.1582588 Z" id="Shape"></path>
                    <path d="M36.7223958,4.90718872 C35.8223077,4.90718872 35.0148284,5.31481518 34.4728277,5.95645914 C33.9309139,5.31481518 33.1234346,4.90718872 32.2233465,4.90718872 C31.3231714,4.90718872 30.515779,5.31481518 29.9738653,5.95645914 C29.4319515,5.31481518 28.6244722,4.90718872 27.7242971,4.90718872 C26.096295,4.90718872 24.7717715,6.24072957 24.7717715,7.87981518 C24.7717715,8.27071984 25.0865545,8.58755837 25.4747289,8.58755837 C25.8629903,8.58755837 26.1776864,8.2706323 26.1776864,7.87981518 C26.1776864,7.02122568 26.8715134,6.32276265 27.7242101,6.32276265 C28.5769939,6.32276265 29.2707339,7.02131323 29.2707339,7.87981518 C29.2707339,8.27071984 29.5855169,8.58755837 29.9736913,8.58755837 C30.3619527,8.58755837 30.6766488,8.2706323 30.6766488,7.87981518 C30.6766488,7.02122568 31.3704758,6.32276265 32.2231725,6.32276265 C33.0758693,6.32276265 33.7696963,7.02131323 33.7696963,7.87981518 C33.7696963,8.27071984 34.0844793,8.58755837 34.4726537,8.58755837 C34.8609151,8.58755837 35.1756112,8.2706323 35.1756112,7.87981518 C35.1756112,7.02122568 35.8694382,6.32276265 36.7221349,6.32276265 C37.5749187,6.32276265 38.2686587,7.02131323 38.2686587,7.87981518 C38.2686587,8.27071984 38.5834417,8.58755837 38.9716161,8.58755837 C39.3598775,8.58755837 39.6745736,8.2706323 39.6745736,7.87981518 C39.6749214,6.24064202 38.3503979,4.90718872 36.7223958,4.90718872 Z" id="Shape"></path>
                    <path d="M12.3526248,10.9467315 C11.4524497,10.9467315 10.6450574,11.354358 10.1031436,11.9960019 C9.56122988,11.354358 8.75383753,10.9467315 7.85357548,10.9467315 C6.22557335,10.9467315 4.90104988,12.2802724 4.90104988,13.919358 C4.90104988,14.3102626 5.2158329,14.6271012 5.60400732,14.6271012 C5.9922687,14.6271012 6.30696476,14.3101751 6.30696476,13.919358 C6.30696476,13.0607685 7.00079176,12.3623054 7.85348852,12.3623054 C8.70618529,12.3623054 9.40001228,13.060856 9.40001228,13.919358 C9.40001228,14.3102626 9.7147953,14.6271012 10.1029697,14.6271012 C10.4912311,14.6271012 10.8059272,14.3101751 10.8059272,13.919358 C10.8059272,13.0607685 11.4997542,12.3623054 12.3524509,12.3623054 C13.2051477,12.3623054 13.8989747,13.060856 13.8989747,13.919358 C13.8989747,14.3102626 14.2137577,14.6271012 14.6019321,14.6271012 C14.9901935,14.6271012 15.3048896,14.3101751 15.3048896,13.919358 C15.3050635,12.2802724 13.980627,10.9467315 12.3526248,10.9467315 Z" id="Shape"></path>
                </g>
            </g>
        </g>
    </g>
</svg>