<?xml version="1.0" encoding="UTF-8"?>
<svg width="64px" height="64px" viewBox="0 0 64 64" version="1.1" xmlns="http://www.w3.org/2000/svg" xmlns:xlink="http://www.w3.org/1999/xlink">
    <!-- Generator: Sketch 49 (51002) - http://www.bohemiancoding.com/sketch -->
    <title>layout</title>
    <desc>Created with Sketch.</desc>
    <defs></defs>
    <g id="Page-1" stroke="none" stroke-width="1" fill="none" fill-rule="evenodd">
        <g id="grid" transform="translate(-272.000000, -104.000000)">
            <g id="layout" transform="translate(272.000000, 104.000000)">
                <rect id="wrapper" fill-opacity="0.00999999978" fill="#FFFFFF" x="0" y="0" width="64" height="64"></rect>
                <g id="icon" transform="translate(10.000000, 10.000000)" fill="#6C5CE7" fill-rule="nonzero">
                    <path d="M40.6217053,35.5269747 L40.6217053,15.5933755 C40.6217053,14.4101556 39.6655301,13.4474708 38.4903112,13.4474708 C37.3150922,13.4474708 36.3589171,14.4101556 36.3589171,15.5933755 L36.3589171,35.9085992 C35.5955248,36.3816245 34.9843935,37.0563619 34.5865669,37.8627724 L23.9496835,37.8627724 L23.9496835,30.852928 C23.9496835,29.6697082 22.9935083,28.7070233 21.8182894,28.7070233 C20.6430705,28.7070233 19.6868953,29.6697082 19.6868953,30.852928 L19.6868953,37.8627724 L9.14496847,37.8627724 C8.66488089,36.8892315 7.87627116,36.1124125 6.89879162,35.6507685 L6.89879162,24.9875195 L12.3455813,24.9875195 C13.5208003,24.9875195 14.4769754,24.0248346 14.4769754,22.8416148 C14.4769754,21.6583949 13.5208003,20.6957101 12.3455813,20.6957101 L6.89879162,20.6957101 L6.89879162,10.7002821 C7.84018416,10.2544844 8.61096777,9.51145914 9.09549015,8.58353113 L27.501949,8.58353113 C28.6771679,8.58353113 29.6333431,7.6208463 29.6333431,6.43762646 C29.6333431,5.25440661 28.6771679,4.29172179 27.501949,4.29172179 L9.18992505,4.29172179 C8.40835881,2.61840467 6.72887836,1.52597276 4.86209331,1.52597276 C2.22435073,1.52597276 0.0783479285,3.68649805 0.0783479285,6.34228599 C0.0783479285,8.1543677 1.06774053,9.77804475 2.63600344,10.6048541 L2.63600344,35.7460214 C1.06782748,36.5728307 0.0783479285,38.1965953 0.0783479285,40.0085895 C0.0784348851,42.6643774 2.22435073,44.8249027 4.86218027,44.8249027 C6.68096525,44.8249027 8.34314134,43.7700292 9.14435977,42.1544942 L34.5871756,42.1544942 C35.3883071,43.7700292 37.0504832,44.8249027 38.8691812,44.8249027 C41.5069238,44.8249027 43.6529266,42.6643774 43.6529266,40.0085895 C43.6529266,38.0128307 42.430925,36.243035 40.6217053,35.5269747 Z M9.60583864,5.72235409 L27.501949,5.72235409 C27.8937756,5.72235409 28.2123847,6.04321984 28.2123847,6.43762646 C28.2123847,6.83203307 27.8936886,7.15289883 27.501949,7.15289883 L9.57662121,7.15289883 C9.62183866,6.88631323 9.64583869,6.61578794 9.64583869,6.34219844 C9.64583869,6.13427043 9.63227346,5.927393 9.60583864,5.72235409 Z M12.3455813,22.1263424 C12.7374079,22.1263424 13.0560171,22.4472082 13.0560171,22.8416148 C13.0560171,23.2361089 12.737321,23.5568872 12.3455813,23.5568872 L6.18835591,23.5568872 C5.79592062,23.5568872 5.4779202,23.8770525 5.4779202,24.2721595 L5.4779202,35.2326362 C5.27426776,35.2060214 5.06878923,35.1922763 4.86218027,35.1922763 C4.59052774,35.1922763 4.32174478,35.2165272 4.05696182,35.261965 L4.05696182,11.088823 C4.32174478,11.1343482 4.59044078,11.1585117 4.86218027,11.1585117 C5.06878923,11.1585117 5.27426776,11.1447665 5.4779202,11.1181518 L5.4779202,21.4109825 C5.4779202,21.8060895 5.79592062,22.1262549 6.18835591,22.1262549 L12.3455813,22.1262549 L12.3455813,22.1263424 Z M1.49930631,6.34228599 C1.49930631,4.47539883 3.00783002,2.95660506 4.86209331,2.95660506 C6.29679084,2.95660506 7.57453164,3.87420233 8.04157572,5.23987354 C8.16322806,5.59558366 8.22488031,5.96652724 8.22488031,6.34228599 C8.22488031,6.77600195 8.14366281,7.19973735 7.98340174,7.6019358 L7.98340174,7.60211089 C7.61905343,8.51568093 6.88053073,9.22333658 5.95696431,9.5434144 C5.6036595,9.66589494 5.23522423,9.72796693 4.86200635,9.72796693 C4.43122318,9.72796693 4.01035307,9.6461965 3.61087428,9.48484436 C3.61070037,9.48475681 3.61061341,9.48475681 3.6104395,9.48466926 C2.32800304,8.96611868 1.49930631,7.73290856 1.49930631,6.34228599 Z M8.01444525,41.1896206 C8.01444525,41.1897082 8.0143583,41.1898833 8.0143583,41.1899708 C7.52661853,42.5083658 6.25992122,43.3942704 4.86209331,43.3942704 C3.00783002,43.3942704 1.49930631,41.8754767 1.49930631,40.0085895 C1.49930631,38.6179669 2.32800304,37.3846693 3.61052646,36.8662062 C3.61070037,36.8661187 3.61087428,36.8661187 3.61096124,36.8660311 C4.01044002,36.704679 4.43131014,36.6229086 4.86209331,36.6229086 C5.23531119,36.6229086 5.60374645,36.6849805 5.95705126,36.8074611 C6.91218294,37.13857 7.66201001,37.8748541 8.01444525,38.8276459 C8.15418457,39.2054183 8.22505423,39.602714 8.22505423,40.008677 C8.22505423,40.4146401 8.15418457,40.8118482 8.01444525,41.1896206 Z M34.1390881,40.7238619 L9.5922734,40.7238619 C9.62722997,40.4881809 9.64592565,40.2494358 9.64592565,40.0085895 C9.64592565,39.7677432 9.62722997,39.5289981 9.5922734,39.2933171 L20.397418,39.2933171 C20.7898533,39.2933171 21.1078537,38.9731518 21.1078537,38.5780447 L21.1078537,30.852928 C21.1078537,30.4584339 21.4265497,30.1376556 21.8182894,30.1376556 C22.210116,30.1376556 22.5287251,30.4585214 22.5287251,30.852928 L22.5287251,38.5780447 C22.5287251,38.9731518 22.8467255,39.2933171 23.2391608,39.2933171 L34.1390011,39.2933171 C34.1040446,39.5289981 34.0853489,39.7677432 34.0853489,40.0085895 C34.0853489,40.2494358 34.1041315,40.4882685 34.1390881,40.7238619 Z M37.7798755,15.5933755 C37.7798755,15.1988813 38.0985715,14.8781031 38.4903112,14.8781031 C38.8821378,14.8781031 39.2007469,15.1989689 39.2007469,15.5933755 L39.2007469,35.2045331 C39.0904859,35.1968288 38.979964,35.1923638 38.8691812,35.1923638 C38.4978764,35.1923638 38.1338759,35.2342996 37.7797885,35.3175584 L37.7797885,15.5933755 L37.7798755,15.5933755 Z M38.8691812,43.394358 C37.4713533,43.394358 36.204656,42.5084533 35.7170032,41.1900584 C35.7170032,41.1899708 35.7169162,41.1897957 35.7169162,41.1897082 C35.5771769,40.8119358 35.5063073,40.4146401 35.5063073,40.008677 C35.5063073,39.602714 35.5771769,39.2054183 35.7169162,38.8276459 C36.0173514,38.015107 36.6093522,37.3556907 37.383788,36.9709144 C37.8484842,36.7400486 38.348311,36.6229086 38.8690943,36.6229086 C39.1597033,36.6229086 39.4493559,36.6607296 39.729791,36.7352335 C41.2030973,37.1266634 42.2318813,38.4727237 42.2318813,40.0085895 C42.2320552,41.8755642 40.7235315,43.394358 38.8691812,43.394358 Z" id="Shape"></path>
                    <path d="M43.5396221,3.98600195 L39.7886607,0.209416342 C39.6553562,0.0753793774 39.4746603,0 39.2861383,0 C39.0977033,0 38.9170074,0.0754669261 38.7837029,0.20959144 L21.7099414,17.4081712 L17.9542843,21.1893969 C17.9507191,21.1929864 17.9475887,21.1971012 17.9440234,21.2008658 C17.9331539,21.2123346 17.9225452,21.2239786 17.9123712,21.2361479 C17.908893,21.2403502 17.9052408,21.2445525 17.9018495,21.2487549 C17.8989799,21.2522568 17.8965451,21.2560214 17.8937625,21.2596109 C17.8859364,21.2699416 17.8781973,21.2802724 17.8708929,21.2910409 C17.8658494,21.2983949 17.8609799,21.3058366 17.8562842,21.3133658 C17.8538494,21.317393 17.8513277,21.3212451 17.8489798,21.3252724 C17.8443711,21.3330642 17.8397624,21.3410311 17.8353277,21.3490856 C17.8292407,21.3600292 17.8236755,21.371323 17.8181972,21.3825292 C17.8161102,21.3868191 17.8137624,21.3910214 17.8117624,21.3953113 C17.8094146,21.4004767 17.8072407,21.4057296 17.8050667,21.4109825 C17.7990667,21.4249027 17.7936754,21.4389981 17.7887189,21.453356 C17.7868058,21.4586965 17.784458,21.4636868 17.7826319,21.4690272 L16.8448916,24.3014883 L15.9644556,26.9606907 L14.9125412,28.0197665 C14.6350626,28.2992218 14.6350626,28.7520233 14.9125412,29.0313911 C15.051324,29.1710311 15.2331503,29.2408074 15.4149767,29.2408074 C15.596716,29.2408074 15.7786293,29.1710311 15.9174121,29.0313911 L16.9521961,27.9895623 L22.4323771,26.150428 C22.4380293,26.1485019 22.4432467,26.1460506 22.448725,26.1439494 C22.4623772,26.1389591 22.4760294,26.1338813 22.4893337,26.127928 C22.494725,26.1256518 22.5001164,26.123463 22.5053338,26.1209241 C22.5097685,26.118823 22.5140294,26.1163716 22.5184642,26.1142704 C22.5294207,26.10893 22.5402903,26.1034144 22.5510729,26.0973735 C22.558986,26.0929086 22.566986,26.0884436 22.5747251,26.0836284 C22.5788991,26.081177 22.582986,26.0785506 22.587073,26.0759241 C22.5944643,26.0711965 22.6018556,26.0662938 22.60916,26.061216 C22.6195948,26.0539494 22.6296817,26.0465078 22.6396818,26.0388035 C22.6435078,26.0358268 22.6474209,26.0332004 22.65116,26.0301362 C22.6555079,26.0266342 22.6597687,26.0228696 22.6640296,26.0191926 C22.6755079,26.0095623 22.6863775,25.9994942 22.6970731,25.9891634 C22.7012471,25.9851362 22.7056818,25.9816342 22.7098558,25.9775195 L32.0873463,16.5361868 C32.1000419,16.5234047 32.112042,16.5103599 32.1235202,16.4968774 L43.5397091,4.99736381 C43.8171007,4.71808366 43.8170138,4.26519455 43.5396221,3.98600195 Z M17.7046318,26.2290467 L18.1930672,24.7539397 L18.7673289,23.0195136 L20.892549,25.1592023 L17.7046318,26.2290467 Z M31.081345,15.5234241 C31.0687362,15.5361187 31.0568232,15.5490759 31.0453449,15.5624708 L22.2076812,24.460214 L19.4615037,21.6952529 L22.7148123,18.4197082 L39.2863122,1.72698444 L42.0325767,4.49185798 L31.081345,15.5234241 Z" id="Shape"></path>
                </g>
            </g>
        </g>
    </g>
</svg>