<?xml version="1.0" encoding="UTF-8"?>
<svg width="64px" height="64px" viewBox="0 0 64 64" version="1.1" xmlns="http://www.w3.org/2000/svg" xmlns:xlink="http://www.w3.org/1999/xlink">
    <!-- Generator: Sketch 49 (51002) - http://www.bohemiancoding.com/sketch -->
    <title>loading</title>
    <desc>Created with Sketch.</desc>
    <defs></defs>
    <g id="Page-1" stroke="none" stroke-width="1" fill="none" fill-rule="evenodd">
        <g id="grid" transform="translate(-776.000000, -20.000000)">
            <g id="loading" transform="translate(776.000000, 20.000000)">
                <rect id="wrapper" fill-opacity="0.00999999978" fill="#FFFFFF" x="0" y="0" width="64" height="64"></rect>
                <g id="icon" transform="translate(10.000000, 12.000000)" fill="#6C5CE7" fill-rule="nonzero">
                    <path d="M44.120358,32.2099693 L43.3249391,32.2099693 L43.3249391,3.77035975 L43.3249391,0.781683391 C43.3249391,0.394773705 43.0108336,0.0811741416 42.6231041,0.0811741416 L2.1990013,0.0811741416 C1.81135936,0.0811741416 1.4971663,0.394686327 1.4971663,0.781683391 L1.4971663,3.77035975 L1.4971663,32.2099693 L0.701835002,32.2099693 C0.314193067,32.2099693 0,32.5234815 0,32.9104785 L0,36.085969 C0,38.0172845 1.5741169,39.5883405 3.50899992,39.5883405 L41.3131055,39.5883405 C43.2480761,39.5883405 44.8221054,38.0171971 44.8221054,36.085969 L44.8221054,32.9104785 C44.822193,32.5235688 44.5080874,32.2099693 44.120358,32.2099693 Z M2.9008363,1.48210526 L41.9214442,1.48210526 L41.9214442,3.0698505 L2.9008363,3.0698505 L2.9008363,1.48210526 Z M2.9008363,4.470869 L41.9214442,4.470869 L41.9214442,32.2099693 L26.1540998,32.2099693 L18.6681807,32.2099693 L2.9008363,32.2099693 L2.9008363,4.470869 Z M25.4522648,33.6109878 L25.4522648,35.198733 L19.3699282,35.198733 L19.3699282,33.6109878 L25.4522648,33.6109878 Z M43.4186105,36.085969 C43.4186105,37.2446884 42.4741053,38.1874094 41.313193,38.1874094 L3.50899992,38.1874094 C2.34808762,38.1874094 1.40358246,37.2446884 1.40358246,36.085969 L1.40358246,33.6109004 L2.1990013,33.6109004 L17.9663457,33.6109004 L17.9663457,35.8991549 C17.9663457,36.2860646 18.2804513,36.5996641 18.6681807,36.5996641 L26.1540998,36.5996641 C26.5417417,36.5996641 26.8559348,36.286152 26.8559348,35.8991549 L26.8559348,33.6109004 L42.6232792,33.6109004 L43.418698,33.6109004 L43.418698,36.085969 L43.4186105,36.085969 Z" id="Shape"></path>
                    <path d="M38.8801884,35.9459021 L30.6455987,35.9459021 C30.2579567,35.9459021 29.9437637,36.2594143 29.9437637,36.6464114 C29.9437637,37.033321 30.2578692,37.3469206 30.6455987,37.3469206 L38.8801884,37.3469206 C39.2678303,37.3469206 39.5820234,37.0334084 39.5820234,36.6464114 C39.5820234,36.2594143 39.2679178,35.9459021 38.8801884,35.9459021 Z" id="Shape"></path>
                    <path d="M14.1765068,35.9459021 L5.94200458,35.9459021 C5.55436265,35.9459021 5.24016958,36.2594143 5.24016958,36.6464114 C5.24016958,37.033321 5.55427511,37.3469206 5.94200458,37.3469206 L14.1765943,37.3469206 C14.5642362,37.3469206 14.8784293,37.0334084 14.8784293,36.6464114 C14.8783418,36.2594143 14.5642362,35.9459021 14.1765068,35.9459021 Z" id="Shape"></path>
                    <path d="M33.4410328,20.938647 L30.5481629,20.1650024 C30.3683489,20.1165076 30.1765414,20.1419346 30.0154617,20.2350795 C29.8541193,20.3281371 29.7367236,20.4812233 29.6884873,20.660785 C29.3484689,21.9308239 28.6738599,23.0959219 27.7375838,24.0304294 C27.4634856,24.3040972 27.4634856,24.7475404 27.7375838,25.0211209 L29.8549072,27.1344447 C29.992,27.2711912 30.171639,27.3395208 30.3511904,27.3395208 C30.5307418,27.3395208 30.7103807,27.2711912 30.8474736,27.1344447 C32.3299326,25.6546112 33.3983992,23.8087515 33.9374035,21.7961745 C34.037378,21.4225462 33.815193,21.0387822 33.4410328,20.938647 Z M30.3346447,25.631893 L29.2069113,24.5062898 C29.9184636,23.6748884 30.4714749,22.7198471 30.8362681,21.6923694 L32.3774687,22.1045314 C31.9351997,23.398774 31.2401055,24.5989105 30.3346447,25.631893 Z" id="Shape"></path>
                    <path d="M17.0846092,12.4069739 L14.9672858,10.2936501 C14.6931,10.020157 14.2488176,10.020157 13.9747193,10.2936501 C12.4922603,11.7734835 11.4237938,13.6192559 10.8847894,15.6319203 C10.7847274,16.0055485 11.0069124,16.3893126 11.3810726,16.4894477 L14.2739425,17.2630924 C14.3337346,17.2791699 14.3947523,17.2870339 14.4555949,17.2870339 C14.5778055,17.2870339 14.699053,17.255141 14.8066438,17.1931026 C14.9679861,17.1000451 15.0853818,16.9469588 15.1336182,16.7673971 C15.4736365,15.4973582 16.1482455,14.3322602 17.0845216,13.3977527 C17.3587074,13.1239975 17.3587074,12.6805543 17.0846092,12.4069739 Z M13.9860124,15.7356379 L12.4448118,15.323476 C12.8869933,14.0292334 13.5819124,12.8290969 14.4875483,11.7961144 L15.6152816,12.9217175 C14.9037293,13.7532064 14.3508056,14.7081603 13.9860124,15.7356379 Z" id="Shape"></path>
                    <path d="M32.7449756,12.7584955 C32.5510671,12.423663 32.1219296,12.3091105 31.7864635,12.502478 L29.1927293,13.9971657 C29.0313869,14.0901358 28.9139037,14.2431347 28.8656673,14.4226964 C28.8175185,14.6022582 28.8428185,14.7936159 28.9360522,14.9543914 C29.5952536,16.0926643 29.9437637,17.3926739 29.9437637,18.7140037 C29.9437637,19.1009134 30.2578692,19.4145129 30.6455987,19.4145129 L33.6400188,19.4145129 C34.0276607,19.4145129 34.3418538,19.1010008 34.3418538,18.7140037 C34.3418538,16.6215632 33.7896304,14.5621517 32.7449756,12.7584955 Z M31.3198575,18.0136692 L31.3198575,18.0135818 C31.2339775,16.9236289 30.9484111,15.8578797 30.4785659,14.8740037 L31.8604377,14.0777282 C32.4646618,15.3049519 32.8234145,16.6441068 32.9148973,18.0136692 L31.3198575,18.0136692 Z" id="Shape"></path>
                    <path d="M30.8474736,10.2937375 C29.3648395,8.8139914 27.5154863,7.74763055 25.4991004,7.20964434 C25.1252904,7.11020821 24.7402747,7.331624 24.6399501,7.70516486 L23.8648413,10.5925701 C23.8165173,10.7721319 23.8419049,10.9634897 23.935051,11.1242651 C24.0281972,11.285128 24.1814856,11.4023892 24.3614747,11.4505345 C25.6339172,11.7899106 26.8012202,12.4632453 27.7374963,13.3977527 C27.8745891,13.5344993 28.0542281,13.6028289 28.2337795,13.6028289 C28.4133309,13.6028289 28.5930574,13.5344993 28.7300627,13.3977527 L30.8473861,11.284429 C31.1215718,11.0107611 31.1215718,10.5673179 30.8474736,10.2937375 Z M28.2144324,11.9311134 C27.3814575,11.2208178 26.4246087,10.6689385 25.3951865,10.3048345 L25.8081285,8.76654516 C27.1048205,9.20789132 28.3071408,9.90149771 29.3421658,10.8054229 L28.2144324,11.9311134 Z" id="Shape"></path>
                    <path d="M22.4110965,6.80578333 C20.3145209,6.80578333 18.2512118,7.35696362 16.4443171,8.39964503 C16.1089386,8.59318725 15.9940817,9.02142672 16.1878151,9.35634651 L17.6852441,11.9451812 C17.7783902,12.1062189 17.9316786,12.2234801 18.1115801,12.2716254 C18.1713722,12.2876155 18.2323024,12.2954796 18.2930575,12.2954796 C18.4153556,12.2954796 18.5365155,12.2634992 18.6443689,12.2014609 C19.7847961,11.5435047 21.087266,11.1956529 22.4110965,11.1956529 C22.7987384,11.1956529 23.1129315,10.8821408 23.1129315,10.4951437 L23.1129315,7.50637996 C23.1129315,7.11938289 22.7987384,6.80578333 22.4110965,6.80578333 Z M21.7092615,9.82207113 C20.6172458,9.90778893 19.5494796,10.1929033 18.5637415,10.6617735 L17.765959,9.28251212 C18.9954178,8.67951669 20.3371071,8.32144174 21.7092615,8.23013175 L21.7092615,9.82207113 Z" id="Shape"></path>
                    <path d="M25.4055166,20.2550891 C24.1929537,20.2550891 23.2065153,21.2396641 23.2065153,22.4499365 C23.2065153,23.6602089 24.1929537,24.6447839 25.4055166,24.6447839 C26.6180795,24.6447839 27.6045179,23.6602089 27.6045179,22.4499365 C27.6045179,21.2396641 26.617992,20.2550891 25.4055166,20.2550891 Z M25.4055166,23.2438528 C24.967012,23.2438528 24.6100978,22.8876128 24.6100978,22.4499365 C24.6100978,22.0122602 24.967012,21.6560202 25.4055166,21.6560202 C25.8440212,21.6560202 26.2009355,22.0122602 26.2009355,22.4499365 C26.2009355,22.8876128 25.8439337,23.2438528 25.4055166,23.2438528 Z" id="Shape"></path>
                    <path d="M19.0424285,13.9040208 C17.8298657,13.9040208 16.8434272,14.8885958 16.8434272,16.0988682 C16.8434272,17.3091406 17.8298657,18.2937156 19.0424285,18.2937156 C20.2549914,18.2937156 21.2414298,17.3091406 21.2414298,16.0988682 C21.2414298,14.8885958 20.2549914,13.9040208 19.0424285,13.9040208 Z M19.0424285,16.8927845 C18.6039239,16.8927845 18.2470097,16.5365445 18.2470097,16.0988682 C18.2470097,15.6611919 18.6039239,15.3049519 19.0424285,15.3049519 C19.4809332,15.3049519 19.8378474,15.6611919 19.8378474,16.0988682 C19.8378474,16.5365445 19.4809332,16.8927845 19.0424285,16.8927845 Z" id="Shape"></path>
                    <path d="M26.650383,14.4828125 C26.3761972,14.2093194 25.9319148,14.2093194 25.6578165,14.4828125 L18.1718975,21.9545908 C17.8977993,22.2282586 17.8977993,22.6717018 18.1718975,22.9452823 C18.3089028,23.0820288 18.4885418,23.1503584 18.6680932,23.1503584 C18.8476446,23.1503584 19.0273711,23.0820288 19.1643764,22.9452823 L26.6502954,15.4734166 C26.9244812,15.1998362 26.9244812,14.7563929 26.650383,14.4828125 Z" id="Shape"></path>
                    <path d="M28.6343778,28.0717482 L27.1368614,25.4829135 C27.0437152,25.3218759 26.8904268,25.2046146 26.7105253,25.1564694 C26.5304486,25.1082367 26.3390789,25.1336637 26.177824,25.2267213 C25.0373968,25.8846775 23.7349269,26.2325292 22.4110965,26.2325292 C22.0234545,26.2325292 21.7092615,26.5460414 21.7092615,26.9330384 L21.7092615,29.9218022 C21.7092615,30.3087119 22.023367,30.6223114 22.4110965,30.6223114 C24.5076721,30.6223114 26.5709812,30.0711311 28.3778758,29.0284497 C28.7132544,28.8349075 28.8281988,28.406668 28.6343778,28.0717482 Z M23.1129315,29.197963 L23.1129315,27.6060236 C24.2049472,27.5203058 25.2727134,27.2352789 26.2584514,26.7663213 L27.0562339,28.1455826 C25.8267752,28.7485781 24.4850859,29.1065656 23.1129315,29.197963 Z" id="Shape"></path>
                    <path d="M20.8870544,26.3040044 C20.7939958,26.1430541 20.6406199,26.0257055 20.4606307,25.977735 C19.1881007,25.6381842 18.0207977,24.9647621 17.0846092,24.0304294 C16.8104234,23.7569363 16.3661409,23.7569363 16.0920427,24.0304294 L13.9747193,26.1437532 C13.7006211,26.417421 13.7006211,26.8608642 13.9747193,27.134532 C15.4573534,28.6142781 17.3066191,29.680639 19.3230925,30.2186252 C19.38376,30.2347901 19.4447778,30.2425667 19.5047449,30.2425667 C19.8145608,30.2425667 20.0982013,30.0361799 20.1821554,29.723192 L20.9572641,26.8357867 C21.0055005,26.6561376 20.9801129,26.4648672 20.8870544,26.3040044 Z M19.0140645,28.6614622 C17.71746,28.2202034 16.5150521,27.5265097 15.4800272,26.6225845 L16.6077606,25.4969814 C17.4406479,26.2071022 18.3976718,26.7590689 19.4270065,27.1232603 L19.0140645,28.6614622 Z" id="Shape"></path>
                    <path d="M15.8860532,22.4737033 C15.2268518,21.3354304 14.8783418,20.0354208 14.8783418,18.7140911 C14.8783418,18.3271814 14.5642362,18.0135818 14.1765068,18.0135818 L11.1820866,18.0135818 C10.7944447,18.0135818 10.4802516,18.327094 10.4802516,18.7140911 C10.4802516,20.8067063 11.032475,22.8661178 12.0771298,24.6695993 C12.2073067,24.8941607 12.4428859,25.0195481 12.685381,25.0195481 C12.8045274,25.0195481 12.9252497,24.9893153 13.0356419,24.9256168 L15.6293761,23.4310165 C15.7907185,23.3380463 15.9082892,23.1850474 15.9564381,23.0054857 C16.0045869,22.8257492 15.9792869,22.6344788 15.8860532,22.4737033 Z M12.9618428,23.350454 C12.3576187,22.1232303 11.998866,20.7840754 11.9073832,19.4145129 L13.5023355,19.4145129 C13.5882155,20.5044658 13.8737819,21.570215 14.343627,22.5540911 L12.9618428,23.350454 Z" id="Shape"></path>
                </g>
            </g>
        </g>
    </g>
</svg>