<?xml version="1.0" encoding="UTF-8"?>
<svg width="64px" height="64px" viewBox="0 0 64 64" version="1.1" xmlns="http://www.w3.org/2000/svg" xmlns:xlink="http://www.w3.org/1999/xlink">
    <!-- Generator: Sketch 49 (51002) - http://www.bohemiancoding.com/sketch -->
    <title>login</title>
    <desc>Created with Sketch.</desc>
    <defs></defs>
    <g id="Page-1" stroke="none" stroke-width="1" fill="none" fill-rule="evenodd">
        <g id="grid" transform="translate(-524.000000, -188.000000)">
            <g id="login" transform="translate(524.000000, 188.000000)">
                <rect id="wrapper" fill-opacity="0.00999999978" fill="#FFFFFF" x="0" y="0" width="64" height="64"></rect>
                <g id="icon" transform="translate(13.000000, 10.000000)" fill="#6C5CE7" fill-rule="nonzero">
                    <path d="M34.4875233,18.7767315 L34.2572701,18.7767315 L34.2572701,12.8399708 C34.2572701,9.40149805 32.9099205,6.16928988 30.4633481,3.73850195 C28.0349121,1.32583658 24.8217926,0 21.4082091,0 C21.3830635,0 21.3577427,8.75486381e-05 21.3325094,0.000175097276 C14.2884067,0.0406225681 8.55765874,5.86050584 8.55765874,12.9736576 L8.55765874,16.1535117 C8.55765874,16.534786 8.8669411,16.8438327 9.24850616,16.8438327 L12.9329965,16.8438327 C13.3145615,16.8438327 13.6238439,16.534786 13.6238439,16.1535117 L13.6238439,12.9479183 C13.6238439,8.64113813 17.0810599,5.10382296 21.3304943,5.0626751 C23.4229252,5.0463035 25.3924317,5.84273346 26.8814554,7.31626459 C28.3707419,8.79014591 29.1909973,10.7517607 29.1909973,12.8399708 L29.1909973,18.7767315 L8.32740548,18.7767315 C6.42264673,18.7767315 4.87316842,20.3251167 4.87316842,22.2283366 L4.87316842,44.1345817 C4.87316842,44.515856 5.18245078,44.8249027 5.56401583,44.8249027 L37.250913,44.8249027 C37.632478,44.8249027 37.9417604,44.515856 37.9417604,44.1345817 L37.9417604,22.2283366 C37.9417604,20.3251167 36.3922821,18.7767315 34.4875233,18.7767315 Z M27.8537235,6.3352821 C26.100627,4.60041829 23.779257,3.65550584 21.3171767,3.68212062 C16.3131985,3.73062257 12.2422367,7.88716926 12.2422367,12.9479183 L12.2422367,15.4631907 L9.93944118,15.4631907 L9.93944118,12.9736576 C9.93944118,6.61745136 15.0539024,1.41697471 21.3404824,1.38081712 C21.3631748,1.38072957 21.3853415,1.38064202 21.4080339,1.38064202 C24.4539832,1.38064202 27.3218104,2.56421206 29.4892401,4.71755837 C31.6729663,6.88718872 32.8756629,9.77182879 32.8756629,12.8399708 L32.8756629,18.7767315 L30.5728674,18.7767315 L30.5728674,12.8399708 C30.5726921,10.3804669 29.6070828,8.07040856 27.8537235,6.3352821 Z M36.5600656,43.4442607 L6.25486325,43.4442607 L6.25486325,22.2283366 C6.25486325,21.0863521 7.18455023,20.1573735 8.32740548,20.1573735 L29.8840351,20.1573735 L33.5664226,20.1573735 L34.4875233,20.1573735 C35.6303786,20.1573735 36.5600656,21.0863521 36.5600656,22.2283366 L36.5600656,43.4442607 Z" id="Shape"></path>
                    <path d="M22.6554143,30.6667996 C24.6674143,30.1177821 26.1512687,28.2763716 26.1512687,26.0942218 C26.1512687,23.4804572 24.0231783,21.3539883 21.4074206,21.3539883 C18.7916629,21.3539883 16.6635725,23.4804572 16.6635725,26.0942218 C16.6635725,28.2763716 18.1474269,30.1177821 20.1594269,30.6667996 C16.7142142,31.260642 14.0843504,34.2660992 14.0843504,37.8757296 L14.0843504,41.5574125 C14.0843504,41.9386868 14.3936328,42.2477335 14.7751978,42.2477335 L28.0394681,42.2477335 C28.4210332,42.2477335 28.7303155,41.9386868 28.7303155,41.5574125 L28.7303155,37.8757296 C28.7304908,34.2660992 26.100627,31.260642 22.6554143,30.6667996 Z M18.0453549,26.0941342 C18.0453549,24.2416926 19.553654,22.7345428 21.4075082,22.7345428 C23.2613624,22.7345428 24.7696615,24.2416926 24.7696615,26.0941342 C24.7696615,27.9465759 23.2613624,29.4537257 21.4075082,29.4537257 C19.553654,29.4537257 18.0453549,27.9466634 18.0453549,26.0941342 Z M27.3487959,40.8670914 L15.4662205,40.8670914 L15.4662205,37.8757296 C15.4662205,34.6021984 18.1314809,31.9389689 21.4075082,31.9389689 C24.6835355,31.9389689 27.3487959,34.6021984 27.3487959,37.8757296 L27.3487959,40.8670914 Z" id="Shape"></path>
                    <path d="M33.5664226,23.5630156 C33.1848576,23.5630156 32.8755752,23.8720623 32.8755752,24.2533366 L32.8755752,33.4575875 C32.8755752,33.8388619 33.1848576,34.1479086 33.5664226,34.1479086 C33.9479877,34.1479086 34.2572701,33.8388619 34.2572701,33.4575875 L34.2572701,24.2533366 C34.2572701,23.8720623 33.9479001,23.5630156 33.5664226,23.5630156 Z" id="Shape"></path>
                    <path d="M33.5664226,35.3445233 C33.1848576,35.3445233 32.8755752,35.65357 32.8755752,36.0348444 L32.8755752,39.7165272 C32.8755752,40.0978016 33.1848576,40.4068482 33.5664226,40.4068482 C33.9479877,40.4068482 34.2572701,40.0978016 34.2572701,39.7165272 L34.2572701,36.0348444 C34.2572701,35.65357 33.9479001,35.3445233 33.5664226,35.3445233 Z" id="Shape"></path>
                    <path d="M3.64006931,15.347714 L0.774169655,15.347714 C0.392604597,15.347714 0.0833222433,15.6567607 0.0833222433,16.038035 C0.0833222433,16.4193093 0.392604597,16.728356 0.774169655,16.728356 L3.64006931,16.728356 C4.02163437,16.728356 4.33091673,16.4193093 4.33091673,16.038035 C4.33091673,15.6567607 4.02154676,15.347714 3.64006931,15.347714 Z" id="Shape"></path>
                    <path d="M4.92862897,13.2067996 L3.10491447,11.3844747 C2.83514666,11.1149125 2.39768297,11.1149125 2.12800278,11.3844747 C1.85823497,11.654037 1.85823497,12.0911673 2.12800278,12.3607296 L3.95171728,14.1830545 C4.08655738,14.3177918 4.26345287,14.3852918 4.44017313,14.3852918 C4.61689338,14.3852918 4.79378887,14.3178794 4.92862897,14.1830545 C5.19839678,13.9134922 5.19839678,13.4763619 4.92862897,13.2067996 Z" id="Shape"></path>
                    <path d="M4.91014212,17.892928 C4.64037431,17.6233658 4.20291063,17.6233658 3.93323044,17.892928 L2.10951593,19.7152529 C1.83974812,19.9848152 1.83974812,20.4219455 2.10951593,20.6914202 C2.24435603,20.8262451 2.42125152,20.8936576 2.59797177,20.8936576 C2.77469203,20.8936576 2.95158752,20.8262451 3.08642762,20.6914202 L4.91014212,18.8690953 C5.17999755,18.5997082 5.17999755,18.1625778 4.91014212,17.892928 Z" id="Shape"></path>
                </g>
            </g>
        </g>
    </g>
</svg>