<?xml version="1.0" encoding="UTF-8"?>
<svg width="64px" height="64px" viewBox="0 0 64 64" version="1.1" xmlns="http://www.w3.org/2000/svg" xmlns:xlink="http://www.w3.org/1999/xlink">
    <!-- Generator: Sketch 49 (51002) - http://www.bohemiancoding.com/sketch -->
    <title>pantone</title>
    <desc>Created with Sketch.</desc>
    <defs></defs>
    <g id="Page-1" stroke="none" stroke-width="1" fill="none" fill-rule="evenodd">
        <g id="grid" transform="translate(-356.000000, -188.000000)">
            <g id="pantone" transform="translate(356.000000, 188.000000)">
                <rect id="wrapper" fill-opacity="0.00999999978" fill="#FFFFFF" x="0" y="0" width="64" height="64"></rect>
                <g id="icon" transform="translate(10.000000, 10.000000)" fill="#6C5CE7" fill-rule="nonzero">
                    <path d="M43.7029513,29.816965 L32.1743681,29.816965 L24.1202052,29.816965 L27.6172992,26.319572 L37.9672864,15.9691342 C38.1070931,15.8294066 38.1856195,15.6397763 38.1856195,15.4420914 C38.1856195,15.2444066 38.1070931,15.0547763 37.9672864,14.9150486 L29.5342359,6.48148833 C29.3945167,6.34167315 29.2048978,6.26314202 29.0072249,6.26314202 C28.8095521,6.26314202 28.6199332,6.34167315 28.480214,6.48148833 L18.1303144,16.8320136 L14.6331328,20.3293191 L14.6331328,12.2746693 L14.6331328,0.745389105 C14.6331328,0.333735409 14.2994176,0 13.8877888,0 L1.96167129,0 C1.55004248,0 1.21632724,0.333735409 1.21632724,0.745389105 L1.21632724,12.2746693 L1.21632724,23.8039494 L1.21632724,32.2433755 C0.435965861,33.5355058 0.0237242467,35.010963 0.0237242467,36.5258171 C0.0237242467,41.1019844 3.74641748,44.8249027 8.32222061,44.8249027 C10.0958488,44.8249027 11.7771187,44.2751848 13.202587,43.2346693 L20.6458725,43.2346693 L32.1744556,43.2346693 L43.7030388,43.2346693 C44.1146676,43.2346693 44.4483829,42.9009339 44.4483829,42.4892802 L44.4483829,30.5624416 C44.4482953,30.1507879 44.1145801,29.816965 43.7029513,29.816965 Z M29.0072249,8.06270428 L36.386166,15.4420914 L29.2883266,22.5402724 L21.9094731,15.1609728 L29.0072249,8.06270428 Z M2.70701533,1.49086576 L13.1423572,1.49086576 L13.1423572,11.5292802 L2.70701533,11.5292802 L2.70701533,1.49086576 Z M2.70701533,13.0200584 L13.1423572,13.0200584 L13.1423572,21.8201848 L11.9041441,23.0584728 L2.70701533,23.0584728 L2.70701533,13.0200584 Z M2.70701533,24.5493385 L10.4133685,24.5493385 L6.5390502,28.4238911 C5.10482757,28.7390661 3.78073447,29.4345525 2.70701533,30.420963 L2.70701533,24.5493385 Z M12.497688,41.9009533 C11.2929165,42.8385117 9.84897655,43.334037 8.32230815,43.334037 C4.56844949,43.334037 1.51449988,40.2799027 1.51449988,36.5258171 C1.51449988,35.2216051 1.88612138,33.9529377 2.58918199,32.8568288 C3.59820659,31.2836673 5.22397406,30.1834436 7.04977808,29.8382393 L7.04986562,29.8382393 C7.4731377,29.7581323 7.9013122,29.7175973 8.32239569,29.7175973 C9.84915164,29.7175973 11.2930916,30.2131226 12.4977756,31.1506809 C12.8020762,31.3875 13.0849288,31.6476946 13.3386294,31.9242607 C13.3387169,31.9243482 13.3388045,31.9244358 13.338892,31.9245233 C14.4939389,33.1832101 15.1301164,34.8173054 15.1301164,36.5258171 C15.1301164,36.6600292 15.1247763,36.8036089 15.1133081,36.9776556 C15.1133081,36.9777432 15.1133081,36.9777432 15.1133081,36.9778307 C14.9866329,38.9116051 14.0332858,40.7060019 12.497688,41.9009533 Z M19.9005284,41.7438035 L14.7714513,41.7438035 C15.7802133,40.4965856 16.4142898,38.9749027 16.5765951,37.3612062 L19.1350494,34.8025973 L19.900616,34.0369844 L19.900616,41.7438035 L19.9005284,41.7438035 Z M18.0806773,33.7485117 L16.5289715,35.3003113 C16.2870893,33.6712938 15.5662574,32.1471595 14.4377361,30.9172763 C14.4374735,30.9170136 14.4371233,30.9165759 14.4368607,30.9163132 C14.1272199,30.5789008 13.7827368,30.2619747 13.4131288,29.9742899 C12.0778301,28.9352626 10.5014371,28.3430837 8.8275208,28.2436284 L12.7033273,24.3675875 L13.3606028,25.0248152 L19.424993,31.0894844 L20.0821809,31.7468872 L18.0806773,33.7485117 Z M20.4791899,30.0353988 L14.4147997,23.970642 L13.7576118,23.3134144 L14.4147122,22.6562743 C14.4147997,22.6561868 14.4148873,22.6560992 14.4149748,22.6560117 L19.1844238,17.8862743 L20.8553637,16.2152335 L28.2342172,23.5945331 L26.5632774,25.2655739 L21.7938283,30.0353113 C21.7937408,30.0353988 21.7936533,30.0354864 21.7935657,30.0355739 L21.1364654,30.692714 L20.4791899,30.0353988 Z M31.4291116,41.7438035 L21.3912165,41.7438035 L21.3912165,32.5462938 L21.6635638,32.27393 C21.6637389,32.2737549 21.6638265,32.2736673 21.6640891,32.2734047 L22.6296047,31.3078307 L31.4291116,31.3078307 L31.4291116,41.7438035 Z M42.9576072,41.7438035 L32.9197997,41.7438035 L32.9197997,31.3078307 L42.9576072,31.3078307 L42.9576072,41.7438035 Z" id="Shape"></path>
                    <path d="M8.32222061,31.407286 C5.49999823,31.407286 3.20391136,33.7035117 3.20391136,36.5259047 C3.20391136,39.3482977 5.49999823,41.6445233 8.32222061,41.6445233 C11.144443,41.6445233 13.4405299,39.3482977 13.4405299,36.5259047 C13.4405299,33.7034241 11.144443,31.407286 8.32222061,31.407286 Z M8.32222061,40.15357 C6.32203025,40.15357 4.694687,38.5261284 4.694687,36.5258171 C4.694687,34.5255058 6.32203025,32.8980642 8.32222061,32.8980642 C10.322411,32.8980642 11.9497542,34.5255058 11.9497542,36.5258171 C11.9497542,38.5261284 10.322411,40.15357 8.32222061,40.15357 Z" id="Shape"></path>
                    <path d="M8.32222061,33.5938132 C7.9105918,33.5938132 7.57687656,33.9275486 7.57687656,34.3392023 C7.57687656,34.750856 7.9105918,35.0845914 8.32222061,35.0845914 C9.11676401,35.0845914 9.76327162,35.7311381 9.76327162,36.5257296 C9.76327162,36.9373833 10.0969869,37.2711187 10.5086157,37.2711187 C10.9202445,37.2711187 11.2539597,36.9373833 11.2539597,36.5257296 C11.2540473,34.909144 9.93879603,33.5938132 8.32222061,33.5938132 Z" id="Shape"></path>
                </g>
            </g>
        </g>
    </g>
</svg>