<?xml version="1.0" encoding="UTF-8"?>
<svg width="64px" height="64px" viewBox="0 0 64 64" version="1.1" xmlns="http://www.w3.org/2000/svg" xmlns:xlink="http://www.w3.org/1999/xlink">
    <!-- Generator: Sketch 49 (51002) - http://www.bohemiancoding.com/sketch -->
    <title>photo-camera</title>
    <desc>Created with Sketch.</desc>
    <defs></defs>
    <g id="Page-1" stroke="none" stroke-width="1" fill="none" fill-rule="evenodd">
        <g id="grid" transform="translate(-524.000000, -272.000000)">
            <g id="photo-camera" transform="translate(524.000000, 272.000000)">
                <rect id="wrapper" fill-opacity="0.00999999978" fill="#FFFFFF" x="0" y="0" width="64" height="64"></rect>
                <g id="icon" transform="translate(9.000000, 10.000000)" fill="#6C5CE7" fill-rule="nonzero">
                    <path d="M43.2582304,11.5879377 L29.310647,11.5879377 L28.2850804,5.04787938 C28.2313412,4.7057393 27.9383843,4.45368677 27.5943839,4.45368677 L16.4058475,4.45368677 C16.0618471,4.45368677 15.7687163,4.7057393 15.715151,5.04787938 L14.6894105,11.5879377 L11.1379276,11.5879377 L11.1379276,8.5370428 C11.1379276,8.1482393 10.8247968,7.83297665 10.4386223,7.83297665 L5.21731116,7.83297665 C4.83113675,7.83297665 4.5180059,8.1482393 4.5180059,8.5370428 L4.5180059,11.5878502 L0.741914013,11.5878502 C0.355739595,11.5878502 0.0426087513,11.9031128 0.0426087513,12.2919163 L0.0426087513,20.1771595 L0.0426087513,44.2084728 C0.0426087513,44.5972763 0.355739595,44.9125389 0.741914013,44.9125389 L43.2581435,44.9125389 C43.6443179,44.9125389 43.9574487,44.5972763 43.9574487,44.2084728 L43.9574487,20.1772471 L43.9574487,12.2920039 C43.9574487,11.9030253 43.6444049,11.5879377 43.2582304,11.5879377 Z M17.0033266,5.86173152 L26.9968179,5.86173152 L27.894906,11.5879377 L16.1053254,11.5879377 L17.0033266,5.86173152 Z M5.91661643,9.24110895 L9.73931707,9.24110895 L9.73931707,11.5879377 L5.91661643,11.5879377 L5.91661643,9.24110895 Z M42.5589252,43.5044066 L1.44121927,43.5044066 L1.44121927,20.8812257 L13.2692347,20.8812257 C11.4842759,22.9708366 10.4852311,25.6438716 10.4852311,28.4378988 C10.4852311,30.3134533 10.9342752,32.1504864 11.7892328,33.7991148 C10.7711445,34.3786868 10.1122741,35.4732198 10.1122741,36.6986381 C10.1122741,38.5361965 11.5970586,40.0310895 13.4221915,40.0310895 C14.572106,40.0310895 15.6280204,39.4181615 16.224369,38.4681712 C17.9746322,39.4924903 19.9548087,40.0310895 22.0000287,40.0310895 C28.3493414,40.0310895 33.5148264,34.8303502 33.5148264,28.4378988 C33.5148264,25.643784 32.5157816,22.970749 30.7308228,20.8812257 L42.5589252,20.8812257 L42.5589252,43.5044066 Z M13.3885392,33.7840564 C13.3876697,33.7826556 13.3868001,33.7813424 13.3859305,33.7799416 C13.3856697,33.7795039 13.3854088,33.7789786 13.385061,33.7785409 C12.4028858,32.1763132 11.8837547,30.3294747 11.8837547,28.4378988 C11.8837547,25.4665856 13.1688868,22.6502335 15.4094984,20.7111187 C15.4095854,20.7110311 15.4096723,20.7109436 15.4097593,20.710856 C17.2414138,19.1257879 19.5818517,18.2528405 21.9999418,18.2528405 C24.4179449,18.2528405 26.7583828,19.1257879 28.5901243,20.710856 C28.5902113,20.7109436 28.5902982,20.7110311 28.5903852,20.7111187 C30.8310838,22.650321 32.1161289,25.4666732 32.1161289,28.4378988 C32.1161289,34.0539689 27.5779491,38.6230447 21.9998548,38.6230447 C19.9615043,38.6231323 17.9967192,38.0152821 16.3177605,36.8655934 C16.3175865,36.8655058 16.3173257,36.8653307 16.3170648,36.8651556 C16.3154996,36.8640175 16.3140213,36.8628794 16.3123691,36.8618288 C15.1432372,36.0597082 14.1322793,34.995642 13.3885392,33.7840564 Z M15.0599327,37.6882879 C14.7194975,38.2550778 14.0992358,38.6229572 13.4221915,38.6229572 C12.368277,38.6229572 11.5107976,37.7597276 11.5107976,36.6985506 C11.5107976,35.9776751 11.9052329,35.3351556 12.5115816,35.0056226 C13.2109738,36.0260019 14.0786271,36.9393969 15.0599327,37.6882879 Z M42.5590121,19.4731809 L29.3009079,19.4731809 C27.2468182,17.7762257 24.6648148,16.8447957 22.0000287,16.8447957 C19.3352427,16.8447957 16.7531523,17.7763132 14.6991496,19.4731809 L1.44121927,19.4731809 L1.44121927,12.9959825 L5.21731116,12.9959825 L10.4386223,12.9959825 L15.2869765,12.9959825 L28.7102984,12.9959825 C28.710994,12.9959825 28.7116027,12.99607 28.7123853,12.99607 C28.7127332,12.99607 28.713168,12.9959825 28.7135158,12.9959825 L42.5590121,12.9959825 L42.5590121,19.4731809 Z" id="Shape"></path>
                    <path d="M22.0000287,20.5996693 C17.7071536,20.5996693 14.2147142,24.1159728 14.2147142,28.4379864 C14.2147142,32.76 17.7072405,36.2763035 22.0000287,36.2763035 C26.292817,36.2763035 29.7853433,32.76 29.7853433,28.4379864 C29.7853433,24.1159728 26.2929039,20.5996693 22.0000287,20.5996693 Z M22.0000287,34.8681712 C18.478372,34.8681712 15.6132378,31.9836187 15.6132378,28.4378988 C15.6132378,24.892179 18.478372,22.0076265 22.0000287,22.0076265 C25.5216855,22.0076265 28.3868197,24.8922665 28.3868197,28.4378988 C28.3868197,31.9835311 25.5217725,34.8681712 22.0000287,34.8681712 Z" id="Shape"></path>
                    <path d="M25.5650769,30.9363619 C25.2877722,30.665749 24.8450759,30.6725778 24.576293,30.9517704 C23.8930747,31.6612646 22.9782039,32.0520817 22.0001157,32.0520817 C21.6139413,32.0520817 21.3008104,32.3673444 21.3008104,32.7561479 C21.3008104,33.1449514 21.6139413,33.460214 22.0001157,33.460214 C23.3598566,33.460214 24.6313365,32.9174125 25.5803813,31.931965 C25.8491642,31.6526848 25.8423816,31.2069747 25.5650769,30.9363619 Z" id="Shape"></path>
                    <path d="M22.0000287,23.4157588 C21.6138543,23.4157588 21.3007235,23.7310214 21.3007235,24.1198249 C21.3007235,24.5086284 21.6138543,24.8238911 22.0000287,24.8238911 C23.9793357,24.8238911 25.5896856,26.4451167 25.5896856,28.4379864 C25.5896856,28.7578891 25.5480334,29.0749903 25.4659463,29.3807101 C25.3650766,29.7560311 25.5855986,30.1425584 25.9584687,30.2441148 C26.0195992,30.260749 26.0809906,30.268716 26.1414255,30.268716 C26.4495998,30.268716 26.7317741,30.0621012 26.816035,29.7483268 C26.930383,29.322928 26.9883831,28.8819455 26.9883831,28.4379864 C26.9882961,25.6687354 24.7505541,23.4157588 22.0000287,23.4157588 Z" id="Shape"></path>
                    <path d="M39.1557033,22.8525584 C38.7695289,22.8525584 38.4563981,23.167821 38.4563981,23.5566245 L38.4563981,40.4535992 C38.4563981,40.8424027 38.7695289,41.1576654 39.1557033,41.1576654 C39.5418778,41.1576654 39.8550086,40.8424027 39.8550086,40.4535992 L39.8550086,23.5566245 C39.8550086,23.1676459 39.5419647,22.8525584 39.1557033,22.8525584 Z" id="Shape"></path>
                    <path d="M39.1557033,13.8408268 C38.7695289,13.8408268 38.4563981,14.1560895 38.4563981,14.544893 L38.4563981,17.5487743 C38.4563981,17.9375778 38.7695289,18.2528405 39.1557033,18.2528405 C39.5418778,18.2528405 39.8550086,17.9375778 39.8550086,17.5487743 L39.8550086,14.544893 C39.8550086,14.1560895 39.5419647,13.8408268 39.1557033,13.8408268 Z" id="Shape"></path>
                    <path d="M34.2885665,4.3358463 L31.3877801,4.3358463 C31.0016057,4.3358463 30.6884749,4.65110895 30.6884749,5.03991245 C30.6884749,5.42871595 31.0016057,5.7439786 31.3877801,5.7439786 L34.2885665,5.7439786 C34.674741,5.7439786 34.9878718,5.42871595 34.9878718,5.03991245 C34.9878718,4.65110895 34.674741,4.3358463 34.2885665,4.3358463 Z" id="Shape"></path>
                    <path d="M32.9182169,8.79023346 L31.0722145,6.93166342 C30.7990837,6.65667315 30.3563005,6.65667315 30.0833437,6.93166342 C29.8102129,7.2066537 29.8102129,7.65245136 30.0833437,7.92726654 L31.9293461,9.78583658 C32.065868,9.92328794 32.2448247,9.99210117 32.4237815,9.99210117 C32.6027383,9.99210117 32.781695,9.92337549 32.9182169,9.78583658 C33.1913477,9.5108463 33.1913477,9.06504864 32.9182169,8.79023346 Z" id="Shape"></path>
                    <path d="M32.9370865,0.293725681 C32.6639557,0.0187354086 32.2211725,0.0187354086 31.9482157,0.293725681 L30.1022132,2.15229572 C29.8290825,2.42728599 29.8290825,2.87308366 30.1022132,3.14798638 C30.2387352,3.28543774 30.417605,3.35425097 30.5966487,3.35425097 C30.7756054,3.35425097 30.9545622,3.28552529 31.0910841,3.14798638 L32.9370865,1.28941634 C33.2102173,1.01451362 33.2102173,0.568715953 32.9370865,0.293725681 Z" id="Shape"></path>
                </g>
            </g>
        </g>
    </g>
</svg>