<?xml version="1.0" encoding="UTF-8"?>
<svg width="64px" height="64px" viewBox="0 0 64 64" version="1.1" xmlns="http://www.w3.org/2000/svg" xmlns:xlink="http://www.w3.org/1999/xlink">
    <!-- Generator: Sketch 49 (51002) - http://www.bohemiancoding.com/sketch -->
    <title>pipette</title>
    <desc>Created with Sketch.</desc>
    <defs></defs>
    <g id="Page-1" stroke="none" stroke-width="1" fill="none" fill-rule="evenodd">
        <g id="grid" transform="translate(-692.000000, -188.000000)">
            <g id="pipette" transform="translate(692.000000, 188.000000)">
                <rect id="wrapper" fill-opacity="0.00999999978" fill="#FFFFFF" x="0" y="0" width="64" height="64"></rect>
                <g id="icon" transform="translate(10.000000, 10.000000)" fill="#6C5CE7" fill-rule="nonzero">
                    <path d="M38.2610191,2.97210117 C37.9762376,2.690107 37.5147377,2.690107 37.2298677,2.97210117 L35.5802022,4.60663424 C35.295509,4.8888035 35.295509,5.34607004 35.5802022,5.6282393 C35.7226371,5.76928016 35.9092517,5.83975681 36.0957779,5.83975681 C36.2823041,5.83975681 36.4689186,5.76928016 36.6113536,5.6282393 L38.2610191,3.99370623 C38.5457124,3.71144942 38.5457124,3.25418288 38.2610191,2.97210117 Z" id="Shape"></path>
                    <path d="M42.1098559,1.33765564 C40.3096263,-0.445797665 37.3806085,-0.445797665 35.5802905,1.33765564 L32.7966235,4.09578794 L30.5629039,1.88247082 C30.2781223,1.60047665 29.8166224,1.60047665 29.5318408,1.88247082 L26.7824572,4.60663424 C26.4977639,4.8888035 26.4977639,5.34607004 26.7824572,5.62815175 L29.0162651,7.84155642 L24.9865572,11.8342121 L17.9881581,11.8342121 C17.5854171,11.8342121 17.2591067,12.1576167 17.2591067,12.5565759 L17.2591067,19.4907782 L14.5513402,22.1737062 L14.5513402,12.5564883 C14.5513402,12.1575292 14.2250298,11.8341245 13.8222887,11.8341245 L0.741686804,11.8341245 C0.338945744,11.8341245 0.0126353601,12.1575292 0.0126353601,12.5564883 L0.0126353601,26.3812938 C0.0126353601,26.7803405 0.338945744,27.1036576 0.741686804,27.1036576 L10.7777855,27.1036576 L9.1766291,29.5554572 L0.741686804,29.5554572 C0.338945744,29.5554572 0.0126353601,29.8787743 0.0126353601,30.277821 L0.0126353601,44.1026265 C0.0126353601,44.5016732 0.338945744,44.8249903 0.741686804,44.8249903 L13.8223771,44.8249903 C14.2251182,44.8249903 14.5514286,44.5016732 14.5514286,44.1026265 L14.5514286,33.3787938 L17.2591951,31.6427918 L17.2591951,44.1025389 C17.2591951,44.5015856 17.5855054,44.8249027 17.9882465,44.8249027 L31.0690252,44.8249027 C31.4717662,44.8249027 31.7980766,44.5015856 31.7980766,44.1025389 L31.7980766,30.277821 C31.7980766,29.8787743 31.4717662,29.5554572 31.0690252,29.5554572 L20.1606449,29.5554572 L22.6351432,27.1036576 L31.0689368,27.1036576 C31.4716779,27.1036576 31.7979883,26.7803405 31.7979883,26.3812938 L31.7979883,18.0248638 L35.5460072,14.3111381 L37.7798151,16.5244553 C37.9165951,16.659893 38.102061,16.7359728 38.2953909,16.7359728 C38.4887207,16.7359728 38.6741866,16.659893 38.8109666,16.5243677 L41.5601735,13.8002043 C41.8448667,13.5181226 41.8448667,13.060856 41.5601735,12.7785992 L39.3265423,10.5654572 L42.1101209,7.8073249 C43.9100854,6.0236965 43.9100854,3.12145914 42.1098559,1.33765564 Z M18.7172096,13.2788521 L23.5285427,13.2788521 L18.7172096,18.0460506 L18.7172096,13.2788521 Z M1.47064989,25.6590175 L1.47064989,13.2787646 L13.0932373,13.2787646 L13.0932373,23.6183463 L13.0358038,23.6752529 C12.9995766,23.7112354 12.9672371,23.7508949 12.939404,23.7936187 L11.7211962,25.65893 L1.47064989,25.6590175 Z M13.093414,43.3803502 L1.47064989,43.3803502 L1.47064989,31.0001848 L8.23321833,31.0001848 L6.89095431,33.0556518 C6.7042514,33.3415856 6.74445482,33.7179572 6.98744251,33.9588911 L9.18687876,36.1381518 C9.32772327,36.2776167 9.51433782,36.3496693 9.70271955,36.3496693 C9.83941117,36.3496693 9.97698639,36.3115856 10.0983919,36.2338424 L13.0933257,34.3138132 L13.093414,43.3803502 Z M30.3398854,31.0001848 L30.3398854,43.3802626 L18.7172096,43.3802626 L18.7172096,31.0001848 L30.3398854,31.0001848 Z M30.3398854,25.6590175 L24.0931577,25.6590175 L30.3398854,19.4695914 L30.3398854,25.6590175 Z M30.5533611,17.2148638 L21.8175559,25.870535 L18.5892655,29.0692996 L17.6501844,29.6713716 C17.6438225,29.6753988 17.6382559,29.6800389 17.6320707,29.6842412 C17.6288014,29.6865175 17.625002,29.6881809 17.6216443,29.6904572 C17.6174031,29.6929961 17.6136037,29.6961479 17.6092741,29.6986868 C17.6036191,29.7021887 17.597699,29.7049903 17.5921324,29.7084922 L13.4263513,32.3791634 L9.80115166,34.7033171 L8.43511902,33.3500778 L10.1851606,30.6701265 L12.7297277,26.7736868 L14.1214729,24.6425778 L14.3377761,24.4282588 L18.5035571,20.3007782 L25.8039678,13.0673346 L30.0470631,8.86316148 L34.5145907,13.2896206 L30.5533611,17.2148638 Z M40.0134464,13.2896206 L38.2953025,14.9922665 L36.0614062,12.7788619 L30.5628155,7.33079767 C30.5625505,7.33053502 30.5621087,7.33018482 30.5618436,7.32992218 L28.3290076,5.11748054 L30.0473282,3.41492218 L32.2810478,5.6282393 L37.7797268,11.0764786 L40.0134464,13.2896206 Z M41.0789695,6.78607004 L38.2954792,9.54411479 L33.8278633,5.11748054 L36.6114419,2.35934825 C37.843257,1.13892023 39.8474195,1.13900778 41.0790579,2.3592607 C42.3106079,3.57960117 42.3106079,5.56555447 41.0789695,6.78607004 Z" id="Shape"></path>
                    <path d="M19.0157752,22.0408074 C18.731082,21.7587257 18.2694937,21.7586381 17.9847121,22.0408074 L15.7852759,24.2201556 C15.5005827,24.5022374 15.5005827,24.9595914 15.7853642,25.2417607 C15.9277109,25.3828016 16.1143254,25.4532782 16.3008516,25.4532782 C16.4873778,25.4532782 16.6739923,25.3828016 16.8164273,25.2416732 L19.0158636,23.0623249 C19.3005568,22.7802432 19.3005568,22.3228016 19.0157752,22.0408074 Z" id="Shape"></path>
                    <path d="M28.9133267,12.2340467 C28.6286335,11.9521401 28.1671336,11.951965 27.8821753,12.2340467 L20.1842368,19.8614591 C19.8995435,20.1436284 19.8995435,20.6008949 20.1842368,20.8830642 C20.3266717,21.0241051 20.5132863,21.0945817 20.6998125,21.0945817 C20.8863387,21.0945817 21.0729532,21.0241051 21.2153882,20.8830642 L28.9133267,13.2556518 C29.1980199,12.9733949 29.1980199,12.5161284 28.9133267,12.2340467 Z" id="Shape"></path>
                </g>
            </g>
        </g>
    </g>
</svg>