<?xml version="1.0" encoding="UTF-8"?>
<svg width="64px" height="64px" viewBox="0 0 64 64" version="1.1" xmlns="http://www.w3.org/2000/svg" xmlns:xlink="http://www.w3.org/1999/xlink">
    <!-- Generator: Sketch 49 (51002) - http://www.bohemiancoding.com/sketch -->
    <title>pixel</title>
    <desc>Created with Sketch.</desc>
    <defs></defs>
    <g id="Page-1" stroke="none" stroke-width="1" fill="none" fill-rule="evenodd">
        <g id="grid" transform="translate(-440.000000, -20.000000)">
            <g id="pixel" transform="translate(440.000000, 20.000000)">
                <rect id="wrapper" fill-opacity="0.00999999978" fill="#FFFFFF" x="0" y="0" width="64" height="64"></rect>
                <g id="icon" transform="translate(12.000000, 10.000000)" fill="#6C5CE7" fill-rule="nonzero">
                    <path d="M4.56910308,22.2708852 L0.77433773,22.2708852 C0.381360012,22.2708852 0.0628412297,22.5878113 0.0628412297,22.9786284 L0.0628412297,26.7533755 C0.0628412297,27.1442802 0.381448025,27.4611187 0.77433773,27.4611187 L4.56910308,27.4611187 C4.9620808,27.4611187 5.28059958,27.1441926 5.28059958,26.7533755 L5.28059958,22.9786284 C5.28059958,22.5878113 4.96199279,22.2708852 4.56910308,22.2708852 Z M3.85751857,26.0456323 L1.48583423,26.0456323 L1.48583423,23.6864591 L3.85751857,23.6864591 L3.85751857,26.0456323 Z" id="Shape"></path>
                    <path d="M6.08697402,28.310428 L2.29220866,28.310428 C1.89923095,28.310428 1.58071216,28.6273541 1.58071216,29.0181712 L1.58071216,32.7929183 C1.58071216,33.183823 1.89931896,33.5006615 2.29220866,33.5006615 L6.08697402,33.5006615 C6.47995173,33.5006615 6.79847052,33.1837354 6.79847052,32.7929183 L6.79847052,29.0181712 C6.79847052,28.6273541 6.47995173,28.310428 6.08697402,28.310428 Z M5.37547752,32.0851751 L3.00370517,32.0851751 L3.00370517,29.7260019 L5.3753895,29.7260019 L5.3753895,32.0851751 L5.37547752,32.0851751 Z" id="Shape"></path>
                    <path d="M22.4043946,39.6346693 L18.6096293,39.6346693 C18.2166515,39.6346693 17.8981328,39.9515953 17.8981328,40.3424125 L17.8981328,44.1171595 C17.8981328,44.5080642 18.2167396,44.8249027 18.6096293,44.8249027 L22.4043946,44.8249027 C22.7973723,44.8249027 23.1158911,44.5079767 23.1158911,44.1171595 L23.1158911,40.3424125 C23.1158911,39.9515078 22.7973723,39.6346693 22.4043946,39.6346693 Z M21.6928981,43.4094163 L19.3212138,43.4094163 L19.3212138,41.0502432 L21.6928981,41.0502432 L21.6928981,43.4094163 Z" id="Shape"></path>
                    <path d="M15.1943757,38.5022276 L11.3996103,38.5022276 C11.0066326,38.5022276 10.6881138,38.8191537 10.6881138,39.2099708 L10.6881138,42.9847179 C10.6881138,43.3756226 11.0067206,43.6924611 11.3996103,43.6924611 L15.1943757,43.6924611 C15.5873534,43.6924611 15.9058722,43.375535 15.9058722,42.9847179 L15.9058722,39.2099708 C15.9058722,38.8191537 15.5873534,38.5022276 15.1943757,38.5022276 Z M14.4828792,42.2769747 L12.1111948,42.2769747 L12.1111948,39.9178016 L14.4828792,39.9178016 L14.4828792,42.2769747 Z" id="Shape"></path>
                    <path d="M9.1228039,34.3500584 L5.32803855,34.3500584 C4.93506083,34.3500584 4.61654205,34.6669844 4.61654205,35.0578016 L4.61654205,38.8325486 C4.61654205,39.2234533 4.93514884,39.5402918 5.32803855,39.5402918 L9.1228039,39.5402918 C9.51578162,39.5402918 9.8343004,39.2233658 9.8343004,38.8325486 L9.8343004,35.0578016 C9.8343004,34.6668969 9.5156936,34.3500584 9.1228039,34.3500584 Z M8.41121939,38.1247179 L6.03953505,38.1247179 L6.03953505,35.7655447 L8.41121939,35.7655447 L8.41121939,38.1247179 Z" id="Shape"></path>
                    <path d="M40.2396861,22.2708852 L36.4449208,22.2708852 C36.0519431,22.2708852 35.7334243,22.5878113 35.7334243,22.9786284 L35.7334243,26.7533755 C35.7334243,27.1442802 36.0520311,27.4611187 36.4449208,27.4611187 L40.2396861,27.4611187 C40.6326639,27.4611187 40.9511826,27.1441926 40.9511826,26.7533755 L40.9511826,22.9786284 C40.9511826,22.5878113 40.6326639,22.2708852 40.2396861,22.2708852 Z M39.5281896,26.0456323 L37.1565053,26.0456323 L37.1565053,23.6864591 L39.5281896,23.6864591 L39.5281896,26.0456323 Z" id="Shape"></path>
                    <path d="M38.7218152,28.310428 L34.9270499,28.310428 C34.5340721,28.310428 34.2155534,28.6273541 34.2155534,29.0181712 L34.2155534,32.7929183 C34.2155534,33.183823 34.5341602,33.5006615 34.9270499,33.5006615 L38.7218152,33.5006615 C39.1147929,33.5006615 39.4333117,33.1837354 39.4333117,32.7929183 L39.4333117,29.0181712 C39.4333117,28.6273541 39.1147049,28.310428 38.7218152,28.310428 Z M38.0103187,32.0851751 L35.6386344,32.0851751 L35.6386344,29.7260019 L38.0103187,29.7260019 L38.0103187,32.0851751 Z" id="Shape"></path>
                    <path d="M29.6144136,38.5022276 L25.8196482,38.5022276 C25.4266705,38.5022276 25.1081517,38.8191537 25.1081517,39.2099708 L25.1081517,42.9847179 C25.1081517,43.3756226 25.4267585,43.6924611 25.8196482,43.6924611 L29.6144136,43.6924611 C30.0073913,43.6924611 30.3259101,43.375535 30.3259101,42.9847179 L30.3259101,39.2099708 C30.3259101,38.8191537 30.0073913,38.5022276 29.6144136,38.5022276 Z M28.9029171,42.2769747 L26.5312327,42.2769747 L26.5312327,39.9178016 L28.9029171,39.9178016 L28.9029171,42.2769747 Z" id="Shape"></path>
                    <path d="M35.6859853,34.3500584 L31.89122,34.3500584 C31.4982423,34.3500584 31.1797235,34.6669844 31.1797235,35.0578016 L31.1797235,38.8325486 C31.1797235,39.2234533 31.4983303,39.5402918 31.89122,39.5402918 L35.6859853,39.5402918 C36.078963,39.5402918 36.3974818,39.2233658 36.3974818,38.8325486 L36.3974818,35.0578016 C36.3974818,34.6668969 36.078963,34.3500584 35.6859853,34.3500584 Z M34.9744888,38.1247179 L32.6028045,38.1247179 L32.6028045,35.7655447 L34.9744888,35.7655447 L34.9744888,38.1247179 Z" id="Shape"></path>
                    <path d="M24.0600938,19.056537 L25.0123056,0.744250973 C25.0223391,0.550505837 24.9519288,0.361138132 24.8176211,0.220359922 C24.6833133,0.0796692607 24.4968139,0 24.3017773,0 L16.7122466,0 C16.5172099,0 16.3306225,0.0796692607 16.1962268,0.220359922 C16.0619191,0.361050584 15.9915087,0.550593385 16.0015422,0.744250973 L16.9537541,19.056537 C14.7157614,20.3245039 13.3443439,22.6535603 13.3443439,25.2435117 C13.3443439,26.832607 14.4585876,29.6794261 16.6560943,33.7047374 C18.2623303,36.647072 19.8910095,39.1881712 19.9072919,39.2134728 C20.0379911,39.4170233 20.2640963,39.5402043 20.5068359,39.5402043 C20.7495756,39.5402043 20.9756808,39.4170233 21.10638,39.2134728 C21.1225743,39.1881712 22.7513416,36.647072 24.3574895,33.7047374 C26.5550842,29.6793385 27.6693279,26.8325195 27.6693279,25.2435117 C27.6695919,22.6535603 26.2981745,20.3244163 24.0600938,19.056537 Z M23.5525232,1.41548638 L23.1157151,9.81428988 L17.8982208,9.81428988 L17.4614126,1.41548638 L23.5525232,1.41548638 Z M23.0420483,11.2297763 L22.6666731,18.4484241 C21.9726912,18.2295525 21.249841,18.118716 20.5070119,18.118716 C19.7641828,18.118716 19.0413327,18.2296401 18.3472627,18.4484241 L17.9718876,11.2297763 L23.0420483,11.2297763 Z M20.5070119,37.49857 C18.4817465,34.2240759 14.7674249,27.7089689 14.7674249,25.2435117 C14.7674249,23.0414008 16.0045346,21.0741829 17.9960912,20.1085214 C17.9975874,20.1077335 17.9989956,20.1071206 18.0005798,20.1063327 C18.7853031,19.7267218 19.6286429,19.5341148 20.5070119,19.5341148 C21.3853809,19.5341148 22.2287208,19.7266342 23.0134441,20.1063327 C23.0148523,20.1071206 23.0163485,20.1077335 23.0178447,20.1084339 C25.0094892,21.0741829 26.2465989,23.0414008 26.2465989,25.2435117 C26.2465989,27.7089689 22.5322774,34.2240759 20.5070119,37.49857 Z" id="Shape"></path>
                    <path d="M23.0667799,28.3770525 C22.7109436,28.2114105 22.2873374,28.3641829 22.120817,28.7183171 C21.7068922,29.5986187 21.202226,30.5853794 20.6209007,31.6511965 C20.4335211,31.9948249 20.56158,32.4244261 20.9070307,32.6108171 C21.0149345,32.669037 21.1311116,32.6966148 21.2457044,32.6966148 C21.4982135,32.6966148 21.7428895,32.5624903 21.8717404,32.3261965 C22.4664437,31.2357782 22.9839597,30.2236284 23.4097663,29.3181128 C23.5762867,28.9639786 23.4227042,28.5426946 23.0667799,28.3770525 Z" id="Shape"></path>
                    <path d="M20.5070119,20.9497763 C20.1140342,20.9497763 19.7955154,21.2667023 19.7955154,21.6575195 C19.7955154,22.0484241 20.1141222,22.3652626 20.5070119,22.3652626 C22.0989898,22.3652626 23.3948041,23.6508268 23.4005249,25.2330934 C23.3970044,25.2782685 23.3516777,25.7394747 22.9147816,26.87857 C22.774665,27.2437354 22.958788,27.6527626 23.325978,27.7921401 C23.4095022,27.8238327 23.4951388,27.8388911 23.5794552,27.8388911 C23.8659373,27.8388911 24.136137,27.6654572 24.2443929,27.3832004 C24.7817998,25.9818093 24.8236059,25.3912062 24.8236059,25.2435117 C24.8235179,22.8759339 22.8871455,20.9497763 20.5070119,20.9497763 Z" id="Shape"></path>
                </g>
            </g>
        </g>
    </g>
</svg>