<?xml version="1.0" encoding="UTF-8"?>
<svg width="64px" height="64px" viewBox="0 0 64 64" version="1.1" xmlns="http://www.w3.org/2000/svg" xmlns:xlink="http://www.w3.org/1999/xlink">
    <!-- Generator: Sketch 49 (51002) - http://www.bohemiancoding.com/sketch -->
    <title>planning</title>
    <desc>Created with Sketch.</desc>
    <defs></defs>
    <g id="Page-1" stroke="none" stroke-width="1" fill="none" fill-rule="evenodd">
        <g id="grid" transform="translate(-20.000000, -356.000000)">
            <g id="planning" transform="translate(20.000000, 356.000000)">
                <rect id="wrapper" fill-opacity="0.00999999978" fill="#FFFFFF" x="0" y="0" width="64" height="64"></rect>
                <g id="icon" transform="translate(10.000000, 14.000000)" fill="#6C5CE7" fill-rule="nonzero">
                    <path d="M44.120358,0.0507268482 L5.94200458,0.0507268482 C2.66551979,0.0507268482 0,2.70464747 0,5.96668016 L0,28.698758 C0,28.7325759 0.00323910379,28.7656093 0.00796644445,28.7982942 C0.00744118438,28.8095377 0.00656575092,28.8206942 0.00604049085,28.8319377 C0.00604049085,28.8320249 0.00604049085,28.8321992 0.00604049085,28.8322864 C0.00604049085,28.8328965 0.00604049085,28.8335938 0.0059529475,28.8342039 C0.0059529475,28.8350755 0.00586540416,28.8357728 0.00586540416,28.8365572 C0.00586540416,28.8366444 0.00586540416,28.8367315 0.00586540416,28.8368187 C0.00271384371,28.9148265 0,28.9928342 0,29.0714521 C0,29.1725572 0.00262630037,29.2747082 0.00770381441,29.3752903 C0.0177712992,29.5741883 0.0381688987,29.7743938 0.0683713529,29.9704156 C0.0684588963,29.9707642 0.0684588963,29.9712 0.0684588963,29.9715486 C0.0834288084,30.0689058 0.100937477,30.1668732 0.12063473,30.2626615 C0.12063473,30.2627486 0.12063473,30.2628358 0.12063473,30.262923 C0.198810938,30.6431128 0.315331131,31.0170272 0.467131292,31.3743813 C0.467218836,31.3744685 0.467218836,31.3745556 0.467306379,31.3746428 C0.61621761,31.724937 0.800321266,32.0628545 1.01480246,32.3789821 C1.01489001,32.3791564 1.01497755,32.3792436 1.01506509,32.3794179 C1.12099254,32.5355206 1.23593695,32.6885728 1.35648414,32.8341292 C1.35665923,32.8343035 1.35674677,32.8344778 1.35692186,32.8347393 C1.59845395,33.1259393 1.86922552,33.3956109 2.16179538,33.636084 C2.16188292,33.6361712 2.16197046,33.6361712 2.16205801,33.6362584 C2.30843048,33.7565385 2.4621566,33.8710661 2.61903427,33.9765292 L2.61920936,33.9766163 C3.60240867,34.6378957 4.75124,34.9873183 5.9418295,34.9873183 L44.1202704,34.9873183 C44.5079123,34.9873183 44.8221054,34.6745027 44.8221054,34.2885603 L44.8221054,0.749484825 C44.822193,0.363629572 44.5080874,0.0507268482 44.120358,0.0507268482 Z M1.40358246,5.96668016 C1.40358246,3.4752249 3.43949051,1.4482428 5.94191704,1.4482428 C8.44434357,1.4482428 10.4802516,3.4752249 10.4802516,5.96668016 L10.4802516,25.265021 C9.38447156,23.974014 7.74863661,23.1554988 5.94191704,23.1554988 C4.13519747,23.1554988 2.49927497,23.974014 1.40358246,25.265021 L1.40358246,5.96668016 Z M9.70575564,31.5973354 C9.62477805,31.7166568 9.53688453,31.8337121 9.44461384,31.9451019 C9.44461384,31.9451019 9.4445263,31.9451891 9.44443875,31.9452763 C9.25963475,32.1682304 9.05241965,32.3744498 8.82865886,32.5583564 C8.82857132,32.5584436 8.82857132,32.5584436 8.82848377,32.5585307 C8.71660338,32.6503969 8.59903267,32.7379922 8.47918583,32.8185276 C8.47909828,32.8185276 8.47909828,32.8186148 8.47901074,32.8186148 C7.72893935,33.3231813 6.85166749,33.5898023 5.94209213,33.5898023 C5.03251677,33.5898023 4.1552449,33.3231813 3.40526106,32.8186148 C3.40517351,32.8186148 3.40517351,32.8185276 3.40508597,32.8185276 C3.28523913,32.7379051 3.16766842,32.6503969 3.05578802,32.5585307 C3.05578802,32.5585307 3.05570048,32.5584436 3.05561294,32.5583564 C2.83167706,32.3743626 2.6245495,32.168056 2.4397455,31.9452763 C2.43965796,31.9451891 2.43965796,31.9451891 2.43965796,31.9451891 C2.34729973,31.8337121 2.25940621,31.716744 2.17842861,31.5974226 C2.17842861,31.5974226 2.17834107,31.5973354 2.17834107,31.5972482 C2.01445993,31.3557292 1.87386531,31.0978241 1.76023405,30.8303315 C1.76023405,30.8303315 1.76023405,30.8301572 1.76014651,30.8301572 C1.6444142,30.5578708 1.55555771,30.272772 1.49594069,29.9828794 L1.49594069,29.9827922 C1.48097078,29.9097525 1.46757665,29.8350568 1.45619601,29.7605354 C1.45619601,29.7604482 1.45610847,29.7602739 1.45610847,29.7601868 C1.43308457,29.6102724 1.41750185,29.4570459 1.40971049,29.3046911 C1.40577104,29.2275549 1.40384509,29.1491113 1.40384509,29.0715393 C1.40384509,29.0122708 1.40620876,28.9534381 1.40839734,28.8946926 C1.41067347,28.8457961 1.41338731,28.7969868 1.41680151,28.7483518 C1.41680151,28.7482646 1.41680151,28.7482646 1.41680151,28.7481774 C1.58374667,26.3957416 3.57150587,24.5531019 5.94217967,24.5531019 C8.31285347,24.5531019 10.3006127,26.3958288 10.4675578,28.7481774 C10.4675578,28.7482646 10.4675578,28.7482646 10.4675578,28.7482646 C10.4710596,28.7969868 10.4737734,28.8457961 10.475962,28.8946926 C10.4782381,28.953351 10.4805143,29.0122708 10.4805143,29.0715393 C10.4805143,29.1491113 10.4785008,29.2275549 10.4746488,29.3046039 C10.4668575,29.4569588 10.4512748,29.6101852 10.4282509,29.7600996 C10.4282509,29.7601868 10.4281633,29.7603611 10.4281633,29.7604482 C10.4167827,29.8348825 10.4033886,29.9096654 10.3884187,29.9827051 L10.3884187,29.9827922 C10.3288016,30.2725977 10.2400327,30.5576093 10.1243004,30.83007 C10.1243004,30.8301572 10.1243004,30.8302444 10.1242128,30.8302444 C10.0105816,31.097737 9.86998696,31.3557292 9.70610581,31.5971611 C9.70584318,31.5972482 9.70575564,31.5972482 9.70575564,31.5973354 Z M43.4186105,33.5898895 L9.77570277,33.5898895 C10.0474373,33.3610957 10.3004376,33.1079844 10.5269122,32.8349136 C10.5270873,32.8347393 10.5271749,32.8344778 10.5273499,32.8343035 C10.6479847,32.6886599 10.7628415,32.5356949 10.868769,32.3795922 C10.8688565,32.3794179 10.8689441,32.3793307 10.8690316,32.3791564 C11.0835128,32.0630288 11.2677916,31.7251113 11.4165277,31.3748171 C11.4165277,31.37473 11.4166152,31.3746428 11.4167028,31.3745556 C11.5685029,31.0172887 11.6851107,30.6432872 11.7631993,30.2630973 C11.7631993,30.2630101 11.7631993,30.262923 11.7631993,30.2628358 C11.7829841,30.1670475 11.8004053,30.0690802 11.8153752,29.971723 C11.8154627,29.9713743 11.8154627,29.9709385 11.8154627,29.9705899 C11.8455776,29.7745681 11.8659752,29.5743626 11.8761303,29.3754646 C11.8812953,29.2749696 11.8839216,29.1727315 11.8839216,29.0716265 C11.8839216,28.9930086 11.8812078,28.9150008 11.8781438,28.836993 C11.8781438,28.8369058 11.8781438,28.8368187 11.8781438,28.8367315 C11.8781438,28.8359471 11.8780562,28.8351626 11.8779687,28.8343782 C11.8779687,28.8337681 11.8779687,28.8330708 11.8779687,28.8324607 C11.8779687,28.8323735 11.8779687,28.8321992 11.8779687,28.8321121 C11.8774434,28.8208685 11.876568,28.8097121 11.8760427,28.7984685 C11.8806825,28.7658708 11.8840092,28.7328374 11.8840092,28.6989323 L11.8840092,5.96685447 C11.8840092,4.15646381 11.0622398,2.5344249 9.77150069,1.44841712 L43.4186105,1.44841712 L43.4186105,33.5898895 Z" id="Shape"></path>
                    <path d="M5.94200458,26.1367907 C4.31667483,26.1367907 2.99442014,27.4533354 2.99442014,29.0714521 C2.99442014,30.689656 4.31676237,32.0061136 5.94200458,32.0061136 C7.56724679,32.0061136 8.88958903,30.6895689 8.88958903,29.0714521 C8.88958903,27.4532482 7.56724679,26.1367907 5.94200458,26.1367907 Z M5.94200458,30.6086848 C5.09064555,30.6086848 4.3980026,29.9190786 4.3980026,29.0714521 C4.3980026,28.2238257 5.09064555,27.5342195 5.94200458,27.5342195 C6.79336362,27.5342195 7.48600657,28.2238257 7.48600657,29.0714521 C7.48600657,29.9190786 6.79336362,30.6086848 5.94200458,30.6086848 Z" id="Shape"></path>
                    <path d="M8.18775403,10.8578117 C7.80019964,10.8578117 7.48591903,11.1706272 7.48591903,11.5565696 L7.48591903,20.1276638 C7.48591903,20.5135191 7.80011209,20.8264218 8.18775403,20.8264218 C8.57539596,20.8264218 8.88958903,20.5136062 8.88958903,20.1276638 L8.88958903,11.5565696 C8.88958903,11.1706272 8.57539596,10.8578117 8.18775403,10.8578117 Z" id="Shape"></path>
                    <path d="M19.1045843,23.6624187 L21.7843737,20.9943782 C22.0584719,20.7214817 22.0584719,20.2790599 21.7843737,20.0062506 C21.5102755,19.7333541 21.0659054,19.7333541 20.7918948,20.0062506 L18.1121054,22.6742911 L15.4323161,20.0062506 C15.1582178,19.7333541 14.7138478,19.7333541 14.4398371,20.0062506 C14.1657389,20.2791471 14.1657389,20.7215689 14.4398371,20.9943782 L17.1196265,23.6624187 L14.4398371,26.3304591 C14.1657389,26.6033556 14.1657389,27.0457774 14.4398371,27.3185868 C14.5768425,27.4550786 14.7564814,27.5232374 14.9360328,27.5232374 C15.1155842,27.5232374 15.2952232,27.4550786 15.4322285,27.3185868 L18.1120179,24.6505463 L20.7918072,27.3185868 C20.9288125,27.4549914 21.1084515,27.5232374 21.2880029,27.5232374 C21.4675543,27.5232374 21.6472808,27.4550786 21.7841986,27.3185868 C22.0582968,27.0456903 22.0582968,26.6032685 21.7841986,26.3304591 L19.1045843,23.6624187 Z" id="Shape"></path>
                    <path d="M20.6018382,7.63822568 L23.2816275,4.97018521 C23.5557257,4.69728872 23.5557257,4.25486693 23.2816275,3.98205759 C23.0074417,3.70916109 22.5630717,3.70916109 22.2890611,3.98205759 L19.6092717,6.65009805 L16.9294823,3.98205759 C16.6553841,3.70916109 16.2110141,3.70916109 15.9370034,3.98205759 C15.6629052,4.25495409 15.6629052,4.69737588 15.9370034,4.97018521 L18.6167928,7.63822568 L15.9370034,10.3062661 C15.6629052,10.5790755 15.6629052,11.0214973 15.9370034,11.2943938 C16.0740088,11.4308856 16.2536477,11.4990444 16.4331991,11.4990444 C16.6127505,11.4990444 16.7923895,11.4308856 16.9293948,11.2943938 L19.6091842,8.62635331 L22.2889735,11.2943938 C22.4259788,11.4307984 22.6056178,11.4990444 22.7851692,11.4990444 C22.9647206,11.4990444 23.1444471,11.4308856 23.2814524,11.2943938 C23.5555506,11.0214973 23.5555506,10.5790755 23.2814524,10.3062661 L20.6018382,7.63822568 Z" id="Shape"></path>
                    <path d="M38.5575036,27.3890117 L41.237293,24.7209712 C41.5113912,24.4480747 41.5113912,24.0056529 41.237293,23.7328436 C40.9631072,23.4599471 40.5188247,23.4599471 40.2447265,23.7328436 L37.5649371,26.400884 L34.8849727,23.7328436 C34.6107869,23.4599471 34.1665045,23.4599471 33.8924063,23.7328436 C33.618308,24.0057401 33.618308,24.4481619 33.8924063,24.7209712 L36.5721956,27.3890117 L33.8924063,30.0570521 C33.618308,30.3299486 33.618308,30.7723704 33.8924063,31.0451798 C34.0294991,31.1816716 34.2090505,31.2498304 34.3886895,31.2498304 C34.5682409,31.2498304 34.7479674,31.1816716 34.8849727,31.0451798 L37.5647621,28.3772265 L40.2445514,31.0451798 C40.3816443,31.1815844 40.5612832,31.2498304 40.7408346,31.2498304 C40.920386,31.2498304 41.100025,31.1816716 41.2371179,31.0451798 C41.5112161,30.7722833 41.5112161,30.3298615 41.2371179,30.0570521 L38.5575036,27.3890117 Z" id="Shape"></path>
                    <path d="M34.1363896,18.5156482 L31.8906401,16.2797447 L31.7034724,16.0933977 C31.4292867,15.8205012 30.9850042,15.8205012 30.710906,16.0933977 L27.9036535,18.8883424 C27.6295553,19.1612389 27.6295553,19.6036607 27.9036535,19.87647 C28.0407464,20.0128747 28.2203853,20.0811206 28.3999368,20.0811206 C28.5794882,20.0811206 28.7592146,20.0129619 28.89622,19.87647 L30.6185478,18.1616934 C29.9200394,24.7293385 24.3236559,29.8633837 17.5451747,29.8633837 C17.1576203,29.8633837 16.8433397,30.1761992 16.8433397,30.5621416 C16.8433397,30.9479969 17.1575328,31.2608996 17.5451747,31.2608996 C25.0260162,31.2608996 31.2053508,25.6109572 32.0069852,18.3721837 L33.143648,19.503863 C33.2807409,19.6402677 33.4603798,19.7085136 33.6399312,19.7085136 C33.8194826,19.7085136 33.9992091,19.6403549 34.1362145,19.503863 C34.4104002,19.2308794 34.4104002,18.7884576 34.1363896,18.5156482 Z" id="Shape"></path>
                    <path d="M31.9556848,4.52262101 C29.4016953,4.52262101 27.3237664,6.59143969 27.3237664,9.13423191 C27.3237664,11.6770241 29.4016953,13.7458428 31.9556848,13.7458428 C34.5096744,13.7458428 36.5876032,11.6770241 36.5876032,9.13423191 C36.5876032,6.59143969 34.5097619,4.52262101 31.9556848,4.52262101 Z M31.9556848,12.348414 C30.1755784,12.348414 28.7273489,10.9065339 28.7273489,9.13423191 C28.7273489,7.36192996 30.1755784,5.92004981 31.9556848,5.92004981 C33.7357912,5.92004981 35.1840208,7.36192996 35.1840208,9.13423191 C35.1840208,10.9065339 33.7357912,12.348414 31.9556848,12.348414 Z" id="Shape"></path>
                </g>
            </g>
        </g>
    </g>
</svg>