<?xml version="1.0" encoding="UTF-8"?>
<svg width="64px" height="64px" viewBox="0 0 64 64" version="1.1" xmlns="http://www.w3.org/2000/svg" xmlns:xlink="http://www.w3.org/1999/xlink">
    <!-- Generator: Sketch 49 (51002) - http://www.bohemiancoding.com/sketch -->
    <title>pyramid</title>
    <desc>Created with Sketch.</desc>
    <defs></defs>
    <g id="Page-1" stroke="none" stroke-width="1" fill="none" fill-rule="evenodd">
        <g id="grid" transform="translate(-776.000000, -272.000000)">
            <g id="pyramid" transform="translate(776.000000, 272.000000)">
                <rect id="wrapper" fill-opacity="0.00999999978" fill="#FFFFFF" x="0" y="0" width="64" height="64"></rect>
                <g id="icon" transform="translate(10.000000, 10.000000)" fill="#6C5CE7" fill-rule="nonzero">
                    <path d="M44.7480437,43.8090759 L33.8934568,22.0985019 L23.0387823,0.388015564 C22.9198984,0.150233463 22.6769656,0 22.4110965,0 C22.1452273,0 21.902207,0.150233463 21.7834107,0.388015564 L10.9287362,22.0985019 L0.0741492137,43.8090759 C-0.0346671649,44.0266342 -0.0230238999,44.2849903 0.104876928,44.4919553 C0.232690213,44.6988327 0.458552044,44.8248152 0.701922545,44.8248152 L22.4082075,44.8248152 C22.4089954,44.8248152 22.4097833,44.8249027 22.4106588,44.8249027 C22.4108338,44.8249027 22.4110089,44.8249027 22.411184,44.8249027 C22.4113591,44.8249027 22.4115342,44.8249027 22.4117093,44.8249027 C22.4124972,44.8249027 22.4132851,44.8248152 22.4141605,44.8248152 L44.1204455,44.8248152 C44.3637285,44.8248152 44.5895903,44.6988327 44.7174911,44.4919553 C44.8451293,44.2850778 44.8568601,44.0266342 44.7480437,43.8090759 Z M22.4110965,2.27127432 L32.1301587,21.7105739 L12.6920342,21.7105739 L22.4110965,2.27127432 Z M1.83735974,43.4211479 L11.556422,23.9817607 L21.2754842,43.4211479 L1.83735974,43.4211479 Z M22.4110965,42.5536284 L12.6920342,23.1142412 L32.1301587,23.1142412 L22.4110965,42.5536284 Z M23.5466212,43.4211479 L33.2656834,23.9817607 L42.9847457,43.4211479 L23.5466212,43.4211479 Z" id="Shape"></path>
                </g>
            </g>
        </g>
    </g>
</svg>