<?xml version="1.0" encoding="UTF-8"?>
<svg width="64px" height="64px" viewBox="0 0 64 64" version="1.1" xmlns="http://www.w3.org/2000/svg" xmlns:xlink="http://www.w3.org/1999/xlink">
    <!-- Generator: Sketch 49 (51002) - http://www.bohemiancoding.com/sketch -->
    <title>settings</title>
    <desc>Created with Sketch.</desc>
    <defs></defs>
    <g id="Page-1" stroke="none" stroke-width="1" fill="none" fill-rule="evenodd">
        <g id="grid" transform="translate(-692.000000, -356.000000)">
            <g id="settings" transform="translate(692.000000, 356.000000)">
                <rect id="wrapper" fill-opacity="0.00999999978" fill="#FFFFFF" x="0" y="0" width="64" height="64"></rect>
                <g id="icon" transform="translate(10.000000, 10.000000)" fill="#6C5CE7" fill-rule="nonzero">
                    <path d="M43.7506624,0 L0.721357168,0 C0.33047613,0 0.0136567619,0.316838521 0.0136567619,0.707743191 L0.0136567619,31.2830545 L0.0136567619,36.9451751 C0.0136567619,37.3361673 0.330563673,37.6529183 0.721357168,37.6529183 L19.1431034,37.6529183 L18.6513724,40.7670233 L16.9517184,40.7670233 C15.5208224,40.7670233 14.3567585,41.9312451 14.3567585,43.3621401 L14.3567585,44.117072 C14.3567585,44.5080642 14.6736654,44.8248152 15.0644589,44.8248152 L18.8389778,44.8248152 L25.6330418,44.8248152 L29.4075607,44.8248152 C29.7984417,44.8248152 30.1152611,44.5080642 30.1152611,44.117072 L30.1152611,43.3621401 C30.1152611,41.9312451 28.9511972,40.7670233 27.5203012,40.7670233 L25.8206472,40.7670233 L25.3289162,37.6529183 L43.7506624,37.6529183 C44.1415434,37.6529183 44.4583628,37.3360798 44.4583628,36.9451751 L44.4583628,31.2830545 L44.4583628,0.707743191 C44.4583628,0.316838521 44.1415434,0 43.7506624,0 Z M27.5203012,42.1825973 C28.1707483,42.1825973 28.6998603,42.7117412 28.6998603,43.3622276 L28.6998603,43.4094163 L25.6330418,43.4094163 L18.8389778,43.4094163 L15.7721593,43.4094163 L15.7721593,43.3622276 C15.7721593,42.7117412 16.3012713,42.1825973 16.9517184,42.1825973 L19.2558592,42.1825973 C19.2562094,42.1825973 19.2566471,42.1826848 19.2569973,42.1826848 C19.2576976,42.1826848 19.2583104,42.1825973 19.2590983,42.1825973 L25.2130088,42.1825973 C25.2137091,42.1825973 25.2143219,42.1826848 25.2151098,42.1826848 C25.21546,42.1826848 25.2158977,42.1825973 25.2162479,42.1825973 L27.5203012,42.1825973 Z M20.0843694,40.7671109 L20.5761004,37.6530058 L23.8960067,37.6530058 L24.3877377,40.7671109 L20.0843694,40.7671109 Z M43.042962,36.2374319 L24.5006686,36.2374319 L19.9712634,36.2374319 L1.42905757,36.2374319 L1.42905757,31.9908852 L43.042962,31.9908852 L43.042962,36.2374319 Z M43.042962,30.5753113 L1.42905757,30.5753113 L1.42905757,1.41548638 L43.042962,1.41548638 L43.042962,30.5753113 Z" id="Shape"></path>
                    <path d="M23.368383,32.840107 L21.1036366,32.840107 C20.7127556,32.840107 20.3959362,33.156858 20.3959362,33.5478502 C20.3959362,33.9388424 20.7128431,34.2555934 21.1036366,34.2555934 L23.368383,34.2555934 C23.759264,34.2555934 24.0760834,33.9388424 24.0760834,33.5478502 C24.0760834,33.1569455 23.7591765,32.840107 23.368383,32.840107 Z" id="Shape"></path>
                    <path d="M35.069339,32.840107 L27.5203012,32.840107 C27.1294202,32.840107 26.8126008,33.156858 26.8126008,33.5478502 C26.8126008,33.9388424 27.1295077,34.2555934 27.5203012,34.2555934 L35.069339,34.2555934 C35.46022,34.2555934 35.7770394,33.9388424 35.7770394,33.5478502 C35.7770394,33.1569455 35.4601325,32.840107 35.069339,32.840107 Z" id="Shape"></path>
                    <path d="M40.7310298,32.840107 L38.0888841,32.840107 C37.698003,32.840107 37.3811837,33.156858 37.3811837,33.5478502 C37.3811837,33.9388424 37.6980906,34.2555934 38.0888841,34.2555934 L40.7310298,34.2555934 C41.1219108,34.2555934 41.4387302,33.9388424 41.4387302,33.5478502 C41.4388177,33.1569455 41.1219108,32.840107 40.7310298,32.840107 Z" id="Shape"></path>
                    <path d="M11.9976404,16.6652335 L11.9976404,4.10498054 C11.9976404,3.71398833 11.6807335,3.39723735 11.28994,3.39723735 C10.899059,3.39723735 10.5822396,3.71407588 10.5822396,4.10498054 L10.5822396,16.6652335 C8.44583181,17.0056226 6.80772073,18.8605156 6.80772073,21.0912549 C6.80772073,23.3219942 8.44583181,25.1768872 10.5822396,25.5172763 L10.5822396,27.5082198 C10.5822396,27.8992121 10.8991465,28.215963 11.28994,28.215963 C11.6808211,28.215963 11.9976404,27.8992121 11.9976404,27.5082198 L11.9976404,25.5172763 C14.1340482,25.1768872 15.7721593,23.3219942 15.7721593,21.0912549 C15.7721593,18.8605156 14.1340482,17.0056226 11.9976404,16.6652335 Z M11.28994,24.1582588 C9.59895276,24.1582588 8.22312154,22.7824319 8.22312154,21.0912549 C8.22312154,19.4000778 9.59895276,18.024251 11.28994,18.024251 C12.9809273,18.024251 14.3567585,19.4000778 14.3567585,21.0912549 C14.3567585,22.7824319 12.9809273,24.1582588 11.28994,24.1582588 Z" id="Shape"></path>
                    <path d="M22.9437102,6.09601167 L22.9437102,4.10498054 C22.9437102,3.71398833 22.6268033,3.39723735 22.2360098,3.39723735 C21.8451287,3.39723735 21.5283094,3.71407588 21.5283094,4.10498054 L21.5283094,6.09601167 C19.3919016,6.43640078 17.7537905,8.29129377 17.7537905,10.5220331 C17.7537905,12.7527724 19.3919016,14.6076654 21.5283094,14.9480545 L21.5283094,27.5083074 C21.5283094,27.8992996 21.8452163,28.2160506 22.2360098,28.2160506 C22.6268908,28.2160506 22.9437102,27.8992996 22.9437102,27.5083074 L22.9437102,14.948142 C25.080118,14.6077529 26.7182291,12.7528599 26.7182291,10.5221206 C26.7182291,8.29138132 25.080118,6.43640078 22.9437102,6.09601167 Z M22.2360098,13.589037 C20.5450225,13.589037 19.1691913,12.2132101 19.1691913,10.5220331 C19.1691913,8.83085603 20.5450225,7.45502918 22.2360098,7.45502918 C23.926997,7.45502918 25.3028283,8.83085603 25.3028283,10.5220331 C25.3028283,12.2132101 23.926997,13.589037 22.2360098,13.589037 Z" id="Shape"></path>
                    <path d="M33.88978,14.7778599 L33.88978,4.10498054 C33.88978,3.71398833 33.572873,3.39723735 33.1820795,3.39723735 C32.7911985,3.39723735 32.4743791,3.71407588 32.4743791,4.10498054 L32.4743791,14.7778599 C30.3379713,15.118249 28.6998603,16.973142 28.6998603,19.2038813 C28.6998603,21.4346206 30.3379713,23.2895136 32.4743791,23.6299027 L32.4743791,27.5082198 C32.4743791,27.8992121 32.7912861,28.215963 33.1820795,28.215963 C33.5729606,28.215963 33.88978,27.8992121 33.88978,27.5082198 L33.88978,23.6299027 C36.0261878,23.2895136 37.6642988,21.4346206 37.6642988,19.2038813 C37.6642988,16.973142 36.0261878,15.118249 33.88978,14.7778599 Z M33.1820795,22.2708852 C31.4910923,22.2708852 30.1152611,20.8950584 30.1152611,19.2038813 C30.1152611,17.5127043 31.4910923,16.1368774 33.1820795,16.1368774 C34.8730668,16.1368774 36.248898,17.5127043 36.248898,19.2038813 C36.248898,20.8950584 34.8730668,22.2708852 33.1820795,22.2708852 Z" id="Shape"></path>
                </g>
            </g>
        </g>
    </g>
</svg>