<?xml version="1.0" encoding="UTF-8"?>
<svg width="64px" height="64px" viewBox="0 0 64 64" version="1.1" xmlns="http://www.w3.org/2000/svg" xmlns:xlink="http://www.w3.org/1999/xlink">
    <!-- Generator: Sketch 49 (51002) - http://www.bohemiancoding.com/sketch -->
    <title>support</title>
    <desc>Created with Sketch.</desc>
    <defs></defs>
    <g id="Page-1" stroke="none" stroke-width="1" fill="none" fill-rule="evenodd">
        <g id="grid" transform="translate(-356.000000, -272.000000)">
            <g id="support" transform="translate(356.000000, 272.000000)">
                <rect id="wrapper" fill-opacity="0.00999999978" fill="#FFFFFF" x="0" y="0" width="64" height="64"></rect>
                <g id="icon" transform="translate(10.000000, 10.000000)" fill="#6C5CE7" fill-rule="nonzero">
                    <path d="M36.5426102,13.0081518 C35.9134929,11.6367899 35.1606729,10.3492996 34.3046493,9.18131323 C34.0769478,8.87069066 33.6382445,8.80205253 33.3250113,9.02731518 C33.011513,9.25292802 32.941886,9.68734436 33.1694992,9.99796693 C33.9702099,11.0905739 34.6754927,12.2969066 35.2655552,13.5833463 C35.3830729,13.8395136 35.6378123,13.9907977 35.9044803,13.9907977 C36.0014103,13.9907977 36.1001075,13.9706615 36.1942983,13.9283755 C36.5469398,13.7695623 36.7028937,13.3575584 36.5426102,13.0081518 Z" id="Shape"></path>
                    <path d="M38.0140553,17.2034825 C37.8182514,16.4278016 37.584453,15.6584241 37.3191105,14.916537 C37.1895759,14.5550486 36.7889555,14.365856 36.4237671,14.4937646 C36.0585787,14.6219358 35.8675462,15.0192315 35.9969923,15.3808949 C36.2474906,16.0811965 36.4683001,16.8077626 36.6534125,17.5408074 C36.7331125,17.8565078 37.0189544,18.0672374 37.3332479,18.0672374 C37.3895327,18.0672374 37.4468778,18.0604961 37.5039578,18.0462257 C37.879661,17.9531615 38.1081578,17.5758268 38.0140553,17.2034825 Z" id="Shape"></path>
                    <path d="M36.9550707,8.50587549 C33.032189,4.6189786 27.8686563,2.40898833 22.3493897,2.23599222 L22.3493897,0.694873541 C22.3493897,0.311060311 22.0354495,0 21.648083,0 C21.2608048,0 20.9467763,0.311060311 20.9467763,0.694873541 L20.9467763,2.23599222 C15.4274213,2.40898833 10.2638002,4.6189786 6.34100688,8.50587549 C2.25227503,12.5570136 0.000618514132,17.9432685 0.000618514132,23.6725389 C0.000618514132,24.0564397 0.314646975,24.3674125 0.701925181,24.3674125 L0.876434525,24.3674125 C1.18666354,24.3674125 1.46013515,24.1654377 1.54858267,23.8708366 C1.98516529,22.4176167 3.35976877,21.4025778 4.89120976,21.4025778 C6.42265075,21.4025778 7.79716587,22.4176167 8.2339252,23.8708366 C8.32246108,24.1655253 8.59584433,24.3674125 8.90607335,24.3674125 L9.25491532,24.3674125 C9.26136554,24.3674125 9.26755068,24.3660117 9.2740009,24.3658366 C9.28425056,24.3662743 9.29450022,24.3674125 9.30483824,24.3674125 L9.40768831,24.3674125 C9.79496652,24.3674125 10.108995,24.0563521 10.108995,23.6725389 C10.108995,23.6008366 10.0975083,23.5319358 10.0770973,23.4667996 C10.6294304,22.22107 11.8775036,21.4025778 13.2696022,21.4025778 C14.663468,21.4025778 15.9005846,22.2091634 16.4587494,23.4660992 C16.4585727,23.5348249 16.4583076,23.603463 16.4583076,23.6725389 C16.4583076,24.0564397 16.7723361,24.3674125 17.1596143,24.3674125 L17.1969902,24.3674125 C17.2151922,24.3674125 17.2331291,24.3660992 17.2509777,24.3646984 C17.2621993,24.3652237 17.2730675,24.3674125 17.2843774,24.3674125 L17.6333961,24.3674125 C17.9436251,24.3674125 18.2170084,24.1654377 18.3055443,23.8708366 C18.674267,22.6440175 19.7112502,21.729572 20.9467763,21.4743677 L20.9467763,40.0162938 L20.9467763,40.3499416 C20.9467763,40.421644 20.9578212,40.4908949 20.9781438,40.5559436 C21.2497599,42.9543385 23.3079982,44.8250778 25.7999916,44.8250778 C28.4759488,44.8250778 30.6530302,42.6679669 30.6530302,40.0164689 C30.6530302,39.6325681 30.3390901,39.3215953 29.9517236,39.3215953 C29.5642686,39.3215953 29.2504169,39.6326556 29.2504169,40.0164689 C29.2504169,41.9016537 27.7025411,43.4353307 25.7999916,43.4353307 C23.8974422,43.4353307 22.349478,41.9015661 22.349478,40.0164689 L22.349478,21.4742802 C23.5850042,21.7294844 24.622164,22.64393 24.9907101,23.870749 C25.079246,24.1654377 25.3527176,24.3673249 25.6629466,24.3673249 L26.0117885,24.3673249 C26.0287535,24.3673249 26.0451,24.3644358 26.0617998,24.3632101 C26.0863637,24.3658366 26.111281,24.3673249 26.1365517,24.3673249 C26.5240066,24.3673249 26.8378583,24.0562646 26.8378583,23.6724514 C26.8378583,23.603463 26.8375933,23.5347374 26.8373282,23.4660992 C27.395493,22.2091634 28.6326096,21.4025778 30.0265638,21.4025778 C31.4816625,21.4025778 32.7793051,22.2970623 33.289756,23.6389202 L33.2900211,23.6725389 C33.2900211,24.0564397 33.6039612,24.3674125 33.9913277,24.3674125 C34.0018425,24.3674125 34.0119154,24.3662743 34.0221651,24.3658366 C34.0286153,24.3660117 34.0348004,24.3674125 34.0412507,24.3674125 L34.3900926,24.3674125 C34.7003216,24.3674125 34.9737049,24.1654377 35.0623291,23.8708366 C35.4990001,22.4177043 36.8735152,21.4025778 38.4049562,21.4025778 C39.9363972,21.4025778 41.310824,22.4176167 41.7475833,23.8708366 C41.8361192,24.1655253 42.1095908,24.3674125 42.4198198,24.3674125 L42.5942408,24.3674125 C42.9816957,24.3674125 43.2955475,24.0563521 43.2955475,23.6725389 C43.2954591,17.9432685 41.0438026,12.5570136 36.9550707,8.50587549 Z M8.65495661,21.7724708 C7.74238319,20.6874805 6.36901674,20.0127432 4.8911214,20.0127432 C3.62166532,20.0127432 2.428905,20.5102821 1.53948167,21.3384047 C2.48015331,13.3287549 8.2025577,6.74544747 15.7948187,4.46935798 C14.5302224,5.50742218 13.3667973,6.89042802 12.3483696,8.59088521 C10.2068086,12.1667218 8.91747168,16.7951556 8.65495661,21.7724708 Z M16.4898518,21.2069066 C15.6190723,20.4511868 14.4865729,20.0128307 13.2696022,20.0128307 C12.0788741,20.0128307 10.9634281,20.4404183 10.0984802,21.1700486 C10.7257419,12.5717218 14.5388815,5.634893 19.4163073,3.98705253 C18.8061873,5.07291829 18.2706424,6.6567607 17.814179,8.73472763 C17.0702832,12.1218093 16.6094018,16.4896109 16.4898518,21.2069066 Z M21.648083,20.0127432 C20.1677136,20.0127432 18.7923149,20.6895817 17.8798298,21.7776362 C17.9746392,16.9417996 18.4309259,12.4620233 19.1847179,9.03011673 C20.1259197,4.74539883 21.2075242,3.61330739 21.6479946,3.61330739 C22.088465,3.61330739 23.1701579,4.74539883 24.1112713,9.03011673 C24.8650633,12.4621109 25.3212617,16.9417121 25.4160711,21.7776362 C24.5037627,20.6895817 23.128364,20.0127432 21.648083,20.0127432 Z M30.0264754,20.0127432 C28.809328,20.0127432 27.6768286,20.4510992 26.8062258,21.2069066 C26.6867642,16.4896109 26.2257944,12.1217218 25.4818103,8.73464008 C25.0253469,6.65667315 24.4898903,5.07283074 23.879682,3.98696498 C28.7570193,5.634893 32.570159,12.5716342 33.197509,21.1699611 C32.3326495,20.4403307 31.2173802,20.0127432 30.0264754,20.0127432 Z M38.4049562,20.0127432 C36.9270609,20.0127432 35.5536061,20.6875681 34.641121,21.7724708 C34.3786059,16.7951556 33.089269,12.1666342 30.947708,8.59071012 C29.9292803,6.89016537 28.7658553,5.50724708 27.5012589,4.46909533 C35.0935199,6.74518482 40.8160127,13.3285798 41.7566843,21.338142 C40.8671726,20.5102821 39.6744123,20.0127432 38.4049562,20.0127432 Z" id="Shape"></path>
                </g>
            </g>
        </g>
    </g>
</svg>