<?xml version="1.0" encoding="UTF-8"?>
<svg width="64px" height="64px" viewBox="0 0 64 64" version="1.1" xmlns="http://www.w3.org/2000/svg" xmlns:xlink="http://www.w3.org/1999/xlink">
    <!-- Generator: Sketch 49 (51002) - http://www.bohemiancoding.com/sketch -->
    <title>tap</title>
    <desc>Created with Sketch.</desc>
    <defs></defs>
    <g id="Page-1" stroke="none" stroke-width="1" fill="none" fill-rule="evenodd">
        <g id="grid" transform="translate(-608.000000, -104.000000)">
            <g id="tap" transform="translate(608.000000, 104.000000)">
                <rect id="wrapper" fill-opacity="0.00999999978" fill="#FFFFFF" x="0" y="0" width="64" height="64"></rect>
                <g id="icon" transform="translate(15.000000, 10.000000)" fill="#6C5CE7" fill-rule="nonzero">
                    <path d="M20.6793931,2.6647179 C12.8042168,2.6647179 6.30139336,8.60541829 5.47724085,16.2093677 L4.31496092,15.0555642 C4.03415819,14.7768969 3.57891204,14.7768969 3.29819749,15.0555642 C3.01739475,15.3344066 3.01739475,15.7862451 3.29819749,16.065 L5.59894556,18.3490564 C5.60000386,18.350107 5.60123854,18.35107 5.60229685,18.3521206 C5.61799499,18.3675292 5.63439867,18.3824125 5.65159607,18.3963327 C5.65997429,18.4030739 5.66861709,18.4090272 5.6771717,18.4153307 C5.68740195,18.4229475 5.69745581,18.4308268 5.70812702,18.4379183 C5.71818089,18.4446595 5.72876391,18.4504377 5.73908235,18.4565661 C5.74887164,18.4623444 5.75848455,18.4684728 5.76853842,18.4739008 C5.77912143,18.4795039 5.78988084,18.4843191 5.80072843,18.4893093 C5.81113506,18.4942996 5.8215417,18.4993774 5.8323011,18.5038424 C5.84288412,18.5081323 5.85355533,18.5116342 5.86422654,18.5154864 C5.87560328,18.5196012 5.88706822,18.5239786 5.89870954,18.5274805 C5.90938075,18.5306323 5.92005195,18.5329961 5.93081136,18.5356226 C5.94280544,18.5386868 5.95471134,18.5420136 5.96697,18.5443774 C5.97940505,18.5468288 5.99192828,18.5483171 6.00436333,18.5500681 C6.01512273,18.5515564 6.02552937,18.55357 6.03637696,18.5546206 C6.05992417,18.5568969 6.08364777,18.5581226 6.10728318,18.5581226 C6.13091858,18.5581226 6.15464218,18.5568969 6.1781894,18.5546206 C6.18903699,18.55357 6.19944362,18.5515564 6.21020303,18.5500681 C6.22272626,18.5482296 6.2352495,18.5468288 6.24768455,18.5443774 C6.25994321,18.5420136 6.27176091,18.5386868 6.283755,18.5356226 C6.2945144,18.5329961 6.3052738,18.5305447 6.31585682,18.5274805 C6.32758633,18.5239786 6.33887488,18.5196012 6.35033982,18.5154864 C6.36101103,18.5117218 6.37185862,18.5081323 6.38226526,18.5038424 C6.39302466,18.499465 6.4033431,18.4942121 6.41383793,18.4893093 C6.42459733,18.4842315 6.43553311,18.4795039 6.44602794,18.4739008 C6.45608181,18.4685603 6.46560652,18.4625195 6.47539581,18.4566537 C6.48571426,18.4504377 6.49629727,18.4446595 6.50643933,18.4379183 C6.51711054,18.4309144 6.52707622,18.423035 6.53721827,18.4154183 C6.54586107,18.4090272 6.55459206,18.4031615 6.56288209,18.3964202 C6.5800795,18.3824125 6.59639498,18.3677043 6.61218132,18.3522082 C6.61323962,18.3511576 6.6144743,18.3501946 6.61553261,18.349144 L8.91636886,16.0650875 C9.1971716,15.7862451 9.1971716,15.3344066 8.91636886,15.0556518 C8.63556613,14.7769844 8.18031998,14.7769844 7.89960543,15.0556518 L6.95163161,15.9967121 C7.86379955,9.28427043 13.6718479,4.09228599 20.6793049,4.09228599 C21.0764327,4.09228599 21.3983328,3.77282101 21.3983328,3.37850195 C21.398421,2.98427043 21.0764327,2.6647179 20.6793931,2.6647179 Z" id="Shape"></path>
                    <path d="M21.954735,7.44198444 L19.6538987,5.15792802 C19.3731842,4.8792607 18.9178498,4.8792607 18.6371353,5.15784047 C18.3563325,5.43668288 18.3563325,5.8885214 18.6371353,6.16727626 L19.7513507,7.27327821 C14.2901607,7.74201362 9.99010421,12.3036479 9.99010421,17.8443385 C9.99010421,18.2386576 10.3120043,18.5581226 10.7091321,18.5581226 C11.1062598,18.5581226 11.4281599,18.2386576 11.4281599,17.8443385 C11.4281599,13.124679 15.0332649,9.22570039 19.6534577,8.71730545 L18.6372235,9.7261284 C18.3564207,10.0049708 18.3564207,10.4568093 18.6372235,10.7355642 C18.7775366,10.8748541 18.9616811,10.9445428 19.1456493,10.9445428 C19.3296174,10.9445428 19.5136737,10.8748541 19.6540751,10.7355642 L21.9549113,8.45150778 C22.2355377,8.17257782 22.2355377,7.7207393 21.954735,7.44198444 Z" id="Shape"></path>
                    <path d="M16.7966603,39.1623444 C16.7966603,38.7680253 16.4747602,38.4485603 16.0776324,38.4485603 L13.7767962,38.4485603 C13.3796684,38.4485603 13.0577683,38.7680253 13.0577683,39.1623444 C13.0577683,39.228356 13.0675576,39.2920039 13.0844022,39.3526751 C13.0675576,39.4134339 13.0577683,39.4769942 13.0577683,39.5430058 C13.0577683,39.9373249 13.3796684,40.2567899 13.7767962,40.2567899 L16.0776324,40.2567899 C16.4747602,40.2567899 16.7966603,39.9373249 16.7966603,39.5430058 C16.7966603,39.4769942 16.786871,39.4133463 16.7700264,39.3526751 C16.7869592,39.2919163 16.7966603,39.228356 16.7966603,39.1623444 Z" id="Shape"></path>
                    <path d="M30.6018542,24.9402432 L30.6018542,0.713784047 C30.6018542,0.319464981 30.2799541,0 29.8828263,0 L0.738694641,0 C0.341566899,0 0.0196667747,0.319464981 0.0196667747,0.713784047 L0.0196667747,37.2589494 L0.0196667747,41.8270623 C0.0196667747,42.2213813 0.341566899,42.5408463 0.738694641,42.5408463 L17.9600867,42.5408463 L17.9600867,44.1111187 C17.9600867,44.5054377 18.2819868,44.8249027 18.6791146,44.8249027 L32.9506668,44.8249027 C33.3477946,44.8249027 33.6696947,44.5054377 33.6696947,44.1111187 L33.6696947,28.0145136 C33.6696065,26.3288521 32.2961072,24.9563521 30.6018542,24.9402432 Z M17.9600867,39.9236673 L17.9600867,41.1132782 L1.45772251,41.1132782 L1.45772251,37.9726459 L17.9600867,37.9726459 L17.9600867,39.9236673 Z M17.9600867,35.355642 L17.9600867,36.5451654 L1.45772251,36.5451654 L1.45772251,1.42756809 L29.1637985,1.42756809 L29.1637985,24.9396304 L28.1934239,24.9396304 L24.1552089,24.9396304 L24.1552089,22.8048444 C25.7759099,21.6817704 26.7670977,19.8173346 26.7670977,17.8443385 C26.7670977,14.5120623 24.03615,11.8010311 20.6793931,11.8010311 C17.3226363,11.8010311 14.5916885,14.5120623 14.5916885,17.8443385 C14.5916885,20.1606128 15.8986912,22.2326265 17.9599985,23.2509047 L17.9599985,28.0879669 L15.7718714,28.0879669 C14.0638605,28.0879669 12.6742221,29.4673833 12.6742221,31.1628502 L12.6742221,31.6877043 C12.6742221,33.3832588 14.0638605,34.7627626 15.7718714,34.7627626 L17.9599985,34.7627626 L17.9599985,35.355642 L17.9600867,35.355642 Z M21.0576478,14.4452626 C19.3496369,14.4452626 17.9599985,15.824679 17.9599985,17.520321 L17.9599985,21.5894942 C16.7616481,20.7361576 16.0296561,19.3588424 16.0296561,17.8443385 C16.0296561,15.2992121 18.1154807,13.2285992 20.6793049,13.2285992 C23.2431292,13.2285992 25.3289538,15.2992121 25.3289538,17.8443385 C25.3289538,19.0020817 24.9041338,20.0805058 24.1552089,20.9118677 L24.1552089,17.5202335 C24.1552971,15.824679 22.7656587,14.4452626 21.0576478,14.4452626 Z M32.2317271,43.3973346 L19.3981424,43.3973346 L19.3981424,41.8270623 L19.3981424,39.9236673 L19.3981424,37.2589494 L19.3981424,35.3555545 L19.3981424,34.0489786 C19.3981424,33.6546595 19.0762423,33.3351946 18.6791146,33.3351946 L15.7719596,33.3351946 C14.8568813,33.3351946 14.112366,32.5961089 14.112366,31.6877043 L14.112366,31.1628502 C14.112366,30.2544455 14.8568813,29.5154475 15.7719596,29.5154475 L18.6791146,29.5154475 C19.0762423,29.5154475 19.3981424,29.1959825 19.3981424,28.8016634 L19.3981424,22.7898735 L19.3981424,22.7793677 C19.3981424,22.7784047 19.3981424,22.7773541 19.3981424,22.7763911 L19.3981424,17.5202335 C19.3981424,16.6118288 20.1426577,15.8727432 21.0576478,15.8727432 C21.9727261,15.8727432 22.7172414,16.6118288 22.7172414,17.5202335 L22.7172414,22.4177043 L22.7172414,25.6534144 L22.7172414,28.8018385 C22.7172414,29.1961576 23.0391415,29.5156226 23.4362693,29.5156226 C23.833397,29.5156226 24.1552971,29.1961576 24.1552971,28.8018385 L24.1552971,26.3671984 L27.4744843,26.3671984 L27.4744843,28.8018385 C27.4744843,29.1961576 27.7963844,29.5156226 28.1935121,29.5156226 C28.5906399,29.5156226 28.91254,29.1961576 28.91254,28.8018385 L28.91254,26.3671984 L29.8829145,26.3671984 L30.5721336,26.3671984 C31.4872118,26.3671984 32.2317271,27.106284 32.2317271,28.0146887 L32.2317271,43.3973346 Z" id="Shape"></path>
                </g>
            </g>
        </g>
    </g>
</svg>