<?xml version="1.0" encoding="UTF-8"?>
<svg width="64px" height="64px" viewBox="0 0 64 64" version="1.1" xmlns="http://www.w3.org/2000/svg" xmlns:xlink="http://www.w3.org/1999/xlink">
    <!-- Generator: Sketch 49 (51002) - http://www.bohemiancoding.com/sketch -->
    <title>targeting</title>
    <desc>Created with Sketch.</desc>
    <defs></defs>
    <g id="Page-1" stroke="none" stroke-width="1" fill="none" fill-rule="evenodd">
        <g id="grid" transform="translate(-20.000000, -20.000000)">
            <g id="targeting" transform="translate(20.000000, 20.000000)">
                <rect id="wrapper" fill-opacity="0.00999999978" fill="#FFFFFF" x="0" y="0" width="64" height="64"></rect>
                <g id="icon" transform="translate(10.000000, 10.000000)" fill="#6C5CE7" fill-rule="nonzero">
                    <path d="M38.9356033,17.7297374 C38.7100916,16.9319942 38.4233872,16.1439689 38.0838066,15.3871984 C37.925178,15.0335895 37.5096098,14.875214 37.1561973,15.0342899 C36.8026097,15.1930156 36.644594,15.6084339 36.80331,15.9619553 C37.1149643,16.6563911 37.3779446,17.3797179 37.584897,18.1117121 C37.6723528,18.4209339 37.9537171,18.6227335 38.2598562,18.6227335 C38.3231501,18.6227335 38.3873193,18.6141537 38.451226,18.5960311 C38.8241606,18.4906226 39.041093,18.1027821 38.9356033,17.7297374 Z" id="Shape"></path>
                    <path d="M35.657105,11.4846304 C33.9804749,9.45428988 31.8294473,7.81327821 29.4363624,6.73896887 C29.083125,6.58024319 28.6674692,6.73809339 28.5087531,7.09187743 C28.349862,7.44548638 28.5077026,7.86081712 28.8614653,8.0195428 C31.0589783,9.0061284 33.034569,10.5133658 34.5747191,12.3784144 C34.7134753,12.5465078 34.9141246,12.6334436 35.1162622,12.6334436 C35.2736652,12.6334436 35.4319435,12.5807393 35.5628208,12.4727918 C35.8616938,12.2259047 35.9039772,11.7835214 35.657105,11.4846304 Z" id="Shape"></path>
                    <path d="M44.120358,21.7105739 L41.8137659,21.7105739 C41.4511613,11.560535 33.2623568,3.37114786 23.1129315,3.00860895 L23.1129315,0.701877432 C23.1129315,0.314124514 22.7987384,0 22.4110965,0 C22.0234545,0 21.7092615,0.314124514 21.7092615,0.701877432 L21.7092615,3.00860895 C11.5598362,3.37114786 3.37103161,11.560535 3.00842707,21.7105739 L0.701835002,21.7105739 C0.314105524,21.7105739 0,22.024786 0,22.4124514 C0,22.8001167 0.314105524,23.1143288 0.701835002,23.1143288 L3.00842707,23.1143288 C3.37103161,33.2643677 11.5598362,41.4537549 21.7092615,41.8162938 L21.7092615,44.1230253 C21.7092615,44.5106907 22.023367,44.8249027 22.4110965,44.8249027 C22.7987384,44.8249027 23.1129315,44.5107782 23.1129315,44.1230253 L23.1129315,41.8162938 C33.2623568,41.4536673 41.4511613,33.2643677 41.8137659,23.1143288 L44.120358,23.1143288 C44.5079999,23.1143288 44.822193,22.8002043 44.822193,22.4124514 C44.822193,22.024786 44.5080874,21.7105739 44.120358,21.7105739 Z M23.1129315,4.4132393 C32.4882985,4.77437743 40.0481041,12.3347276 40.4092204,21.7105739 L37.319203,21.7105739 C36.9622888,14.0376362 30.7854054,7.86029183 23.1129315,7.50335603 L23.1129315,4.4132393 Z M21.7092615,4.4132393 L21.7092615,7.50344358 C14.0367876,7.86037938 7.85981666,14.0376362 7.50290244,21.7105739 L4.41297251,21.7105739 C4.77408881,12.3347276 12.333982,4.77437743 21.7092615,4.4132393 Z M21.7092615,40.411751 C12.333982,40.0505253 4.77408881,32.4901751 4.41297251,23.1143288 L7.50298998,23.1143288 C7.8599042,30.7872665 14.0367876,36.9646109 21.7092615,37.3215467 L21.7092615,40.411751 Z M22.4110965,34.4375195 C22.0234545,34.4375195 21.7092615,34.751644 21.7092615,35.1393969 L21.7092615,35.9167412 C14.8108458,35.5622568 9.26208597,30.0131615 8.90762296,23.1143288 L9.68492033,23.1143288 C10.0725623,23.1143288 10.3867553,22.8002043 10.3867553,22.4124514 C10.3867553,22.024786 10.0726498,21.7105739 9.68492033,21.7105739 L8.90762296,21.7105739 C9.26208597,14.8117412 14.8108458,9.26264591 21.7092615,8.90816148 L21.7092615,9.68550584 C21.7092615,10.0731712 22.023367,10.3873833 22.4110965,10.3873833 C22.7987384,10.3873833 23.1129315,10.0732588 23.1129315,9.68550584 L23.1129315,8.90816148 C30.0113471,9.26264591 35.560107,14.8117412 35.91457,21.7105739 L35.1372726,21.7105739 C34.7496307,21.7105739 34.4354376,22.0246984 34.4354376,22.4124514 C34.4354376,22.8001167 34.7495432,23.1143288 35.1372726,23.1143288 L35.91457,23.1143288 C35.560107,30.0131615 30.0113471,35.5622568 23.1129315,35.9167412 L23.1129315,35.1393969 C23.1129315,34.751644 22.7987384,34.4375195 22.4110965,34.4375195 Z M23.1129315,40.4116634 L23.1129315,37.3214591 C30.7854054,36.9644358 36.9623763,30.7870914 37.3192905,23.1142412 L40.409308,23.1142412 C40.0481041,32.4901751 32.488211,40.0505253 23.1129315,40.4116634 Z" id="Shape"></path>
                    <path d="M22.4110965,11.2296012 C16.245156,11.2296012 11.2289223,16.2461381 11.2289223,22.4124514 C11.2289223,28.5787646 16.245156,33.5953016 22.4110965,33.5953016 C28.5770369,33.5953016 33.5932706,28.5787646 33.5932706,22.4124514 C33.5932706,16.2461381 28.5770369,11.2296012 22.4110965,11.2296012 Z M31.0704465,17.8738424 C31.6816741,19.0354377 32.066077,20.3339591 32.1641255,21.7106615 L29.8355601,21.7106615 C29.7807579,20.3833366 29.5709165,19.081751 29.2178542,17.8738424 L31.0704465,17.8738424 Z M30.1715514,16.4700875 L28.7237596,16.4700875 C28.3234239,15.5056518 27.8314303,14.6518774 27.2695771,13.9280253 C28.3971354,14.576323 29.3834862,15.4432296 30.1715514,16.4700875 Z M26.1006108,21.7105739 C26.0756609,20.3806226 25.9794508,19.0779864 25.818371,17.8737549 L27.7479139,17.8737549 C28.1376569,19.062928 28.370172,20.3697665 28.4304894,21.7105739 L26.1006108,21.7105739 Z M28.4304894,23.1143288 C28.3702596,24.4551362 28.1376569,25.7618872 27.7479139,26.9511479 L25.818371,26.9511479 C25.9795383,25.7469163 26.0755734,24.4442802 26.1006108,23.1143288 L28.4304894,23.1143288 Z M27.1880742,16.4700875 L25.5925092,16.4700875 C25.4065671,15.4973346 25.1221388,14.353249 24.7010553,13.3824222 C25.6697224,14.0371984 26.5325496,15.0982879 27.1880742,16.4700875 Z M22.4110965,12.633356 C22.73632,12.633356 23.5801503,13.6205545 24.1617008,16.4701751 L20.6604922,16.4701751 C21.2420426,13.6204669 22.0858729,12.633356 22.4110965,12.633356 Z M17.5527034,13.9280253 C16.9908502,14.651965 16.4988566,15.5056518 16.0985209,16.4700875 L14.6507291,16.4700875 C15.4387067,15.4432296 16.4250576,14.576323 17.5527034,13.9280253 Z M18.7215822,21.7105739 L16.3917911,21.7105739 C16.4520209,20.3697665 16.6846236,19.0630156 17.0743666,17.8737549 L19.0039095,17.8737549 C18.8426546,19.0779864 18.746532,20.3806226 18.7215822,21.7105739 Z M19.0037344,26.9510603 L17.0741915,26.9510603 C16.6844485,25.7617996 16.4519334,24.4550486 16.391616,23.1142412 L18.7214071,23.1142412 C18.746532,24.4442802 18.8427422,25.7469163 19.0037344,26.9510603 Z M13.7517464,17.8738424 L15.6043387,17.8738424 C15.2512764,19.0816634 15.0415226,20.383249 14.9866329,21.7106615 L12.6580674,21.7106615 C12.756116,20.3339591 13.1405188,19.0354377 13.7517464,17.8738424 Z M13.7517464,26.9510603 C13.1405188,25.789465 12.756116,24.4909436 12.6580674,23.1142412 L14.9866329,23.1142412 C15.041435,24.4415661 15.2512764,25.7431518 15.6043387,26.9510603 L13.7517464,26.9510603 Z M14.6506415,28.3548152 L16.0984334,28.3548152 C16.4987691,29.319251 16.9907627,30.1730253 17.5526159,30.8968774 C16.4250576,30.2485798 15.4387067,29.3816732 14.6506415,28.3548152 Z M17.6341187,28.3548152 L19.2296838,28.3548152 C19.4156258,29.3276556 19.6999666,30.4716537 20.1211376,31.4424805 C19.1524705,30.7877043 18.2896433,29.7266148 17.6341187,28.3548152 Z M19.2296838,16.4700875 L17.6341187,16.4700875 C18.2896433,15.0982879 19.1524705,14.037286 20.1211376,13.3824222 C19.7000541,14.353249 19.4157134,15.4972471 19.2296838,16.4700875 Z M22.4110965,32.1915467 C22.0858729,32.1915467 21.2420426,31.2043482 20.6604922,28.3547276 L24.1617008,28.3547276 C23.5801503,31.2044358 22.7364075,32.1915467 22.4110965,32.1915467 Z M24.4020948,26.9510603 L20.4200106,26.9510603 C20.2516648,25.7567218 20.1516027,24.451284 20.1255148,23.1142412 L24.6965031,23.1142412 C24.6705902,24.451284 24.5704406,25.7567218 24.4020948,26.9510603 Z M20.1256024,21.7105739 C20.1516903,20.3736187 20.2517523,19.0681809 20.4200982,17.8737549 L24.4021823,17.8737549 C24.5705282,19.0680934 24.6705902,20.3735311 24.6966781,21.7105739 L20.1256024,21.7105739 Z M24.7010553,31.4424805 C25.1221388,30.4716537 25.4064796,29.3276556 25.5925092,28.3548152 L27.1880742,28.3548152 C26.5325496,29.7266148 25.6697224,30.7876167 24.7010553,31.4424805 Z M27.2694895,30.8968774 C27.8313427,30.1729377 28.3233363,29.3191634 28.723672,28.3548152 L30.1714639,28.3548152 C29.3834862,29.3816732 28.3971354,30.2485798 27.2694895,30.8968774 Z M31.070359,26.9510603 L29.2177667,26.9510603 C29.5709165,25.7432393 29.7806704,24.4415661 29.8355601,23.1142412 L32.1641255,23.1142412 C32.066077,24.4909436 31.6815866,25.789465 31.070359,26.9510603 Z" id="Shape"></path>
                </g>
            </g>
        </g>
    </g>
</svg>