<?xml version="1.0" encoding="UTF-8"?>
<svg width="64px" height="64px" viewBox="0 0 64 64" version="1.1" xmlns="http://www.w3.org/2000/svg" xmlns:xlink="http://www.w3.org/1999/xlink">
    <!-- Generator: Sketch 49 (51002) - http://www.bohemiancoding.com/sketch -->
    <title>target</title>
    <desc>Created with Sketch.</desc>
    <defs></defs>
    <g id="Page-1" stroke="none" stroke-width="1" fill="none" fill-rule="evenodd">
        <g id="grid" transform="translate(-356.000000, -20.000000)">
            <g id="target" transform="translate(356.000000, 20.000000)">
                <rect id="wrapper" fill-opacity="0.00999999978" fill="#FFFFFF" x="0" y="0" width="64" height="64"></rect>
                <g id="icon" transform="translate(10.000000, 10.000000)" fill="#6C5CE7" fill-rule="nonzero">
                    <path d="M43.9144922,9.91785992 C43.8079703,9.6589786 43.5571873,9.49027237 43.2789261,9.49027237 L34.6276974,9.49027237 L34.6276974,0.780145914 C34.6276974,0.499990272 34.460132,0.2475 34.2030012,0.140252918 C33.9462183,0.0330933852 33.6501309,0.092188716 33.4533481,0.290398833 L28.524559,5.25274319 C28.5243851,5.25291829 28.5242112,5.25300584 28.5241242,5.25318093 C28.5239503,5.25335603 28.5238634,5.25353113 28.5236894,5.25361868 L23.8548138,9.95428016 C23.7257701,10.0841148 23.6533353,10.2603502 23.6533353,10.4440272 L23.6533353,11.258142 C21.6459413,10.4638132 19.5277646,10.0606518 17.341327,10.0606518 C7.79766236,10.0606518 0.0333043913,17.8778696 0.0333043913,27.4865078 C0.0333043913,37.0951459 7.79748845,44.9124514 17.34124,44.9124514 C26.8849917,44.9124514 34.6492627,37.0952335 34.6492627,27.4865953 C34.6492627,25.0608852 34.1674359,22.7292899 33.2173478,20.5394358 L33.6803049,20.5394358 C33.8627399,20.5394358 34.0376966,20.4665078 34.1667403,20.3365856 L38.8362247,15.6353113 C38.8363116,15.6352237 38.8363986,15.6351362 38.8363986,15.6351362 L43.7654485,10.6725292 C43.9620574,10.4744942 44.021014,10.1766537 43.9144922,9.91785992 Z M29.6986475,6.02956226 L33.2518695,2.45214981 L33.2518695,9.89597276 L29.6986475,13.4733852 L29.6986475,6.02956226 Z M25.0290762,12.3069747 L25.0290762,10.7309241 L28.3229066,7.41466926 L28.3229066,14.8584922 L25.9009034,17.2969844 L25.0859458,18.1174903 C25.0669893,18.1015564 25.0480327,18.085535 25.0289892,18.0697763 L25.0289892,12.3069747 L25.0290762,12.3069747 Z M23.6533353,18.7490661 L23.6533353,19.5600292 L23.6532483,19.5600292 L21.9161156,21.3089883 C20.5971573,20.3167121 18.9960248,19.7758366 17.341327,19.7758366 C13.118365,19.7758366 9.6827083,23.2348833 9.6827083,27.4865953 C9.6827083,31.7383074 13.118365,35.1973541 17.341327,35.1973541 C21.564289,35.1973541 24.9999457,31.7383074 24.9999457,27.4865953 C24.9999457,25.5336479 24.2571621,23.6574805 22.9418561,22.2352529 L24.6262061,20.5394358 L25.5600334,20.5394358 C27.1862094,22.4865175 28.0788193,24.9412062 28.0788193,27.4865953 C28.0788193,33.447607 23.2619434,38.2971012 17.341414,38.2971012 C11.4207106,38.2971012 6.60400863,33.4474319 6.60400863,27.4865953 C6.60400863,21.5257588 11.4208845,16.6760895 17.341414,16.6760895 C19.6345474,16.6760019 21.8092459,17.3927626 23.6533353,18.7490661 Z M17.1110658,27.1261576 C17.2453269,27.2613327 17.4214141,27.3290078 17.5974143,27.3290078 C17.7734145,27.3290078 17.9495017,27.2614202 18.0837628,27.1261576 L19.6304604,25.56893 C20.074548,26.1035895 20.3220266,26.7763132 20.3220266,27.4865078 C20.3220266,29.1413521 18.9847205,30.4876751 17.3411531,30.4876751 C15.6974118,30.4876751 14.3602796,29.1412646 14.3602796,27.4865078 C14.3602796,25.831751 15.6974988,24.4853405 17.3411531,24.4853405 C17.7529797,24.4853405 18.1503715,24.5689494 18.518459,24.7296012 L17.1108919,26.146751 C16.8424568,26.4171887 16.8424568,26.8558074 17.1110658,27.1261576 Z M19.5385473,23.7026556 C18.8744594,23.311751 18.113415,23.1002335 17.34124,23.1002335 C14.9388891,23.1002335 12.9845387,25.0678891 12.9845387,27.4865953 C12.9845387,29.905214 14.9388891,31.8729572 17.34124,31.8729572 C19.7435041,31.8729572 21.6979414,29.905214 21.6979414,27.4865953 C21.6979414,26.4045817 21.3069844,25.3820136 20.6066356,24.586284 L21.9682026,23.2154475 C23.0268997,24.3780934 23.6240309,25.9017023 23.6240309,27.4865953 C23.6240309,30.9745331 20.8055924,33.8121595 17.34124,33.8121595 C13.8768877,33.8121595 11.0584492,30.9745331 11.0584492,27.4865953 C11.0584492,23.9986576 13.8768877,21.1610311 17.34124,21.1610311 C18.630807,21.1610311 19.8806347,21.5627043 20.9303752,22.3014397 L19.5385473,23.7026556 Z M33.2734348,27.4865078 C33.2734348,36.3314591 26.126295,43.5273444 17.3411531,43.5273444 C8.55601118,43.5273444 1.40895836,36.3314591 1.40895836,27.4865953 C1.40895836,18.6417315 8.55609814,11.4458463 17.34124,11.4458463 C19.5375038,11.4458463 21.658637,11.8861284 23.6532483,12.7552237 L23.6532483,17.0823152 C21.7571589,15.9078502 19.6003734,15.2908074 17.34124,15.2908074 C10.661927,15.2908074 5.22800683,20.7618093 5.22800683,27.4865078 C5.22800683,34.2112062 10.6620139,39.6822082 17.34124,39.6822082 C24.0205531,39.6822082 29.4544733,34.2112062 29.4544733,27.4865078 C29.4544733,24.990321 28.6938636,22.5717899 27.2906444,20.5393482 L31.7038675,20.5393482 C32.7451732,22.7130934 33.2734348,25.047928 33.2734348,27.4865078 Z M33.3954349,19.1542412 L32.1304768,19.1542412 L26.1778603,19.1542412 C26.1495124,19.1237743 26.1205559,19.0938327 26.0919471,19.0636284 L26.8738612,18.2763911 L29.2957774,15.8379864 L36.6892653,15.8379864 L33.3954349,19.1542412 Z M38.0650063,14.4529669 L30.6715183,14.4529669 L34.2247404,10.8755545 L41.6182283,10.8755545 L38.0650063,14.4529669 Z" id="Shape"></path>
                </g>
            </g>
        </g>
    </g>
</svg>