<?xml version="1.0" encoding="UTF-8"?>
<svg width="64px" height="64px" viewBox="0 0 64 64" version="1.1" xmlns="http://www.w3.org/2000/svg" xmlns:xlink="http://www.w3.org/1999/xlink">
    <!-- Generator: Sketch 49 (51002) - http://www.bohemiancoding.com/sketch -->
    <title>task</title>
    <desc>Created with Sketch.</desc>
    <defs></defs>
    <g id="Page-1" stroke="none" stroke-width="1" fill="none" fill-rule="evenodd">
        <g id="grid" transform="translate(-692.000000, -104.000000)">
            <g id="task" transform="translate(692.000000, 104.000000)">
                <rect id="wrapper" fill-opacity="0.00999999978" fill="#FFFFFF" x="0" y="0" width="64" height="64"></rect>
                <g id="icon" transform="translate(10.000000, 10.000000)" fill="#6C5CE7" fill-rule="nonzero">
                    <path d="M44.120358,4.48566833 L41.0791897,4.48566833 L41.0791897,0.721088012 C41.0791897,0.336020752 40.7650841,0.0239145204 40.3773547,0.0239145204 C39.9897127,0.0239145204 39.6755197,0.33593379 39.6755197,0.721088012 L39.6755197,4.48566833 L35.0903494,4.48566833 L35.0903494,0.721088012 C35.0903494,0.336020752 34.7762439,0.0239145204 34.3885144,0.0239145204 C34.0008725,0.0239145204 33.6866794,0.33593379 33.6866794,0.721088012 L33.6866794,4.48566833 L29.1015091,4.48566833 L29.1015091,0.721088012 C29.1015091,0.336020752 28.7874036,0.0239145204 28.3996741,0.0239145204 C28.0120322,0.0239145204 27.6978391,0.33593379 27.6978391,0.721088012 L27.6978391,4.48566833 L23.1126688,4.48566833 L23.1126688,0.721088012 C23.1126688,0.336020752 22.7985633,0.0239145204 22.4108338,0.0239145204 C22.0232795,0.0239145204 21.7089988,0.33593379 21.7089988,0.721088012 L21.7089988,4.48566833 L17.1238286,4.48566833 L17.1238286,0.721088012 C17.1238286,0.336020752 16.8096355,0.0239145204 16.4219936,0.0239145204 C16.0343516,0.0239145204 15.7201586,0.33593379 15.7201586,0.721088012 L15.7201586,4.48566833 L11.1349883,4.48566833 L11.1349883,0.721088012 C11.1349883,0.336020752 10.8207952,0.0239145204 10.4331533,0.0239145204 C10.0455114,0.0239145204 9.7313183,0.33593379 9.7313183,0.721088012 L9.7313183,4.48566833 L5.14658575,4.48566833 L5.14658575,0.721088012 C5.14658575,0.336020752 4.83239268,0.0239145204 4.44475074,0.0239145204 C4.05710881,0.0239145204 3.74291574,0.33593379 3.74291574,0.721088012 L3.74291574,4.48566833 L0.701835002,4.48566833 C0.314193067,4.48566833 0,4.79777457 0,5.18284183 L0,43.1077058 C0,43.492773 0.314193067,43.8048793 0.701835002,43.8048793 L44.1204455,43.8048793 C44.5080874,43.8048793 44.8222805,43.49286 44.8222805,43.1077058 L44.8222805,5.18284183 C44.822193,4.79777457 44.5080874,4.48566833 44.120358,4.48566833 Z M43.4189607,42.4105323 L1.40358246,42.4105323 L1.40358246,5.88001532 L3.74291574,5.88001532 L3.74291574,7.41376221 C3.74291574,7.79882947 4.05710881,8.11093571 4.44475074,8.11093571 C4.83239268,8.11093571 5.14658575,7.79891644 5.14658575,7.41376221 L5.14658575,5.88001532 L9.73175602,5.88001532 L9.73175602,7.41376221 C9.73175602,7.79882947 10.0459491,8.11093571 10.433591,8.11093571 C10.821233,8.11093571 11.135426,7.79891644 11.135426,7.41376221 L11.135426,5.88001532 L15.7205963,5.88001532 L15.7205963,7.41376221 C15.7205963,7.79882947 16.0347894,8.11093571 16.4224313,8.11093571 C16.8100732,8.11093571 17.1242663,7.79891644 17.1242663,7.41376221 L17.1242663,5.88001532 L21.7094366,5.88001532 L21.7094366,7.41376221 C21.7094366,7.79882947 22.0236296,8.11093571 22.4112716,8.11093571 C22.7989135,8.11093571 23.1131066,7.79891644 23.1131066,7.41376221 L23.1131066,5.88001532 L27.6982768,5.88001532 L27.6982768,7.41376221 C27.6982768,7.79882947 28.0123824,8.11093571 28.4001118,8.11093571 C28.7877538,8.11093571 29.1019468,7.79891644 29.1019468,7.41376221 L29.1019468,5.88001532 L33.6871171,5.88001532 L33.6871171,7.41376221 C33.6871171,7.79882947 34.0012226,8.11093571 34.3889521,8.11093571 C34.776594,8.11093571 35.0907871,7.79891644 35.0907871,7.41376221 L35.0907871,5.88001532 L39.6759574,5.88001532 L39.6759574,7.41376221 C39.6759574,7.79882947 39.9900629,8.11093571 40.3777924,8.11093571 C40.7654343,8.11093571 41.0796274,7.79891644 41.0796274,7.41376221 L41.0796274,5.88001532 L43.4189607,5.88001532 L43.4189607,42.4105323 Z" id="Shape"></path>
                    <path d="M41.1260254,21.5890724 L3.6961676,21.5890724 C3.3086132,21.5890724 2.99433259,21.9010917 2.99433259,22.2862459 L2.99433259,28.235222 C2.99433259,28.6202893 3.30852566,28.9323955 3.6961676,28.9323955 L41.1259378,28.9323955 C41.5135797,28.9323955 41.8277728,28.6203763 41.8277728,28.235222 L41.8277728,22.2862459 C41.8277728,21.9010917 41.5136673,21.5890724 41.1260254,21.5890724 Z M40.4241904,27.5380485 L4.3980026,27.5380485 L4.3980026,22.9833325 L40.4241904,22.9833325 L40.4241904,27.5380485 Z" id="Shape"></path>
                    <path d="M16.4223437,10.4347314 L4.44475074,10.4347314 C4.05719635,10.4347314 3.74291574,10.7467507 3.74291574,11.1319049 L3.74291574,17.8244921 C3.74291574,18.2095594 4.05710881,18.5216656 4.44475074,18.5216656 L8.56068868,18.5216656 L9.84950181,20.4420451 C9.97967877,20.6360571 10.1987122,20.752499 10.4334159,20.752499 C10.6681196,20.752499 10.8872406,20.6360571 11.01733,20.4420451 L12.3063183,18.5216656 L16.4222562,18.5216656 C16.8098106,18.5216656 17.1240912,18.2096463 17.1240912,17.8244921 L17.1240912,11.1319049 C17.1241787,10.7467507 16.8098981,10.4347314 16.4223437,10.4347314 Z M15.7205087,17.1273186 L11.9307573,17.1273186 C11.6960536,17.1273186 11.4769326,17.2437606 11.3468432,17.4377726 L10.433591,18.7986392 L9.52033884,17.4377726 C9.39016188,17.2437606 9.17112843,17.1273186 8.93642472,17.1273186 L5.14667329,17.1273186 L5.14667329,11.8289914 L15.7205963,11.8289914 L15.7205963,17.1273186 L15.7205087,17.1273186 Z" id="Shape"></path>
                    <path d="M14.1765068,12.6655648 C13.7889524,12.6655648 13.4746718,12.9775841 13.4746718,13.3627383 L13.4746718,15.5935717 C13.4746718,15.978639 13.7888648,16.2907452 14.1765068,16.2907452 C14.5641487,16.2907452 14.8783418,15.978726 14.8783418,15.5935717 L14.8783418,13.3627383 C14.8783418,12.9775841 14.5641487,12.6655648 14.1765068,12.6655648 Z" id="Shape"></path>
                    <path d="M40.3774422,10.4347314 L28.3998492,10.4347314 C28.0122073,10.4347314 27.6980142,10.7467507 27.6980142,11.1319049 L27.6980142,17.8244921 C27.6980142,18.2095594 28.0121197,18.5216656 28.3998492,18.5216656 L32.5157871,18.5216656 L33.8046003,20.4420451 C33.9347772,20.6360571 34.1538107,20.752499 34.3885144,20.752499 C34.6232181,20.752499 34.8423391,20.6360571 34.9724285,20.4420451 L36.2614167,18.5216656 L40.3773547,18.5216656 C40.7649966,18.5216656 41.0791897,18.2096463 41.0791897,17.8244921 L41.0791897,11.1319049 C41.0791897,10.7467507 40.7650841,10.4347314 40.3774422,10.4347314 Z M39.6756072,17.1273186 L35.8858558,17.1273186 C35.6511521,17.1273186 35.4320311,17.2437606 35.3019417,17.4377726 L34.3886895,18.7986392 L33.4754373,17.4377726 C33.3452603,17.2437606 33.1262269,17.1273186 32.8915232,17.1273186 L29.1017718,17.1273186 L29.1017718,11.8289914 L39.6756948,11.8289914 L39.6756948,17.1273186 L39.6756072,17.1273186 Z" id="Shape"></path>
                    <path d="M38.1316052,12.6655648 C37.7439633,12.6655648 37.4297702,12.9775841 37.4297702,13.3627383 L37.4297702,15.5935717 C37.4297702,15.978639 37.7438757,16.2907452 38.1316052,16.2907452 C38.5192472,16.2907452 38.8334402,15.978726 38.8334402,15.5935717 L38.8334402,13.3627383 C38.8334402,12.9775841 38.5193347,12.6655648 38.1316052,12.6655648 Z" id="Shape"></path>
                    <path d="M28.3998492,31.2561912 L24.2839113,31.2561912 L22.9950981,29.3358117 C22.8649212,29.1417998 22.6458877,29.0253578 22.411184,29.0253578 C22.1764803,29.0253578 21.9573593,29.1417998 21.8272699,29.3358117 L20.5382817,31.2561912 L16.4223437,31.2561912 C16.0347894,31.2561912 15.7205087,31.5682105 15.7205087,31.9533647 L15.7205087,38.6459519 C15.7205087,39.0310192 16.0347018,39.3431254 16.4223437,39.3431254 L28.3998492,39.3431254 C28.7874911,39.3431254 29.1016842,39.0311062 29.1016842,38.6459519 L29.1016842,31.9533647 C29.1016842,31.5682105 28.7875787,31.2561912 28.3998492,31.2561912 Z M27.6981017,37.9487785 L17.1241787,37.9487785 L17.1241787,32.6504512 L20.9139302,32.6504512 C21.1486339,32.6504512 21.3677549,32.5340093 21.4978443,32.3399973 L22.4110965,30.9791306 L23.3243487,32.3399973 C23.4545256,32.5340093 23.6735591,32.6504512 23.9082628,32.6504512 L27.6980142,32.6504512 L27.6981017,37.9487785 Z" id="Shape"></path>
                    <path d="M26.1540998,33.4870246 C25.7664578,33.4870246 25.4522648,33.7990439 25.4522648,34.1841981 L25.4522648,36.4150316 C25.4522648,36.8000988 25.7663703,37.1122051 26.1540998,37.1122051 C26.5417417,37.1122051 26.8559348,36.8001858 26.8559348,36.4150316 L26.8559348,34.1841981 C26.8558472,33.7991309 26.5417417,33.4870246 26.1540998,33.4870246 Z" id="Shape"></path>
                </g>
            </g>
        </g>
    </g>
</svg>