<?xml version="1.0" encoding="UTF-8"?>
<svg width="64px" height="64px" viewBox="0 0 64 64" version="1.1" xmlns="http://www.w3.org/2000/svg" xmlns:xlink="http://www.w3.org/1999/xlink">
    <!-- Generator: Sketch 49 (51002) - http://www.bohemiancoding.com/sketch -->
    <title>brainstorming</title>
    <desc>Created with Sketch.</desc>
    <defs></defs>
    <g id="Page-1" stroke="none" stroke-width="1" fill="none" fill-rule="evenodd">
        <g id="grid" transform="translate(-188.000000, -20.000000)">
            <g id="brainstorming" transform="translate(188.000000, 20.000000)">
                <rect id="wrapper" fill-opacity="0.00999999978" fill="#FFFFFF" x="0" y="0" width="64" height="64"></rect>
                <g id="icon" transform="translate(14.000000, 10.000000)" fill="#6C5CE7" fill-rule="nonzero">
                    <path d="M5.42055945,27.8415175 C3.1026918,27.8415175 1.21693499,29.7357198 1.21693499,32.0641634 C1.21693499,34.3925195 3.1026918,36.2868093 5.42055945,36.2868093 C7.73842711,36.2868093 9.62418392,34.3925195 9.62418392,32.0641634 C9.62418392,29.7358074 7.73842711,27.8415175 5.42055945,27.8415175 Z M5.42055945,34.894786 C3.86686039,34.894786 2.60277494,33.624893 2.60277494,32.064251 C2.60277494,30.5036089 3.86694754,29.233716 5.42055945,29.233716 C6.97417137,29.233716 8.23834397,30.5036089 8.23834397,32.064251 C8.23834397,33.624893 6.97417137,34.894786 5.42055945,34.894786 Z" id="Shape"></path>
                    <path d="M5.23579241,36.4598054 C2.37957287,36.4598054 0.0558658833,38.7939397 0.0558658833,41.6630837 L0.0558658833,44.1288035 C0.0558658833,44.5133171 0.366135063,44.8248152 0.748742283,44.8248152 L9.67037568,44.8248152 C10.0473179,44.8248152 10.3550596,44.5221595 10.3630778,44.1435992 L10.4155446,41.6779669 C10.4156318,41.6730642 10.4157189,41.6681615 10.4157189,41.6630837 C10.4157189,38.7940272 8.09201196,36.4598054 5.23579241,36.4598054 Z M8.9921412,43.4327918 L1.44161868,43.4327918 L1.44161868,41.6631712 C1.44161868,39.5615661 3.14365431,37.8519163 5.23579241,37.8519163 C7.3254902,37.8519163 9.02595705,39.5578016 9.02996615,41.6559047 L8.9921412,43.4327918 Z" id="Shape"></path>
                    <path d="M29.4411462,27.8415175 C27.1232785,27.8415175 25.2375217,29.7357198 25.2375217,32.0641634 C25.2375217,34.3925195 27.1232785,36.2868093 29.4411462,36.2868093 C31.7590138,36.2868093 33.6447706,34.3925195 33.6447706,32.0641634 C33.6447706,29.7358074 31.759101,27.8415175 29.4411462,27.8415175 Z M29.4411462,34.894786 C27.8874471,34.894786 26.6233617,33.624893 26.6233617,32.064251 C26.6233617,30.5036089 27.8875343,29.233716 29.4411462,29.233716 C30.9948452,29.233716 32.2589307,30.5036089 32.2589307,32.064251 C32.2589307,33.624893 30.9948452,34.894786 29.4411462,34.894786 Z" id="Shape"></path>
                    <path d="M29.6259132,36.4598054 C26.7696937,36.4598054 24.4459867,38.7939397 24.4459867,41.6630837 C24.4459867,41.6680739 24.4460738,41.6729767 24.446161,41.6779669 L24.4986279,44.1435992 C24.5066461,44.5221595 24.8143878,44.8248152 25.19133,44.8248152 L34.1130505,44.8248152 C34.495832,44.8248152 34.8059269,44.5132296 34.8059269,44.1288035 L34.8059269,41.6631712 C34.8059269,38.7940272 32.4822199,36.4598054 29.6259132,36.4598054 Z M25.8694773,43.4327918 L25.8316523,41.6560798 C25.8353128,39.5576265 27.5360411,37.8519163 29.6258261,37.8519163 C31.7180513,37.8519163 33.4199998,39.5616537 33.4199998,41.6631712 L33.4199998,43.4328794 L25.8694773,43.4328794 L25.8694773,43.4327918 Z" id="Shape"></path>
                    <path d="M17.563153,27.8415175 C15.2452853,27.8415175 13.3595285,29.7357198 13.3595285,32.0641634 C13.3595285,34.3925195 15.2451982,36.2868093 17.563153,36.2868093 C19.8810206,36.2868093 21.7667775,34.3925195 21.7667775,32.0641634 C21.7667775,29.7358074 19.8810206,27.8415175 17.563153,27.8415175 Z M17.563153,34.894786 C16.0094539,34.894786 14.7453685,33.624893 14.7453685,32.064251 C14.7453685,30.5036089 16.0095411,29.233716 17.563153,29.233716 C19.1168521,29.233716 20.3809375,30.5036089 20.3809375,32.064251 C20.3809375,33.624893 19.1168521,34.894786 17.563153,34.894786 Z" id="Shape"></path>
                    <path d="M17.3783859,36.4598054 C14.5221664,36.4598054 12.1985466,38.7939397 12.1985466,41.6630837 L12.1985466,44.1288035 C12.1985466,44.5133171 12.5087286,44.8248152 12.891423,44.8248152 L21.8129692,44.8248152 C22.1899114,44.8248152 22.4976531,44.5221595 22.5056713,44.1435992 L22.5581382,41.6779669 C22.5582253,41.6730642 22.5583125,41.6681615 22.5583125,41.6630837 C22.5583125,38.7940272 20.2346055,36.4598054 17.3783859,36.4598054 Z M21.1347347,43.4327918 L13.5842994,43.4327918 L13.5842994,41.6631712 C13.5842994,39.5615661 15.286335,37.8519163 17.3783859,37.8519163 C19.4680837,37.8519163 21.1685506,39.5578016 21.1725597,41.6559047 L21.1347347,43.4327918 Z" id="Shape"></path>
                    <path d="M22.6752735,7.26688716 C22.6288203,6.97762646 22.5577896,6.69002918 22.4641859,6.41223735 C22.3413855,6.04794747 21.9477969,5.85280156 21.5856709,5.97607004 C21.223022,6.09942607 21.0285808,6.49444553 21.1513812,6.85856031 C21.2204945,7.06351167 21.2727871,7.27555447 21.3071259,7.48882296 C21.3621202,7.83078794 21.6562658,8.0740856 21.9904153,8.0740856 C22.0270201,8.0740856 22.064235,8.0711965 22.1016241,8.06506809 C22.4794379,8.00378405 22.7362815,7.64649805 22.6752735,7.26688716 Z" id="Shape"></path>
                    <path d="M21.5095852,4.70442607 C20.4950224,3.4840856 19.008345,2.78413424 17.4308528,2.78413424 C17.0480713,2.78413424 16.7379764,3.09571984 16.7379764,3.48014591 C16.7379764,3.86465953 17.0481584,4.17615759 17.4308528,4.17615759 C18.5963668,4.17615759 19.6953821,4.69392023 20.4457803,5.59672179 C20.5827868,5.76157588 20.7796683,5.8465856 20.9780314,5.8465856 C21.1346476,5.8465856 21.2921353,5.79361868 21.4218209,5.68479572 C21.7156179,5.4385214 21.7548373,4.99946498 21.5095852,4.70442607 Z" id="Shape"></path>
                    <path d="M28.8868451,23.3868677 L18.1237292,23.3868677 L18.1237292,21.438035 L20.3872126,21.438035 C20.7699941,21.438035 21.080089,21.1264494 21.080089,20.7420233 L21.080089,18.1434922 L21.080089,15.5449611 C21.080089,15.4865661 21.072158,15.4301848 21.0586491,15.3759047 C23.6991618,14.038249 25.5146723,11.2886089 25.5146723,8.12057393 C25.5147594,3.64281128 21.8883577,0 17.4308528,0 C12.973348,0 9.34694621,3.64281128 9.34694621,8.12048638 C9.34694621,11.2885214 11.1624567,14.0381615 13.8029694,15.3758171 C13.7894605,15.4300097 13.7815295,15.4864786 13.7815295,15.5448735 L13.7815295,18.1434047 L13.7815295,20.7419358 C13.7815295,21.1264494 14.0917115,21.4379475 14.4744059,21.4379475 L16.7378893,21.4379475 L16.7378893,23.3868677 L5.23579241,23.3868677 C4.85301089,23.3868677 4.54291601,23.6984533 4.54291601,24.0828794 L4.54291601,25.9389981 C4.54291601,26.3235117 4.85309804,26.6350097 5.23579241,26.6350097 C5.61857394,26.6350097 5.92866881,26.3234241 5.92866881,25.9389981 L5.92866881,24.7789786 L16.7379764,24.7789786 L16.7379764,25.9389981 C16.7379764,26.3235117 17.0481584,26.6350097 17.4308528,26.6350097 C17.8136343,26.6350097 18.1237292,26.3234241 18.1237292,25.9389981 L18.1237292,24.7789786 L28.1938815,24.7789786 L28.1938815,25.9389981 C28.1938815,26.3235117 28.5040635,26.6350097 28.8867579,26.6350097 C29.2695394,26.6350097 29.5796343,26.3234241 29.5796343,25.9389981 L29.5796343,24.0828794 C29.5797215,23.6984533 29.2696266,23.3868677 28.8868451,23.3868677 Z M19.6943362,17.447393 L15.1673694,17.447393 L15.1673694,16.2408852 L17.4308528,16.2408852 L19.6943362,16.2408852 L19.6943362,17.447393 Z M16.2760588,14.7466926 L16.2760588,9.55899805 L18.585734,9.55899805 L18.585734,14.7466926 C18.2102734,14.8126167 17.8247901,14.8488619 17.4308528,14.8488619 C17.0369155,14.8488619 16.6514322,14.8125292 16.2760588,14.7466926 Z M14.8902189,7.74919261 L14.8902189,8.16679961 L14.1049589,8.16679961 C13.7221774,8.16679961 13.4120825,8.47838521 13.4120825,8.86281128 C13.4120825,9.2473249 13.7222646,9.55882296 14.1049589,9.55882296 L14.8902189,9.55882296 L14.8902189,14.3444942 C12.4533856,13.337072 10.7327862,10.9272082 10.7327862,8.12031128 C10.7327862,4.41026265 13.7375166,1.3919358 17.4308528,1.3919358 C21.1241891,1.3919358 24.1289195,4.41026265 24.1289195,8.12031128 C24.1289195,10.9272957 22.40832,13.337072 19.9714868,14.3444942 L19.9714868,9.55882296 L20.7567467,9.55882296 C21.1395282,9.55882296 21.4496231,9.24723735 21.4496231,8.86281128 C21.4496231,8.47829767 21.1394411,8.16679961 20.7567467,8.16679961 L19.9714868,8.16679961 L19.9714868,7.74919261 C19.9714868,7.36467899 19.6613047,7.05318093 19.2786104,7.05318093 C18.8958288,7.05318093 18.585734,7.36476654 18.585734,7.74919261 L18.585734,8.16679961 L16.2760588,8.16679961 L16.2760588,7.74919261 C16.2760588,7.36467899 15.9658768,7.05318093 15.5831824,7.05318093 C15.2003137,7.05318093 14.8902189,7.36476654 14.8902189,7.74919261 Z M17.4308528,20.0459241 L15.1673694,20.0459241 L15.1673694,18.8394163 L19.6943362,18.8394163 L19.6943362,20.0459241 L17.4308528,20.0459241 Z" id="Shape"></path>
                    <path d="M6.27824457,5.20371595 L3.40389694,5.20371595 C3.02111541,5.20371595 2.71102054,5.51530156 2.71102054,5.89972763 C2.71102054,6.28424125 3.02120256,6.5957393 3.40389694,6.5957393 L6.27824457,6.5957393 C6.66102609,6.5957393 6.97112097,6.2841537 6.97112097,5.89972763 C6.97112097,5.51521401 6.66102609,5.20371595 6.27824457,5.20371595 Z" id="Shape"></path>
                    <path d="M7.57082946,7.77002918 C7.30012831,7.49827821 6.8614809,7.49827821 6.59077976,7.77002918 L4.76158606,9.6075 C4.49097207,9.87942607 4.49097207,10.3200584 4.76158606,10.5918969 C4.89693664,10.7277724 5.07429556,10.7957101 5.25156734,10.7957101 C5.42883911,10.7957101 5.60628519,10.7277724 5.74154861,10.5918969 L7.5707423,8.75442607 C7.84144345,8.4825 7.84144345,8.0418677 7.57082946,7.77002918 Z" id="Shape"></path>
                    <path d="M7.5522656,3.04511673 L5.7230719,1.20764591 C5.45237076,0.935894942 5.01372335,0.935894942 4.74310936,1.20764591 C4.47249537,1.47957198 4.47249537,1.92020428 4.74310936,2.1920428 L6.5722159,4.02951362 C6.70756647,4.16538911 6.8849254,4.23332685 7.06219717,4.23332685 C7.23946895,4.23332685 7.41691503,4.16538911 7.55217845,4.02951362 C7.82287959,3.75758755 7.82287959,3.31695525 7.5522656,3.04511673 Z" id="Shape"></path>
                    <path d="M32.1968769,5.20371595 L29.3225292,5.20371595 C28.9397477,5.20371595 28.6296528,5.51538911 28.6296528,5.89972763 C28.6296528,6.28424125 28.9398348,6.5957393 29.3225292,6.5957393 L32.1968769,6.5957393 C32.5796584,6.5957393 32.8897533,6.2841537 32.8897533,5.89972763 C32.8898404,5.51521401 32.5796584,5.20371595 32.1968769,5.20371595 Z" id="Shape"></path>
                    <path d="M30.8391877,9.6075 L29.009994,7.77002918 C28.7392929,7.49827821 28.3006455,7.49827821 28.0300315,7.77002918 C27.7594175,8.04195525 27.7594175,8.48258755 28.0300315,8.75442607 L29.859138,10.5918969 C29.9944886,10.7277724 30.1718475,10.7957101 30.3491193,10.7957101 C30.5263911,10.7957101 30.70375,10.7277724 30.8391006,10.5918969 C31.1098017,10.3199708 31.1098017,9.87933852 30.8391877,9.6075 Z" id="Shape"></path>
                    <path d="M30.8577516,1.20764591 C30.5870504,0.935894942 30.148403,0.935894942 29.877789,1.20764591 L28.0485953,3.04511673 C27.7779814,3.3170428 27.7779814,3.7576751 28.0485953,4.02951362 C28.1839459,4.16538911 28.3612177,4.23332685 28.5384895,4.23332685 C28.7157612,4.23332685 28.8932073,4.16538911 29.0284707,4.02951362 L30.8576644,2.1920428 C31.1283656,1.92011673 31.1283656,1.47948444 30.8577516,1.20764591 Z" id="Shape"></path>
                </g>
            </g>
        </g>
    </g>
</svg>