<?xml version="1.0" encoding="UTF-8"?>
<svg width="64px" height="64px" viewBox="0 0 64 64" version="1.1" xmlns="http://www.w3.org/2000/svg" xmlns:xlink="http://www.w3.org/1999/xlink">
    <!-- Generator: Sketch 49 (51002) - http://www.bohemiancoding.com/sketch -->
    <title>broken-link</title>
    <desc>Created with Sketch.</desc>
    <defs></defs>
    <g id="Page-1" stroke="none" stroke-width="1" fill="none" fill-rule="evenodd">
        <g id="grid" transform="translate(-524.000000, -104.000000)">
            <g id="broken-link" transform="translate(524.000000, 104.000000)">
                <rect id="wrapper" fill-opacity="0.00999999978" fill="#FFFFFF" x="0" y="0" width="64" height="64"></rect>
                <g id="icon" transform="translate(10.000000, 10.000000)" fill="#6C5CE7" fill-rule="nonzero">
                    <path d="M42.3688782,30.5075486 L34.5037214,22.6418288 C31.7788473,19.9168774 27.5758037,19.4164494 24.3037836,21.3556518 L23.4679197,20.5196498 C25.4070924,17.2473444 24.9066071,13.0439591 22.1818205,10.3190953 L14.3165761,2.45346304 C12.7344052,0.871371595 10.6278497,8.75486381e-05 8.38490164,8.75486381e-05 C6.14195358,8.75486381e-05 4.03531052,0.871459144 2.45331472,2.45363813 C0.871318919,4.03572957 0,6.1423249 0,8.38540856 C0,10.6284922 0.871231376,12.7352626 2.45322717,14.3173541 L10.318384,22.1828988 C11.9004673,23.7650778 14.0071104,24.6363619 16.2500584,24.6363619 C17.7653462,24.6363619 19.2293336,24.234251 20.5191972,23.4699514 L21.3543608,24.3051654 C19.4152756,27.5774708 19.915761,31.780856 22.6405476,34.5056323 L30.5056168,42.3712646 C32.0877002,43.9534436 34.1942557,44.8247276 36.4372038,44.8247276 C38.6801518,44.8247276 40.7867949,43.953356 42.3687907,42.3712646 C43.9507865,40.7891732 44.822193,38.6825778 44.822193,36.4394066 C44.822193,34.1964105 43.9507865,32.0896401 42.3688782,30.5075486 Z M16.250146,23.2459144 C14.3784693,23.2460895 12.6210366,22.5193482 11.3015833,21.1998152 L3.43651403,13.3341829 C0.707875493,10.6053794 0.707875493,6.16543774 3.43651403,3.43672179 C6.16488994,0.707918288 10.6049133,0.707918288 13.3332893,3.43672179 L21.1985336,11.3022665 C23.385629,13.4894066 23.8550364,16.8182685 22.4468142,19.4984825 L21.4039978,18.4556031 C22.2894988,16.3747471 21.8341858,13.9043872 20.2155094,12.2854377 L12.350265,4.41980545 C10.1636949,2.23327821 6.6061084,2.23310311 4.41945072,4.41980545 C2.23305566,6.60642023 2.23305566,10.1643093 4.41945072,12.3510117 L12.2846075,20.2165564 C13.3568384,21.2888521 14.8028794,21.8510895 16.2617893,21.8510895 C17.00547,21.8510895 17.7524773,21.7048833 18.4551002,21.4059047 L19.4975664,22.4484339 C18.5008854,22.9717121 17.3931994,23.2459144 16.250146,23.2459144 Z M11.8914504,14.841858 L17.3644852,20.3152237 C15.9289495,20.703677 14.346691,20.3123346 13.2678944,19.2334728 L5.40273757,11.3678405 C3.75841091,9.7234144 3.75841091,7.04757782 5.40273757,5.4030642 C7.04706424,3.75863813 9.72273905,3.75863813 11.3670657,5.4030642 L19.2323101,13.2686089 C20.3111067,14.3477335 20.702513,15.93 20.3139081,17.3656226 L14.8408732,11.8922568 C14.0275955,11.0790175 12.7046405,11.0791051 11.8915379,11.8922568 C11.4975928,12.2861381 11.2805729,12.8099416 11.2805729,13.3671012 C11.2806604,13.9241732 11.4976804,14.4479767 11.8914504,14.841858 Z M21.1077511,22.092286 L19.0897019,20.0740272 L19.083749,20.0680739 C19.0831362,20.0674611 19.0824358,20.0667607 19.0819106,20.0662354 L12.8745621,13.8585992 C12.7433346,13.7272763 12.6710238,13.5527918 12.6710238,13.3670136 C12.6710238,13.181323 12.7433346,13.006751 12.8746497,12.875428 C13.1456839,12.6043774 13.5867272,12.6043774 13.8576739,12.875428 L20.0647597,19.0828891 C20.0657227,19.0838521 20.0665981,19.0846401 20.0674736,19.0856031 L20.0727262,19.090856 L22.0907754,21.1090272 L23.7140916,22.7325292 C23.7143543,22.7327918 23.7147044,22.7330545 23.7150546,22.7334047 L23.7245968,22.7429475 C23.7246844,22.743035 23.7247719,22.7431226 23.7248595,22.7432101 L25.7316156,24.7499125 C25.7318782,24.7501751 25.7321408,24.7505253 25.732491,24.7508755 L25.7375685,24.7559533 C25.738619,24.7570039 25.739582,24.7579669 25.7406325,24.7590175 L30.6367568,29.6554377 C30.7679842,29.7867607 30.8402951,29.9612451 30.8402951,30.1470233 C30.8402951,30.332714 30.7679842,30.507286 30.6366692,30.6386089 C30.5054418,30.7699319 30.3307928,30.8422471 30.1451133,30.8422471 C29.9594339,30.8422471 29.7847849,30.7699319 29.6535575,30.6386089 L24.7575208,25.7421887 C24.7564702,25.7411381 24.7555073,25.7401751 24.7544568,25.7391245 L24.7493792,25.7340467 C24.7491166,25.733784 24.7487664,25.7335214 24.7484163,25.7331712 L22.7418352,23.7265564 C22.7416601,23.7263813 22.7413975,23.7261187 22.7412224,23.7259436 L22.7320304,23.716751 C22.7317678,23.7164883 22.7315051,23.7161381 22.7311549,23.7157879 L21.1077511,22.092286 Z M31.6198685,28.672179 L27.4575326,24.5095914 C28.8930684,24.1208755 30.4753268,24.512393 31.554211,25.5913424 L39.4193678,33.4570623 C41.0636945,35.1014883 41.0636945,37.7773249 39.4193678,39.4218385 C37.7750412,41.0662646 35.0994539,41.0662646 33.4550397,39.4218385 L25.5898829,31.5562062 C24.5109112,30.4770817 24.1195049,28.8949027 24.5081973,27.4591926 L28.6704457,31.6217802 C29.0643907,32.015749 29.588075,32.2326946 30.1452009,32.2326946 C30.7022392,32.2326946 31.226011,32.015749 31.6198685,31.6217802 C32.0138136,31.2278113 32.2308336,30.7040953 32.2308336,30.1469358 C32.2306585,29.5898638 32.0137261,29.0660603 31.6198685,28.672179 Z M41.3856789,41.3881809 C40.0663132,42.707714 38.3088805,43.4344553 36.4372038,43.4344553 C34.565527,43.4344553 32.8082695,42.707714 31.4888162,41.3881809 L23.6236594,33.5226362 C21.436564,31.3354086 20.967069,28.0065467 22.3753788,25.3263327 L23.4182827,26.3692996 C22.5326066,28.4500681 22.9879196,30.9206031 24.6067711,32.539465 L32.4718404,40.4050973 C33.5651692,41.4984047 35.0011427,42.0450584 36.4372038,42.0450584 C37.8732648,42.0450584 39.3092383,41.4984047 40.4025672,40.4050973 C42.5889622,38.2184825 42.5889622,34.6605934 40.4025672,32.4738911 L32.5374104,24.6081712 C30.9185588,22.9893093 28.4482607,22.5338813 26.3675304,23.4196109 L25.3246266,22.3767315 C28.0046785,20.9684241 31.3333392,21.4378599 33.5204346,23.625 L41.3855914,31.4906323 C42.7050447,32.8101654 43.431742,34.5676167 43.431742,36.4393191 C43.431742,38.3110214 42.7051322,40.0686479 41.3856789,41.3881809 Z" id="Shape"></path>
                    <path d="M34.2740077,10.178142 C34.0024482,9.9066537 33.5622803,9.9066537 33.2908084,10.178142 L29.3977558,14.07143 C29.1262839,14.3429183 29.1262839,14.7832004 29.3977558,15.0546012 C29.533448,15.1903891 29.7114236,15.2582393 29.8893117,15.2582393 C30.0671998,15.2582393 30.2451754,15.1903891 30.3809551,15.0546012 L34.2740077,11.1613132 C34.5454796,10.8897374 34.5454796,10.4495428 34.2740077,10.178142 Z" id="Shape"></path>
                    <path d="M26.9231681,7.13311284 C26.5391154,7.13311284 26.2279863,7.44434825 26.2279863,7.82833658 L26.2279863,13.3342704 C26.2279863,13.7182588 26.5392029,14.0294942 26.9231681,14.0294942 C27.3072207,14.0294942 27.6183498,13.7182588 27.6183498,13.3342704 L27.6183498,7.82833658 C27.6183498,7.44434825 27.3072207,7.13311284 26.9231681,7.13311284 Z" id="Shape"></path>
                    <path d="M36.623496,16.8340272 L31.117895,16.8340272 C30.7339299,16.8340272 30.4227133,17.1452626 30.4227133,17.529251 C30.4227133,17.9132393 30.7338423,18.2244747 31.117895,18.2244747 L36.623496,18.2244747 C37.0075487,18.2244747 37.3186777,17.9132393 37.3186777,17.529251 C37.3187653,17.1453502 37.0075487,16.8340272 36.623496,16.8340272 Z" id="Shape"></path>
                </g>
            </g>
        </g>
    </g>
</svg>