<?xml version="1.0" encoding="UTF-8"?>
<svg width="64px" height="64px" viewBox="0 0 64 64" version="1.1" xmlns="http://www.w3.org/2000/svg" xmlns:xlink="http://www.w3.org/1999/xlink">
    <!-- Generator: Sketch 49 (51002) - http://www.bohemiancoding.com/sketch -->
    <title>chat</title>
    <desc>Created with Sketch.</desc>
    <defs></defs>
    <g id="Page-1" stroke="none" stroke-width="1" fill="none" fill-rule="evenodd">
        <g id="grid" transform="translate(-608.000000, -272.000000)">
            <g id="chat" transform="translate(608.000000, 272.000000)">
                <rect id="wrapper" fill-opacity="0.00999999978" fill="#FFFFFF" x="0" y="0" width="64" height="64"></rect>
                <g id="icon" transform="translate(10.000000, 10.000000)" fill="#6C5CE7" fill-rule="nonzero">
                    <path d="M37.4251793,27.3408268 C41.4277933,24.4631907 43.7990138,19.9842023 43.7990138,15.2404669 C43.7990138,6.83684825 36.5038738,0 27.5369055,0 C22.2577682,0 17.3301966,2.39270428 14.2771491,6.41705253 L0.73008791,6.41705253 C0.341826534,6.41705253 0.0271304702,6.7339786 0.0271304702,7.12479572 L0.0271304702,36.9451751 C0.0271304702,37.3360798 0.34191349,37.6529183 0.73008791,37.6529183 L6.02583396,37.6529183 L6.02583396,44.1171595 C6.02583396,44.4017802 6.19513853,44.6586479 6.45557365,44.7692218 C6.54374768,44.8066926 6.63653041,44.8249027 6.72861749,44.8249027 C6.90844381,44.8249027 7.08548752,44.7554767 7.21931378,44.6240661 L14.3256709,37.6529183 L26.974557,37.6529183 C27.3629053,37.6529183 27.6775144,37.3359922 27.6775144,36.9451751 L27.6775144,30.4789202 C28.9979509,30.4683268 30.3103005,30.3097763 31.5832587,30.0042315 L38.7250941,32.7007296 C38.805529,32.7311089 38.8890943,32.7458171 38.9717901,32.7458171 C39.1674425,32.7458171 39.3584862,32.6635214 39.4943994,32.5116245 C39.6878779,32.2952918 39.7300519,31.9818677 39.6006604,31.7215856 L37.4251793,27.3408268 Z M26.2715126,36.2374319 L14.0397575,36.2374319 C13.8564529,36.2374319 13.6803657,36.309572 13.5491481,36.4382685 L7.43174884,42.439465 L7.43174884,36.9452626 C7.43174884,36.554358 7.11696582,36.2375195 6.7287914,36.2375195 L1.43304535,36.2375195 L1.43304535,7.83253891 L13.3234957,7.83253891 C12.4713206,9.27043774 11.8683633,10.8411479 11.5486238,12.4565953 L5.97896433,12.4565953 C5.59070296,12.4565953 5.27600689,12.7735214 5.27600689,13.1643385 L5.27600689,15.4291342 C5.27600689,15.8200389 5.59078991,16.1368774 5.97896433,16.1368774 L11.3037539,16.1368774 C11.3854062,17.4605253 11.6474935,18.7559825 12.0866245,20.0060019 L5.97896433,20.0060019 C5.59070296,20.0060019 5.27600689,20.322928 5.27600689,20.7137451 L5.27600689,22.9785409 C5.27600689,23.3694455 5.59078991,23.686284 5.97896433,23.686284 L14.0013226,23.686284 C15.0709762,25.1895817 16.4097606,26.4983463 17.9550669,27.5554086 L5.97896433,27.5554086 C5.59070296,27.5554086 5.27600689,27.8723346 5.27600689,28.2631518 L5.27600689,30.528035 C5.27600689,30.9189397 5.59078991,31.2357782 5.97896433,31.2357782 L21.7255936,31.2357782 C22.1139419,31.2357782 22.428551,30.9188521 22.428551,30.528035 L22.428551,29.7125195 C23.6714222,30.0977335 24.9581196,30.3395428 26.2715126,30.4340953 L26.2715126,36.2374319 Z M11.3429713,13.8721693 C11.3158409,14.155214 11.2950582,14.4385214 11.2847974,14.7214786 L6.68192177,14.7214786 L6.68192177,13.8721693 L11.3429713,13.8721693 Z M12.6700166,21.4215759 C12.8060167,21.7085603 12.9514952,21.9919553 13.1064519,22.2708852 L6.68192177,22.2708852 L6.68192177,21.4215759 L12.6700166,21.4215759 Z M20.4751572,28.97107 C20.656027,29.052928 20.8387229,29.1317218 21.0226362,29.2071887 L21.0226362,29.8203794 L6.68192177,29.8203794 L6.68192177,28.97107 L20.4751572,28.97107 Z M31.8736069,28.6020525 C31.7395197,28.5514494 31.5936935,28.5433949 31.4548237,28.5785019 C30.1819525,28.901644 28.8638638,29.0654475 27.5369055,29.0654475 C27.3753401,29.0654475 27.2040355,29.0622082 26.9977744,29.0553794 L26.9976875,29.0553794 C25.2615113,28.9978599 23.5706395,28.6634241 21.9717678,28.0617899 C21.6182022,27.928716 21.2643756,27.780321 20.9200273,27.6205447 C18.4715024,26.4846887 16.4067171,24.7429961 14.9487152,22.5833463 C14.9485413,22.5830837 14.9482804,22.5826459 14.9480195,22.5823833 C14.9477587,22.5819455 14.9473239,22.5814202 14.947063,22.58107 C14.947063,22.5809825 14.9469761,22.5809825 14.9469761,22.5808949 C14.4887146,21.9017802 14.0921923,21.1811673 13.768018,20.4386673 C13.767931,20.4384922 13.7678441,20.4382296 13.7677571,20.4379669 C13.7666267,20.4353405 13.7653223,20.432714 13.7641919,20.43 C13.7641049,20.4299125 13.7641049,20.4297374 13.7641049,20.4296498 C13.0706258,18.8376654 12.7068862,17.1520914 12.6833209,15.4195039 C12.6833209,15.4195039 12.6833209,15.4195039 12.6833209,15.4194163 L12.6833209,15.4193288 L12.6821905,15.3546304 C12.6814948,15.3166342 12.6807992,15.2785506 12.6807992,15.2404669 C12.6807992,14.5866537 12.7314079,13.9245233 12.8313211,13.272286 L12.8313211,13.2721984 C13.1480172,11.2043872 13.9439313,9.27621595 15.1968894,7.5409144 C17.9663713,3.70549611 22.5793339,1.41557393 27.5369055,1.41557393 C35.7286554,1.41557393 42.3930989,7.61743191 42.3930989,15.2405545 C42.3930989,19.7068482 40.0541393,23.9213521 36.1363081,26.5144553 C35.8386555,26.7115272 35.7343945,27.101644 35.8936991,27.4223346 L37.5424838,30.7425292 L31.8736069,28.6020525 Z" id="Shape"></path>
                    <path d="M39.6313561,9.81201362 C39.4488342,9.46698444 39.0231814,9.33627432 38.6803984,9.52012646 C38.3377023,9.7039786 38.207963,10.1326167 38.3904849,10.4775584 C39.1806599,11.9705253 39.5812691,13.5730156 39.5812691,15.2403794 C39.5812691,15.631284 39.8958782,15.9481226 40.2842265,15.9481226 C40.6725749,15.9481226 40.987184,15.6311965 40.987184,15.2403794 C40.987184,13.3384728 40.5310964,11.5120331 39.6313561,9.81201362 Z" id="Shape"></path>
                    <path d="M37.2057877,6.62086576 C34.6454366,4.17703307 31.211606,2.83106031 27.5369055,2.83106031 C27.1485572,2.83106031 26.8339481,3.14798638 26.8339481,3.5388035 C26.8339481,3.92970817 27.1485572,4.24654669 27.5369055,4.24654669 C30.8501273,4.24654669 33.9404791,5.4545428 36.2384821,7.64816148 C36.3743954,7.77790856 36.5484825,7.84225681 36.722048,7.84225681 C36.9082221,7.84225681 37.0940485,7.76819066 37.2322226,7.62145914 C37.4993533,7.33780156 37.4875272,6.88981518 37.2057877,6.62086576 Z" id="Shape"></path>
                    <path d="M26.7870785,13.589037 C25.2623808,13.589037 24.0220314,14.8379183 24.0220314,16.3729086 C24.0220314,17.9078988 25.2623808,19.1567802 26.7870785,19.1567802 C28.3117761,19.1567802 29.5521256,17.9078988 29.5521256,16.3729086 C29.5520386,14.8379183 28.3117761,13.589037 26.7870785,13.589037 Z M26.7870785,17.7412062 C26.0376862,17.7412062 25.4280332,17.1273152 25.4280332,16.3729086 C25.4280332,15.6184144 26.0377732,15.0045233 26.7870785,15.0045233 C27.5364708,15.0045233 28.1461237,15.6184144 28.1461237,16.3729086 C28.1461237,17.1273152 27.5363838,17.7412062 26.7870785,17.7412062 Z" id="Shape"></path>
                    <path d="M34.2854361,13.589037 C32.7607385,13.589037 31.520389,14.8379183 31.520389,16.3729086 C31.520389,17.9078988 32.7607385,19.1567802 34.2854361,19.1567802 C35.8101337,19.1567802 37.0504832,17.9078988 37.0504832,16.3729086 C37.0504832,14.8379183 35.8101337,13.589037 34.2854361,13.589037 Z M34.2854361,17.7412062 C33.5360438,17.7412062 32.9263908,17.1273152 32.9263908,16.3729086 C32.9263908,15.6184144 33.5361308,15.0045233 34.2854361,15.0045233 C35.0347414,15.0045233 35.6444814,15.6184144 35.6444814,16.3729086 C35.6445683,17.1273152 35.0348284,17.7412062 34.2854361,17.7412062 Z" id="Shape"></path>
                    <path d="M19.2886339,13.589037 C17.7640232,13.589037 16.5235868,14.8379183 16.5235868,16.3729086 C16.5235868,17.9078988 17.7640232,19.1567802 19.2886339,19.1567802 C20.8132446,19.1567802 22.053681,17.9078988 22.053681,16.3729086 C22.053681,14.8379183 20.8132446,13.589037 19.2886339,13.589037 Z M19.2886339,17.7412062 C18.5392416,17.7412062 17.9295017,17.1273152 17.9295017,16.3729086 C17.9295017,15.6184144 18.5392416,15.0045233 19.2886339,15.0045233 C20.0380262,15.0045233 20.6476792,15.6184144 20.6476792,16.3729086 C20.6476792,17.1273152 20.0380262,17.7412062 19.2886339,17.7412062 Z" id="Shape"></path>
                </g>
            </g>
        </g>
    </g>
</svg>