<?xml version="1.0" encoding="UTF-8"?>
<svg width="64px" height="64px" viewBox="0 0 64 64" version="1.1" xmlns="http://www.w3.org/2000/svg" xmlns:xlink="http://www.w3.org/1999/xlink">
    <!-- Generator: Sketch 49 (51002) - http://www.bohemiancoding.com/sketch -->
    <title>chronometer</title>
    <desc>Created with Sketch.</desc>
    <defs></defs>
    <g id="Page-1" stroke="none" stroke-width="1" fill="none" fill-rule="evenodd">
        <g id="grid" transform="translate(-188.000000, -272.000000)">
            <g id="chronometer" transform="translate(188.000000, 272.000000)">
                <rect id="wrapper" fill-opacity="0.00999999978" fill="#FFFFFF" x="0" y="0" width="64" height="64"></rect>
                <g id="icon" transform="translate(12.000000, 10.000000)" fill="#6C5CE7" fill-rule="nonzero">
                    <path d="M33.6244219,12.933035 L35.9204921,10.6147471 C36.1897254,10.342821 36.1897254,9.90218872 35.9204921,9.63035019 L32.5407253,6.21787938 C32.411528,6.08743191 32.2361145,6.01406615 32.0533307,6.01406615 C31.8705468,6.01406615 31.6951333,6.08734436 31.565936,6.21787938 L28.6526669,9.15942607 C26.6511492,8.11418288 24.4672812,7.44496109 22.2251444,7.18178988 L22.2251444,4.36184825 L23.741782,4.36184825 C24.1225239,4.36184825 24.4311233,4.05026265 24.4311233,3.66583658 L24.4311233,0.696011673 C24.4311233,0.311498054 24.1224372,0 23.741782,0 L16.3885478,0 C16.007806,0 15.6992065,0.311585603 15.6992065,0.696011673 L15.6992065,3.66574903 C15.6992065,4.05026265 16.0078927,4.3617607 16.3885478,4.3617607 L17.9051855,4.3617607 L17.9051855,7.17986381 C8.60506065,8.26467899 1.3603002,16.2631226 1.3603002,25.9390856 C1.3603002,36.3527335 9.75127485,44.8249027 20.0651216,44.8249027 C30.3789683,44.8249027 38.769943,36.3527335 38.769943,25.9390856 C38.7700297,21.0481809 36.9473072,16.4574805 33.6244219,12.933035 Z M32.0533307,7.69447471 L34.4581347,10.1225486 L32.6388806,11.9594066 C31.7887797,11.1794358 30.8697446,10.4821109 29.895649,9.87321012 L32.0533307,7.69447471 Z M17.0778892,2.96973735 L17.0778892,1.39211089 L23.0524407,1.39211089 L23.0524407,2.9698249 L21.5358031,2.9698249 L18.5945268,2.9698249 L17.0778892,2.9698249 L17.0778892,2.96973735 Z M20.8463751,4.36184825 L20.8463751,6.68197471 L19.2837814,6.68197471 L19.2837814,4.36184825 L20.8463751,4.36184825 Z M20.0651216,43.4327918 C10.5114579,43.4327918 2.73898283,35.5851946 2.73898283,25.9389981 C2.73898283,16.2928016 10.5113712,8.44529183 20.0651216,8.44529183 C22.9968598,8.44529183 25.8946079,9.1990856 28.4450841,10.6250778 C29.8033033,11.3843872 31.0571241,12.3268482 32.1716026,13.4261965 C32.1716893,13.426284 32.171776,13.4264591 32.1718627,13.4265467 C35.5375825,16.7470039 37.3910869,21.1907101 37.3910869,25.9389981 C37.3912603,35.5851946 29.6187852,43.4327918 20.0651216,43.4327918 Z" id="Shape"></path>
                    <path d="M20.0651216,21.1595428 C19.0335375,21.1595428 18.0525051,21.4907393 17.2405564,22.1027918 L14.5616633,19.3978891 C16.0971169,18.0766926 18.0256251,17.3545039 20.0651216,17.3545039 C20.4458634,17.3545039 20.7544629,17.0429183 20.7544629,16.6584922 L20.7544629,12.5750486 C20.7544629,12.190535 20.4457767,11.879037 20.0651216,11.879037 C19.2382588,11.879037 18.4094018,11.952928 17.6017019,12.0985214 C17.6014417,12.0986089 17.6010949,12.0986089 17.600748,12.0986089 C17.3728752,12.1397568 17.144222,12.1869455 16.9209448,12.2391245 C16.9209448,12.2391245 16.9207714,12.2392121 16.9206847,12.2392121 C16.1443736,12.4200875 15.3787279,12.6707393 14.6449045,12.9841634 C14.6448178,12.984251 14.6446444,12.984251 14.6445577,12.9843385 C14.4361078,13.073463 14.2284383,13.1681031 14.0275322,13.2659825 C14.027272,13.2661576 14.0270119,13.2663327 14.0265784,13.2664202 C13.8258456,13.364037 13.6245059,13.4680447 13.4284555,13.575642 C13.428022,13.5759047 13.4275017,13.5759922 13.4270682,13.5762549 C13.2306709,13.6840272 13.0345338,13.797928 12.8437727,13.914893 C12.843686,13.9149805 12.8435993,13.9149805 12.8435126,13.9150681 C12.7480453,13.9736381 12.6533584,14.0334339 12.5592785,14.0941051 C12.5591051,14.0941926 12.5589317,14.0943677 12.5587583,14.0944553 C12.1855601,14.3360019 11.8187785,14.5993482 11.4687319,14.876965 C11.468385,14.8772276 11.4680382,14.8774903 11.4675179,14.8778405 C11.2058284,15.0854183 10.9483876,15.305428 10.7019589,15.5314786 C10.4560505,15.7570914 10.2154313,15.9943482 9.98651799,16.2367704 C9.98608444,16.2372082 9.98556418,16.2376459 9.98513064,16.2380837 C9.83191477,16.4003113 9.68077994,16.5683171 9.53571478,16.7373735 C9.39030278,16.9069553 9.24731865,17.081965 9.11057762,17.2575875 C9.11049091,17.2577626 9.11031749,17.2578502 9.11023078,17.2580253 C8.97270935,17.4346109 8.83787593,17.6167121 8.7093723,17.7991634 C8.70928559,17.799251 8.70928559,17.7993385 8.70919888,17.7994261 C8.45071756,18.1665175 8.2071503,18.5501556 7.98534714,18.9396595 C7.98534714,18.9397471 7.98526043,18.9397471 7.98526043,18.9398346 C7.76154967,19.3325778 7.55466056,19.7405545 7.37022924,20.1524708 C7.37022924,20.1525584 7.37014254,20.1526459 7.37014254,20.152821 C7.23097363,20.463356 7.10142949,20.7836089 6.98497849,21.1045623 C6.98489178,21.1049125 6.98480508,21.1052626 6.98463166,21.1057004 C6.94569905,21.2129475 6.90806708,21.3208074 6.87164905,21.4292802 C6.87164905,21.4293677 6.87156234,21.4294553 6.87156234,21.4295428 C6.76204811,21.7563619 6.66337259,22.0914981 6.57822376,22.4254086 C6.57813705,22.4257588 6.57805034,22.4261089 6.57796363,22.4265467 C6.54934947,22.5384339 6.52229607,22.6510214 6.4963699,22.7640467 C6.39240509,23.2187743 6.31003097,23.6847957 6.2515887,24.1488911 C6.2515887,24.1489786 6.2515887,24.1490661 6.2515887,24.1491537 C6.2072801,24.5011868 6.17563109,24.8600486 6.15794233,25.2157588 C6.1458897,25.4550292 6.13982003,25.6982393 6.13982003,25.9387354 C6.13982003,26.323249 6.4485062,26.6347471 6.82916134,26.6347471 L10.8734705,26.6347471 C11.2542123,26.6347471 11.5628118,26.3231615 11.5628118,25.9387354 C11.5628118,23.8795914 12.2780793,21.9323346 13.5866138,20.3820233 L16.2655936,23.0869261 C15.6594068,23.906644 15.3314711,24.8971693 15.3314711,25.9387354 C15.3314711,28.5741245 17.4549892,30.7181907 20.0651216,30.7181907 C22.6752539,30.7181907 24.798772,28.5741245 24.798772,25.9387354 C24.7989454,23.3034339 22.6752539,21.1595428 20.0651216,21.1595428 Z M13.5826252,18.409465 L12.463898,17.2799125 C12.1946646,17.0081615 11.7581685,17.0081615 11.4890219,17.2799125 C11.2197886,17.5518385 11.2197886,17.9924708 11.4890219,18.2643093 L12.6076625,19.3937743 C11.1906542,21.0349611 10.3554673,23.0709047 10.2082344,25.2429864 L7.53809903,25.2429864 C7.55457385,24.9365661 7.58136712,24.6279572 7.61951934,24.3249514 C7.61951934,24.3248638 7.61951934,24.3248638 7.61951934,24.3247763 C7.67215207,23.9065564 7.74637549,23.4870233 7.83993515,23.0775584 C7.86326003,22.9755642 7.88779884,22.8740078 7.9135516,22.7729767 C7.9135516,22.7728016 7.9136383,22.772714 7.91372501,22.7725389 C7.99028959,22.4718093 8.07916693,22.1701167 8.17775574,21.8757782 C8.17775574,21.8756907 8.17775574,21.8756031 8.17775574,21.8756031 C8.21053197,21.7777237 8.24452214,21.6805447 8.27963952,21.5838035 C8.27972623,21.5836284 8.27981294,21.5835409 8.27981294,21.5833658 C8.38473156,21.2941926 8.50135597,21.0057198 8.62665134,20.7260895 C8.62665134,20.7260019 8.62673805,20.7260019 8.62673805,20.7259144 C8.79270022,20.3550584 8.97912586,19.9877043 9.18055226,19.6340078 L9.18055226,19.6339202 C9.3805046,19.2829377 9.59987989,18.9371206 9.83286858,18.6062743 C9.83286858,18.6061868 9.83295529,18.6061868 9.83295529,18.6060992 C9.94879931,18.4417704 10.0702795,18.2777918 10.1941875,18.1185409 C10.1942742,18.1184533 10.1942742,18.1184533 10.1943609,18.1183658 C10.3176619,17.9599027 10.4466858,17.801965 10.5779642,17.64893 C10.6296431,17.5886965 10.6827094,17.5288132 10.7358623,17.4691926 C10.749996,17.4533463 10.7637828,17.4370623 10.7780899,17.421216 C10.8456367,17.3460992 10.9141373,17.271858 10.9830714,17.19893 C10.9832448,17.1987549 10.9834183,17.1984922 10.9836784,17.1982296 C11.1903074,16.9795331 11.4075149,16.7653891 11.6294048,16.5616634 C11.8514681,16.3579377 12.0836764,16.1596401 12.3195265,15.9725486 C12.3197866,15.9723735 12.31996,15.9721984 12.3201334,15.9720233 C12.6357564,15.7217218 12.9663801,15.4842899 13.3027266,15.266644 C13.3028133,15.2665564 13.3029,15.2665564 13.3029867,15.2664689 C13.3877887,15.2114883 13.4734578,15.1576459 13.5596472,15.1047665 L13.5597339,15.104679 C13.5598206,15.1045914 13.5598206,15.1045914 13.5599073,15.1045914 C13.7315923,14.9991829 13.9083065,14.8965759 14.085194,14.7996595 C14.0854542,14.7994844 14.0857143,14.7993093 14.0860611,14.7992218 C14.2631221,14.7021304 14.4446053,14.6083658 14.6258284,14.5201167 C14.6260018,14.5200292 14.6261752,14.5200292 14.6263487,14.5199416 C14.8071382,14.4318677 14.9939974,14.3465953 15.1818971,14.2664008 C15.1820705,14.2663132 15.1822439,14.2662257 15.1823306,14.2661381 C15.8428843,13.9839689 16.5322257,13.7585311 17.2309316,13.5956031 C17.2309316,13.5956031 17.2310183,13.5956031 17.231105,13.5956031 C17.4321846,13.5487646 17.6382933,13.5061284 17.8436216,13.4690953 C17.8437951,13.4690953 17.8439685,13.4690078 17.8441419,13.4690078 C18.3477512,13.3783074 18.8605518,13.3192121 19.3756935,13.2910214 L19.3756935,15.9869066 C17.2243417,16.1353891 15.2079966,16.9787451 13.5826252,18.409465 Z M20.0651216,29.32643 C18.215259,29.32643 16.7101538,27.8068482 16.7101538,25.9389981 C16.7101538,25.0341829 17.0590732,24.1835603 17.6927469,23.5437549 C17.6928336,23.5436673 17.6929204,23.5435798 17.6930071,23.5434047 C18.3265941,22.9037743 19.1689779,22.5514786 20.0649482,22.5514786 C21.9148107,22.5514786 23.4198293,24.0710603 23.4198293,25.9389105 C23.4198293,27.8067607 21.9149842,29.32643 20.0651216,29.32643 Z" id="Shape"></path>
                    <path d="M13.3604752,5.08622568 C13.2317982,4.72447471 12.8368359,4.53659533 12.4786386,4.66651751 C9.37426151,5.79291829 6.60198219,7.57383268 4.23888548,9.95988327 C2.58568026,11.6289981 1.21089956,13.5257393 0.152782314,15.5971401 C-0.0217641095,15.9387549 0.111074997,16.3585506 0.449502564,16.5348735 C0.550605957,16.5874027 0.658559408,16.6124416 0.764952086,16.6124416 C1.01476244,16.6124416 1.25581513,16.4749027 1.37824908,16.2352821 C2.37116071,14.2916148 3.66148626,12.5114883 5.21393493,10.9442802 C7.43231332,8.70434825 10.0334279,7.03304475 12.9449628,5.97659533 C13.3031602,5.84667315 13.4893257,5.44797665 13.3604752,5.08622568 Z" id="Shape"></path>
                    <path d="M8.90516257,3.47655642 C8.72281229,3.13905642 8.30409163,3.01473735 7.96982613,3.19885214 C5.04892656,4.80799611 2.48839209,6.93892996 0.359671419,9.53238327 C0.116537702,9.82829767 0.157291213,10.267179 0.450456369,10.5124027 C0.579133415,10.6200875 0.734950565,10.6726167 0.889987329,10.6726167 C1.08803205,10.6726167 1.28477614,10.5867315 1.42117034,10.4207393 C3.43777549,7.96359922 5.86330312,5.94499027 8.63011973,4.42094358 C8.96438523,4.23682879 9.08751286,3.81405642 8.90516257,3.47655642 Z" id="Shape"></path>
                </g>
            </g>
        </g>
    </g>
</svg>