<?xml version="1.0" encoding="UTF-8"?>
<svg width="64px" height="64px" viewBox="0 0 64 64" version="1.1" xmlns="http://www.w3.org/2000/svg" xmlns:xlink="http://www.w3.org/1999/xlink">
    <!-- Generator: Sketch 49 (51002) - http://www.bohemiancoding.com/sketch -->
    <title>compass</title>
    <desc>Created with Sketch.</desc>
    <defs></defs>
    <g id="Page-1" stroke="none" stroke-width="1" fill="none" fill-rule="evenodd">
        <g id="grid" transform="translate(-356.000000, -104.000000)">
            <g id="compass" transform="translate(356.000000, 104.000000)">
                <rect id="wrapper" fill-opacity="0.00999999978" fill="#FFFFFF" x="0" y="0" width="64" height="64"></rect>
                <g id="icon" transform="translate(12.000000, 10.000000)" fill="#6C5CE7" fill-rule="nonzero">
                    <path d="M28.365537,34.8549514 C28.0944661,34.5560603 27.6352982,34.5362743 27.3399149,34.8105642 C26.6449768,35.4560603 25.9140458,36.078356 25.167195,36.6599416 C24.8495757,36.9073541 24.7901357,37.3684728 25.034731,37.6900389 C25.1777506,37.8780934 25.3928422,37.9765856 25.6105295,37.9765856 C25.7649698,37.9765856 25.9207079,37.926858 26.0526528,37.8240759 C26.8326412,37.2166634 27.5961041,36.5668774 28.3217573,35.8926654 C28.6170541,35.618463 28.6366944,35.1538424 28.365537,34.8549514 Z" id="Shape"></path>
                    <path d="M32.1894272,30.4413619 C31.8713753,30.1943872 31.4156682,30.2549708 31.1715055,30.5767121 C30.5971779,31.3336576 29.983137,32.0742315 29.3465142,32.7775973 C29.0757029,33.076751 29.0958623,33.5413716 29.3915052,33.8153988 C29.5308908,33.9444455 29.7064423,34.0082685 29.8816477,34.0082685 C30.0781373,34.0082685 30.2740212,33.9280739 30.4170407,33.7698735 C31.0820426,33.0351654 31.7233376,32.2618482 32.3231024,31.471284 C32.5673517,31.1495428 32.5073925,30.6883366 32.1894272,30.4413619 Z" id="Shape"></path>
                    <path d="M23.8469683,38.5345331 C23.6310114,38.1927432 23.1821395,38.0929377 22.8443608,38.3114591 C22.0499233,38.8256323 21.223646,39.3103016 20.3886301,39.752072 C20.0334606,39.9400389 19.8959785,40.383823 20.0817394,40.7433852 C20.2114347,40.9942121 20.4640765,41.1377043 20.7255436,41.1377043 C20.8388863,41.1377043 20.9539595,41.1107393 21.0614188,41.0540078 C21.9336388,40.5925389 22.7967741,40.0862451 23.6265988,39.5491342 C23.964291,39.3304377 24.0630116,38.8762354 23.8469683,38.5345331 Z" id="Shape"></path>
                    <path d="M18.7671366,41.3660311 C18.6132154,40.9914981 18.1884829,40.8142996 17.8182588,40.9698735 C16.9474231,41.3363521 16.0503715,41.6677237 15.1522816,41.9552335 C14.7699445,42.0775389 14.5581406,42.4901556 14.6789242,42.8770331 C14.7768662,43.190107 15.0626457,43.3903307 15.3708341,43.3903307 C15.4433389,43.3903307 15.5170549,43.3792996 15.5898192,43.3559241 C16.5283145,43.0556323 17.465685,42.7092899 18.3756283,42.3263521 C18.7457659,42.1706031 18.9211443,41.7406518 18.7671366,41.3660311 Z" id="Shape"></path>
                    <path d="M13.277108,43.2579572 C13.1903273,42.8619747 12.8024528,42.612286 12.411204,42.7000973 C11.4922626,42.9064494 10.5517773,43.0743677 9.6159642,43.199037 C9.21857241,43.2520039 8.9387629,43.6210214 8.99110822,44.0231323 C9.03921399,44.3927626 9.35112286,44.6617996 9.70983968,44.6617996 C9.74141991,44.6617996 9.77343275,44.659786 9.80553211,44.6554086 C10.7831349,44.5251362 11.765583,44.3497763 12.7257085,44.134144 C13.1171304,44.0463327 13.3640618,43.6540272 13.277108,43.2579572 Z" id="Shape"></path>
                    <path d="M38.4284696,14.1973249 C38.0309048,14.1450584 37.6666506,14.4284533 37.6148244,14.8306518 C37.492743,15.7780156 37.3281797,16.7298444 37.1252876,17.6596984 C37.0388529,18.055856 37.286217,18.4478113 37.6777253,18.5352724 C37.7305032,18.5470039 37.7830216,18.5526946 37.8347613,18.5526946 C38.1678678,18.5526946 38.4681828,18.3191148 38.5429371,17.9763619 C38.7548275,17.0047471 38.9269182,16.0102821 39.0543639,15.0207198 C39.10619,14.6183463 38.8259479,14.249679 38.4284696,14.1973249 Z" id="Shape"></path>
                    <path d="M35.20097,25.4248249 C34.8456275,25.2372957 34.4072246,25.3769358 34.2218097,25.7366732 C33.7866947,26.5816926 33.3085787,27.4184825 32.8009589,28.22393 C32.5854346,28.5658949 32.6848475,29.0200097 33.0227992,29.2381809 C33.1436693,29.3162743 33.2789019,29.3534825 33.4124041,29.3534825 C33.6521543,29.3534825 33.8866267,29.2334533 34.0251471,29.0137938 C34.5552624,28.1725389 35.0545761,27.2983658 35.5092449,26.4157004 C35.6945733,26.0558755 35.5564855,25.6123541 35.20097,25.4248249 Z" id="Shape"></path>
                    <path d="M37.3030886,19.9545233 C36.9203189,19.8327432 36.5130637,20.0476751 36.3927127,20.4346401 C36.1097885,21.3442704 35.783344,22.2524125 35.4224642,23.133677 C35.2689756,23.5084728 35.4447866,23.9380739 35.8151838,24.0934728 C35.9060311,24.1315564 36.0001661,24.1495914 36.0927438,24.1495914 C36.377485,24.1495914 36.6477772,23.9788716 36.763629,23.6960895 C37.1406883,22.7750778 37.4819279,21.8261381 37.7776573,20.875535 C37.8978352,20.4887451 37.6855122,20.0763035 37.3030886,19.9545233 Z" id="Shape"></path>
                    <path d="M40.2857333,10.3085895 L35.6445641,7.17785019 C35.6435258,7.17714981 35.642401,7.17636187 35.6413628,7.17566148 L35.6399784,7.17478599 C35.6375558,7.17321012 35.6350467,7.17198444 35.6327107,7.17040856 C35.6150603,7.15885214 35.5971505,7.14782101 35.5786349,7.13784047 C35.5717997,7.13416342 35.564705,7.13118677 35.5576968,7.12768482 C35.5433343,7.12050584 35.5290583,7.1134144 35.5142632,7.10711089 C35.5043132,7.10299611 35.4941902,7.09966926 35.4841538,7.09590467 C35.4720408,7.09152724 35.4600144,7.08679961 35.4476418,7.08294747 C35.4349232,7.07900778 35.4222046,7.07620623 35.409486,7.07305447 C35.399363,7.07051556 35.3893266,7.06762646 35.3790306,7.06561284 C35.3633702,7.06246109 35.3477099,7.06044747 35.3318765,7.0583463 C35.3240031,7.05738327 35.3163892,7.05580739 35.3084293,7.05501946 C35.2883564,7.05309339 35.26837,7.05230545 35.248297,7.05195525 C35.2447497,7.05178016 35.2410293,7.05125486 35.2373089,7.05125486 L35.2350593,7.05125486 C35.2341941,7.05125486 35.2332424,7.05125486 35.2323771,7.05125486 L10.1185657,7.05125486 C9.55479372,6.40829767 8.86452773,5.90384241 8.08921141,5.5668677 L8.08921141,0.734533074 C8.08921141,0.328920233 7.76432437,0 7.36329869,0 L4.26609993,0 C3.86507425,0 3.54018721,0.328832685 3.54018721,0.734533074 L3.54018721,5.56660506 C1.43607858,6.47851167 0.0558926837,8.56593385 0.0558926837,10.919679 C0.0558926837,13.2734241 1.43607858,15.3610214 3.54018721,16.272928 L3.54018721,39.1248735 C3.54018721,39.5304864 3.86507425,39.8594066 4.26609993,39.8594066 L5.10578801,39.8594066 L5.08874333,44.0873054 C5.08709943,44.4929183 5.41077517,44.8231518 5.81171433,44.8248152 C5.81275259,44.8248152 5.81370432,44.8248152 5.81474257,44.8248152 C6.21421087,44.8248152 6.53892487,44.4979086 6.54056877,44.0933463 L6.55761345,39.8593191 L7.36321217,39.8593191 C7.76423785,39.8593191 8.08912489,39.5304864 8.08912489,39.124786 L8.08912489,16.2725778 C8.86444121,15.9356031 9.5547072,15.4311479 10.1184792,14.7881907 L35.2365302,14.7881907 C35.2370493,14.7881907 35.2375684,14.7882782 35.2380875,14.7882782 C35.2400775,14.7882782 35.2420675,14.7878405 35.2440575,14.7878405 C35.2731286,14.7875778 35.3015076,14.785214 35.329627,14.7817121 C35.3387117,14.7805739 35.3476234,14.7790856 35.3566216,14.7775097 C35.3826644,14.7732198 35.4081882,14.7675292 35.4331928,14.7604377 C35.4381245,14.759037 35.4430562,14.7580739 35.4479879,14.7565856 C35.4784434,14.7472179 35.5078606,14.7356615 35.5364126,14.7225292 C35.5423825,14.7198152 35.5483525,14.716751 35.5543225,14.7137743 C35.5832205,14.6995039 35.611513,14.6838327 35.6381615,14.6659728 C35.6387671,14.665535 35.6394593,14.6652724 35.6399784,14.6649222 L35.6413628,14.6640467 C35.642401,14.6633463 35.6435258,14.6625584 35.6445641,14.661858 L40.2857333,11.5311187 C40.4877603,11.394893 40.6089765,11.1656031 40.6089765,10.9200292 C40.6089765,10.6743677 40.4877603,10.4447276 40.2857333,10.3085895 Z M4.99201265,1.4689786 L6.63738598,1.4689786 L6.63738598,5.15407588 C6.09230253,5.075107 5.5370961,5.075107 4.99201265,5.15407588 L4.99201265,1.4689786 Z M6.63738598,38.390428 L5.83758417,38.390428 C5.83663243,38.390428 5.8356807,38.390428 5.83464245,38.390428 L5.83455593,38.390428 L4.99192613,38.390428 L4.99192613,16.6863327 C5.26368916,16.7259922 5.53839392,16.7468288 5.81456953,16.7468288 C6.09083167,16.7468288 6.36536338,16.7259047 6.63721293,16.6863327 L6.63721293,38.390428 L6.63738598,38.390428 Z M9.20853595,13.6012062 C9.20844943,13.6012938 9.20836291,13.6013813 9.20827639,13.6015564 C8.67573851,14.2901265 7.96332309,14.7956323 7.14760139,15.0640564 C7.1472553,15.064144 7.14690922,15.0643191 7.14664965,15.0644942 C7.14465967,15.0651946 7.14258316,15.0659825 7.14059317,15.0666829 C7.14042013,15.0667704 7.14033361,15.0667704 7.14024709,15.0667704 C6.2833413,15.3469261 5.34648994,15.3469261 4.48958415,15.0667704 C2.70612302,14.4836965 1.50789116,12.8171206 1.50789116,10.9198541 C1.50789116,9.02258755 2.7060365,7.35601167 4.48949763,6.77276265 C5.34640342,6.492607 6.28325478,6.492607 7.14016057,6.77276265 C7.14024709,6.77276265 7.14033361,6.77276265 7.14042013,6.77285019 C7.14258316,6.77355058 7.14457315,6.77433852 7.14673618,6.77503891 C7.14716878,6.77512646 7.14742834,6.77521401 7.14768791,6.77538911 C7.96340961,7.04372568 8.67582503,7.54923152 9.20827639,8.2380642 C9.20836291,8.23815175 9.20844943,8.23832685 9.20853595,8.2384144 C9.80596471,9.01120623 10.121767,9.93843385 10.121767,10.9197665 C10.121767,11.9010992 9.80596471,12.8283268 9.20853595,13.6012062 Z M34.5115692,13.3191245 L11.0637231,13.3191245 C11.3002721,12.7923444 11.4570484,12.2334339 11.5285149,11.6542121 L34.5115692,11.6542121 L34.5115692,13.3191245 Z M34.5116557,10.1852335 L11.5285149,10.1852335 C11.4570484,9.60601167 11.3002721,9.04710117 11.0638097,8.52032101 L34.5116557,8.52032101 L34.5116557,10.1852335 Z M35.9633081,12.6811576 L35.9633081,10.919679 L35.9633081,9.15820039 L38.5745174,10.919679 L35.9633081,12.6811576 Z" id="Shape"></path>
                    <path d="M5.81465605,8.22650778 C5.41363037,8.22650778 5.08874333,8.55534047 5.08874333,8.96104086 C5.08874333,9.36674125 5.41363037,9.69557393 5.81465605,9.69557393 C6.58841499,9.69557393 7.21802963,10.3326654 7.21802963,11.1156128 C7.21802963,11.8985603 6.58841499,12.5356518 5.81465605,12.5356518 C5.41363037,12.5356518 5.08874333,12.8644844 5.08874333,13.2701848 C5.08874333,13.6757977 5.41363037,14.0047179 5.81465605,14.0047179 C7.38908201,14.0047179 8.66985507,12.7086479 8.66985507,11.1156128 C8.66985507,9.52257782 7.38899549,8.22650778 5.81465605,8.22650778 Z" id="Shape"></path>
                </g>
            </g>
        </g>
    </g>
</svg>