<?xml version="1.0" encoding="UTF-8"?>
<svg width="64px" height="64px" viewBox="0 0 64 64" version="1.1" xmlns="http://www.w3.org/2000/svg" xmlns:xlink="http://www.w3.org/1999/xlink">
    <!-- Generator: Sketch 49 (51002) - http://www.bohemiancoding.com/sketch -->
    <title>competition</title>
    <desc>Created with Sketch.</desc>
    <defs></defs>
    <g id="Page-1" stroke="none" stroke-width="1" fill="none" fill-rule="evenodd">
        <g id="grid" transform="translate(-20.000000, -188.000000)">
            <g id="competition" transform="translate(20.000000, 188.000000)">
                <rect id="wrapper" fill-opacity="0.00999999978" fill="#FFFFFF" x="0" y="0" width="64" height="64"></rect>
                <g id="icon" transform="translate(9.000000, 10.000000)" fill="#6C5CE7" fill-rule="nonzero">
                    <path d="M32.5051788,23.7775323 C32.1952793,23.5283745 31.7438085,23.5802485 31.4971775,23.8932999 C31.2390025,24.2209916 30.9588132,24.5378386 30.6643952,24.8349843 C30.0564086,25.4490674 29.3804105,25.9885929 28.6552832,26.4387398 C28.3177316,26.6481336 28.2122244,27.0944847 28.4196593,27.4352805 C28.5551453,27.6579591 28.7905007,27.7805046 29.0314939,27.7805046 C29.1596418,27.7805046 29.289311,27.7458014 29.4064518,27.6731417 C30.2270636,27.1638007 30.9916556,26.553694 31.6789292,25.859631 C32.0115589,25.5238057 32.3279016,25.1659295 32.6198139,24.7955818 C32.8667134,24.4825304 32.8153469,24.0267805 32.5051788,23.7775323 Z" id="Shape"></path>
                    <path d="M34.5789017,16.2784888 C34.1826455,16.2784888 33.8614704,16.6028367 33.8614704,17.0030074 C33.8614704,18.520728 33.5692896,19.9855805 32.9928925,21.3566261 C32.8381665,21.7249856 33.0082846,22.1502799 33.3730408,22.3067152 C33.4645878,22.345937 33.5595353,22.3644634 33.6531406,22.3644634 C33.9323455,22.3644634 34.1977691,22.1988101 34.3137465,21.922902 C34.9657616,20.3717434 35.2963331,18.7163851 35.2963331,17.0030074 C35.2963331,16.6028367 34.9751579,16.2784888 34.5789017,16.2784888 Z" id="Shape"></path>
                    <path d="M39.3616281,15.119277 C38.9583918,15.119277 38.558914,15.1583181 38.1659689,15.232966 L38.1659689,13.8634568 L39.744282,13.8634568 C40.1405382,13.8634568 40.4617134,13.5391088 40.4617134,13.1389381 L40.4617134,8.88861554 C40.4617134,8.48853521 40.1406277,8.1640969 39.744282,8.1640969 L37.4486271,8.1640969 L8.36970412,8.1640969 L6.07404913,8.1640969 C5.67779293,8.1640969 5.35661779,8.48844483 5.35661779,8.88861554 L5.35661779,13.1389381 C5.35661779,13.5390185 5.67770344,13.8634568 6.07404913,13.8634568 L7.65236227,13.8634568 L7.65236227,15.232966 C7.25941716,15.1583181 6.85993936,15.119277 6.45670304,15.119277 C2.89648248,15.119277 8.94887533e-05,18.0442827 8.94887533e-05,21.6396737 C8.94887533e-05,25.2350646 2.89648248,28.1600703 6.45670304,28.1600703 C8.09389978,28.1600703 9.64303959,27.5392092 10.8280497,26.4351249 C13.164601,29.4885503 16.5432489,31.5241069 20.2786884,32.1799423 L20.2786884,38.5316129 C16.8468842,39.1327727 13.7125406,40.9070616 11.3969297,43.5727877 C11.211151,43.7865194 11.1664961,44.0903527 11.282742,44.3494515 C11.3990774,44.6085503 11.6546573,44.7749266 11.9362784,44.7749266 L33.8821423,44.7749266 C34.1637634,44.7749266 34.4193433,44.6084599 34.5356786,44.3494515 C34.6519245,44.0903527 34.6071802,43.7866098 34.421491,43.5727877 C32.10588,40.9070616 28.9716259,39.1326823 25.5397322,38.5316129 L25.5397322,32.1799423 C29.2751718,31.5241069 32.6538197,29.4884599 34.990371,26.4351249 C36.1754706,27.5392092 37.7245209,28.1600703 39.3617176,28.1600703 C42.9219382,28.1600703 45.8183312,25.2350646 45.8183312,21.6396737 C45.8183312,18.0442827 42.9218487,15.119277 39.3616281,15.119277 Z M6.79139098,12.4145099 L6.79139098,9.61313418 L8.36970412,9.61313418 L37.4485376,9.61313418 L39.0268507,9.61313418 L39.0268507,12.4145099 L37.4485376,12.4145099 L8.36970412,12.4145099 L6.79139098,12.4145099 Z M39.3616281,19.6594251 C40.4429207,19.6594251 41.3225057,20.5477896 41.3225057,21.6396737 C41.3225057,22.7315577 40.4428313,23.6199222 39.3616281,23.6199222 C38.3346552,23.6199222 37.4995462,22.8356671 37.4113997,21.8156295 C37.5520761,21.3795808 37.6752126,20.9293435 37.7783931,20.4725091 C38.1479817,19.9613606 38.7314483,19.6594251 39.3616281,19.6594251 Z M8.40675246,21.8157198 C8.31878502,22.8356671 7.48358648,23.6200126 6.45661355,23.6200126 C5.37532094,23.6200126 4.49573599,22.731648 4.49573599,21.639764 C4.49573599,20.54788 5.37541043,19.6595155 6.45661355,19.6595155 C7.08679335,19.6595155 7.67026002,19.9615414 8.0396696,20.4726898 C8.14302911,20.9294339 8.26607614,21.3795808 8.40675246,21.8157198 Z M6.45661355,26.7111234 C3.68765255,26.7111234 1.43477318,24.4360788 1.43477318,21.6396737 C1.43477318,18.8432685 3.68765255,16.5682239 6.45661355,16.5682239 C6.86172914,16.5682239 7.26201233,16.6181097 7.65227278,16.7146278 L7.65227278,17.002917 C7.65227278,17.4881285 7.67607679,17.9732497 7.72064219,18.4560211 C7.32519139,18.2961516 6.89761413,18.2103878 6.45661355,18.2103878 C4.58415088,18.2103878 3.06087332,19.7487134 3.06087332,21.6396737 C3.06087332,23.5306339 4.58415088,25.0689595 6.45661355,25.0689595 C7.56520023,25.0689595 8.54581798,24.5412728 9.16463271,23.7161692 C9.41341145,24.2368972 9.69037914,24.74425 9.99669914,25.2347935 C9.05885701,26.1781951 7.79518632,26.7111234 6.45661355,26.7111234 Z M32.1648531,43.3261604 L13.6532991,43.3261604 C15.726664,41.4497502 18.3142313,40.2396586 21.0892776,39.872474 C21.4463377,39.825209 21.7134616,39.5178511 21.7134616,39.1541007 L21.7134616,32.4105736 L24.1048696,32.4105736 L24.1048696,39.1541007 C24.1048696,39.5178511 24.371904,39.825209 24.7290536,39.872474 C27.5040104,40.2396586 30.0915777,41.4497502 32.1648531,43.3261604 Z M34.325917,24.8965282 C34.3256485,24.8967993 34.3254696,24.8970704 34.3252906,24.8975223 C31.7529364,28.6946253 27.4853072,30.9615363 22.9092103,30.9615363 C18.3331134,30.9615363 14.0653948,28.6946253 11.4930406,24.8975223 C11.4928616,24.8972512 11.4925931,24.89698 11.4923247,24.8965282 C10.7794573,23.8440467 10.2143358,22.7005598 9.81253129,21.4976076 C9.65377824,21.022066 9.51784482,20.5250157 9.40857905,20.0202837 C9.40857905,20.0201029 9.40848957,20.0199222 9.40840008,20.0197414 C9.19532736,19.032961 9.08722494,18.0178938 9.08722494,17.002917 L9.08722494,16.1748312 L9.08722494,13.8634568 L36.7311957,13.8634568 L36.7311957,16.1748312 L36.7311957,17.002917 C36.7311957,18.0178938 36.6230933,19.032961 36.4099311,20.0197414 C36.4099311,20.0199222 36.4098416,20.0201029 36.4097521,20.0202837 C36.3004864,20.5250157 36.1645529,21.0219756 36.0057999,21.4976076 C35.6039059,22.7005598 35.0387844,23.8441371 34.325917,24.8965282 Z M39.3616281,26.7111234 C38.0230554,26.7111234 36.7594742,26.1781951 35.8215425,25.2347935 C36.127952,24.74425 36.4048302,24.2368972 36.653609,23.7161692 C37.2724237,24.5411824 38.252952,25.0689595 39.3615386,25.0689595 C41.2340013,25.0689595 42.7572789,23.5306339 42.7572789,21.6396737 C42.7572789,19.7487134 41.2340013,18.2103878 39.3615386,18.2103878 C38.9204486,18.2103878 38.4928713,18.2961516 38.09751,18.4560211 C38.1420754,17.9732497 38.1658794,17.4881285 38.1658794,17.002917 L38.1658794,16.7146278 C38.5562294,16.617929 38.9564231,16.5682239 39.3615386,16.5682239 C42.1304997,16.5682239 44.383379,18.8431781 44.383379,21.6396737 C44.383379,24.4361692 42.1305891,26.7111234 39.3616281,26.7111234 Z" id="Shape"></path>
                    <path d="M29.7082973,20.2417874 C29.6078015,19.9509677 29.3361136,19.7560336 29.030957,19.7560336 L24.9420369,19.7560336 L23.5833291,15.9826083 C23.4802381,15.6963073 23.2107874,15.5057111 22.9090314,15.5057111 C22.6072753,15.5057111 22.3379141,15.6963073 22.2347336,15.9826083 L20.8760259,19.7560336 L16.7871057,19.7560336 C16.4820386,19.7560336 16.2103507,19.9509677 16.1097654,20.2417874 C16.0092695,20.5326974 16.1018904,20.8560512 16.3408253,21.0477319 L19.7966125,23.820369 L18.7733086,27.6099711 C18.6919633,27.9108221 18.8105359,28.2304707 19.0674582,28.4033538 C19.3243804,28.5764177 19.6622004,28.5640367 19.9058783,28.3724463 L22.9089419,26.0137166 L25.9120949,28.3724463 C26.0412272,28.4738446 26.1967587,28.525086 26.3525586,28.525086 C26.4909082,28.525086 26.6296158,28.4847797 26.7503361,28.4033538 C27.0073478,28.2303803 27.1257414,27.9108221 27.0444856,27.6099711 L26.0211817,23.820369 L29.4769689,21.0477319 C29.7161724,20.8561416 29.8087932,20.5326974 29.7082973,20.2417874 Z M24.7585849,22.9829748 C24.5338786,23.1632685 24.4372308,23.4613179 24.5127593,23.740841 L25.0942572,25.8943341 L23.3495845,24.5240115 C23.2200048,24.4222518 23.0645628,24.3713719 22.9091208,24.3713719 C22.7536789,24.3713719 22.5982369,24.4222518 22.4686572,24.5240115 L20.7239845,25.8943341 L21.3054824,23.740841 C21.3810109,23.4613179 21.2842735,23.1631781 21.0596568,22.9828844 L18.8435573,21.2048902 L21.3786842,21.2048902 C21.6802613,21.2048902 21.9498014,21.014294 22.0529819,20.727993 L22.9091208,18.3501042 L23.7653492,20.7280833 C23.8684403,21.0143843 24.1378909,21.2049805 24.439647,21.2049805 L26.9747739,21.2049805 L24.7585849,22.9829748 Z" id="Shape"></path>
                    <path d="M24.8222114,1.98187524 L23.6265522,1.98187524 L23.6265522,0.774314045 C23.6265522,0.374233714 23.3054665,0.049795406 22.9091208,0.049795406 C22.5128646,0.049795406 22.1916895,0.374143341 22.1916895,0.774314045 L22.1916895,1.98187524 L20.9960303,1.98187524 C20.5997741,1.98187524 20.2785989,2.30622317 20.2785989,2.70639387 C20.2785989,3.10647421 20.5996846,3.43091251 20.9960303,3.43091251 L22.1916895,3.43091251 L22.1916895,4.63838333 C22.1916895,5.03846366 22.5127752,5.36290197 22.9091208,5.36290197 C23.305377,5.36290197 23.6265522,5.03855404 23.6265522,4.63838333 L23.6265522,3.43082214 L24.8222114,3.43082214 C25.2184676,3.43082214 25.5396427,3.10647421 25.5396427,2.7063035 C25.5396427,2.30622317 25.2184676,1.98187524 24.8222114,1.98187524 Z" id="Shape"></path>
                    <path d="M35.535447,1.98187524 L34.3397878,1.98187524 L34.3397878,0.774314045 C34.3397878,0.374233714 34.0187021,0.049795406 33.6223564,0.049795406 C33.2261002,0.049795406 32.9049251,0.374143341 32.9049251,0.774314045 L32.9049251,1.98187524 L31.7092659,1.98187524 C31.3130097,1.98187524 30.9918345,2.30622317 30.9918345,2.70639387 C30.9918345,3.10647421 31.3129202,3.43091251 31.7092659,3.43091251 L32.9049251,3.43091251 L32.9049251,4.63838333 C32.9049251,5.03846366 33.2260107,5.36290197 33.6223564,5.36290197 C34.0186126,5.36290197 34.3397878,5.03855404 34.3397878,4.63838333 L34.3397878,3.43082214 L35.535447,3.43082214 C35.9317032,3.43082214 36.2528783,3.10647421 36.2528783,2.7063035 C36.2528783,2.30622317 35.9317032,1.98187524 35.535447,1.98187524 Z" id="Shape"></path>
                    <path d="M14.8741942,1.98187524 L13.6785349,1.98187524 L13.6785349,0.774314045 C13.6785349,0.374233714 13.3574493,0.049795406 12.9611036,0.049795406 C12.5648474,0.049795406 12.2436722,0.374143341 12.2436722,0.774314045 L12.2436722,1.98187524 L11.048013,1.98187524 C10.6517568,1.98187524 10.3305817,2.30622317 10.3305817,2.70639387 C10.3305817,3.10647421 10.6516673,3.43091251 11.048013,3.43091251 L12.2436722,3.43091251 L12.2436722,4.63838333 C12.2436722,5.03846366 12.5647579,5.36290197 12.9611036,5.36290197 C13.3573598,5.36290197 13.6785349,5.03855404 13.6785349,4.63838333 L13.6785349,3.43082214 L14.8741942,3.43082214 C15.2704504,3.43082214 15.5916255,3.10647421 15.5916255,2.7063035 C15.5916255,2.30622317 15.2704504,1.98187524 14.8741942,1.98187524 Z" id="Shape"></path>
                </g>
            </g>
        </g>
    </g>
</svg>