<?xml version="1.0" encoding="UTF-8"?>
<svg width="64px" height="64px" viewBox="0 0 64 64" version="1.1" xmlns="http://www.w3.org/2000/svg" xmlns:xlink="http://www.w3.org/1999/xlink">
    <!-- Generator: Sketch 49 (51002) - http://www.bohemiancoding.com/sketch -->
    <title>content</title>
    <desc>Created with Sketch.</desc>
    <defs></defs>
    <g id="Page-1" stroke="none" stroke-width="1" fill="none" fill-rule="evenodd">
        <g id="grid" transform="translate(-104.000000, -20.000000)">
            <g id="content" transform="translate(104.000000, 20.000000)">
                <rect id="wrapper" fill-opacity="0.00999999978" fill="#FFFFFF" x="0" y="0" width="64" height="64"></rect>
                <g id="icon" transform="translate(10.000000, 10.000000)" fill="#6C5CE7" fill-rule="nonzero">
                    <path d="M44.120358,0.0240014823 L22.4110965,0.0240014823 L0.701835002,0.0240014823 C0.314193067,0.0240014823 0,0.336107714 0,0.721088012 L0,9.64459564 L0,43.1077058 C0,43.4926861 0.314193067,43.8048793 0.701835002,43.8048793 L22.4110965,43.8048793 L44.120358,43.8048793 C44.5079123,43.8048793 44.822193,43.492773 44.822193,43.1077058 L44.822193,9.64459564 L44.822193,0.721088012 C44.822193,0.336107714 44.5079999,0.0240014823 44.120358,0.0240014823 Z M43.4186105,42.4105323 L22.4110965,42.4105323 L1.40358246,42.4105323 L1.40358246,10.3417691 L22.4110965,10.3417691 L43.4186105,10.3417691 L43.4186105,42.4105323 Z M43.4186105,8.94742215 L22.4110965,8.94742215 L1.40358246,8.94742215 L1.40358246,1.4182615 L22.4110965,1.4182615 L43.4186105,1.4182615 L43.4186105,8.94742215 Z" id="Shape"></path>
                    <path d="M37.3830221,2.99844605 L29.1484324,2.99844605 C28.760878,2.99844605 28.4465974,3.31055228 28.4465974,3.69561954 C28.4465974,4.08059984 28.7607904,4.39279303 29.1484324,4.39279303 L37.3830221,4.39279303 C37.7705765,4.39279303 38.0848571,4.0806868 38.0848571,3.69561954 C38.0848571,3.31063924 37.7705765,2.99844605 37.3830221,2.99844605 Z" id="Shape"></path>
                    <path d="M41.1260254,2.99844605 L39.6288591,2.99844605 C39.2413047,2.99844605 38.9270241,3.31055228 38.9270241,3.69561954 C38.9270241,4.08059984 39.2412171,4.39279303 39.6288591,4.39279303 L41.1260254,4.39279303 C41.5135797,4.39279303 41.8278604,4.0806868 41.8278604,3.69561954 C41.8277728,3.31063924 41.5135797,2.99844605 41.1260254,2.99844605 Z" id="Shape"></path>
                    <path d="M23.1596796,2.25483491 C22.8239509,2.25483491 22.4932997,2.31109925 22.1772682,2.42214959 C22.1764803,2.42241047 22.1758675,2.42284528 22.1750796,2.42301921 C21.0009483,2.83643604 20.2120952,3.94520017 20.2120952,5.18292879 C20.2120952,6.42057044 21.0009483,7.52933457 22.1749921,7.94283837 C22.17578,7.94309925 22.1763928,7.94353406 22.1771807,7.94379495 C22.4932997,8.05475832 22.8238634,8.11110963 23.1595921,8.11110963 C24.7849218,8.11110963 26.1071765,6.79755024 26.1071765,5.18310271 C26.1071765,3.56865518 24.7850094,2.25483491 23.1596796,2.25483491 Z M23.1596796,6.71658872 C22.98363,6.71658872 22.8105568,6.68710864 22.6449248,6.6290181 C22.6448372,6.6290181 22.6447497,6.62893113 22.6446621,6.62893113 C22.0292324,6.41256995 21.6156776,5.83149058 21.6156776,5.18284183 C21.6156776,4.53419307 22.0291449,3.95320067 22.6447497,3.73675252 C22.6448372,3.73675252 22.6449248,3.73675252 22.6450123,3.73666555 C22.8105568,3.67848805 22.9837175,3.64909493 23.1597672,3.64909493 C24.0111262,3.64909493 24.7037692,4.33713742 24.7037692,5.18284183 C24.7037692,6.02854623 24.0110387,6.71658872 23.1596796,6.71658872 Z" id="Shape"></path>
                    <path d="M14.9251775,2.25483491 C13.2998477,2.25483491 11.977593,3.56839429 11.977593,5.18284183 C11.977593,6.79728936 13.2999352,8.11084874 14.9251775,8.11084874 C16.5504197,8.11084874 17.8727619,6.79737632 17.8727619,5.18284183 C17.8727619,3.56830733 16.5504197,2.25483491 14.9251775,2.25483491 Z M14.9251775,6.71658872 C14.0738184,6.71658872 13.3811755,6.02854623 13.3811755,5.18284183 C13.3811755,4.33713742 14.0738184,3.64909493 14.9251775,3.64909493 C15.7765365,3.64909493 16.4691794,4.33713742 16.4691794,5.18284183 C16.4691794,6.02854623 15.7764489,6.71658872 14.9251775,6.71658872 Z" id="Shape"></path>
                    <path d="M6.69058773,2.25483491 C5.06525798,2.25483491 3.74300329,3.56839429 3.74300329,5.18284183 C3.74300329,6.79728936 5.06534552,8.11084874 6.69058773,8.11084874 C8.31582994,8.11084874 9.63817218,6.79737632 9.63817218,5.18284183 C9.63817218,3.56830733 8.31591749,2.25483491 6.69058773,2.25483491 Z M6.69058773,6.71658872 C5.8392287,6.71658872 5.14658575,6.02854623 5.14658575,5.18284183 C5.14658575,4.33713742 5.8392287,3.64909493 6.69058773,3.64909493 C7.54194677,3.64909493 8.23458972,4.33713742 8.23458972,5.18284183 C8.23458972,6.02854623 7.54194677,6.71658872 6.69058773,6.71658872 Z" id="Shape"></path>
                    <path d="M42.0605506,18.3086959 L34.6499188,10.9471109 C34.3758206,10.6748332 33.9314506,10.6748332 33.6573524,10.9471109 L28.9330757,15.6400963 L22.4110965,15.6400963 L6.31625239,15.6400963 C5.92869799,15.6400963 5.61441738,15.9522026 5.61441738,16.3372698 C5.61441738,16.7223371 5.92861045,17.0344433 6.31625239,17.0344433 L22.4110965,17.0344433 L27.5294057,17.0344433 L21.9148133,22.6117443 L16.9554827,27.5381355 L6.31625239,27.5381355 C5.92869799,27.5381355 5.61441738,27.8502417 5.61441738,28.235309 C5.61441738,28.6203763 5.92861045,28.9324825 6.31625239,28.9324825 L15.5518127,28.9324825 L14.0392388,30.4350101 C14.0384509,30.4357927 14.0377506,30.4364884 14.0368751,30.437358 L14.0356495,30.4385755 C14.0334609,30.4407496 14.0317101,30.4430106 14.029609,30.4452716 C14.0156896,30.4595333 14.0021204,30.4741429 13.9892515,30.4896221 C13.9844367,30.4952747 13.9804972,30.501362 13.9758574,30.5071884 C13.9664027,30.5193631 13.956948,30.5315378 13.9482813,30.5444951 C13.9425909,30.5529304 13.937601,30.5618005 13.9322608,30.5704967 C13.9257826,30.581106 13.9190418,30.5916284 13.9131764,30.6026726 C13.9072234,30.6138037 13.9020584,30.6252827 13.8967182,30.6365877 C13.8924286,30.6457187 13.8877888,30.6545888 13.8839369,30.6639807 C13.8780715,30.6780686 13.8730815,30.6925912 13.8680916,30.7070269 C13.8656403,30.7141577 13.862839,30.7210277 13.8605628,30.7283325 C13.8549601,30.7467685 13.8503203,30.7653783 13.8463808,30.7841621 C13.8455929,30.7878145 13.8444548,30.791206 13.843667,30.7948584 L13.8432292,30.7970324 C13.8430542,30.797902 13.8428791,30.7986847 13.8427915,30.7995543 L12.1040056,39.4362616 L6.31625239,39.4362616 C5.92869799,39.4362616 5.61441738,39.7483679 5.61441738,40.1334351 C5.61441738,40.5184154 5.92861045,40.8306086 6.31625239,40.8306086 L12.6754886,40.8306086 C12.6765391,40.8306086 12.6775021,40.8306956 12.6786401,40.8306956 C12.6789027,40.8306956 12.6790778,40.8306956 12.679428,40.8306956 C12.6796906,40.8306956 12.6798657,40.8306956 12.6802159,40.8306956 C12.6812664,40.8306956 12.6823169,40.8306086 12.6833675,40.8306086 L13.2327895,40.8306086 C13.4200447,40.8306086 13.5897037,40.7572997 13.7155035,40.6385968 L16.7828472,40.0291678 C16.783285,40.0290808 16.7837227,40.0289939 16.7841604,40.0289069 L16.7869618,40.0283852 L22.075893,38.9776246 C22.0765058,38.9775376 22.0772062,38.9773637 22.0779065,38.9772768 L22.0803577,38.9768419 C22.0844723,38.9759723 22.0883242,38.9746679 22.0924387,38.9737983 C22.1108228,38.969798 22.1291194,38.9654499 22.1471533,38.9600583 C22.1548571,38.9577103 22.1621232,38.9547536 22.1697395,38.9522317 C22.183834,38.9473619 22.1981035,38.9426659 22.2119354,38.9370134 C22.2217402,38.9329262 22.2311074,38.9281433 22.2406496,38.9237082 C22.25168,38.9185775 22.262798,38.9137076 22.2736534,38.9078812 C22.2850341,38.9017938 22.2958019,38.8950108 22.3067448,38.8884887 C22.3152365,38.8833579 22.3239908,38.878575 22.3322199,38.8730964 C22.3452639,38.8644872 22.3576075,38.8550083 22.3699511,38.8456165 C22.375729,38.8411814 22.381857,38.8371812 22.3875473,38.8323982 C22.4028674,38.8198757 22.4173996,38.8065706 22.4315816,38.7928306 C22.4339453,38.7904826 22.4365716,38.7886564 22.4387602,38.7863084 L22.4401609,38.7849171 C22.4409488,38.7841344 22.4416491,38.7835257 22.4423495,38.782743 L22.9071171,38.3210623 L32.5636734,28.7286438 L36.7670671,24.5531686 L42.0603755,19.2950177 C42.3345612,19.0223052 42.3345612,18.5808867 42.0605506,18.3086959 Z M17.7423223,28.728122 C17.7424099,28.7280351 17.7424974,28.7279481 17.7425849,28.7279481 L22.9074672,23.5973704 L28.8604147,17.6839617 L30.2499027,19.0643078 L16.9140747,32.3115607 L15.5244992,30.9312146 L17.7423223,28.728122 Z M31.2422941,20.0502818 L32.8965132,21.6935137 L26.8073482,27.7422351 L21.9149008,32.6021874 L19.5607727,34.9406796 L17.9065536,33.2974477 L31.2422941,20.0502818 Z M13.5740335,39.2444237 L13.904422,37.6035397 L15.2258888,38.9162295 L13.5740335,39.2444237 Z M16.8800204,38.5876875 L14.2352483,35.9604817 L14.9630837,32.3454759 L16.417879,33.7906086 L19.064577,36.4197275 L20.5193723,37.8647733 L16.8800204,38.5876875 Z M31.5713695,27.7422351 L21.9427396,37.3068258 L20.5531641,35.9265666 L22.9072922,33.5880744 L27.7997396,28.728122 L33.8889045,22.6794007 L35.2783925,24.0596598 L31.5713695,27.7422351 Z M36.270959,23.0737728 L34.3852753,21.2006137 L31.7384898,18.5714948 L29.8528061,16.6982487 L34.1537231,12.4259848 L40.571876,18.801509 L36.270959,23.0737728 Z" id="Shape"></path>
                    <path d="M34.5105498,14.3570606 C34.2365391,14.0847829 33.7920816,14.0847829 33.5180709,14.3570606 L31.8337369,16.0302074 C31.5596387,16.3024851 31.5596387,16.7439037 31.8337369,17.0160944 C31.9707423,17.1521897 32.1503812,17.2202809 32.3299326,17.2202809 C32.509484,17.2202809 32.689123,17.1522767 32.8261283,17.0160944 L34.5104623,15.3429476 C34.784648,15.0706699 34.784648,14.6291644 34.5105498,14.3570606 Z" id="Shape"></path>
                </g>
            </g>
        </g>
    </g>
</svg>