<?xml version="1.0" encoding="UTF-8"?>
<svg width="64px" height="64px" viewBox="0 0 64 64" version="1.1" xmlns="http://www.w3.org/2000/svg" xmlns:xlink="http://www.w3.org/1999/xlink">
    <!-- Generator: Sketch 49 (51002) - http://www.bohemiancoding.com/sketch -->
    <title>html</title>
    <desc>Created with Sketch.</desc>
    <defs></defs>
    <g id="Page-1" stroke="none" stroke-width="1" fill="none" fill-rule="evenodd">
        <g id="grid" transform="translate(-608.000000, -356.000000)">
            <g id="html" transform="translate(608.000000, 356.000000)">
                <rect id="wrapper" fill-opacity="0.00999999978" fill="#FFFFFF" x="0" y="0" width="64" height="64"></rect>
                <g id="icon" transform="translate(10.000000, 10.000000)" fill="#6C5CE7" fill-rule="nonzero">
                    <path d="M45.1008104,0.0245469705 L0.717431335,0.0245469705 C0.321175136,0.0245469705 0,0.343746526 0,0.737476376 L0,9.86379099 L0,44.0874263 C0,44.4811562 0.321175136,44.8004447 0.717431335,44.8004447 L45.1008998,44.8004447 C45.497156,44.8004447 45.8183312,44.4812451 45.8183312,44.0874263 L45.8183312,9.86379099 L45.8183312,0.737476376 C45.8182417,0.343746526 45.497156,0.0245469705 45.1008104,0.0245469705 Z M44.3834685,43.374408 L1.43477318,43.374408 L1.43477318,10.5768093 L44.3834685,10.5768093 L44.3834685,43.374408 Z M44.3834685,9.15077265 L1.43477318,9.15077265 L1.43477318,1.45049472 L44.3834685,1.45049472 L44.3834685,9.15077265 Z" id="Shape"></path>
                    <path d="M38.2137559,3.06659255 L29.7961753,3.06659255 C29.3999191,3.06659255 29.078744,3.38579211 29.078744,3.77961089 C29.078744,4.17334074 29.3998296,4.49262924 29.7961753,4.49262924 L38.2137559,4.49262924 C38.6100121,4.49262924 38.9311872,4.17342968 38.9311872,3.77961089 C38.9311872,3.38588105 38.6100121,3.06659255 38.2137559,3.06659255 Z" id="Shape"></path>
                    <path d="M42.039937,3.06659255 L40.5095004,3.06659255 C40.1132442,3.06659255 39.792069,3.38579211 39.792069,3.77961089 C39.792069,4.17334074 40.1131547,4.49262924 40.5095004,4.49262924 L42.039937,4.49262924 C42.4361932,4.49262924 42.7573684,4.17342968 42.7573684,3.77961089 C42.7572789,3.38588105 42.4361932,3.06659255 42.039937,3.06659255 Z" id="Shape"></path>
                    <path d="M23.6743392,2.30608116 C22.012891,2.30608116 20.6612528,3.64949416 20.6612528,5.30063369 C20.6612528,6.95177321 22.0129805,8.29518621 23.6743392,8.29518621 C25.3356979,8.29518621 26.6874255,6.95186215 26.6874255,5.30063369 C26.6874255,3.64940523 25.3357874,2.30608116 23.6743392,2.30608116 Z M23.6743392,6.86923847 C22.804061,6.86923847 22.096026,6.16555864 22.096026,5.30063369 C22.096026,4.43570873 22.804061,3.7320289 23.6743392,3.7320289 C24.5446173,3.7320289 25.2526523,4.43570873 25.2526523,5.30063369 C25.2526523,6.16555864 24.5446173,6.86923847 23.6743392,6.86923847 Z" id="Shape"></path>
                    <path d="M15.2568481,2.30608116 C13.5953999,2.30608116 12.2437617,3.64949416 12.2437617,5.30063369 C12.2437617,6.95177321 13.5954894,8.29518621 15.2568481,8.29518621 C16.9182068,8.29518621 18.2699344,6.95186215 18.2699344,5.30063369 C18.2699344,3.64940523 16.9182068,2.30608116 15.2568481,2.30608116 Z M15.2568481,6.86923847 C14.3865699,6.86923847 13.6785349,6.16555864 13.6785349,5.30063369 C13.6785349,4.43570873 14.3865699,3.7320289 15.2568481,3.7320289 C16.1271262,3.7320289 16.8351612,4.43570873 16.8351612,5.30063369 C16.8351612,6.16555864 16.1270367,6.86923847 15.2568481,6.86923847 Z" id="Shape"></path>
                    <path d="M6.83926746,2.30608116 C5.17781927,2.30608116 3.82618114,3.64949416 3.82618114,5.30063369 C3.82618114,6.95177321 5.17790875,8.29518621 6.83926746,8.29518621 C8.50062616,8.29518621 9.85235378,6.95186215 9.85235378,5.30063369 C9.85235378,3.64940523 8.50071565,2.30608116 6.83926746,2.30608116 Z M6.83926746,6.86923847 C5.96898933,6.86923847 5.26095432,6.16555864 5.26095432,5.30063369 C5.26095432,4.43570873 5.96898933,3.7320289 6.83926746,3.7320289 C7.70954558,3.7320289 8.4175806,4.43570873 8.4175806,5.30063369 C8.4175806,6.16555864 7.70954558,6.86923847 6.83926746,6.86923847 Z" id="Shape"></path>
                    <path d="M15.1125922,20.2835353 C15.1281632,19.7123735 14.919028,19.1694052 14.5235772,18.754597 C14.1281264,18.3397888 13.5938786,18.1029461 13.0192713,18.0874708 C12.4462748,18.0719066 11.8983351,18.2799333 11.4809596,18.6728627 L4.21125124,25.5175542 C3.77579897,25.9275598 3.53095774,26.5045914 3.53945917,27.1007449 C3.5479606,27.6968983 3.80926776,28.2669038 4.25635357,28.6643691 L11.5261514,35.1289383 C11.9214232,35.4803335 12.4307932,35.6737743 12.9604772,35.6737743 C12.9605667,35.6737743 12.9606561,35.6737743 12.9607456,35.6737743 C13.5725802,35.6737743 14.1572997,35.4140745 14.5651895,34.9610228 C15.356449,34.0820456 15.2807416,32.7271595 14.3963242,31.9406782 L8.86869341,27.0253252 L14.441516,21.7784102 C14.8586231,21.3855698 15.0970211,20.8546081 15.1125922,20.2835353 Z M13.4544551,20.7432574 L7.31606354,26.5227349 C7.17046534,26.6597888 7.08929904,26.851184 7.09216268,27.0505837 C7.09502632,27.2498054 7.18165143,27.4387993 7.33109765,27.5717621 L13.439421,33.0034908 C13.7341969,33.265592 13.7595222,33.7172207 13.4957989,34.0102724 C13.3578967,34.1635131 13.1678226,34.2479155 12.9604772,34.2479155 C12.7840948,34.2479155 12.6144242,34.1834352 12.4826967,34.0662146 L5.21298835,27.6017343 C5.06398957,27.4692162 4.97682753,27.279244 4.97396389,27.0805559 C4.97118973,26.8818677 5.05280348,26.6894942 5.19786475,26.5528849 L12.4675731,19.7081934 C12.6018957,19.5817232 12.7762198,19.5127071 12.9604772,19.5127071 C12.9670993,19.5127071 12.973811,19.512796 12.9803437,19.5129739 C13.1719391,19.5181323 13.3499322,19.5971095 13.4817491,19.7353196 C13.6135661,19.8735297 13.6832778,20.0545192 13.6780875,20.2449361 C13.6730761,20.435353 13.5936101,20.6123402 13.4544551,20.7432574 Z" id="Shape"></path>
                    <path d="M41.6070799,25.5176431 L34.3373716,18.6729516 C33.4759528,17.8619233 32.1110704,17.898388 31.2946645,18.7546859 C30.4786165,19.610806 30.5154859,20.9673819 31.3769046,21.7784992 L36.9497273,27.0254141 L31.4220965,31.9407671 C30.5377686,32.7272485 30.4619716,34.0820456 31.2532312,34.9612007 C31.6611209,35.4140745 32.2458404,35.6738633 32.8574961,35.6738633 C32.8575855,35.6738633 32.857675,35.6738633 32.8577645,35.6738633 C33.3876274,35.6738633 33.8970869,35.4803335 34.2921798,35.1289383 L41.5618881,28.664458 C42.0090634,28.2668149 42.2703706,27.6968093 42.278693,27.1006559 C42.2872839,26.5045914 42.0424427,25.9275598 41.6070799,25.5176431 Z M40.6051639,27.6018232 L33.3354555,34.0663035 C33.203728,34.1834352 33.0341469,34.2480044 32.857675,34.2480044 L32.8575855,34.2480044 C32.6505086,34.2480044 32.4604345,34.163602 32.3225323,34.0104503 C32.0587194,33.7174875 32.0839553,33.2657699 32.3787312,33.0035798 L38.4869651,27.571851 C38.6365008,27.4389772 38.7231259,27.2499833 38.7259,27.0506726 C38.7287637,26.8513619 38.6475974,26.6599666 38.5019992,26.5228238 L32.3636076,20.7433463 C32.0764382,20.4729739 32.0640888,20.0207226 32.3361346,19.7354086 C32.4769899,19.587682 32.666885,19.5131518 32.8571381,19.5131518 C33.0343258,19.5131518 33.211961,19.5778099 33.3503106,19.7081934 L40.620019,26.5528849 C40.7652592,26.6894942 40.846694,26.8818677 40.8439198,27.0805559 L40.8439198,27.0807337 L40.8440093,27.0807337 C40.8413247,27.279333 40.7543416,27.4693052 40.6051639,27.6018232 Z" id="Shape"></path>
                    <path d="M28.4308454,20.4302835 C28.2813992,19.8785103 27.924697,19.417632 27.4266026,19.1326737 C27.4266026,19.1325848 27.4265131,19.1325848 27.4265131,19.1325848 C26.3978399,18.5443469 25.0795811,18.8971651 24.4875235,19.9190661 L17.2178151,32.4677265 C16.625668,33.4898054 16.9806699,34.8001334 18.0091642,35.3887271 C18.3356191,35.5754086 18.7064605,35.674219 19.0815079,35.674219 C19.8497688,35.674219 20.564963,35.263413 20.9479748,34.6022457 L28.2176832,22.0536743 C28.5044946,21.5584658 28.5802916,20.9818788 28.4308454,20.4302835 Z M26.9743264,21.34199 L19.7047076,33.8906504 C19.5770071,34.1111284 19.3381616,34.2480934 19.0815974,34.2480934 C18.9555077,34.2480934 18.8355928,34.2160756 18.7249847,34.1528405 C18.3821533,33.9567315 18.2638491,33.5198666 18.4611718,33.179144 L25.7309697,20.6304836 C25.8635025,20.4016454 26.1053906,20.2734853 26.3539009,20.2734853 C26.4752477,20.2734853 26.5982052,20.30408 26.7106926,20.3684714 C26.8767837,20.4634575 26.9956248,20.6170539 27.0453805,20.8008894 C27.0952257,20.9847248 27.0699899,21.1769205 26.9743264,21.34199 Z" id="Shape"></path>
                </g>
            </g>
        </g>
    </g>
</svg>