<?xml version="1.0" encoding="UTF-8"?>
<svg width="64px" height="64px" viewBox="0 0 64 64" version="1.1" xmlns="http://www.w3.org/2000/svg" xmlns:xlink="http://www.w3.org/1999/xlink">
    <!-- Generator: Sketch 49 (51002) - http://www.bohemiancoding.com/sketch -->
    <title>paper-plane</title>
    <desc>Created with Sketch.</desc>
    <defs></defs>
    <g id="Page-1" stroke="none" stroke-width="1" fill="none" fill-rule="evenodd">
        <g id="grid" transform="translate(-104.000000, -104.000000)">
            <g id="paper-plane" transform="translate(104.000000, 104.000000)">
                <rect id="wrapper" fill-opacity="0.00999999978" fill="#FFFFFF" x="0" y="0" width="64" height="64"></rect>
                <g id="icon" transform="translate(10.000000, 12.000000)" fill="#6C5CE7" fill-rule="nonzero">
                    <path d="M44.7397271,29.3048471 L38.7509744,18.1821946 C38.628939,17.9556954 38.3909086,17.8140901 38.1316928,17.8140901 L36.6345265,17.8140901 L35.0905245,17.8140901 L35.0905245,10.3642446 C35.0905245,10.3636376 35.0905245,10.3630306 35.0905245,10.3630306 L35.0905245,10.3526248 C35.0905245,10.3491562 35.0900868,10.3459477 35.0900868,10.3424792 C35.0899117,10.3321601 35.0895615,10.3219277 35.0888612,10.3116087 C35.0884234,10.303284 35.0879857,10.2948727 35.0871978,10.2865481 C35.0866726,10.2809116 35.0857971,10.2753619 35.0851843,10.2696387 C35.0841338,10.2614008 35.0829958,10.2531629 35.0815951,10.2448382 C35.0802819,10.2363402 35.0790563,10.2277554 35.077393,10.2194308 C35.0759923,10.2122335 35.0742414,10.2050361 35.0724906,10.1978388 C35.0716151,10.1943702 35.0713525,10.1909016 35.0703895,10.187433 C35.0694265,10.1837043 35.0681134,10.1804091 35.067238,10.1766804 C35.065312,10.1692229 35.0634736,10.1619389 35.061285,10.1546548 C35.0588338,10.1465036 35.0560324,10.1384391 35.0533186,10.1303747 C35.0507798,10.1230906 35.048241,10.1157198 35.0455272,10.1086092 C35.0433386,10.1030595 35.0413251,10.097423 35.039049,10.09196 C35.0356348,10.0838088 35.0321331,10.075831 35.0284562,10.0678533 C35.0247794,10.0597888 35.0211026,10.051811 35.0171632,10.04392 C35.0149746,10.0396709 35.0128735,10.0354219 35.0105974,10.0312596 C35.006658,10.0237154 35.0024559,10.0163446 34.9982538,10.0089739 C34.9933514,10.0005625 34.9885365,9.99223791 34.9833714,9.984 C34.9810078,9.98027126 34.9785565,9.97671595 34.9761929,9.97307393 C34.9718157,9.96631017 34.9671759,9.95980656 34.9625361,9.95321623 C34.9567582,9.94506504 34.9508928,9.93691384 34.9448524,9.92902279 C34.9419634,9.92529405 34.938987,9.92182546 34.9360105,9.91809672 C34.931108,9.91220011 34.9262056,9.9063035 34.9211281,9.90058032 C34.9147374,9.89329628 34.9086094,9.88592551 34.9019561,9.87890161 C34.8981918,9.87491273 34.8943398,9.87109728 34.890663,9.86728182 C34.8853229,9.86181879 34.8797201,9.8566159 34.8742049,9.85132629 C34.8677267,9.84525625 34.8615111,9.83901278 34.8548578,9.83320289 C34.8503055,9.82912729 34.8455782,9.82522513 34.8408509,9.82123624 C34.8347228,9.81612007 34.8284197,9.81135075 34.822029,9.806408 C34.8157259,9.80146526 34.8095979,9.79660923 34.8032072,9.79183991 C34.7978671,9.78793774 34.7925269,9.78412229 34.7870992,9.78048027 C34.7800958,9.77571095 34.7729172,9.77128849 34.7656511,9.76677932 C34.759348,9.76279044 34.7533075,9.75871484 34.7469169,9.7549861 C34.7413141,9.75177765 34.7357988,9.74839578 34.7301085,9.74536076 C34.7222296,9.74102501 34.7141756,9.73712285 34.7061217,9.73313396 C34.6993808,9.72966537 34.69264,9.72628349 34.6858116,9.72316176 C34.6803839,9.72064703 34.6750438,9.71804558 34.6696161,9.71570428 C34.661387,9.71206226 34.6529828,9.70902724 34.6445787,9.70573207 C34.6365247,9.70261034 34.6283832,9.69957532 34.6202416,9.69671373 C34.6153392,9.69506615 34.6106119,9.69315842 34.6056219,9.69159755 C34.5975679,9.68899611 34.5894264,9.68682824 34.5812848,9.68457365 C34.5713924,9.68171206 34.561325,9.67919733 34.5512575,9.67676932 C34.5478433,9.67590217 34.5444291,9.67477487 34.5409274,9.67390773 L34.5319979,9.672 C34.531035,9.67182657 34.5301595,9.67156643 34.5291965,9.67130628 L21.0662556,6.70782657 C20.898435,6.6706259 20.7231732,6.69612007 20.5732115,6.77875931 L0.368645028,17.897423 C0.367594508,17.8979433 0.366719075,17.8985503 0.365668555,17.8990706 L0.361116301,17.9015853 C0.358402457,17.9030595 0.356038787,17.9047938 0.353324943,17.9064414 C0.350523556,17.9080022 0.347547082,17.9093897 0.344745695,17.9110372 C0.338967834,17.9145058 0.333452603,17.9181479 0.327674743,17.9217032 C0.322422142,17.9249116 0.317081998,17.9280334 0.31191694,17.9314152 C0.309465727,17.9330628 0.307014513,17.9347104 0.304650843,17.9364447 C0.301061566,17.9388727 0.297559832,17.9413874 0.294058098,17.9439022 C0.292044601,17.9453763 0.289856017,17.9467638 0.287667434,17.9482379 C0.282414833,17.9520534 0.277424862,17.956129 0.272347348,17.9600311 C0.267094747,17.96402 0.261842147,17.9678355 0.256677089,17.9719111 C0.254751136,17.9734719 0.252825182,17.9752929 0.250899229,17.9769405 C0.247047321,17.9800623 0.243195414,17.9832707 0.239518594,17.9864792 C0.237767727,17.98804 0.235929316,17.9895142 0.23417845,17.991075 C0.229888826,17.9949772 0.225774288,17.9990528 0.221484664,18.002955 C0.216319607,18.0077243 0.211067006,18.0123202 0.206164579,18.0172629 C0.204588799,18.0188238 0.203100562,18.0206448 0.201524782,18.0222057 C0.197760418,18.0259344 0.193996054,18.0294897 0.190406777,18.0333052 C0.188568366,18.0352129 0.186729956,18.0372073 0.184979089,18.0391151 C0.181389812,18.0429305 0.178238252,18.0470061 0.174736518,18.0509083 C0.170096721,18.0561979 0.165194293,18.0612273 0.160642039,18.0666904 C0.159066259,18.0685114 0.157753109,18.0706793 0.156177329,18.0725003 C0.153025768,18.0764892 0.149611578,18.0803046 0.146547561,18.0842935 C0.14470915,18.0867215 0.14287074,18.0892362 0.14103233,18.0915775 C0.137968313,18.0956531 0.135254469,18.0999889 0.132190452,18.1040645 C0.128338545,18.1093541 0.124136464,18.1143835 0.120459644,18.1198466 C0.118708777,18.122448 0.11722054,18.1251362 0.115469673,18.1277376 C0.112930916,18.1315531 0.110217072,18.1352818 0.107765858,18.1390973 C0.106014992,18.1418722 0.104264125,18.144647 0.102600801,18.1474219 C0.099799414,18.1519311 0.0974357437,18.1567871 0.0948094433,18.1612963 C0.0898194726,18.1697076 0.0849170452,18.1782057 0.0802772479,18.1867904 C0.0783512943,18.1905192 0.076250254,18.1942479 0.0744118438,18.1978899 C0.0730111502,18.2005781 0.0716104567,18.2032663 0.0702097632,18.2060411 C0.0678460928,18.2108105 0.0660952259,18.2156665 0.0639066423,18.2204358 C0.0596170184,18.229801 0.0552398511,18.2391662 0.0513879439,18.2487916 C0.0498121637,18.2527804 0.0481488401,18.2567693 0.0465730599,18.2607582 C0.0456100831,18.2631862 0.0445595629,18.2652674 0.0436841295,18.2676954 C0.0417581759,18.272985 0.0403574823,18.2785347 0.0384315287,18.2839111 C0.035717685,18.2917154 0.0328287546,18.2992596 0.0303775409,18.3071506 C0.0296771942,18.3094052 0.0291519341,18.3115731 0.0285391307,18.3138277 C0.0275761539,18.3172096 0.0267007204,18.320418 0.0257377436,18.3237132 C0.0231989866,18.3328182 0.0211854896,18.34201 0.0189093627,18.3512018 C0.0172460391,18.3583991 0.0151449988,18.3655964 0.0136567619,18.3728805 C0.0131315018,18.3755686 0.0126062418,18.3782568 0.012168525,18.3808583 C0.0117308083,18.3834597 0.0112930916,18.3860611 0.0108553749,18.3886626 C0.0099799414,18.3934319 0.0090169646,18.3981145 0.00822907449,18.4029705 C0.00726609769,18.409214 0.0069159243,18.4153708 0.00604049085,18.4217009 C0.00525260074,18.4278577 0.00411453724,18.433841 0.00341419048,18.4400845 C0.00315156044,18.4427727 0.00288893041,18.4454608 0.00253875702,18.448149 C0.00227612699,18.4508371 0.00227612699,18.453612 0.00210104029,18.4563002 C0.00175086691,18.4611562 0.00113806349,18.4659255 0.000962976802,18.4707815 C0.000525260074,18.4783257 0.000787890111,18.4856965 0.000612803419,18.4932407 C0.000525260074,18.500438 0,18.5077221 0,18.5150061 C0,18.5185614 0.000350173382,18.5221167 0.000437716728,18.525672 C0.000525260074,18.5299211 0.000437716728,18.5341701 0.000612803419,18.5385926 C0.000962976802,18.5468305 0.0019259536,18.5548949 0.00253875702,18.5630461 C0.00297647375,18.5692029 0.00297647375,18.5752729 0.00367682052,18.581343 C0.00411453724,18.586199 0.00516505739,18.591055 0.00569031746,18.5959111 C0.00612803419,18.5994664 0.00621557754,18.6028482 0.00682838096,18.6064036 C0.0080539878,18.6146415 0.00980485471,18.6227927 0.0112930916,18.6310306 C0.0122560684,18.6364069 0.0127813285,18.6418699 0.0138318486,18.6471595 C0.0140069353,18.6481134 0.0140944786,18.6488938 0.0142695653,18.6498477 C0.0153200855,18.6547037 0.0168083224,18.659473 0.0179463859,18.6643291 C0.0204851429,18.6750817 0.0232865299,18.6856609 0.0262630037,18.6962401 C0.0266131771,18.6974541 0.0267882638,18.6987549 0.0272259805,18.6999689 C0.028364044,18.7039578 0.0290643907,18.7080334 0.0302899976,18.7120222 C0.0308152577,18.7138432 0.0313405177,18.715751 0.0318657778,18.717572 C0.0326536679,18.72 0.0337041881,18.722428 0.0344920782,18.7247693 C0.0351924249,18.7265903 0.0358927717,18.7284113 0.0364180318,18.7302324 C0.0395695922,18.7396843 0.0431588694,18.7490495 0.0468356899,18.758328 C0.04762358,18.7602357 0.0482363834,18.7623168 0.0491118169,18.7642246 C0.0505125104,18.7678666 0.0516505739,18.7715086 0.0531388108,18.7751506 C0.0542768743,18.7777521 0.0552398511,18.7803535 0.0562903712,18.782955 C0.056728088,18.7839956 0.0573408914,18.7850361 0.0577786081,18.78599 C0.0590042149,18.7888516 0.0604924518,18.791453 0.061805602,18.7942279 C0.0655699659,18.8025525 0.0697720465,18.8107037 0.0738865837,18.8189416 C0.0740616704,18.8192885 0.0742367571,18.8197221 0.0744118438,18.8200689 C0.0771256875,18.8254452 0.0794893578,18.830995 0.0823782882,18.8363713 C0.0839540684,18.8393196 0.085617392,18.8422679 0.0873682589,18.8453897 C0.0877184323,18.8459967 0.087893519,18.8466037 0.0883312357,18.8472107 C0.0893817559,18.8490317 0.0906949061,18.8505058 0.0918329695,18.8524136 C0.0920080562,18.8526737 0.0920955996,18.8528471 0.0922706863,18.853194 C0.0968229402,18.861085 0.101637824,18.8688894 0.106452708,18.8765203 C0.108466205,18.8798155 0.110392159,18.8833708 0.112493199,18.8866659 C0.114156523,18.8891807 0.11564476,18.8917821 0.117395626,18.8942968 C0.117570713,18.894557 0.1177458,18.8947304 0.117920887,18.8950773 C0.121072447,18.8998466 0.124574181,18.904269 0.127813285,18.9087782 C0.131402562,18.9138077 0.134729209,18.9187504 0.138493573,18.9236064 C0.141382503,18.9274219 0.144358977,18.9311506 0.147335451,18.9347927 C0.151274901,18.9398221 0.154951722,18.9449383 0.158978716,18.9497943 C0.161955189,18.9534364 0.165281837,18.9567315 0.168345854,18.9603735 C0.173248281,18.96601 0.177975622,18.9715598 0.183053136,18.9770228 C0.186029609,18.9802312 0.189006083,18.9834397 0.1920701,18.9865614 C0.195746921,18.9903769 0.199073568,18.9944525 0.202837932,18.9982679 C0.204063539,18.9995686 0.205464232,19.0006959 0.206689839,19.0019967 C0.208965966,19.0042513 0.211592266,19.006159 0.213868393,19.0085003 C0.221572208,19.0157843 0.229363566,19.0229817 0.23733001,19.0299188 C0.243195414,19.0351217 0.248798188,19.0404981 0.254926222,19.0454408 C0.25799024,19.0479555 0.261316887,19.0502101 0.264380904,19.0525514 C0.266044227,19.0539389 0.267620008,19.055413 0.269458418,19.0567137 C0.270508938,19.0574942 0.271296828,19.058448 0.272347348,19.0592285 C0.273310325,19.0600089 0.274098215,19.0607026 0.275061192,19.061483 C0.280576423,19.0656454 0.286704457,19.0693741 0.292394774,19.0734497 C0.297997548,19.0774386 0.303250149,19.0816876 0.308940467,19.0855031 C0.312617287,19.0880178 0.316556738,19.0900122 0.320233558,19.0924402 C0.328112459,19.0975564 0.336166447,19.1024125 0.344307978,19.1072685 C0.348772689,19.1098699 0.353324943,19.1125581 0.357877197,19.1151595 C0.365581011,19.1194086 0.373284826,19.1234842 0.381163727,19.127473 C0.390268235,19.1320689 0.399547829,19.1364047 0.408827424,19.1406537 C0.416881412,19.1443824 0.424847856,19.1483713 0.433076931,19.1517532 L0.433164474,19.1518399 C0.433602191,19.1520133 0.434214994,19.1521868 0.434652711,19.1525336 L36.3648054,33.9817254 C36.4516484,34.0176253 36.5433063,34.0352285 36.6347016,34.0352285 C36.7713567,34.0352285 36.9071364,33.9957732 37.0240944,33.9184236 C37.219316,33.7894786 37.3366241,33.5725181 37.3366241,33.3400356 L37.3366241,28.6124291 L43.9450086,30.3052763 C44.0033125,30.3201912 44.0622292,30.3273885 44.1207081,30.3273885 C44.3326506,30.3273885 44.5371518,30.2320889 44.6721437,30.0623013 C44.8441663,29.8453407 44.8708671,29.5482557 44.7397271,29.3048471 Z M21.0218711,8.12257921 L31.3000727,10.3849694 L5.60470007,16.6065859 L21.0218711,8.12257921 Z M33.686942,11.2382435 L33.686942,17.8141768 L6.52845746,17.8141768 L33.686942,11.2382435 Z M35.9326915,32.2967693 L10.0989128,21.6345725 L35.9326915,28.2524758 L35.9326915,32.2967693 Z M36.810226,27.0413296 L6.21837893,19.2044758 L34.3886895,19.2044758 L36.6344389,19.2044758 L37.7105217,19.2044758 L42.7492541,28.5627415 L36.810226,27.0413296 Z" id="Shape"></path>
                    <path d="M41.1261129,2.9838577 L31.3943569,2.9838577 C31.0068025,2.9838577 30.6925219,3.29507727 30.6925219,3.67905058 C30.6925219,4.0630239 31.006715,4.37424347 31.3943569,4.37424347 L41.1261129,4.37424347 C41.5136673,4.37424347 41.8279479,4.06311062 41.8279479,3.67905058 C41.8278604,3.29507727 41.5136673,2.9838577 41.1261129,2.9838577 Z" id="Shape"></path>
                    <path d="M24.657021,34.1274063 L14.925265,34.1274063 C14.5377106,34.1274063 14.22343,34.4385392 14.22343,34.8225992 C14.22343,35.2065725 14.5376231,35.5177921 14.925265,35.5177921 L24.657021,35.5177921 C25.0446629,35.5177921 25.358856,35.2066593 25.358856,34.8225992 C25.3587685,34.4385392 25.0445754,34.1274063 24.657021,34.1274063 Z" id="Shape"></path>
                    <path d="M37.3831096,0.0178632574 L23.1597672,0.0178632574 C22.7722128,0.0178632574 22.4579322,0.328996109 22.4579322,0.713056142 C22.4579322,1.09702946 22.7721252,1.40824903 23.1597672,1.40824903 L37.3831096,1.40824903 C37.770664,1.40824903 38.0849446,1.09711618 38.0849446,0.713056142 C38.0849446,0.328996109 37.770664,0.0178632574 37.3831096,0.0178632574 Z" id="Shape"></path>
                    <path d="M34.3886895,37.0934008 L20.1654346,37.0934008 C19.7778802,37.0934008 19.4635996,37.4045336 19.4635996,37.7885937 C19.4635996,38.172567 19.7777926,38.4837865 20.1654346,38.4837865 L34.388777,38.4837865 C34.7763314,38.4837865 35.090612,38.1726537 35.090612,37.7885937 C35.0905245,37.4046203 34.776419,37.0934008 34.3886895,37.0934008 Z" id="Shape"></path>
                </g>
            </g>
        </g>
    </g>
</svg>