<?xml version="1.0" encoding="UTF-8"?>
<svg width="64px" height="64px" viewBox="0 0 64 64" version="1.1" xmlns="http://www.w3.org/2000/svg" xmlns:xlink="http://www.w3.org/1999/xlink">
    <!-- Generator: Sketch 49 (51002) - http://www.bohemiancoding.com/sketch -->
    <title>piggy-bank</title>
    <desc>Created with Sketch.</desc>
    <defs></defs>
    <g id="Page-1" stroke="none" stroke-width="1" fill="none" fill-rule="evenodd">
        <g id="grid" transform="translate(-608.000000, -188.000000)">
            <g id="piggy-bank" transform="translate(608.000000, 188.000000)">
                <rect id="wrapper" fill-opacity="0.00999999978" fill="#FFFFFF" x="0" y="0" width="64" height="64"></rect>
                <g id="icon" transform="translate(10.000000, 10.000000)" fill="#6C5CE7" fill-rule="nonzero">
                    <path d="M23.1596796,0 C19.4705155,0 16.4690919,3.00160506 16.4690919,6.69099222 C16.4690919,10.3803794 19.4705155,13.3819844 23.1596796,13.3819844 C26.8488438,13.3819844 29.8502674,10.3803794 29.8502674,6.69099222 C29.8502674,3.00160506 26.8488438,0 23.1596796,0 Z M22.4578446,6.73774319 L21.6156776,6.73774319 L21.6156776,4.39826848 L22.4578446,4.39826848 L22.4578446,6.73774319 Z M22.4578446,2.99460117 L20.9138426,2.99460117 C20.5262882,2.99460117 20.2120076,3.30872568 20.2120076,3.6964786 L20.2120076,7.43970817 C20.2120076,7.82737354 20.5262007,8.1415856 20.9138426,8.1415856 L22.4578446,8.1415856 L22.4578446,9.73243191 L20.9138426,9.73243191 C20.5262882,9.73243191 20.2120076,10.0465564 20.2120076,10.4343093 C20.2120076,10.8220623 20.5262007,11.1361868 20.9138426,11.1361868 L22.4578446,11.1361868 L22.4578446,11.930428 C19.87339,11.5858366 17.8726744,9.36849222 17.8726744,6.69116732 C17.8726744,4.01384241 19.87339,1.79641051 22.4578446,1.45190661 L22.4578446,2.99460117 Z M23.8615146,8.14149805 L24.7036816,8.14149805 L24.7036816,9.73234436 L23.8615146,9.73234436 L23.8615146,8.14149805 Z M23.8615146,11.9302529 L23.8615146,11.1360117 L25.4055166,11.1360117 C25.793071,11.1360117 26.1073516,10.8218872 26.1073516,10.4341342 L26.1073516,7.43962062 C26.1073516,7.05195525 25.7931585,6.73774319 25.4055166,6.73774319 L23.8615146,6.73774319 L23.8615146,4.39826848 L25.4055166,4.39826848 C25.793071,4.39826848 26.1073516,4.08414397 26.1073516,3.69639105 C26.1073516,3.30872568 25.7931585,2.99451362 25.4055166,2.99451362 L23.8615146,2.99451362 L23.8615146,1.45173152 C26.4459693,1.79632296 28.4466849,4.01366732 28.4466849,6.69099222 C28.4466849,9.36831712 26.4459693,11.5856615 23.8615146,11.9302529 Z" id="Shape"></path>
                    <path d="M36.3037002,33.0083755 C35.9537019,32.8417704 35.5348945,32.9903405 35.3682995,33.3401848 C34.4010331,35.3712257 32.3268686,36.6834047 30.0841832,36.6834047 C29.6966288,36.6834047 29.3823482,36.9975292 29.3823482,37.3852821 C29.3823482,37.7729475 29.6965412,38.0871595 30.0841832,38.0871595 C32.8652602,38.0871595 35.4367584,36.460856 36.6354894,33.9440078 C36.802172,33.5939008 36.6536985,33.1750681 36.3037002,33.0083755 Z" id="Shape"></path>
                    <path d="M36.6344389,23.2079183 C36.2468845,23.2079183 35.9326039,23.5220428 35.9326039,23.9097957 L35.9326039,28.4018288 C35.9326039,28.7894066 36.246797,29.1037062 36.6344389,29.1037062 C37.0219933,29.1037062 37.3362739,28.7894942 37.3362739,28.4018288 L37.3362739,23.9097957 C37.3362739,23.5220428 37.0219933,23.2079183 36.6344389,23.2079183 Z" id="Shape"></path>
                    <path d="M39.6287715,14.9728307 C39.2412171,14.9728307 38.9269365,15.2869553 38.9269365,15.6747082 C38.9269365,16.0624611 39.2411296,16.3765856 39.6287715,16.3765856 C41.7184312,16.3765856 43.418523,18.0767802 43.418523,20.1665661 C43.418523,22.0194455 42.0817361,23.5649416 40.3222024,23.8918482 C40.1153374,18.5260798 35.6866071,14.2242899 30.2712633,14.2242899 L18.2346661,14.2242899 L12.455317,7.72214008 C12.2618462,7.50431907 11.9537812,7.42885214 11.6813463,7.53233463 C11.4089114,7.63590467 11.2289223,7.89688716 11.2289223,8.18833658 L11.2289223,14.3905447 C6.55034329,15.2514981 2.99433259,19.3601556 2.99433259,24.2841537 L2.99433259,25.0621109 L0.586365329,25.4635214 C0.248097841,25.5198152 0,25.8125778 0,26.1556809 L0,32.1447957 C0,32.4878988 0.248010298,32.7806615 0.586452872,32.8370428 L3.25030934,33.2810895 C4.23096989,37.5570525 7.9079655,40.7137938 12.2798802,41.0492802 L12.7331796,44.2223054 C12.7825541,44.5681226 13.0786257,44.8249903 13.4280112,44.8249903 L17.9195976,44.8249903 C18.268808,44.8249903 18.5649671,44.5682101 18.6144291,44.2223054 L19.0630012,41.0817607 L25.7593668,41.0817607 L26.2079389,44.2223054 C26.2573134,44.5681226 26.553385,44.8249903 26.9027705,44.8249903 L31.3943569,44.8249903 C31.7435673,44.8249903 32.0397264,44.5682101 32.0891884,44.2223054 L32.5758419,40.8151751 C37.0988564,39.7581128 40.3306941,35.7189689 40.3306941,31.0218969 L40.3306941,25.311537 C42.8634106,24.9676459 44.822193,22.7922374 44.822193,20.1665661 C44.822193,17.3027626 42.4924894,14.9728307 39.6287715,14.9728307 Z M1.40358246,31.5502529 L1.40358246,26.7501362 L2.99433259,26.4850389 L2.99433259,31.0218093 C2.99433259,31.2883949 3.00641358,31.5551556 3.02733643,31.8208658 L1.40358246,31.5502529 Z M12.6325923,10.0342996 L16.3567738,14.2242023 L13.0536758,14.2242023 L12.6325923,14.2242023 L12.6325923,10.0342996 Z M17.3108212,43.4212354 L14.0366125,43.4212354 L13.7024595,41.0817607 L17.6450617,41.0817607 L17.3108212,43.4212354 Z M30.7855805,43.4212354 L27.5113718,43.4212354 L27.1771313,41.0817607 L30.2713508,41.0817607 C30.5560418,41.0817607 30.8410829,41.0686284 31.1250736,41.0447276 L30.7855805,43.4212354 Z M38.9270241,24.6583366 L38.9270241,31.0218093 C38.9270241,35.2111868 35.9403077,38.7930642 31.8253328,39.538716 C31.3153052,39.6310798 30.7924088,39.6780058 30.2713508,39.6780058 L26.3679682,39.6780058 L18.4543123,39.6780058 L13.0536758,39.6780058 C13.0117425,39.6780058 12.9698968,39.6772179 12.9283137,39.6765175 L12.9050272,39.6760798 L12.9049397,39.6760798 C12.9048521,39.6760798 12.9048521,39.6760798 12.9048521,39.6760798 C8.77394427,39.6064786 5.25251319,36.6075 4.53168129,32.5453307 C4.44299988,32.0456907 4.39809014,31.5331809 4.39809014,31.0218093 L4.39809014,25.6565661 L4.39809014,24.2840661 C4.39809014,19.5110019 8.28098769,15.6278696 13.0537634,15.6278696 L17.9195976,15.6278696 L30.2714384,15.6278696 C35.0442141,15.6278696 38.9271116,19.5110019 38.9271116,24.2840661 L38.9271116,24.6583366 L38.9270241,24.6583366 Z" id="Shape"></path>
                    <path d="M9.68500787,21.7105739 C8.05967811,21.7105739 6.73742342,23.0329961 6.73742342,24.6583366 C6.73742342,26.283677 8.05976566,27.6060992 9.68500787,27.6060992 C11.3102501,27.6060992 12.6325923,26.283677 12.6325923,24.6583366 C12.6325923,23.0329961 11.3102501,21.7105739 9.68500787,21.7105739 Z M9.68500787,26.2024319 C8.83364883,26.2024319 8.14100588,25.5097471 8.14100588,24.6583366 C8.14100588,23.8069261 8.83364883,23.1142412 9.68500787,23.1142412 C10.5363669,23.1142412 11.2290099,23.8069261 11.2290099,24.6583366 C11.2290099,25.5097471 10.5362794,26.2024319 9.68500787,26.2024319 Z" id="Shape"></path>
                    <path d="M29.1484324,18.7160603 L16.4222562,18.7160603 C16.0347018,18.7160603 15.7204212,19.0301848 15.7204212,19.4179377 L15.7204212,23.1611673 C15.7204212,23.5488327 16.0346143,23.8630447 16.4222562,23.8630447 L29.1484324,23.8630447 C29.5359867,23.8630447 29.8502674,23.5489202 29.8502674,23.1611673 L29.8502674,19.4179377 C29.8502674,19.0301848 29.5360743,18.7160603 29.1484324,18.7160603 Z M28.4466849,22.4592023 L17.1241787,22.4592023 L17.1241787,20.1197276 L28.4466849,20.1197276 L28.4466849,22.4592023 Z" id="Shape"></path>
                </g>
            </g>
        </g>
    </g>
</svg>