<?xml version="1.0" encoding="UTF-8"?>
<svg width="64px" height="64px" viewBox="0 0 64 64" version="1.1" xmlns="http://www.w3.org/2000/svg" xmlns:xlink="http://www.w3.org/1999/xlink">
    <!-- Generator: Sketch 49 (51002) - http://www.bohemiancoding.com/sketch -->
    <title>placeholder</title>
    <desc>Created with Sketch.</desc>
    <defs></defs>
    <g id="Page-1" stroke="none" stroke-width="1" fill="none" fill-rule="evenodd">
        <g id="grid" transform="translate(-524.000000, -356.000000)">
            <g id="placeholder" transform="translate(524.000000, 356.000000)">
                <rect id="wrapper" fill-opacity="0.00999999978" fill="#FFFFFF" x="0" y="0" width="64" height="64"></rect>
                <g id="icon" transform="translate(15.000000, 10.000000)" fill="#6C5CE7" fill-rule="nonzero">
                    <path d="M24.8976076,10.6589591 C23.4438538,10.6589591 22.2612015,11.8330739 22.2612015,13.2761381 C22.2612015,13.9078016 22.4902357,14.5063716 22.8930959,14.9742315 L19.6554862,19.7952724 L19.5722331,19.7952724 L17.9906011,12.2064689 C18.8850425,11.7813327 19.4809546,10.8805447 19.4809546,9.85009728 C19.4809546,8.40703307 18.2983023,7.23291829 16.8445484,7.23291829 C15.3907946,7.23291829 14.2081423,8.40703307 14.2081423,9.85009728 C14.2081423,10.8807198 14.8040544,11.7815078 15.6984958,12.2064689 L14.1168638,19.7952724 L14.0336107,19.7952724 L10.796001,14.9742315 C11.198773,14.5063716 11.4278954,13.907714 11.4278954,13.2761381 C11.4278954,11.8330739 10.2452431,10.6589591 8.79148925,10.6589591 C7.33773538,10.6589591 6.15508314,11.8330739 6.15508314,13.2761381 C6.15508314,14.6002237 7.15103331,15.6971206 8.43828104,15.8691537 L9.22283542,21.3212451 L9.22283542,24.6965078 C9.22283542,25.0908268 9.54473554,25.4102918 9.94186329,25.4102918 L23.746969,25.4102918 C24.1440968,25.4102918 24.4659969,25.0908268 24.4659969,24.6965078 L24.4659969,21.3212451 L25.2505513,15.8691537 C26.537799,15.6972082 27.5337492,14.6002237 27.5337492,13.2761381 C27.5340137,11.8330739 26.3513615,10.6589591 24.8976076,10.6589591 Z M15.6462863,9.85009728 C15.6462863,9.19409533 16.1838154,8.66048638 16.8446366,8.66048638 C17.5054579,8.66048638 18.042987,9.19409533 18.042987,9.85009728 C18.042987,10.4343969 17.6211656,10.9272082 17.0399815,11.0218482 C16.8917311,11.0460117 16.7975422,11.0460117 16.64938,11.0218482 C16.64938,11.0218482 16.64938,11.0218482 16.6492918,11.0218482 C16.0681077,10.9272082 15.6462863,10.4343969 15.6462863,9.85009728 Z M16.8445484,13.7536284 L18.1037512,19.7952724 L15.5853457,19.7952724 L16.8445484,13.7536284 Z M9.45592639,14.2660506 C9.4558382,14.2661381 9.45575,14.2661381 9.45575,14.2661381 C9.30838148,14.3638424 9.14205172,14.4263521 8.96152307,14.4517412 C8.96152307,14.4517412 8.96134669,14.4517412 8.9612585,14.4518288 C8.96108211,14.4518288 8.96090573,14.4518288 8.96081754,14.4518288 C8.96072935,14.4518288 8.96064115,14.4519163 8.96046477,14.4519163 C8.89299803,14.4614591 8.83928922,14.4659241 8.79166564,14.4659241 C8.13093256,14.4658366 7.59340345,13.9322276 7.59340345,13.2762257 C7.59340345,12.6202237 8.13093256,12.0866148 8.79175383,12.0866148 C9.4525751,12.0866148 9.99010421,12.6202237 9.99010421,13.2762257 C9.99001602,13.6741342 9.79034975,14.0442023 9.45592639,14.2660506 Z M9.95174077,16.2902626 L12.3054921,19.7952724 L10.4561098,19.7952724 L9.95174077,16.2902626 Z M23.0282057,21.2703794 L23.0282057,23.9827237 L10.6610675,23.9827237 L10.6610675,21.2703794 L10.6610675,21.2227529 L13.6480361,21.2227529 C13.6484771,21.2227529 13.6490944,21.2228405 13.6495354,21.2228405 C13.6499763,21.2228405 13.6504173,21.2227529 13.6508583,21.2227529 L14.6994589,21.2227529 C14.7006936,21.2227529 14.7018401,21.222928 14.7030748,21.222928 C14.7044859,21.222928 14.7059851,21.2227529 14.7073962,21.2227529 L18.9816125,21.2227529 C18.9830236,21.2227529 18.9845228,21.222928 18.9859339,21.222928 C18.9871686,21.222928 18.9884033,21.2227529 18.9895498,21.2227529 L20.0381504,21.2227529 C20.0385914,21.2227529 20.0390324,21.2228405 20.0394733,21.2228405 C20.0399143,21.2228405 20.0405316,21.2227529 20.0409726,21.2227529 L23.0279412,21.2227529 L23.0279412,21.2703794 L23.0282057,21.2703794 Z M23.2331635,19.7952724 L21.3837812,19.7952724 L23.7375325,16.2902626 L23.2331635,19.7952724 Z M24.8976076,14.465749 C24.8499841,14.465749 24.7962752,14.461284 24.7288085,14.4517412 C24.7287203,14.4517412 24.7286321,14.4516537 24.7284557,14.4516537 C24.7282793,14.4516537 24.728103,14.4516537 24.7280148,14.4516537 C24.7279266,14.4516537 24.7278384,14.4516537 24.7278384,14.4516537 C24.5472216,14.4262646 24.3808918,14.3638424 24.2336115,14.2661381 C24.2336115,14.2661381 24.2335233,14.2660506 24.2334351,14.2660506 C23.8990117,14.0441148 23.6993454,13.6741342 23.6993454,13.2761381 C23.6993454,12.6201362 24.2368746,12.0865272 24.8976958,12.0865272 C25.5585171,12.0865272 26.0960462,12.6201362 26.0960462,13.2761381 C26.0960462,13.9321401 25.5584289,14.465749 24.8976076,14.465749 Z" id="Shape"></path>
                    <path d="M16.8446366,0 C7.56729867,0 0.0196667747,7.49258755 0.0196667747,16.7022665 C0.0196667747,25.6938619 15.6349095,43.8099514 16.2996112,44.5767899 C16.4362203,44.7342899 16.6352693,44.8249027 16.8446366,44.8249027 C17.054004,44.8249027 17.2530529,44.7342899 17.389662,44.5767899 C18.054452,43.8099514 33.6696065,25.6938619 33.6696065,16.7022665 C33.6696065,7.49258755 26.1219746,0 16.8446366,0 Z M16.8445484,43.0034533 C14.047545,39.6745039 1.45772251,24.2673444 1.45772251,16.7022665 C1.45772251,8.27973735 8.36031947,1.42756809 16.8446366,1.42756809 C25.3289538,1.42756809 32.2315508,8.2798249 32.2315508,16.7022665 C32.2315508,24.2652432 19.64164,39.6741537 16.8445484,43.0034533 Z" id="Shape"></path>
                    <path d="M16.8446366,3.80678988 C9.68178562,3.80678988 3.85442327,9.5916537 3.85442327,16.7022665 C3.85442327,23.8128794 9.68178562,29.5977432 16.8446366,29.5977432 C24.0074876,29.5977432 29.83485,23.8128794 29.83485,16.7022665 C29.83485,9.5916537 24.0074876,3.80678988 16.8446366,3.80678988 Z M16.8446366,28.1701751 C10.4747182,28.1701751 5.292479,23.025642 5.292479,16.7022665 C5.292479,10.3788911 10.4747182,5.23435798 16.8446366,5.23435798 C23.214555,5.23435798 28.3967943,10.3788911 28.3967943,16.7022665 C28.3967943,23.025642 23.214555,28.1701751 16.8446366,28.1701751 Z" id="Shape"></path>
                </g>
            </g>
        </g>
    </g>
</svg>