<?xml version="1.0" encoding="UTF-8"?>
<svg width="64px" height="64px" viewBox="0 0 64 64" version="1.1" xmlns="http://www.w3.org/2000/svg" xmlns:xlink="http://www.w3.org/1999/xlink">
    <!-- Generator: Sketch 49 (51002) - http://www.bohemiancoding.com/sketch -->
    <title>promotion</title>
    <desc>Created with Sketch.</desc>
    <defs></defs>
    <g id="Page-1" stroke="none" stroke-width="1" fill="none" fill-rule="evenodd">
        <g id="grid" transform="translate(-440.000000, -272.000000)">
            <g id="promotion" transform="translate(440.000000, 272.000000)">
                <rect id="wrapper" fill-opacity="0.00999999978" fill="#FFFFFF" x="0" y="0" width="64" height="64"></rect>
                <g id="icon" transform="translate(10.000000, 10.000000)" fill="#6C5CE7" fill-rule="nonzero">
                    <path d="M35.5134026,0 L28.7132816,0 C28.3220272,0 28.0049062,0.314124514 28.0049062,0.701877432 L28.0049062,4.98037938 L8.85977315,17.2188035 L0.757061298,17.2188035 C0.365895289,17.2188035 0.0486858981,17.532928 0.0486858981,17.9206809 L0.0486858981,26.9043969 C0.0486858981,26.9101751 0.0494811306,26.9158658 0.0495694897,26.921644 C0.0498345672,26.9341634 0.0505414405,26.9465953 0.0514250321,26.9592899 C0.0524853421,26.9718969 0.0538107295,26.9843288 0.0554895536,26.9968482 C0.056284786,27.0025389 0.0564615043,27.0082296 0.0572567368,27.0140078 L2.32393431,41.2382101 C2.37836356,41.5793872 2.67507362,41.8305642 3.02356216,41.8305642 L9.06812405,41.8305642 C9.45929006,41.8305642 9.77649945,41.5164397 9.77649945,41.1286868 L9.77649945,35.8414494 L11.33489,35.8414494 C11.726056,35.8414494 12.0432654,35.5273249 12.0432654,35.139572 L12.0432654,31.3963424 C12.0432654,31.008677 11.7261444,30.694465 11.33489,30.694465 L9.77658781,30.694465 L9.77658781,28.2274319 L28.0048178,40.4622665 L28.0048178,44.1230253 C28.0048178,44.5106907 28.3218505,44.8249027 28.7131932,44.8249027 L35.5133143,44.8249027 C35.9045687,44.8249027 36.2216897,44.5107782 36.2216897,44.1230253 L36.2216897,0.701877432 C36.2216897,0.314124514 35.904657,0 35.5134026,0 Z M8.36001373,31.3961673 L8.36001373,35.1393969 L8.36001373,40.4267218 L3.62908749,40.4267218 L1.58604695,27.6061868 L8.36001373,27.6061868 L8.36001373,31.3961673 Z M8.36001373,26.2024319 L1.4654367,26.2024319 L1.4654367,18.6224708 L8.36001373,18.6224708 L8.36001373,26.2024319 Z M10.6266913,32.0979572 L10.6266913,34.4374319 L9.77667617,34.4374319 L9.77667617,32.0979572 L10.6266913,32.0979572 Z M28.0049062,38.7669747 L9.77667617,26.5320525 L9.77667617,18.3030058 L28.0049062,6.65080739 L28.0049062,38.7669747 Z M34.8050272,43.4212354 L29.4215686,43.4212354 L29.4215686,40.0924611 C29.4215686,40.0918482 29.4215686,40.0911479 29.4215686,40.0906226 L29.4215686,40.0900973 L29.4215686,5.36279183 L29.4215686,1.40366732 L34.8050272,1.40366732 L34.8050272,43.4212354 Z" id="Shape"></path>
                    <path d="M6.80162319,20.2133171 L3.77929807,20.2133171 C3.38813206,20.2133171 3.07092267,20.5274416 3.07092267,20.9151946 C3.07092267,21.3029475 3.3880437,21.617072 3.77929807,21.617072 L6.80162319,21.617072 C7.1927892,21.617072 7.50999859,21.3029475 7.50999859,20.9151946 C7.50999859,20.5274416 7.1927892,20.2133171 6.80162319,20.2133171 Z" id="Shape"></path>
                    <path d="M43.0690829,20.9619455 L40.0467578,20.9619455 C39.6555034,20.9619455 39.3383824,21.27607 39.3383824,21.663823 C39.3383824,22.0514883 39.6554151,22.3657004 40.0467578,22.3657004 L43.0690829,22.3657004 C43.4603373,22.3657004 43.7774583,22.0515759 43.7774583,21.663823 C43.7774583,21.27607 43.4604257,20.9619455 43.0690829,20.9619455 Z" id="Shape"></path>
                    <path d="M41.5567275,13.4521109 C41.3611887,13.1163619 40.9276986,13.0014981 40.5891063,13.1952432 L37.9717312,14.6925 C37.6329622,14.8863327 37.5168583,15.3155837 37.7124855,15.6512451 C37.8436988,15.8764202 38.0817384,16.0022276 38.3265816,16.0022276 C38.4467501,16.0022276 38.5686857,15.9719358 38.6801066,15.9081128 L41.2974817,14.410856 C41.6362508,14.2171109 41.7523547,13.7878599 41.5567275,13.4521109 Z" id="Shape"></path>
                    <path d="M41.2974817,28.9167023 L38.6801066,27.4194455 C38.3411609,27.2256128 37.9080243,27.3404767 37.7124855,27.6763132 C37.5168583,28.0119747 37.6329622,28.4412257 37.9717312,28.6350584 L40.5891063,30.1323152 C40.700704,30.1961381 40.8224629,30.22643 40.9426313,30.22643 C41.1874746,30.22643 41.4255142,30.100535 41.5567275,29.8754475 C41.7524431,29.539786 41.6362508,29.110535 41.2974817,28.9167023 Z" id="Shape"></path>
                    <path d="M33.2466367,2.99460117 C32.8553823,2.99460117 32.5382613,3.30872568 32.5382613,3.6964786 L32.5382613,12.6801946 C32.5382613,13.0678599 32.855294,13.382072 33.2466367,13.382072 C33.6378911,13.382072 33.9550121,13.0679475 33.9550121,12.6801946 L33.9550121,3.69639105 C33.9550121,3.30872568 33.6379794,2.99460117 33.2466367,2.99460117 Z" id="Shape"></path>
                    <path d="M33.2466367,14.9728307 C32.8553823,14.9728307 32.5382613,15.2869553 32.5382613,15.6747082 L32.5382613,19.4179377 C32.5382613,19.8056031 32.855294,20.1198152 33.2466367,20.1198152 C33.6378911,20.1198152 33.9550121,19.8056907 33.9550121,19.4179377 L33.9550121,15.6747082 C33.9550121,15.2869553 33.6379794,14.9728307 33.2466367,14.9728307 Z" id="Shape"></path>
                </g>
            </g>
        </g>
    </g>
</svg>