<?xml version="1.0" encoding="UTF-8"?>
<svg width="64px" height="64px" viewBox="0 0 64 64" version="1.1" xmlns="http://www.w3.org/2000/svg" xmlns:xlink="http://www.w3.org/1999/xlink">
    <!-- Generator: Sketch 49 (51002) - http://www.bohemiancoding.com/sketch -->
    <title>quality</title>
    <desc>Created with Sketch.</desc>
    <defs></defs>
    <g id="Page-1" stroke="none" stroke-width="1" fill="none" fill-rule="evenodd">
        <g id="grid" transform="translate(-356.000000, -356.000000)">
            <g id="quality" transform="translate(356.000000, 356.000000)">
                <rect id="wrapper" fill-opacity="0.00999999978" fill="#FFFFFF" x="0" y="0" width="64" height="64"></rect>
                <g id="icon" transform="translate(11.000000, 10.000000)" fill="#6C5CE7" fill-rule="nonzero">
                    <path d="M40.1033467,36.7783949 L30.9680076,27.5344844 L34.6629812,26.173716 C34.9780049,26.057714 35.1652367,25.7295817 35.1069214,25.3954961 L34.1171191,19.7156031 L36.9670403,14.7206907 C37.1346319,14.426965 37.0696545,14.0538327 36.8128596,13.8358366 L32.4464816,10.1285895 L31.4566793,4.44860895 C31.3984505,4.11461089 31.1117193,3.87113813 30.7764497,3.87113813 L25.0764343,3.87113813 L20.7103158,0.163540856 C20.4534344,-0.0545428016 20.0790573,-0.0545428016 19.8221759,0.163540856 L15.4558844,3.87087549 L9.75595547,3.87087549 C9.42068589,3.87087549 9.13395469,4.11434825 9.07572593,4.4483463 L8.08592361,10.1282393 L3.7194591,13.8355739 C3.46266424,14.05357 3.39768683,14.4267023 3.56527836,14.720428 L6.4152861,19.7153405 L5.42548378,25.3952335 C5.3671685,25.7293191 5.55440034,26.0573638 5.86942396,26.1734533 L9.40805379,27.4766148 L0.215610786,36.7783949 C0.0255237488,36.9708268 -0.037031066,37.2576362 0.055546599,37.5131031 C0.148037743,37.7686576 0.378703215,37.9465564 0.646745837,37.969144 L6.31621935,38.4473346 L6.78879804,44.1840467 C6.81112051,44.4552724 6.98693155,44.688677 7.23948688,44.7822665 C7.31700986,44.81107 7.39730152,44.8249903 7.47698753,44.8249903 C7.65703811,44.8249903 7.83371436,44.7537257 7.96557264,44.6203016 L20.159522,32.2815467 L32.3534713,44.6203016 C32.4854161,44.7537257 32.6620059,44.8249903 32.8420564,44.8249903 C32.9217425,44.8249903 33.0021206,44.81107 33.0795571,44.7822665 C33.3321124,44.688677 33.5079235,44.4552724 33.5301594,44.1840467 L34.0028246,38.4474222 L39.6722116,37.9692315 C39.9402542,37.946644 40.1709197,37.7687451 40.2634109,37.5131031 C40.3559885,37.2575486 40.2934337,36.9709144 40.1033467,36.7783949 Z M8.04179781,42.5662354 L7.64440602,37.7418677 C7.61637315,37.4017412 7.34971487,37.1317412 7.01340703,37.1033755 L2.24565729,36.7012646 L10.8404985,28.004358 L11.2256043,28.1461868 L14.0755255,33.1410992 C14.2018464,33.3625097 14.432858,33.4906809 14.673906,33.4906809 C14.7526403,33.4906809 14.8324128,33.4770233 14.9100223,33.4484825 L18.2780324,32.2080934 L8.04179781,42.5662354 Z M20.8294555,30.1958755 L20.5023189,30.0754961 C20.3497821,30.0192023 20.1824501,30.0192023 20.0299133,30.0754961 L19.5453946,30.2539202 L14.982181,31.9344163 L12.2963039,27.2271012 C12.2150605,27.0848346 12.0870092,26.9760117 11.9343858,26.9197179 L10.8995925,26.5385311 L6.8866535,25.0607101 L7.81952489,19.7078988 C7.84781732,19.5459339 7.8187462,19.3792412 7.73758933,19.2368872 L5.05162575,14.529572 L9.16674622,11.0356809 C9.29116368,10.9300973 9.37482966,10.7835409 9.40286252,10.621751 L10.3356474,5.26885214 L15.707315,5.26885214 C15.8698018,5.26885214 16.0270108,5.21098249 16.1513417,5.10531128 L20.2662891,1.61142023 L24.3812366,5.10531128 C24.505654,5.21098249 24.662863,5.26885214 24.8252633,5.26885214 L30.1970174,5.26885214 L31.1298022,10.621751 C31.1580082,10.7835409 31.2415876,10.9301848 31.3659186,11.0356809 L35.4809525,14.529572 L32.7950754,19.2368872 C32.7138321,19.3791537 32.6848475,19.5459339 32.7130534,19.7078113 L33.6459247,25.0606226 L29.476642,26.5961381 L28.5981059,26.9197179 C28.4455691,26.9760117 28.3173447,27.0847471 28.2361878,27.2271012 L25.5503973,31.9344163 L20.8306668,30.1962257 C20.8302342,30.1960506 20.8298016,30.1960506 20.8294555,30.1958755 Z M33.3056369,37.103463 C32.9695021,37.1318288 32.7026708,37.4016537 32.674638,37.7419553 L32.2773327,42.566323 L21.9187572,32.0844747 L25.6223829,33.44857 C25.6999924,33.4771984 25.7797649,33.4907685 25.8584992,33.4907685 C26.0995472,33.4907685 26.3305588,33.3625973 26.4568797,33.1411868 L29.3067144,28.1462743 L29.5354764,28.0620525 L38.0733867,36.7013521 L33.3056369,37.103463 Z" id="Shape"></path>
                    <path d="M20.1596085,5.99892023 C14.0909263,5.99892023 9.15376804,10.9947082 9.15376804,17.1354572 C9.15376804,23.2762062 14.0910128,28.2719066 20.1596085,28.2719066 C26.2282908,28.2719066 31.1653625,23.2761187 31.1653625,17.1354572 C31.1653625,10.9947957 26.2282042,5.99892023 20.1596085,5.99892023 Z M20.1596085,26.8740175 C14.8527453,26.8740175 10.5352518,22.5052529 10.5352518,17.1353696 C10.5352518,11.7654864 14.8527453,7.39680934 20.1596085,7.39680934 C25.4663852,7.39680934 29.7839653,11.7655739 29.7839653,17.1354572 C29.7839653,22.5053405 25.4663852,26.8740175 20.1596085,26.8740175 Z" id="Shape"></path>
                    <path d="M28.1091747,14.9097082 C28.0166836,14.6216732 27.7514962,14.4267023 27.4522194,14.4267023 L22.3542183,14.4267023 L20.7789271,9.52065175 C20.686436,9.23261673 20.4212486,9.03764591 20.1219718,9.03764591 C19.8227815,9.03764591 19.5575076,9.23261673 19.4650165,9.52065175 L17.8896388,14.4267023 L12.7916377,14.4267023 C12.4924474,14.4267023 12.2271735,14.6216732 12.1346823,14.9097082 C12.0421912,15.1976556 12.1435075,15.5131809 12.3856803,15.6911673 L16.5100585,18.7232393 L14.9346808,23.6293774 C14.8421897,23.9173249 14.943506,24.2328502 15.1856788,24.4108366 C15.3067219,24.4998735 15.4491358,24.5443482 15.5916362,24.5443482 C15.7341366,24.5443482 15.8765504,24.499786 15.9975936,24.4108366 L20.1219718,21.3788521 L24.2462635,24.4108366 C24.4883498,24.588823 24.8161785,24.588823 25.0581783,24.4108366 C25.3002646,24.2329377 25.4014943,23.9174125 25.3091762,23.6293774 L23.7337985,18.7232393 L27.8581768,15.6911673 C28.1003496,15.5131809 28.2015794,15.1976556 28.1091747,14.9097082 Z M22.5158399,17.8909144 C22.2737536,18.0688132 22.1724373,18.3843385 22.2648419,18.6723735 L23.3383102,22.0155058 L20.5278427,19.9494455 C20.2857564,19.7714591 19.9579276,19.7714591 19.7159279,19.9494455 L16.9053738,22.0155934 L17.9788421,18.6723735 C18.0713333,18.3844261 17.9700169,18.0689008 17.7278442,17.8910019 L14.9174631,15.8247665 L18.3915481,15.8247665 C18.6907384,15.8247665 18.9560123,15.6297957 19.0485035,15.3417607 L20.1219718,11.9986284 L21.1953536,15.3417607 C21.2878447,15.6297957 21.5530321,15.8247665 21.8523089,15.8247665 L25.3263939,15.8247665 L22.5158399,17.8909144 Z" id="Shape"></path>
                </g>
            </g>
        </g>
    </g>
</svg>