<?xml version="1.0" encoding="UTF-8"?>
<svg width="64px" height="64px" viewBox="0 0 64 64" version="1.1" xmlns="http://www.w3.org/2000/svg" xmlns:xlink="http://www.w3.org/1999/xlink">
    <!-- Generator: Sketch 49 (51002) - http://www.bohemiancoding.com/sketch -->
    <title>responsive</title>
    <desc>Created with Sketch.</desc>
    <defs></defs>
    <g id="Page-1" stroke="none" stroke-width="1" fill="none" fill-rule="evenodd">
        <g id="grid" transform="translate(-20.000000, -104.000000)">
            <g id="responsive" transform="translate(20.000000, 104.000000)">
                <rect id="wrapper" fill-opacity="0.00999999978" fill="#FFFFFF" x="0" y="0" width="64" height="64"></rect>
                <g id="icon" transform="translate(10.000000, 10.000000)" fill="#6C5CE7" fill-rule="nonzero">
                    <path d="M38.3014273,28.4484047 L36.8004431,28.4484047 C36.4119004,28.4484047 36.0968183,28.7625292 36.0968183,29.1502821 C36.0968183,29.5379475 36.4118126,29.8521595 36.8004431,29.8521595 L38.3014273,29.8521595 C38.6899699,29.8521595 39.005052,29.538035 39.005052,29.1502821 C39.005052,28.7625292 38.6899699,28.4484047 38.3014273,28.4484047 Z" id="Shape"></path>
                    <path d="M42.0539755,14.2242023 L38.0536622,14.2242023 C36.8926857,12.4642996 35.3489592,10.9447179 33.5683506,9.81367704 C31.8100348,8.69681907 29.8094832,7.95554475 27.7474071,7.6498249 L27.7474071,0.701877432 C27.7474071,0.314212062 27.4324129,0 27.0437824,0 L22.540742,0 L4.52866823,0 C4.14012554,0 3.82504349,0.314124514 3.82504349,0.701877432 L3.82504349,17.171965 C3.82504349,17.5596304 4.14003778,17.8738424 4.52866823,17.8738424 L11.2851158,17.8738424 C10.8875331,19.1152821 10.6565315,20.3998833 10.5959725,21.7106615 L2.27719192,21.7106615 C1.88864923,21.7106615 1.57356718,22.024786 1.57356718,22.4125389 L1.57356718,40.4267218 L0.776119948,40.4267218 C0.387577258,40.4267218 0.0724952026,40.7408463 0.0724952026,41.1285992 L0.0724952026,44.1232004 C0.0724952026,44.5108658 0.387489491,44.8250778 0.776119948,44.8250778 L2.27710415,44.8250778 L27.7942745,44.8250778 L29.2952587,44.8250778 C29.6838014,44.8250778 29.9988835,44.5109533 29.9988835,44.1232004 L29.9988835,41.1285992 C29.9988835,40.7409339 29.6838892,40.4267218 29.2952587,40.4267218 L28.4978115,40.4267218 L28.4978115,37.045856 C31.7773856,36.3902918 34.7414389,34.6528016 36.9270025,32.0980447 L42.0538,32.0980447 C42.4423427,32.0980447 42.7574248,31.7839202 42.7574248,31.3961673 L42.7574248,26.9043093 L42.7574248,14.9260798 C42.7575125,14.5383268 42.4425182,14.2242023 42.0539755,14.2242023 Z M23.2443668,8.50508755 L23.2443668,1.40366732 L26.3401577,1.40366732 L26.3401577,8.2641537 C26.3401577,8.26502918 26.3401577,8.26581712 26.3401577,8.26669261 L26.3401577,16.4700875 L23.2443668,16.4700875 L23.2443668,8.50508755 Z M5.23229298,16.4700875 L5.23229298,1.40366732 L21.837205,1.40366732 L21.837205,8.50508755 L21.837205,16.4700875 L12.2831097,16.4700875 L5.23229298,16.4700875 Z M2.9807289,23.1143288 L11.2831849,23.1143288 L27.0907375,23.1143288 L27.0907375,36.4595428 L27.0907375,40.4267218 L2.9807289,40.4267218 L2.9807289,23.1143288 Z M28.5917217,41.8303016 L28.5917217,43.4211479 L27.7942745,43.4211479 L2.27719192,43.4211479 L1.47974469,43.4211479 L1.47974469,41.8303016 L2.27719192,41.8303016 L27.7943623,41.8303016 L28.5917217,41.8303016 Z M28.4978993,35.6111089 L28.4978993,22.4124514 C28.4978993,22.024786 28.182905,21.7105739 27.7942745,21.7105739 L12.0052407,21.7105739 C12.0723821,20.3948054 12.3292749,19.1088911 12.7708286,17.8737549 L22.5408298,17.8737549 L27.0438702,17.8737549 C27.4324129,17.8737549 27.7474949,17.5596304 27.7474949,17.1718774 L27.7474949,9.06916342 C31.1403757,9.62833658 34.2354645,11.494786 36.32782,14.2241148 L33.0478948,14.2241148 C32.6593521,14.2241148 32.34427,14.5382393 32.34427,14.9259922 L32.34427,26.9042218 L32.34427,31.3960798 C32.34427,31.7837451 32.6592643,32.0979572 33.0478948,32.0979572 L35.0021934,32.0979572 C33.2011352,33.8500681 30.952643,35.0668191 28.4978993,35.6111089 Z M41.3503508,30.6942899 L36.5980533,30.6942899 L33.7515195,30.6942899 L33.7515195,27.6061868 L41.3503508,27.6061868 L41.3503508,30.6942899 Z M41.3503508,26.2024319 L33.7515195,26.2024319 L33.7515195,15.6278696 L37.6680158,15.6278696 C37.6684546,15.6278696 37.6689812,15.6279572 37.6695078,15.6279572 C37.6699466,15.6279572 37.6704732,15.6278696 37.6708243,15.6278696 L41.3503508,15.6278696 L41.3503508,26.2024319 Z" id="Shape"></path>
                    <path d="M24.7923061,6.73774319 C24.4037634,6.73774319 24.0886813,7.0518677 24.0886813,7.43962062 L24.0886813,9.68550584 C24.0886813,10.0731712 24.4036756,10.3873833 24.7923061,10.3873833 C25.1809366,10.3873833 25.4959308,10.0732588 25.4959308,9.68550584 L25.4959308,7.43962062 C25.4959308,7.05195525 25.1809366,6.73774319 24.7923061,6.73774319 Z" id="Shape"></path>
                </g>
            </g>
        </g>
    </g>
</svg>