<?xml version="1.0" encoding="UTF-8"?>
<svg width="64px" height="64px" viewBox="0 0 64 64" version="1.1" xmlns="http://www.w3.org/2000/svg" xmlns:xlink="http://www.w3.org/1999/xlink">
    <!-- Generator: Sketch 49 (51002) - http://www.bohemiancoding.com/sketch -->
    <title>schedule</title>
    <desc>Created with Sketch.</desc>
    <defs></defs>
    <g id="Page-1" stroke="none" stroke-width="1" fill="none" fill-rule="evenodd">
        <g id="grid" transform="translate(-272.000000, -188.000000)">
            <g id="schedule" transform="translate(272.000000, 188.000000)">
                <rect id="wrapper" fill-opacity="0.00999999978" fill="#FFFFFF" x="0" y="0" width="64" height="64"></rect>
                <g id="icon" transform="translate(10.000000, 10.000000)" fill="#6C5CE7" fill-rule="nonzero">
                    <path d="M11.1821742,13.6193558 L5.19342144,13.6193558 C4.8057795,13.6193558 4.49158643,13.9364077 4.49158643,14.3277741 L4.49158643,20.3727014 C4.49158643,20.7639794 4.80569196,21.0811196 5.19342144,21.0811196 L11.1821742,21.0811196 C11.5698161,21.0811196 11.8840092,20.7640678 11.8840092,20.3727014 L11.8840092,14.3277741 C11.8839216,13.936496 11.5698161,13.6193558 11.1821742,13.6193558 Z M10.4803392,19.6642832 L5.89516889,19.6642832 L5.89516889,15.0361039 L10.4803392,15.0361039 L10.4803392,19.6642832 Z" id="Shape"></path>
                    <path d="M20.165347,13.6193558 L14.1765943,13.6193558 C13.7889524,13.6193558 13.4747593,13.9364077 13.4747593,14.3277741 L13.4747593,20.3727014 C13.4747593,20.7639794 13.7888648,21.0811196 14.1765943,21.0811196 L20.165347,21.0811196 C20.552989,21.0811196 20.867182,20.7640678 20.867182,20.3727014 L20.867182,14.3277741 C20.8670945,13.9364077 20.552989,13.6193558 20.165347,13.6193558 Z M19.463512,19.6642832 L14.8783418,19.6642832 L14.8783418,15.0361039 L19.463512,15.0361039 L19.463512,19.6642832 Z" id="Shape"></path>
                    <path d="M11.1821742,22.6867026 L5.19342144,22.6867026 C4.8057795,22.6867026 4.49158643,23.0037545 4.49158643,23.3951209 L4.49158643,29.4400482 C4.49158643,29.8313262 4.80569196,30.1484664 5.19342144,30.1484664 L11.1821742,30.1484664 C11.5698161,30.1484664 11.8840092,29.8314146 11.8840092,29.4400482 L11.8840092,23.3951209 C11.8839216,23.0039312 11.5698161,22.6867026 11.1821742,22.6867026 Z M10.4803392,28.7317183 L5.89516889,28.7317183 L5.89516889,24.1035391 L10.4803392,24.1035391 L10.4803392,28.7317183 Z" id="Shape"></path>
                    <path d="M34.3418538,18.5833202 L34.3418538,5.2603389 C34.3418538,4.86906088 34.0277483,4.55192067 33.6400188,4.55192067 L30.5988505,4.55192067 L30.5988505,0.726621313 C30.5988505,0.335343291 30.284745,0.0182030877 29.8970155,0.0182030877 L26.9025954,0.0182030877 C26.5149534,0.0182030877 26.2007604,0.335254927 26.2007604,0.726621313 L26.2007604,4.55192067 L19.3698407,4.55192067 L19.3698407,0.726621313 C19.3698407,0.335343291 19.0557351,0.0182030877 18.6680056,0.0182030877 L15.6737606,0.0182030877 C15.2861187,0.0182030877 14.9719256,0.335254927 14.9719256,0.726621313 L14.9719256,4.55192067 L8.14100588,4.55192067 L8.14100588,0.726621313 C8.14100588,0.335343291 7.82690036,0.0182030877 7.43917088,0.0182030877 L4.44475074,0.0182030877 C4.05710881,0.0182030877 3.74291574,0.335254927 3.74291574,0.726621313 L3.74291574,4.55192067 L0.701835002,4.55192067 C0.314105524,4.55192067 0,4.86897251 0,5.2603389 L0,32.462556 C0,32.8538341 0.314105524,33.1709743 0.701835002,33.1709743 L19.6156624,33.1709743 C20.0602075,36.0535127 21.4707934,38.6987042 23.6314507,40.675153 C25.9664068,42.8110998 28.989191,43.9874081 32.1428525,43.9874081 C39.1342392,43.9874081 44.822193,38.2461012 44.822193,31.1891352 C44.822193,24.9563449 40.358883,19.6444895 34.3418538,18.5833202 Z M27.6045179,5.2603389 L27.6045179,1.43503954 L29.195268,1.43503954 L29.195268,5.2603389 L29.195268,9.08563826 L27.6045179,9.08563826 L27.6045179,5.2603389 Z M16.3755081,5.2603389 L16.3755081,1.43503954 L17.9662582,1.43503954 L17.9662582,5.2603389 L17.9662582,9.08563826 L16.3755081,9.08563826 L16.3755081,5.2603389 Z M5.14658575,5.2603389 L5.14658575,1.43503954 L6.73733588,1.43503954 L6.73733588,5.2603389 L6.73733588,9.08563826 L5.14658575,9.08563826 L5.14658575,5.2603389 Z M20.165347,22.686791 L14.1765943,22.686791 C13.7889524,22.686791 13.4747593,23.0038429 13.4747593,23.3952092 L13.4747593,29.4401366 C13.4747593,29.8314146 13.7888648,30.1485548 14.1765943,30.1485548 L19.5067584,30.1485548 C19.4790947,30.4937065 19.463512,30.8406256 19.463512,31.1892235 C19.463512,31.376733 19.4685895,31.5653912 19.4768186,31.7542262 L1.40358246,31.7542262 L1.40358246,5.96866876 L3.74291574,5.96866876 L3.74291574,9.79396812 C3.74291574,10.1852461 4.05702127,10.5023863 4.44475074,10.5023863 L7.43917088,10.5023863 C7.82681281,10.5023863 8.14100588,10.1853345 8.14100588,9.79396812 L8.14100588,5.96866876 L14.9719256,5.96866876 L14.9719256,9.79396812 C14.9719256,10.1852461 15.2860311,10.5023863 15.6737606,10.5023863 L18.6681807,10.5023863 C19.0558227,10.5023863 19.3700157,10.1853345 19.3700157,9.79396812 L19.3700157,5.96866876 L26.2009355,5.96866876 L26.2009355,9.79396812 C26.2009355,10.1852461 26.515041,10.5023863 26.9027705,10.5023863 L29.8971906,10.5023863 C30.2848325,10.5023863 30.5990256,10.1853345 30.5990256,9.79396812 L30.5990256,5.96866876 L32.9383589,5.96866876 L32.9383589,18.4158695 C32.6731901,18.3992569 32.4074085,18.3908623 32.14294,18.3908623 C31.3715081,18.3908623 30.6038405,18.4621725 29.8503549,18.6009931 L29.8503549,14.3277741 C29.8503549,13.936496 29.5362494,13.6193558 29.1485199,13.6193558 L23.1597672,13.6193558 C22.7721252,13.6193558 22.4579322,13.9364077 22.4579322,14.3277741 L22.4579322,20.3727014 C22.4579322,20.7639794 22.7720377,21.0811196 23.1597672,21.0811196 L24.3676027,21.0811196 C23.205815,21.9924227 22.2030935,23.1036947 21.4107387,24.3719021 C21.2146416,24.6857728 21.0345649,25.0079498 20.867182,25.3358705 L20.867182,23.3951209 C20.8670945,23.0039312 20.552989,22.686791 20.165347,22.686791 Z M19.463512,24.1035391 L19.463512,28.7317183 L14.8783418,28.7317183 L14.8783418,24.1035391 L19.463512,24.1035391 Z M28.4466849,15.0361039 L28.4466849,18.9446427 C27.8248645,19.1360402 27.2155628,19.3770102 26.6272715,19.6642832 L23.8615146,19.6642832 L23.8615146,15.0361039 L28.4466849,15.0361039 Z M32.1428525,42.57066 C26.3529107,42.57066 21.532599,38.1944963 20.9296004,32.3910692 C20.9295129,32.3901855 20.9294254,32.3893902 20.9293378,32.388595 C20.8881049,31.9904245 20.8670945,31.5867754 20.8670945,31.1891352 C20.8670945,26.852117 23.2558898,22.9505591 27.1013188,21.0066283 C27.1015814,21.0064516 27.1019316,21.0063632 27.1022817,21.0062749 C27.8129586,20.6471615 28.5601411,20.3645719 29.3230813,20.1663703 C29.3231689,20.1663703 29.3232564,20.1663703 29.323344,20.1662819 C30.2389598,19.9282279 31.187667,19.8076104 32.1427649,19.8076104 C32.6126976,19.8076104 33.0871826,19.8373892 33.5530007,19.8959749 C33.5530882,19.8959749 33.5531758,19.8959749 33.5531758,19.8959749 C39.1774856,20.6039513 43.418523,25.4589622 43.418523,31.1890468 C43.4186105,37.464959 38.360356,42.57066 32.1428525,42.57066 Z" id="Shape"></path>
                    <path d="M41.8852888,27.690431 C41.7550243,27.3218627 41.3532003,27.1297583 40.9884948,27.2611563 C40.623439,27.3926427 40.4330322,27.7979706 40.5632092,28.1663622 C40.9055912,29.135279 41.0792772,30.1521777 41.0792772,31.1891352 C41.0792772,31.5804132 41.3933827,31.8975534 41.7811122,31.8975534 C42.1687541,31.8975534 42.4829472,31.5805016 42.4829472,31.1891352 C42.4828597,29.989587 42.2818602,28.8124835 41.8852888,27.690431 Z" id="Shape"></path>
                    <path d="M40.6473383,25.2582864 C39.2768473,23.2619556 37.2546835,21.8008485 34.9532565,21.1439468 C34.5800592,21.0372908 34.1924173,21.2562581 34.0869276,21.6328676 C33.9814378,22.0093887 34.1982827,22.4008435 34.5713049,22.5073227 C36.5601146,23.0749763 38.3082677,24.3385887 39.4936046,26.0652311 C39.6299096,26.2637861 39.8487679,26.370177 40.071128,26.370177 C40.2089213,26.370177 40.3482903,26.3291759 40.4702382,26.2439925 C40.7887208,26.0212256 40.8680351,25.5798449 40.6473383,25.2582864 Z" id="Shape"></path>
                    <path d="M32.1428525,23.1623688 C27.7580689,23.1623688 24.1907651,26.7630456 24.1907651,31.1890468 C24.1907651,35.6150481 27.7579814,39.2158132 32.1428525,39.2158132 C36.5277236,39.2158132 40.0949398,35.6150481 40.0949398,31.1890468 C40.0949398,26.7630456 36.527636,23.1623688 32.1428525,23.1623688 Z M32.1428525,37.7990651 C28.5320397,37.7990651 25.5944352,34.8338175 25.5944352,31.1891352 C25.5944352,27.5444529 28.5321272,24.5792936 32.1428525,24.5792936 C35.7535778,24.5792936 38.6912698,27.5445412 38.6912698,31.1891352 C38.6912698,34.8339942 35.7536653,37.7990651 32.1428525,37.7990651 Z" id="Shape"></path>
                    <path d="M36.2601036,30.9985329 L32.8446,30.9985329 L32.8446,27.5509918 C32.8446,27.1597138 32.5304944,26.8425736 32.1427649,26.8425736 C31.755123,26.8425736 31.4409299,27.1596255 31.4409299,27.5509918 L31.4409299,31.7068628 C31.4409299,32.0981408 31.7550355,32.415281 32.1427649,32.415281 L36.260016,32.415281 C36.647658,32.415281 36.961851,32.0982292 36.961851,31.7068628 C36.9619386,31.3156732 36.6478331,30.9985329 36.2601036,30.9985329 Z" id="Shape"></path>
                </g>
            </g>
        </g>
    </g>
</svg>