<?xml version="1.0" encoding="UTF-8"?>
<svg width="64px" height="64px" viewBox="0 0 64 64" version="1.1" xmlns="http://www.w3.org/2000/svg" xmlns:xlink="http://www.w3.org/1999/xlink">
    <!-- Generator: Sketch 49 (51002) - http://www.bohemiancoding.com/sketch -->
    <title>search</title>
    <desc>Created with Sketch.</desc>
    <defs></defs>
    <g id="Page-1" stroke="none" stroke-width="1" fill="none" fill-rule="evenodd">
        <g id="grid" transform="translate(-188.000000, -104.000000)">
            <g id="search" transform="translate(188.000000, 104.000000)">
                <rect id="wrapper" fill-opacity="0.00999999978" fill="#FFFFFF" x="0" y="0" width="64" height="64"></rect>
                <g id="icon" transform="translate(10.000000, 10.000000)" fill="#6C5CE7" fill-rule="nonzero">
                    <path d="M37.4822962,13.606284 L29.1192804,7.53338521 C28.8099898,7.30882296 28.377263,7.37746109 28.1525393,7.68677043 C27.927903,7.99607977 27.9967121,8.42892023 28.3060027,8.65357004 L36.6691061,14.7263813 C36.7919294,14.8155058 36.9340998,14.8584922 37.0751321,14.8584922 C37.2890881,14.8584922 37.5002426,14.7594747 37.6357597,14.5729961 C37.8603959,14.2636868 37.7916744,13.8308463 37.4822962,13.606284 Z" id="Shape"></path>
                    <path d="M16.883347,10.2844261 C16.8234674,9.90691634 16.4688293,9.64899805 16.0913424,9.70931907 L5.88396335,11.3292315 C5.50647644,11.3891148 5.24901146,11.7437743 5.30889111,12.121284 C5.3629929,12.4621109 5.65713854,12.7050584 5.99155412,12.7050584 C6.02762198,12.7050584 6.06421509,12.7022568 6.10089576,12.6963911 L16.3083623,11.0764786 C16.6859368,11.0165953 16.9434017,10.6620233 16.883347,10.2844261 Z" id="Shape"></path>
                    <path d="M44.536539,11.4297374 L29.0050364,0.151546693 C28.8565628,0.0437743191 28.6714962,-0.000875486381 28.4899313,0.0281031128 C28.3087166,0.0569066148 28.1462361,0.156449416 28.0382952,0.304931907 L21.264979,9.63393969 L20.3323797,3.75688716 C20.3036655,3.57557393 20.2040412,3.41317121 20.0554801,3.30522374 C19.9069191,3.19727626 19.7215023,3.1530642 19.5403751,3.18178016 L0.583739029,6.19021401 C0.206252122,6.25009728 -0.0512128572,6.60475681 0.00866679122,6.98217899 L3.71096242,30.3150292 C3.73976418,30.4963424 3.83930097,30.6587451 3.98777448,30.7666926 C4.10674589,30.8531031 4.24917891,30.898716 4.39441332,30.898716 C4.43048118,30.898716 4.46672412,30.8958268 4.50287952,30.8901362 L8.85877377,30.1988521 L8.85877377,37.6252529 C8.85877377,38.0074903 9.16867722,38.3174125 9.55089146,38.3174125 L28.7448575,38.3174125 C29.1271593,38.3174125 29.4369752,38.0074903 29.4369752,37.6252529 L29.4369752,35.6735311 C29.9118103,35.4008171 30.3602949,35.0859922 30.7767386,34.7298444 L32.5012549,36.4545525 L31.9466679,37.0091732 C31.6764215,37.2794358 31.6764215,37.7177043 31.9466679,37.9880545 L38.2107444,44.2525097 C38.3459113,44.3876848 38.5230115,44.4552724 38.7001993,44.4552724 C38.8772994,44.4552724 39.0544872,44.3876848 39.1896541,44.2525097 L41.277738,42.1642996 C41.4074772,42.0345525 41.4804008,41.8584922 41.4804008,41.6749027 C41.4804008,41.4913132 41.4074772,41.3152529 41.277738,41.1855058 L35.0135739,34.9210506 C34.8837471,34.791216 34.7076974,34.7182879 34.524119,34.7182879 C34.3405406,34.7182879 34.1645785,34.791216 34.0346642,34.9210506 L33.4800771,35.4756712 L31.7555607,33.7510506 C33.1213245,32.1566148 33.8663183,30.1495623 33.8663183,28.0276459 C33.8663183,27.8006323 33.8568637,27.5707296 33.8390924,27.3412646 L44.6900025,12.3963619 C44.9146387,12.0870525 44.8459172,11.6542121 44.536539,11.4297374 Z M34.5240315,36.3894163 L39.8093734,41.6750778 L38.7001117,42.7844066 L33.4148573,37.4987451 L34.5240315,36.3894163 Z M8.85886132,14.000428 L8.85886132,16.8370914 L6.80955914,17.1623346 C6.43207223,17.2222179 6.17460725,17.5768774 6.2344869,17.9543872 C6.28858869,18.295214 6.58273433,18.5381615 6.91714991,18.5381615 C6.95321777,18.5381615 6.98981089,18.5353599 7.02649155,18.5294942 L8.85886132,18.2387451 L8.85886132,22.8172763 L7.73506739,22.9955253 C7.35758048,23.0554086 7.1001155,23.4100681 7.15999515,23.7875778 C7.21409694,24.1284047 7.50824258,24.3713521 7.84265816,24.3713521 C7.87872602,24.3713521 7.91531914,24.3685506 7.9519998,24.3626848 L8.85886132,24.2188424 L8.85886132,28.7973735 L4.96948556,29.4145914 L1.48420988,7.44890078 L19.0739441,4.6575 L20.1149221,11.2179572 L18.5971831,13.3082685 L9.55089146,13.3082685 C9.16867722,13.308356 8.85886132,13.6181907 8.85886132,14.000428 Z M28.0529149,36.9331809 L10.2430092,36.9331809 L10.2430092,29.3883268 L10.2430092,23.4082296 L10.2430092,17.4282198 L10.2430092,14.6927626 L18.9487572,14.6927626 C18.9489322,14.6927626 18.9491073,14.6928502 18.9492824,14.6928502 C18.949545,14.6928502 18.9498077,14.6927626 18.9499828,14.6927626 L21.256925,14.6927626 L26.7945669,14.6927626 C26.794742,14.6927626 26.7949171,14.6928502 26.7950921,14.6928502 C26.7953548,14.6928502 26.7956174,14.6927626 26.7959676,14.6927626 L28.0526523,14.6927626 L28.0526523,15.4159144 L28.0526523,19.7389786 C27.0960662,19.3910603 26.0915063,19.2147374 25.0535924,19.2147374 C24.8602091,19.2147374 24.6677013,19.2218288 24.476244,19.2342607 C24.4245934,19.2220039 24.3708418,19.2147374 24.3154269,19.2147374 L13.9802346,19.2147374 C13.5980203,19.2147374 13.2881169,19.5246595 13.2881169,19.9068969 C13.2881169,20.2891342 13.5980203,20.5990564 13.9802346,20.5990564 L20.3111942,20.5990564 C19.563399,21.0771595 18.8834498,21.6709144 18.2984852,22.368677 C17.6082934,23.1916342 17.0837337,24.1157101 16.7337354,25.1209436 L13.9803221,25.1209436 C13.5981079,25.1209436 13.2882044,25.4308658 13.2882044,25.8131031 C13.2882044,26.1953405 13.5981079,26.5052626 13.9803221,26.5052626 L16.373407,26.5052626 C16.285601,27.007179 16.2412166,27.5166245 16.2412166,28.0279961 C16.2412166,29.0667607 16.4172662,30.0713813 16.7645507,31.0272374 L13.9804097,31.0272374 C13.5981954,31.0272374 13.288292,31.3371595 13.288292,31.7193969 C13.288292,32.1016342 13.5981954,32.4115564 13.9804097,32.4115564 L17.4082569,32.4115564 C18.97966,35.1542802 21.8704288,36.8411673 25.053855,36.8411673 C26.0924692,36.8411673 27.0970291,36.665107 28.0529149,36.3178016 L28.0529149,36.9331809 Z M30.3064557,33.2807393 C30.3063682,33.2808268 30.3062806,33.2809144 30.3061931,33.2810019 C29.7539697,33.8332588 29.1226071,34.292714 28.4298766,34.6468482 C27.3789187,35.1841342 26.2430438,35.4565856 25.0537675,35.4565856 C22.2489662,35.4565856 19.7127479,33.9037354 18.4349653,31.4040467 C18.4348777,31.4038716 18.4347902,31.4036965 18.4347026,31.4035214 C17.8976242,30.3526751 17.6253644,29.2169066 17.6253644,28.0277335 C17.6253644,27.3417899 17.7198237,26.6599611 17.906291,26.0014202 C18.1928204,24.9890953 18.68175,24.0659825 19.3593354,23.2579086 C20.7762245,21.5680447 22.8517897,20.5988813 25.053855,20.5988813 C26.2417307,20.5988813 27.3776931,20.8716829 28.4298766,21.4098444 C30.670461,22.5557685 32.1691155,24.7275 32.4383113,27.2193969 C32.4383988,27.2198346 32.4384864,27.2203599 32.4384864,27.2208852 C32.4674632,27.4900097 32.482258,27.7614105 32.482258,28.0277335 C32.4821705,30.0121984 31.7095129,31.8775973 30.3064557,33.2807393 Z M33.488919,25.4675486 C32.8444249,23.3322374 31.4069631,21.5123638 29.4369752,20.3828988 L29.4369752,16.7737938 L33.199238,19.5056615 C33.3220614,19.594786 33.4642318,19.6377724 33.6052641,19.6377724 C33.81922,19.6377724 34.0303746,19.5387549 34.1658917,19.3522763 C34.3905279,19.0429669 34.3217188,18.6101265 34.0124282,18.3854767 L29.4369752,15.0630934 L29.4369752,14.0006031 C29.4369752,13.6183658 29.1271593,13.3084436 28.7448575,13.3084436 L27.0206038,13.3084436 L25.6493248,12.3126654 C25.3400342,12.0881031 24.9071323,12.1566537 24.6825837,12.4660506 C24.4942779,12.7253696 24.5127496,13.0710117 24.7056076,13.3084436 L21.2568375,13.3084436 L20.307605,13.3084436 L21.4031224,11.7996304 C21.4032099,11.7995428 21.4032975,11.7994553 21.403385,11.7992802 L28.7517735,1.67839494 L43.1632466,12.1431712 L33.488919,25.4675486 Z" id="Shape"></path>
                    <path d="M25.0537675,22.1677529 C21.8227177,22.1677529 19.1940536,24.7965759 19.1940536,28.027821 C19.1940536,31.2590661 21.8227177,33.8878891 25.0537675,33.8878891 C28.2848173,33.8878891 30.9134813,31.2590661 30.9134813,28.027821 C30.9134813,24.7964883 28.2848173,22.1677529 25.0537675,22.1677529 Z M25.0537675,32.50357 C22.5859205,32.50357 20.578289,30.4957296 20.578289,28.027821 C20.578289,25.5598249 22.5860081,23.552072 25.0537675,23.552072 C27.5216144,23.552072 29.5292459,25.5599125 29.5292459,28.027821 C29.5292459,30.4957296 27.5215268,32.50357 25.0537675,32.50357 Z" id="Shape"></path>
                    <path d="M27.0196408,27.9075292 C26.749307,27.6372665 26.3111525,27.6372665 26.0407311,27.9075292 L24.1951423,29.7532296 C23.924896,30.0234922 23.924896,30.4617607 24.1951423,30.7320233 C24.3303092,30.8671109 24.507497,30.934786 24.6845972,30.934786 C24.8616974,30.934786 25.0388851,30.8671984 25.174052,30.7320233 L27.0196408,28.886323 C27.2899747,28.6159728 27.2899747,28.1777043 27.0196408,27.9075292 Z" id="Shape"></path>
                    <path d="M26.2813878,24.9544261 C26.0110539,24.6841634 25.5728995,24.6841634 25.3025656,24.9544261 L23.2724355,26.984679 C23.0021891,27.2549416 23.0021891,27.6932101 23.2724355,27.9634728 C23.4076024,28.0985603 23.5847901,28.1662354 23.7618903,28.1662354 C23.9389905,28.1662354 24.1161782,28.0986479 24.2513451,27.9634728 L26.2813878,25.9332198 C26.5517216,25.6628696 26.5517216,25.2246012 26.2813878,24.9544261 Z" id="Shape"></path>
                </g>
            </g>
        </g>
    </g>
</svg>