<?xml version="1.0" encoding="UTF-8"?>
<svg width="64px" height="64px" viewBox="0 0 64 64" version="1.1" xmlns="http://www.w3.org/2000/svg" xmlns:xlink="http://www.w3.org/1999/xlink">
    <!-- Generator: Sketch 49 (51002) - http://www.bohemiancoding.com/sketch -->
    <title>security</title>
    <desc>Created with Sketch.</desc>
    <defs></defs>
    <g id="Page-1" stroke="none" stroke-width="1" fill="none" fill-rule="evenodd">
        <g id="grid" transform="translate(-272.000000, -356.000000)">
            <g id="security" transform="translate(272.000000, 356.000000)">
                <rect id="wrapper" fill-opacity="0.00999999978" fill="#FFFFFF" x="0" y="0" width="64" height="64"></rect>
                <g id="icon" transform="translate(12.000000, 10.000000)" fill="#6C5CE7" fill-rule="nonzero">
                    <path d="M31.9043339,20.5976556 C31.5205975,20.5323444 31.1555199,20.7888619 31.0895982,21.1708366 L29.9929572,27.5343093 C29.9272115,27.9163716 30.1851774,28.2791732 30.5691778,28.3447471 C30.6095757,28.3515759 30.6496216,28.3548152 30.6892274,28.3548152 C31.026581,28.3548152 31.3249448,28.113356 31.3839135,27.7715661 L32.4805545,21.4080934 C32.5463882,21.0261187 32.2883343,20.6633171 31.9043339,20.5976556 Z" id="Shape"></path>
                    <path d="M33.75683,10.5239591 L29.2169472,8.96069066 C28.8487011,8.83400778 28.4468341,9.02819066 28.3194794,9.39431907 C28.1919487,9.76053502 28.3872493,10.1601946 28.7554074,10.286965 L32.7293671,11.6555253 L32.1216378,15.1818093 C32.0558922,15.5638716 32.3138581,15.9266732 32.6978585,15.9922471 C32.7382564,15.9990759 32.7783023,16.0023152 32.8179081,16.0023152 C33.1552616,16.0023152 33.4536255,15.760856 33.5125941,15.4190661 L34.2214502,11.3057685 C34.2798028,10.9671304 34.0831819,10.636284 33.75683,10.5239591 Z" id="Shape"></path>
                    <path d="M27.3348788,8.31256809 L24.3241326,7.27590467 C23.9557105,7.14913424 23.5540195,7.34331712 23.4266648,7.70953307 C23.299222,8.07583658 23.4944347,8.47549611 23.8625928,8.60226654 L26.873339,9.63892996 C26.9498222,9.66519455 27.0276256,9.67780156 27.1041089,9.67780156 C27.3964878,9.67780156 27.669856,9.49570039 27.7708068,9.20530156 C27.8983375,8.8390856 27.7031249,8.43925097 27.3348788,8.31256809 Z" id="Shape"></path>
                    <path d="M21.6055013,19.575 C23.6605151,19.0167899 25.1759217,17.1447374 25.1759217,14.9259922 C25.1759217,12.2685409 23.0024425,10.1066148 20.3309861,10.1066148 C17.6595297,10.1066148 15.4860505,12.2685409 15.4860505,14.9259922 C15.4860505,17.1446498 17.0014571,19.0167899 19.0564709,19.575 C15.5378021,20.1787354 12.8519116,23.234358 12.8519116,26.9043093 L12.8519116,30.6475389 C12.8519116,31.0352043 13.16779,31.3494163 13.5575112,31.3494163 L27.1044609,31.3494163 C27.4941822,31.3494163 27.8100606,31.0352918 27.8100606,30.6475389 L27.8100606,26.9043093 C27.8099726,23.234358 25.1241701,20.178823 21.6055013,19.575 Z M16.8971617,14.9260798 C16.8971617,13.0426459 18.437564,11.5103696 20.3309861,11.5103696 C22.2244082,11.5103696 23.7648104,13.0426459 23.7648104,14.9260798 C23.7648104,16.8095136 22.2244082,18.3417899 20.3309861,18.3417899 C18.437564,18.3417899 16.8971617,16.8094261 16.8971617,14.9260798 Z M26.3989493,29.9456615 L14.2630229,29.9456615 L14.2630229,26.9043093 C14.2630229,23.5761479 16.9850867,20.868356 20.3309861,20.868356 C23.6768855,20.868356 26.3989493,23.5760603 26.3989493,26.9043093 L26.3989493,29.9456615 Z" id="Shape"></path>
                    <path d="M36.943162,8.65024319 L20.56158,3.00957198 C20.412222,2.95800584 20.2494861,2.95800584 20.1000402,3.00957198 L3.71854616,8.65024319 C3.39219422,8.76256809 3.19557335,9.0934144 3.25401393,9.43205253 L7.16610051,32.1323638 C7.19787318,32.3170039 7.30260856,32.4812451 7.45689522,32.5887549 L19.9262146,41.271216 C20.0476725,41.3557004 20.1892853,41.3979864 20.3308101,41.3979864 C20.4724229,41.3979864 20.6139476,41.3557004 20.7354055,41.271216 L33.2049009,32.5887549 C33.3592756,32.4813327 33.463923,32.3170039 33.4957836,32.1323638 L37.4078702,9.43205253 C37.4662228,9.0934144 37.2696019,8.76248054 36.943162,8.65024319 Z M32.1547307,31.6065467 L20.3308981,39.8394455 L8.50715348,31.6065467 L4.74592105,9.78180934 L20.3308981,4.41542802 L35.9157871,9.78180934 L32.1547307,31.6065467 Z" id="Shape"></path>
                    <path d="M40.129582,6.77643969 L20.561668,0.0386964981 C20.412046,-0.0128696498 20.2495741,-0.0128696498 20.1001282,0.0386964981 L0.532214168,6.77643969 C0.205862236,6.88876459 0.00915334438,7.21952335 0.0675939278,7.55824903 L4.58327316,33.7606809 C4.61504583,33.945321 4.71978121,34.1095623 4.87406787,34.217072 L19.9263026,44.6980447 C20.0477605,44.7825292 20.1893733,44.8248152 20.3308981,44.8248152 C20.4725109,44.8248152 20.6140357,44.7825292 20.7354935,44.6980447 L35.7878163,34.217072 C35.942191,34.1096498 36.0468383,33.945321 36.078699,33.7606809 L40.5943782,7.55824903 C40.6526428,7.21952335 40.4560219,6.88876459 40.129582,6.77643969 Z M34.73747,33.2349514 L20.3308981,43.2663619 L5.92441414,33.2349514 L1.55958906,7.90809339 L20.3308981,1.44455253 L39.1021191,7.90800584 L34.73747,33.2349514 Z" id="Shape"></path>
                </g>
            </g>
        </g>
    </g>
</svg>