<?xml version="1.0" encoding="UTF-8"?>
<svg width="64px" height="64px" viewBox="0 0 64 64" version="1.1" xmlns="http://www.w3.org/2000/svg" xmlns:xlink="http://www.w3.org/1999/xlink">
    <!-- Generator: Sketch 49 (51002) - http://www.bohemiancoding.com/sketch -->
    <title>startup</title>
    <desc>Created with Sketch.</desc>
    <defs></defs>
    <g id="Page-1" stroke="none" stroke-width="1" fill="none" fill-rule="evenodd">
        <g id="grid" transform="translate(-20.000000, -272.000000)">
            <g id="startup" transform="translate(20.000000, 272.000000)">
                <rect id="wrapper" fill-opacity="0.00999999978" fill="#FFFFFF" x="0" y="0" width="64" height="64"></rect>
                <g id="icon" transform="translate(11.000000, 10.000000)" fill="#6C5CE7" fill-rule="nonzero">
                    <path d="M20.4509224,14.8464981 C17.7605574,14.8464981 15.5717652,17.0451946 15.5717652,19.7477335 C15.5717652,22.4502724 17.7605574,24.6489689 20.4509224,24.6489689 C23.1412874,24.6489689 25.3300795,22.4502724 25.3300795,19.7477335 C25.3300795,17.0451946 23.1412874,14.8464981 20.4509224,14.8464981 Z M20.4509224,23.2214008 C18.5441614,23.2214008 16.9929026,21.6631226 16.9929026,19.7477335 C16.9929026,17.8323444 18.5441614,16.2740661 20.4509224,16.2740661 C22.3576834,16.2740661 23.9089421,17.8323444 23.9089421,19.7477335 C23.9089421,21.6631226 22.3576834,23.2214008 20.4509224,23.2214008 Z" id="Shape"></path>
                    <path d="M20.4509224,34.6417704 C18.387458,34.6417704 16.7086926,36.3282198 16.7086926,38.4009339 C16.7086926,40.2297374 19.3538245,43.8370039 19.8842453,44.5415953 C20.0184629,44.7200195 20.2283304,44.8249027 20.4510095,44.8249027 C20.6737758,44.8249027 20.883469,44.7200195 21.0177737,44.5415953 C21.5481074,43.8370914 24.1933265,40.2297374 24.1933265,38.4009339 C24.1931522,36.3281323 22.5143867,34.6417704 20.4509224,34.6417704 Z M20.4509224,42.8964689 C19.3487696,41.3153405 18.1297429,39.2451654 18.1297429,38.4009339 C18.1297429,37.1152821 19.171062,36.069251 20.4509224,36.069251 C21.7307827,36.069251 22.7721019,37.1152821 22.7721019,38.4009339 C22.7721019,39.2451654 21.552988,41.3153405 20.4509224,42.8964689 Z" id="Shape"></path>
                    <path d="M37.5991339,32.5395525 L30.6355954,26.2807879 L30.6355954,12.8954767 C30.6355954,12.8884728 30.6347238,12.8815564 30.6345495,12.8745525 C30.6342009,12.8606323 30.633678,12.8468872 30.6324578,12.8329669 C30.6315863,12.8227237 30.6301918,12.8124805 30.6288845,12.8023249 C30.6271414,12.7893677 30.6253983,12.7764981 30.6230452,12.763716 C30.6210406,12.7529475 30.6186003,12.7422665 30.61616,12.7317607 C30.6134582,12.7198541 30.6104949,12.708035 30.6070959,12.6963035 C30.6038712,12.6851848 30.6002979,12.6743288 30.5965503,12.6634728 C30.5928026,12.6525292 30.5889678,12.6415856 30.5846101,12.6307296 C30.5800781,12.6194358 30.5751975,12.6084922 30.5701425,12.5974611 C30.5656105,12.5874805 30.5609913,12.5775875 30.5558492,12.5676946 C30.5499227,12.5560506 30.5434733,12.5448444 30.5367624,12.5337257 C30.5315332,12.5248833 30.5263911,12.5160409 30.5208132,12.5073735 C30.5132308,12.495642 30.5051254,12.4844358 30.4968458,12.4732296 C30.4927495,12.4676265 30.4892634,12.4616732 30.4849056,12.4561576 L21.0107142,0.274289883 C20.8762352,0.101293774 20.6696796,0 20.4509224,0 C20.2321652,0 20.0256096,0.101293774 19.8910434,0.274377432 L10.416852,12.45607 C10.4125814,12.4615856 10.4090952,12.4674514 10.4049118,12.473142 C10.3966322,12.4843482 10.3885268,12.495642 10.3809444,12.507286 C10.3753665,12.5159533 10.3702244,12.5247957 10.3649952,12.5336381 C10.3584586,12.5448444 10.351922,12.5561381 10.3459084,12.567607 C10.3408534,12.5774125 10.3362343,12.587393 10.3317022,12.5973735 C10.3266473,12.6084047 10.3217666,12.6193482 10.3172346,12.630642 C10.3128769,12.6414981 10.3090421,12.6524416 10.3052945,12.6633852 C10.301634,12.6742412 10.2978864,12.6850973 10.2947488,12.696216 C10.2913498,12.708035 10.2884737,12.7198541 10.2856848,12.7316732 C10.2832445,12.7422665 10.280717,12.7528599 10.2787996,12.7636284 C10.2764464,12.7764981 10.2746162,12.7893677 10.2729603,12.8022374 C10.2716529,12.812393 10.2701713,12.8226362 10.2693869,12.8328794 C10.2681668,12.8467996 10.2676439,12.8605447 10.2672952,12.874465 C10.2671209,12.8814689 10.2662494,12.8883852 10.2662494,12.8953891 L10.2662494,26.2807004 L3.30271084,32.539465 C3.08316925,32.7367121 3.0076065,33.0496984 3.11271454,33.326177 C3.21782258,33.6025681 3.4819,33.785107 3.77648142,33.785107 L10.9768181,33.785107 L29.9250267,33.785107 L37.1253633,33.785107 C37.4199447,33.785107 37.683935,33.6025681 37.7891302,33.3260895 C37.8942382,33.049786 37.8187627,32.7367996 37.5991339,32.5395525 Z M10.2662494,32.357714 L5.63626626,32.357714 L10.2662494,28.1964397 L10.2662494,32.357714 Z M20.4509224,1.87310311 L28.468156,12.1816926 L12.4336016,12.1816926 L20.4509224,1.87310311 Z M29.2144579,32.357714 L11.6873868,32.357714 L11.6873868,27.3136868 L29.2144579,27.3136868 L29.2144579,32.357714 Z M29.2144579,25.8861187 L11.6873868,25.8861187 L11.6873868,13.6092607 L29.2144579,13.6092607 L29.2144579,25.8861187 Z M30.6355954,32.357714 L30.6355954,28.1964397 L35.2655785,32.357714 L30.6355954,32.357714 Z" id="Shape"></path>
                    <path d="M21.3323134,17.7202821 C21.0548143,17.4415272 20.604924,17.4415272 20.3275119,17.7202821 L18.4326911,19.623677 C18.1551919,19.9024319 18.1551919,20.354358 18.4326911,20.6330253 C18.5713535,20.7724903 18.7533316,20.8420914 18.9351354,20.8420914 C19.1169392,20.8420914 19.2988302,20.7724027 19.4375797,20.6330253 L21.3324006,18.7296304 C21.6098126,18.4508755 21.6098126,17.9989494 21.3323134,17.7202821 Z" id="Shape"></path>
                    <path d="M22.4691537,19.623677 C22.1916545,19.3449222 21.7417642,19.3449222 21.4643522,19.623677 L20.3274248,20.765749 C20.0499256,21.0445039 20.0499256,21.49643 20.3274248,21.7750973 C20.4660872,21.9143872 20.6480653,21.9841634 20.8298691,21.9841634 C21.0116729,21.9841634 21.1935639,21.9144747 21.3323134,21.7750973 L22.4692408,20.6330253 C22.7466528,20.354358 22.7466528,19.9023444 22.4691537,19.623677 Z" id="Shape"></path>
                    <path d="M40.9149179,22.0793288 C40.5224622,22.0793288 40.2043492,22.3988813 40.2043492,22.7931128 L40.2043492,35.736216 C40.2043492,36.1304475 40.5224622,36.45 40.9149179,36.45 C41.3073735,36.45 41.6254866,36.1304475 41.6254866,35.736216 L41.6254866,22.7931128 C41.6254866,22.3989689 41.3073735,22.0793288 40.9149179,22.0793288 Z" id="Shape"></path>
                    <path d="M36.3673827,19.0339494 C35.974927,19.0339494 35.656814,19.3535019 35.656814,19.7477335 L35.656814,24.3158463 C35.656814,24.7100778 35.974927,25.0296304 36.3673827,25.0296304 C36.7598383,25.0296304 37.0779514,24.7100778 37.0779514,24.3158463 L37.0779514,19.7477335 C37.0779514,19.3535019 36.7598383,19.0339494 36.3673827,19.0339494 Z" id="Shape"></path>
                    <path d="M0.744820341,22.8407393 C0.35236469,22.8407393 0.0342516258,23.1602918 0.0342516258,23.5545233 L0.0342516258,38.7816829 C0.0342516258,39.1759144 0.35236469,39.4954669 0.744820341,39.4954669 C1.13727599,39.4954669 1.45538906,39.1759144 1.45538906,38.7816829 L1.45538906,23.5545233 C1.4553019,23.1602918 1.13718884,22.8407393 0.744820341,22.8407393 Z" id="Shape"></path>
                    <path d="M5.29235553,15.9884825 C4.89989988,15.9884825 4.58178682,16.308035 4.58178682,16.7022665 L4.58178682,23.5545233 C4.58178682,23.9487549 4.89989988,24.2683074 5.29235553,24.2683074 C5.68481118,24.2683074 6.00292425,23.9487549 6.00292425,23.5545233 L6.00292425,16.7022665 C6.00292425,16.3081226 5.68481118,15.9884825 5.29235553,15.9884825 Z" id="Shape"></path>
                </g>
            </g>
        </g>
    </g>
</svg>