<?xml version="1.0" encoding="UTF-8"?>
<svg width="64px" height="64px" viewBox="0 0 64 64" version="1.1" xmlns="http://www.w3.org/2000/svg" xmlns:xlink="http://www.w3.org/1999/xlink">
    <!-- Generator: Sketch 49 (51002) - http://www.bohemiancoding.com/sketch -->
    <title>text</title>
    <desc>Created with Sketch.</desc>
    <defs></defs>
    <g id="Page-1" stroke="none" stroke-width="1" fill="none" fill-rule="evenodd">
        <g id="grid" transform="translate(-692.000000, -272.000000)">
            <g id="text" transform="translate(692.000000, 272.000000)">
                <rect id="wrapper" fill-opacity="0.00999999978" fill="#FFFFFF" x="0" y="0" width="64" height="64"></rect>
                <g id="icon" transform="translate(14.000000, 10.000000)" fill="#6C5CE7" fill-rule="nonzero">
                    <path d="M34.1052938,0 L6.06201484,0 C5.66955919,0 5.35144612,0.319464981 5.35144612,0.713784047 L5.35144612,10.6114202 C5.35144612,10.9146012 5.5420525,11.1845136 5.82687263,11.2849319 C6.11160561,11.3851751 6.42841136,11.2939494 6.61692604,11.0573054 L8.82890126,8.27973735 L15.9623906,8.27973735 L15.9623906,12.1816926 L0.756499012,12.1816926 C0.364043361,12.1816926 0.0459302972,12.5011576 0.0459302972,12.8954767 L0.0459302972,36.8779377 C0.0459302972,36.9015759 0.0471504569,36.9251265 0.0494164677,36.9487646 C0.0504623189,36.9589202 0.0523797127,36.9688132 0.0537741809,36.9789689 C0.0556044205,36.9919261 0.0571731972,37.0049708 0.0596135166,37.0177529 C0.0619666818,37.0294844 0.0651042353,37.0408658 0.0680674802,37.0524222 C0.0708564167,37.0634533 0.0732967361,37.074572 0.0765214439,37.085428 C0.0799204602,37.0968093 0.0841910191,37.107928 0.0882001152,37.1190467 C0.0921220571,37.1299027 0.0956082277,37.1407588 0.0999659409,37.1514397 C0.104323654,37.1619455 0.109378601,37.1719261 0.114084932,37.1820817 C0.119227033,37.1930253 0.124020518,37.2039689 0.129685545,37.2147374 C0.134914801,37.2245428 0.140841291,37.2339981 0.146506318,37.2434533 C0.152694271,37.253784 0.158533606,37.2643774 0.165331639,37.2745331 C0.17230398,37.2851265 0.180235018,37.2950195 0.187817439,37.3051751 C0.1941797,37.3136673 0.200019036,37.3224222 0.206729914,37.3306518 C0.220761751,37.3478113 0.23566513,37.3642704 0.251178589,37.3800292 C0.252137286,37.3809922 0.252921674,37.3820428 0.253793217,37.3830058 L7.4541299,44.6159241 C7.45517575,44.6169747 7.45639591,44.6179377 7.45744176,44.6189883 C7.47295522,44.6343969 7.48916591,44.6492802 7.50616099,44.6632004 C7.51444065,44.6699416 7.52298177,44.6758949 7.53143573,44.6821109 C7.54154562,44.6897276 7.55148121,44.697607 7.56202688,44.7046984 C7.57196246,44.7113521 7.58242097,44.7172179 7.59253087,44.7233463 C7.60220499,44.7291245 7.61170481,44.7352529 7.62164039,44.7406809 C7.63209891,44.746284 7.64273173,44.7510992 7.6534517,44.7560895 C7.66382306,44.7610798 7.67402011,44.7661576 7.68465293,44.7706226 C7.69511144,44.7749125 7.7056571,44.7784144 7.71620277,44.7822665 C7.72744567,44.7863813 7.73877572,44.7907588 7.75028009,44.7942607 C7.76082575,44.7975 7.77137142,44.7997763 7.78200424,44.8024027 C7.79385722,44.8054669 7.80562304,44.8087938 7.81773749,44.8111576 C7.83002624,44.8136089 7.84240214,44.8150973 7.85477805,44.8168482 C7.86541087,44.8183366 7.87569507,44.8203502 7.88641505,44.8214008 C7.90968524,44.823677 7.93312973,44.8249027 7.95648708,44.8249027 L27.6627634,44.8249027 C28.0552191,44.8249027 28.3733321,44.5054377 28.3733321,44.1111187 L28.3733321,12.8955642 C28.3733321,12.5012451 28.0552191,12.1817802 27.6627634,12.1817802 L24.204918,12.1817802 L24.204918,8.27973735 L31.3384074,8.27973735 L33.5503826,11.057393 C33.7388972,11.2939494 34.0556158,11.3852626 34.340436,11.2850195 C34.6252561,11.1846012 34.8158625,10.9146012 34.8158625,10.6115078 L34.8158625,0.713784047 C34.8158625,0.319464981 34.4977494,0 34.1052938,0 Z M7.24626698,42.3878988 L2.47195639,37.5919844 L4.92508746,37.5919844 L7.24626698,37.5919844 L7.24626698,42.3878988 Z M26.952369,13.6092607 L26.952369,43.3973346 L8.66740441,43.3973346 L8.66740441,37.5919844 L23.4943493,37.5919844 C23.8868049,37.5919844 24.204918,37.2725195 24.204918,36.8782004 C24.204918,36.4838813 23.8868049,36.1644163 23.4943493,36.1644163 L7.95683569,36.1644163 L4.92508746,36.1644163 L1.46706773,36.1644163 L1.46706773,13.6092607 L15.9623906,13.6092607 L15.9623906,17.8918774 L4.92508746,17.8918774 C4.53263181,17.8918774 4.21451875,18.2113424 4.21451875,18.6056615 C4.21451875,18.9999805 4.53263181,19.3194455 4.92508746,19.3194455 L15.9623906,19.3194455 L15.9623906,23.9827237 L4.92508746,23.9827237 C4.53263181,23.9827237 4.21451875,24.3021887 4.21451875,24.6965078 C4.21451875,25.0908268 4.53263181,25.4102918 4.92508746,25.4102918 L15.9623906,25.4102918 L15.9623906,30.07357 L4.92508746,30.07357 C4.53263181,30.07357 4.21451875,30.393035 4.21451875,30.7873541 C4.21451875,31.1816732 4.53263181,31.5011381 4.92508746,31.5011381 L15.9623906,31.5011381 L15.9623906,32.690749 C15.9623906,33.0850681 16.2805037,33.4045331 16.6729593,33.4045331 L23.4943493,33.4045331 C23.8868049,33.4045331 24.204918,33.0850681 24.204918,32.690749 L24.204918,30.7873541 L24.204918,24.6965078 L24.204918,18.6056615 L24.204918,13.6092607 L26.952369,13.6092607 Z M33.3947251,8.57661479 L32.2347018,7.12006809 C32.0998742,6.95083658 31.8957589,6.85225681 31.6798778,6.85225681 L23.4942621,6.85225681 C23.1018065,6.85225681 22.7836934,7.17172179 22.7836934,7.56604086 L22.7836934,12.8955642 L22.7836934,18.605749 L22.7836934,24.6965953 L22.7836934,30.7874416 L22.7836934,31.9770525 L17.3834409,31.9770525 L17.3834409,30.7873541 L17.3834409,24.6965078 L17.3834409,18.6056615 L17.3834409,12.8954767 L17.3834409,7.56595331 C17.3834409,7.17163424 17.0653278,6.85216926 16.6728722,6.85216926 L8.48725654,6.85216926 C8.27146259,6.85216926 8.06726015,6.95074903 7.9324325,7.11998054 L6.77240924,8.57652724 L6.77240924,1.42756809 L33.3947251,1.42756809 L33.3946379,8.57661479 L33.3947251,8.57661479 Z" id="Shape"></path>
                    <path d="M32.2104729,2.6647179 L27.2839038,2.6647179 C26.8914482,2.6647179 26.5733351,2.98418288 26.5733351,3.37850195 C26.5733351,3.77282101 26.8914482,4.09228599 27.2839038,4.09228599 L32.2104729,4.09228599 C32.6029286,4.09228599 32.9210416,3.77282101 32.9210416,3.37850195 C32.9210416,2.98427043 32.6029286,2.6647179 32.2104729,2.6647179 Z" id="Shape"></path>
                    <path d="M24.6311895,2.6647179 L21.2204945,2.6647179 C20.8280389,2.6647179 20.5099258,2.98418288 20.5099258,3.37850195 C20.5099258,3.77282101 20.8280389,4.09228599 21.2204945,4.09228599 L24.6311895,4.09228599 C25.0236451,4.09228599 25.3417582,3.77282101 25.3417582,3.37850195 C25.3417582,2.98427043 25.0236451,2.6647179 24.6311895,2.6647179 Z" id="Shape"></path>
                </g>
            </g>
        </g>
    </g>
</svg>