<?xml version="1.0" encoding="UTF-8"?>
<svg width="64px" height="64px" viewBox="0 0 64 64" version="1.1" xmlns="http://www.w3.org/2000/svg" xmlns:xlink="http://www.w3.org/1999/xlink">
    <!-- Generator: Sketch 49 (51002) - http://www.bohemiancoding.com/sketch -->
    <title>timeline</title>
    <desc>Created with Sketch.</desc>
    <defs></defs>
    <g id="Page-1" stroke="none" stroke-width="1" fill="none" fill-rule="evenodd">
        <g id="grid" transform="translate(-440.000000, -356.000000)">
            <g id="timeline" transform="translate(440.000000, 356.000000)">
                <rect id="wrapper" fill-opacity="0.00999999978" fill="#FFFFFF" x="0" y="0" width="64" height="64"></rect>
                <g id="icon" transform="translate(10.000000, 10.000000)" fill="#6C5CE7" fill-rule="nonzero">
                    <path d="M44.120358,9.73234436 L24.6550075,9.73234436 L27.3024934,7.89653696 C27.491587,7.76547665 27.6044304,7.54993191 27.6044304,7.31967899 L27.6044304,1.45041829 L27.6044304,0.701877432 C27.6044304,0.314299611 27.2903248,0 26.9025954,0 L17.5452622,0 C17.1576203,0 16.8434272,0.314212062 16.8434272,0.701877432 L16.8434272,1.45050584 L16.8434272,7.31985409 C16.8434272,7.55912451 16.9653751,7.7819358 17.1668999,7.91098249 L20.0125839,9.73234436 L0.701835002,9.73234436 C0.314193067,9.73234436 0,10.0465564 0,10.4342218 L0,44.1231128 C0,44.5106907 0.314105524,44.8249027 0.701835002,44.8249027 L22.4110965,44.8249027 L44.120358,44.8249027 C44.5079999,44.8249027 44.822193,44.5106907 44.822193,44.1230253 L44.822193,10.4342218 C44.822193,10.0465564 44.5080874,9.73234436 44.120358,9.73234436 Z M21.709349,38.5550195 L4.77233794,38.5550195 L4.77233794,34.34393 L21.709349,34.34393 L21.709349,38.5550195 Z M21.709349,29.1970331 L4.77233794,29.1970331 L4.77233794,24.9859436 L21.709349,24.9859436 L21.709349,29.1970331 Z M21.709349,19.8389591 L4.77233794,19.8389591 L4.77233794,15.6278696 L21.709349,15.6278696 L21.709349,19.8389591 Z M21.7092615,14.2242023 L4.07050294,14.2242023 C3.68286101,14.2242023 3.36866794,14.5384144 3.36866794,14.9260798 L3.36866794,20.5409241 C3.36866794,20.9285019 3.68277346,21.2428016 4.07050294,21.2428016 L21.7092615,21.2428016 L21.7092615,23.5822763 L4.07050294,23.5822763 C3.68286101,23.5822763 3.36866794,23.8964883 3.36866794,24.2841537 L3.36866794,29.8989981 C3.36866794,30.2865759 3.68277346,30.6008755 4.07050294,30.6008755 L21.7092615,30.6008755 L21.7092615,32.9403502 L4.07050294,32.9403502 C3.68286101,32.9403502 3.36866794,33.2545623 3.36866794,33.6422276 L3.36866794,39.257072 C3.36866794,39.6446498 3.68277346,39.9589494 4.07050294,39.9589494 L21.7092615,39.9589494 L21.7092615,43.4214105 L1.40358246,43.4214105 L1.40358246,11.1360117 L21.7092615,11.1360117 L21.7092615,14.2242023 Z M22.3955138,9.59095331 L18.2470972,6.93569066 L18.2470972,1.45050584 L18.2470972,1.40375486 L26.2009355,1.40375486 L26.2009355,1.45050584 L26.2009355,6.95241245 L22.3955138,9.59095331 Z M23.1129315,15.6278696 L26.5751833,15.6278696 L26.5751833,19.8389591 L23.1129315,19.8389591 L23.1129315,15.6278696 Z M23.1129315,24.9859436 L32.9382713,24.9859436 L32.9382713,29.1970331 L23.1129315,29.1970331 L23.1129315,24.9859436 Z M23.1129315,34.34393 L38.5526887,34.34393 L38.5526887,38.5550195 L23.1129315,38.5550195 L23.1129315,34.34393 Z M43.4186105,43.4212354 L23.1129315,43.4212354 L23.1129315,39.9587743 L39.2545237,39.9587743 C39.6421657,39.9587743 39.9563587,39.6445623 39.9563587,39.2568969 L39.9563587,33.6420525 C39.9563587,33.2544747 39.6422532,32.9401751 39.2545237,32.9401751 L23.1129315,32.9401751 L23.1129315,30.6007004 L33.6400188,30.6007004 C34.0276607,30.6007004 34.3418538,30.2864883 34.3418538,29.898823 L34.3418538,24.2839786 C34.3418538,23.8964008 34.0277483,23.5821012 33.6400188,23.5821012 L23.1129315,23.5821012 L23.1129315,21.2426265 L27.2770183,21.2426265 C27.6646602,21.2426265 27.9788533,20.9284144 27.9788533,20.540749 L27.9788533,14.9259047 C27.9788533,14.5383268 27.6647477,14.2240272 27.2770183,14.2240272 L23.1129315,14.2240272 L23.1129315,11.1359241 L43.4186105,11.1359241 L43.4186105,43.4212354 Z" id="Shape"></path>
                </g>
            </g>
        </g>
    </g>
</svg>