<?xml version="1.0" encoding="UTF-8"?>
<svg width="64px" height="64px" viewBox="0 0 64 64" version="1.1" xmlns="http://www.w3.org/2000/svg" xmlns:xlink="http://www.w3.org/1999/xlink">
    <!-- Generator: Sketch 49 (51002) - http://www.bohemiancoding.com/sketch -->
    <title>tools</title>
    <desc>Created with Sketch.</desc>
    <defs></defs>
    <g id="Page-1" stroke="none" stroke-width="1" fill="none" fill-rule="evenodd">
        <g id="grid" transform="translate(-608.000000, -20.000000)">
            <g id="tools" transform="translate(608.000000, 20.000000)">
                <rect id="wrapper" fill-opacity="0.00999999978" fill="#FFFFFF" x="0" y="0" width="64" height="64"></rect>
                <g id="icon" transform="translate(10.000000, 10.000000)" fill="#6C5CE7" fill-rule="nonzero">
                    <path d="M44.6171664,32.1747374 L38.5428839,26.1000875 C38.3958986,25.9530934 38.1912222,25.8790272 37.9843573,25.8978502 L32.1741055,26.4261187 C32.0110122,26.4410019 31.8582491,26.5125292 31.7423417,26.628356 L31.1811013,27.1895428 L24.6866982,20.6947471 L31.3357904,14.0452529 L32.4251798,15.1347957 C32.5618349,15.2714591 32.7411237,15.3399222 32.9203249,15.3399222 C33.0995262,15.3399222 33.2788149,15.2715467 33.4154701,15.1347957 L37.9051306,10.6448638 C37.964485,10.5855058 38.0127214,10.5159047 38.0473885,10.4394747 L40.6883086,4.6288716 C40.8091184,4.36307393 40.7524779,4.05026265 40.5460507,3.84382296 L38.4332796,1.73092412 C38.2268524,1.52448444 37.9141476,1.46766537 37.6482784,1.58865759 L31.8380266,4.22991245 C31.7615137,4.26466926 31.6920043,4.31282101 31.6326499,4.37217899 L27.1433396,8.86219844 C26.8698542,9.13570039 26.8698542,9.57913424 27.1433396,9.85254864 L28.2328165,10.9420039 L21.5837243,17.5914981 L17.6461997,13.6537354 L18.2073526,13.0925486 C18.32326,12.9766342 18.3947829,12.8238619 18.4095777,12.6607588 L18.9378142,6.85015564 C18.9566361,6.64310311 18.8825744,6.4384144 18.7355891,6.29159533 L12.661219,0.216857977 C12.3877336,-0.0566439689 11.9443265,-0.0566439689 11.6708411,0.216857977 L9.03000856,2.85793774 C8.75652314,3.13143969 8.75652314,3.57487354 9.03000856,3.84828794 L13.5526729,8.37122568 L8.73288644,13.1913035 L4.21022212,8.66845331 C3.93673671,8.39495136 3.49332966,8.39495136 3.21993179,8.66845331 L0.578749058,11.3097082 C0.305263646,11.5832101 0.305263646,12.026644 0.578749058,12.3000584 L6.65303164,18.3747082 C6.78495946,18.506644 6.96328525,18.5798346 7.1481768,18.5798346 C7.16927475,18.5798346 7.19046024,18.5788716 7.21164572,18.5769455 L13.0218976,18.048677 C13.1849908,18.0337938 13.337754,17.9622665 13.4536614,17.8464397 L14.0148142,17.2852529 L17.9523388,21.2230156 L15.2258888,23.9496304 L14.4005302,23.1242218 C14.19813,22.9218969 13.8927788,22.8629767 13.6294484,22.9757393 L9.94483652,24.5549416 C9.9443988,24.5551167 9.94387354,24.5552918 9.94343582,24.5554669 L9.93205519,24.5602821 C9.9266275,24.5626459 9.92163753,24.5656226 9.91629739,24.5680739 C9.90194028,24.5746401 9.88775826,24.5812938 9.87375132,24.5889105 C9.86499699,24.5936381 9.85668037,24.5988911 9.84827621,24.6039689 C9.83733329,24.610535 9.82639037,24.6170136 9.81571008,24.6242802 C9.80459208,24.6317218 9.79417442,24.6397763 9.78358168,24.6479183 C9.77614049,24.6536089 9.76852422,24.659037 9.76125812,24.6650778 C9.74856434,24.6756712 9.73648336,24.6867899 9.724665,24.6981712 C9.72072555,24.7019358 9.71652347,24.7050875 9.71267157,24.7090272 L9.70470512,24.7169942 C9.70391723,24.7177821 9.70321688,24.7184825 9.70242899,24.7192704 L1.53743624,32.8847568 C1.53726115,32.8848444 1.53717361,32.8850195 1.53699852,32.8851946 L1.52570543,32.8964883 C1.5214158,32.9007782 1.51773898,32.9055058 1.5135369,32.9099708 C1.50320679,32.9209144 1.49278913,32.9319455 1.48307182,32.9435895 C1.47580572,32.9522568 1.46915243,32.9614494 1.46232405,32.9703794 C1.45549566,32.9793969 1.44857974,32.9883268 1.44227662,32.9977821 C1.43369737,33.0103891 1.42599356,33.0232588 1.41828974,33.036216 C1.41522573,33.0414689 1.41163645,33.046284 1.40865997,33.0516245 L1.40078107,33.0657198 C1.40069353,33.0658949 1.40060599,33.0659825 1.40051844,33.0661576 L0.088156149,35.4286576 C-0.0636440123,35.7019844 -0.0159328889,36.0428988 0.205114059,36.2639591 L6.01536591,42.0744747 C6.15009512,42.2092121 6.32938389,42.2796012 6.5107737,42.2796012 C6.62694372,42.2796012 6.74390163,42.2507101 6.85061697,42.1914397 L9.2274188,40.870856 C9.23319666,40.8677043 9.23836172,40.8638521 9.24405204,40.8605253 C9.25648319,40.8531712 9.26900189,40.845642 9.28099533,40.8375 C9.29071264,40.8308463 9.29981715,40.8237549 9.30909674,40.816751 C9.31785108,40.8100973 9.3267805,40.8036187 9.3352722,40.7965272 C9.34700301,40.7868093 9.35803347,40.7764786 9.36897639,40.7660603 C9.37335356,40.761858 9.37816844,40.7581809 9.38245807,40.7538911 L9.39392624,40.7424222 C9.39401379,40.7423346 9.39410133,40.7422471 9.39418887,40.7421595 L17.5694242,32.56643 C17.5785287,32.5574125 17.5864076,32.5477821 17.5948118,32.5383268 C17.6005021,32.5319358 17.606455,32.5258949 17.6119703,32.5194163 C17.6137211,32.5174027 17.6158222,32.5153891 17.6174855,32.5132879 C17.6349066,32.4919261 17.6504893,32.4695136 17.6650215,32.446751 C17.6680856,32.4417607 17.6708869,32.4366829 17.6738634,32.4316926 C17.689096,32.4063911 17.7026652,32.3804767 17.714396,32.3539494 C17.7154465,32.3515856 17.7168472,32.3496595 17.7178102,32.3472957 L17.7222749,32.3367023 C17.7226251,32.3358268 17.7230628,32.3349514 17.7234129,32.3340759 L19.3023447,28.649679 C19.4151006,28.3864202 19.356359,28.0811381 19.1538712,27.8785506 L18.3285126,27.053142 L21.0549625,24.3265272 L27.5493656,30.821323 L26.9882128,31.3825097 C26.8723054,31.4984241 26.8007825,31.6511965 26.7859876,31.8142996 L26.2577511,37.6249027 C26.2389293,37.8319553 26.3129909,38.036644 26.4599762,38.183463 L32.5342588,44.2581128 C32.670914,44.3947763 32.8502027,44.4632393 33.029404,44.4632393 C33.2086052,44.4632393 33.387894,44.3948638 33.5245491,44.2581128 L36.1654692,41.6170331 C36.4389546,41.3435311 36.4389546,40.9000973 36.1654692,40.6266829 L31.6428049,36.1037451 L36.4625913,31.2836673 L40.9852557,35.8066051 C41.2587411,36.080107 41.7021481,36.080107 41.975546,35.8066051 L44.6164661,33.1655253 C44.8906518,32.8915856 44.8906518,32.4481518 44.6171664,32.1747374 Z M32.5335584,5.45244163 L37.7863343,3.06464008 L39.2127655,4.49115759 L36.8251083,9.74425097 L32.9204125,13.6491829 L31.8310231,12.5597276 L29.718252,10.4468288 L28.6288626,9.35737354 L32.5335584,5.45244163 Z M29.2230193,11.9324416 L30.3454125,13.0549903 L23.6963203,19.7044844 L22.5738396,18.5820233 L29.2230193,11.9324416 Z M13.5194939,15.7997276 L12.6424847,16.6767899 L7.41141964,17.1523541 L2.06418455,11.8048833 L3.71481433,10.1541537 L8.23747865,14.6770914 C8.51096406,14.9505934 8.95437111,14.9505934 9.22776897,14.6770914 L15.0380208,8.86648833 C15.3115062,8.59298638 15.3115062,8.14955253 15.0380208,7.87613813 L10.5153565,3.35320039 L12.1659863,1.70247082 L17.5131338,7.05002918 L17.0375984,12.2814105 L16.1604141,13.1586479 L13.5194939,15.7997276 Z M10.2079043,26.1946401 L10.8021485,26.7889202 L3.60538515,33.9861187 L3.01114092,33.3918385 L10.2079043,26.1946401 Z M5.45421306,35.8347957 L4.5959381,34.9764689 L11.7927015,27.7792704 L12.6509764,28.6375973 L5.45421306,35.8347957 Z M13.6411792,29.628035 L14.4995417,30.4864494 L7.30286589,37.6836479 L6.44450339,36.8252335 L13.6411792,29.628035 Z M6.63228386,40.7104669 L1.56912693,35.6470039 L2.18219298,34.5433658 L4.95898036,37.320321 L7.73576774,40.0972763 L6.63228386,40.7104669 Z M8.88740045,39.2682782 L8.29315622,38.6739981 L15.4899196,31.4768872 L16.0841638,32.0711673 L8.88740045,39.2682782 Z M16.8383497,30.8445233 L15.9852398,29.9913619 L14.1412268,28.1473249 C14.1397386,28.145749 14.1383379,28.1439981 14.1368496,28.1425097 C14.1352738,28.1410214 14.1336105,28.1396206 14.1320347,28.1381323 L12.2878466,26.2938327 L11.4345616,25.4405837 L13.7454433,24.4501459 L14.7307437,25.4354183 L16.8433397,27.5480545 L17.8285525,28.5334144 L16.8383497,30.8445233 Z M17.3385724,26.0625292 L16.2160916,24.9400681 L18.9425416,22.2134533 L20.0649348,23.3359144 L17.3385724,26.0625292 Z M21.5506329,22.8407393 L19.4377743,20.7277529 L15.005017,16.2948152 L16.6556468,14.6440856 L21.0883165,19.0771109 L23.2010876,21.1900097 L23.2011752,21.1900097 L30.1907234,28.1799805 L28.5400936,29.8307101 L21.5506329,22.8407393 Z M41.4810136,34.3207296 L36.9583493,29.7977918 C36.6848639,29.5242899 36.2414568,29.5242899 35.968059,29.7977918 L30.1578071,35.6083949 C29.8843217,35.8818969 29.8843217,36.3253307 30.1578071,36.5987451 L34.6804715,41.1216829 L33.0298417,42.7724125 L27.6826066,37.4249416 L28.158142,32.1935603 L29.0353264,31.316323 L31.6764215,28.6750681 C31.6765966,28.674893 31.6766842,28.6748054 31.6768593,28.6746304 L32.5535183,27.7980058 L37.7845834,27.3224416 L43.1317309,32.67 L41.4810136,34.3207296 Z" id="Shape"></path>
                </g>
            </g>
        </g>
    </g>
</svg>