<?xml version="1.0" encoding="UTF-8"?>
<svg width="64px" height="64px" viewBox="0 0 64 64" version="1.1" xmlns="http://www.w3.org/2000/svg" xmlns:xlink="http://www.w3.org/1999/xlink">
    <!-- Generator: Sketch 49 (51002) - http://www.bohemiancoding.com/sketch -->
    <title>upload</title>
    <desc>Created with Sketch.</desc>
    <defs></defs>
    <g id="Page-1" stroke="none" stroke-width="1" fill="none" fill-rule="evenodd">
        <g id="grid" transform="translate(-776.000000, -104.000000)">
            <g id="upload" transform="translate(776.000000, 104.000000)">
                <rect id="wrapper" fill-opacity="0.00999999978" fill="#FFFFFF" x="0" y="0" width="64" height="64"></rect>
                <g id="icon" transform="translate(10.000000, 10.000000)" fill="#6C5CE7" fill-rule="nonzero">
                    <path d="M23.534015,2.81286937 C23.1464606,2.81286937 22.83218,3.1249756 22.83218,3.51004286 C22.83218,3.89502316 23.146373,4.20721635 23.534015,4.20721635 C26.9651889,4.20721635 29.7566835,6.98008326 29.7566835,10.3885546 C29.7566835,10.7735349 30.0708766,11.0857281 30.4585185,11.0857281 C30.8461605,11.0857281 31.1603535,10.7736219 31.1603535,10.3885546 C31.1603535,6.21134013 27.7391596,2.81286937 23.534015,2.81286937 Z" id="Shape"></path>
                    <path d="M35.6986881,13.9672104 C35.3111337,13.9672104 34.9968531,14.2793167 34.9968531,14.6643839 C34.9968531,15.0494512 35.3110462,15.3615574 35.6986881,15.3615574 C38.4075418,15.3615574 40.611358,17.5507361 40.611358,20.2415979 C40.611358,20.6265782 40.9255511,20.9387714 41.313193,20.9387714 C41.700835,20.9387714 42.015028,20.6266652 42.015028,20.2415979 C42.0149405,16.781819 39.1815126,13.9672104 35.6986881,13.9672104 Z" id="Shape"></path>
                    <path d="M35.6986881,11.1786034 C35.0994539,11.1786034 34.5053848,11.2363461 33.9226963,11.350788 C33.952461,11.0309421 33.9675184,10.7096179 33.9675184,10.3885546 C33.9675184,4.67367995 29.2870135,0.024262368 23.5339274,0.024262368 C17.8349432,0.024262368 13.188405,4.58645717 13.101562,10.2275012 C12.0686381,9.87130529 10.9865148,9.69138114 9.87200045,9.69138114 C4.42864277,9.69138114 0,14.0906094 0,19.4978998 C0,21.9427465 0.911063598,24.2848042 2.5653702,26.092481 C4.15034247,27.8244141 6.28885132,28.9304824 8.61067593,29.2251093 C8.70802413,29.275895 8.81876646,29.3045055 8.93633718,29.3045055 L15.2994253,29.3045055 L15.2994253,37.5540584 C15.2994253,37.9390387 15.6136183,38.2512319 16.0012603,38.2512319 L28.7274364,38.2512319 C29.1149908,38.2512319 29.4292714,37.9391257 29.4292714,37.5540584 L29.4292714,29.3045055 L35.511608,29.3045055 C35.5264028,29.3045055 35.5410225,29.3040707 35.5555547,29.3031141 C35.6031783,29.3039837 35.6508894,29.3045055 35.6986881,29.3045055 C40.729454,29.3045055 44.822193,25.23895 44.822193,20.2415979 C44.822193,15.2442458 40.729454,11.1786034 35.6986881,11.1786034 Z M28.7273489,21.6126391 C28.3397945,21.6126391 28.0255139,21.9247454 28.0255139,22.3098126 L28.0255139,28.6074189 L28.0255139,36.8569719 L16.7030077,36.8569719 L16.7030077,28.6074189 L16.7030077,22.3098126 C16.7030077,21.9248323 16.3888146,21.6126391 16.0011727,21.6126391 L10.8761226,21.6126391 L22.3650487,12.3992875 L33.8938069,21.6126391 L28.7273489,21.6126391 Z M35.6986881,27.9101585 C35.6412597,27.9101585 35.5840939,27.9092019 35.5270156,27.9079844 C35.5029412,27.9073757 35.4786041,27.9081584 35.4546173,27.9101585 L29.4292714,27.9101585 L29.4292714,23.0068991 L35.8859433,23.0068991 C36.1835907,23.0068991 36.4490221,22.8203659 36.5478586,22.5413921 C36.6467825,22.2624184 36.557751,21.9518775 36.3258486,21.7665617 L22.8043412,10.9607639 C22.5471388,10.7552729 22.1805073,10.7555338 21.9236551,10.9615465 L8.44880829,21.7672574 C8.21734368,21.952921 8.12874981,22.263288 8.22784888,22.5419139 C8.32694795,22.8206268 8.59211674,23.0068991 8.88958903,23.0068991 L15.2994253,23.0068991 L15.2994253,27.9101585 L9.18960008,27.9101585 C9.13217164,27.8881571 9.07097884,27.8732866 9.0070722,27.8668515 C4.67245099,27.4304767 1.40358246,23.8326023 1.40358246,19.4978998 C1.40358246,14.8593525 5.20252594,11.0856412 9.872088,11.0856412 C11.1572243,11.0856412 12.3912353,11.3640931 13.5398915,11.9132575 C13.7676793,12.0222207 14.0367876,12.001002 14.2445279,11.8577758 C14.4521808,11.7145496 14.5662497,11.4714041 14.5431383,11.2213017 C14.5172255,10.9409366 14.5040064,10.6608323 14.5040064,10.3884677 C14.5040064,5.44242307 18.5548121,1.41852239 23.5339274,1.41852239 C28.5130428,1.41852239 32.5638484,5.44242307 32.5638484,10.3884677 C32.5638484,10.9808521 32.5050193,11.5746279 32.3887617,12.1532723 C32.3399126,12.3962438 32.4246545,12.6467811 32.6112969,12.811139 C32.7978518,12.975584 33.0582057,13.0293264 33.2953606,12.9522782 C34.0695064,12.7005235 34.8780568,12.5729504 35.6986006,12.5729504 C39.9553957,12.5729504 43.418523,16.0130759 43.418523,20.2415979 C43.4186105,24.4701199 39.9554833,27.9101585 35.6986881,27.9101585 Z" id="Shape"></path>
                    <path d="M28.7273489,39.4595674 L16.0011727,39.4595674 C15.6136183,39.4595674 15.2993377,39.7716736 15.2993377,40.1567409 C15.2993377,40.5418082 15.6135308,40.8539144 16.0011727,40.8539144 L28.7273489,40.8539144 C29.1149033,40.8539144 29.4291839,40.5418082 29.4291839,40.1567409 C29.4291839,39.7716736 29.1150783,39.4595674 28.7273489,39.4595674 Z" id="Shape"></path>
                    <path d="M28.7273489,42.0622499 L16.0011727,42.0622499 C15.6136183,42.0622499 15.2993377,42.3743561 15.2993377,42.7594234 C15.2993377,43.1444906 15.6135308,43.4565969 16.0011727,43.4565969 L28.7273489,43.4565969 C29.1149033,43.4565969 29.4291839,43.1444906 29.4291839,42.7594234 C29.4291839,42.3743561 29.1150783,42.0622499 28.7273489,42.0622499 Z" id="Shape"></path>
                </g>
            </g>
        </g>
    </g>
</svg>