<?xml version="1.0" encoding="UTF-8"?>
<svg width="64px" height="64px" viewBox="0 0 64 64" version="1.1" xmlns="http://www.w3.org/2000/svg" xmlns:xlink="http://www.w3.org/1999/xlink">
    <!-- Generator: Sketch 49 (51002) - http://www.bohemiancoding.com/sketch -->
    <title>vector</title>
    <desc>Created with Sketch.</desc>
    <defs></defs>
    <g id="Page-1" stroke="none" stroke-width="1" fill="none" fill-rule="evenodd">
        <g id="grid" transform="translate(-524.000000, -20.000000)">
            <g id="vector" transform="translate(524.000000, 20.000000)">
                <rect id="wrapper" fill-opacity="0.00999999978" fill="#FFFFFF" x="0" y="0" width="64" height="64"></rect>
                <g id="icon" transform="translate(13.000000, 10.000000)" fill="#6C5CE7" fill-rule="nonzero">
                    <path d="M25.0580654,26.7166051 L23.1655705,14.5173152 L24.3617546,0.782772374 C24.3793123,0.581673152 24.3122105,0.382412451 24.1767902,0.233579767 C24.0413698,0.0846595331 23.8502342,0 23.6497982,0 L13.1322964,0 C12.9335119,0 12.74368,0.0834338521 12.6084335,0.23016537 C12.473187,0.376896887 12.4046946,0.573793774 12.4195578,0.773404669 L13.4157404,14.2312062 C13.3863617,14.2931031 13.3649795,14.3598152 13.3540277,14.4305545 L11.4481472,26.7166926 C11.4252874,26.8644747 11.4485818,27.0158463 11.5150751,27.1497957 L17.613858,39.4357588 C17.7348497,39.6796693 17.982396,39.8336673 18.2530629,39.8336673 C18.5237297,39.8336673 18.771276,39.6795817 18.8922677,39.4357588 L24.9911375,27.1497082 C25.0576308,27.0158463 25.0809252,26.8643872 25.0580654,26.7166051 Z M22.8696101,1.43973735 L21.7912887,13.8217412 L14.8188795,13.8217412 L13.9023149,1.43973735 L22.8696101,1.43973735 Z M18.2530629,25.3399903 C17.1758714,25.3399903 16.2995505,24.4573249 16.2995505,23.3723346 C16.2995505,22.2873444 17.1758714,21.404679 18.2530629,21.404679 C19.3302543,21.404679 20.2065752,22.2873444 20.2065752,23.3723346 C20.2065752,24.4573249 19.3302543,25.3399903 18.2530629,25.3399903 Z M18.9678006,36.0642607 L18.9678006,26.7025097 C20.4909753,26.3711381 21.6360508,25.0041537 21.6360508,23.3722471 C21.6360508,21.4933658 20.118439,19.9647665 18.2530629,19.9647665 C16.3876867,19.9647665 14.870075,21.4934533 14.870075,23.3723346 C14.870075,25.0042412 16.0151504,26.3712257 17.5383251,26.7025973 L17.5383251,36.0643482 L12.8955281,26.7116148 L14.671725,15.2615661 L21.8343138,15.2615661 L23.6105106,26.7116148 L18.9678006,36.0642607 Z" id="Shape"></path>
                    <path d="M32.356683,39.5457198 L28.544922,39.5457198 C28.1501343,39.5457198 27.8301842,39.8680739 27.8301842,40.2656323 L27.8301842,41.4653988 L8.67594153,41.4653988 L8.67594153,40.2656323 C8.67594153,39.8680739 8.35607834,39.5457198 7.96120374,39.5457198 L4.1494427,39.5457198 C3.75465503,39.5457198 3.43470491,39.8680739 3.43470491,40.2656323 L3.43470491,44.1049903 C3.43470491,44.5025486 3.75456811,44.8249027 4.1494427,44.8249027 L7.96120374,44.8249027 C8.35599142,44.8249027 8.67594153,44.5025486 8.67594153,44.1049903 L8.67594153,42.9052237 L27.8301842,42.9052237 L27.8301842,44.1049903 C27.8301842,44.5025486 28.1500474,44.8249027 28.544922,44.8249027 L32.356683,44.8249027 C32.7514707,44.8249027 33.0714208,44.5025486 33.0714208,44.1049903 L33.0714208,40.2656323 C33.0714208,39.8680739 32.7514707,39.5457198 32.356683,39.5457198 Z M7.24646595,43.3851654 L4.86409357,43.3851654 L4.86409357,40.9855447 L7.24646595,40.9855447 L7.24646595,43.3851654 Z M31.6420321,43.3851654 L29.2596598,43.3851654 L29.2596598,40.9855447 L31.6420321,40.9855447 L31.6420321,43.3851654 Z" id="Shape"></path>
                    <path d="M35.7873027,22.2684339 C35.392515,22.2684339 35.0725649,22.5907879 35.0725649,22.9883463 C35.0725649,32.329786 27.5272703,39.9297082 18.2529759,39.9297082 C8.97868162,39.9297082 1.43347387,32.329786 1.43347387,22.9883463 C1.43347387,22.5907879 1.11361067,22.2684339 0.71873608,22.2684339 C0.323948406,22.2684339 0.00399828996,22.5907879 0.00399828996,22.9883463 C0.00399828996,33.123677 8.19041006,41.3694455 18.2529759,41.3694455 C28.3155418,41.3694455 36.5019536,33.123677 36.5019536,22.9883463 C36.5020405,22.5907879 36.1820904,22.2684339 35.7873027,22.2684339 Z" id="Shape"></path>
                </g>
            </g>
        </g>
    </g>
</svg>