<?xml version="1.0" encoding="UTF-8"?>
<svg width="64px" height="64px" viewBox="0 0 64 64" version="1.1" xmlns="http://www.w3.org/2000/svg" xmlns:xlink="http://www.w3.org/1999/xlink">
    <!-- Generator: Sketch 49 (51002) - http://www.bohemiancoding.com/sketch -->
    <title>video-player</title>
    <desc>Created with Sketch.</desc>
    <defs></defs>
    <g id="Page-1" stroke="none" stroke-width="1" fill="none" fill-rule="evenodd">
        <g id="grid" transform="translate(-188.000000, -188.000000)">
            <g id="video-player" transform="translate(188.000000, 188.000000)">
                <rect id="wrapper" fill-opacity="0.00999999978" fill="#FFFFFF" x="0" y="0" width="64" height="64"></rect>
                <g id="icon" transform="translate(10.000000, 10.000000)" fill="#6C5CE7" fill-rule="nonzero">
                    <path d="M12.6793405,35.7298588 L8.56208937,35.7298588 C8.17444744,35.7298588 7.86025437,36.041965 7.86025437,36.4270323 L7.86025437,40.145175 C7.86025437,40.5301553 8.1743599,40.8423485 8.56208937,40.8423485 L12.6793405,40.8423485 C13.0669824,40.8423485 13.3811755,40.5302422 13.3811755,40.145175 L13.3811755,36.4270323 C13.3811755,36.042052 13.0669824,35.7298588 12.6793405,35.7298588 Z M11.9775055,39.4480015 L9.26383683,39.4480015 L9.26383683,37.1242058 L11.9775055,37.1242058 L11.9775055,39.4480015 Z" id="Shape"></path>
                    <path d="M20.5395948,35.7298588 L16.4223437,35.7298588 C16.0347018,35.7298588 15.7205087,36.041965 15.7205087,36.4270323 L15.7205087,40.145175 C15.7205087,40.5301553 16.0346143,40.8423485 16.4223437,40.8423485 L20.5395948,40.8423485 C20.9272368,40.8423485 21.2414298,40.5302422 21.2414298,40.145175 L21.2414298,36.4270323 C21.2414298,36.042052 20.9273243,35.7298588 20.5395948,35.7298588 Z M19.8377598,39.4480015 L17.1240912,39.4480015 L17.1240912,37.1242058 L19.8377598,37.1242058 L19.8377598,39.4480015 Z" id="Shape"></path>
                    <path d="M36.2601036,2.26683565 L32.1428525,2.26683565 C31.7552106,2.26683565 31.4410175,2.57894188 31.4410175,2.96400914 L31.4410175,6.68215181 C31.4410175,7.06713211 31.755123,7.3793253 32.1428525,7.3793253 L36.2601036,7.3793253 C36.6477455,7.3793253 36.9619386,7.06721907 36.9619386,6.68215181 L36.9619386,2.96392218 C36.9619386,2.57894188 36.6478331,2.26683565 36.2601036,2.26683565 Z M35.5583561,5.98497832 L32.8446875,5.98497832 L32.8446875,3.66109567 L35.5583561,3.66109567 L35.5583561,5.98497832 Z" id="Shape"></path>
                    <path d="M28.3998492,35.7298588 L24.2825981,35.7298588 C23.8949562,35.7298588 23.5807631,36.041965 23.5807631,36.4270323 L23.5807631,40.145175 C23.5807631,40.5301553 23.8948686,40.8423485 24.2825981,40.8423485 L28.3998492,40.8423485 C28.7874911,40.8423485 29.1016842,40.5302422 29.1016842,40.145175 L29.1016842,36.4270323 C29.1016842,36.042052 28.7875787,35.7298588 28.3998492,35.7298588 Z M27.6981017,39.4480015 L24.9844331,39.4480015 L24.9844331,37.1242058 L27.6981017,37.1242058 L27.6981017,39.4480015 Z" id="Shape"></path>
                    <path d="M12.6793405,2.26683565 L8.56208937,2.26683565 C8.17444744,2.26683565 7.86025437,2.57894188 7.86025437,2.96400914 L7.86025437,6.68215181 C7.86025437,7.06713211 8.1743599,7.3793253 8.56208937,7.3793253 L12.6793405,7.3793253 C13.0669824,7.3793253 13.3811755,7.06721907 13.3811755,6.68215181 L13.3811755,2.96392218 C13.3811755,2.57894188 13.0669824,2.26683565 12.6793405,2.26683565 Z M11.9775055,5.98497832 L9.26383683,5.98497832 L9.26383683,3.66109567 L11.9775055,3.66109567 L11.9775055,5.98497832 Z" id="Shape"></path>
                    <path d="M28.3998492,2.26683565 L24.2825981,2.26683565 C23.8949562,2.26683565 23.5807631,2.57894188 23.5807631,2.96400914 L23.5807631,6.68215181 C23.5807631,7.06713211 23.8948686,7.3793253 24.2825981,7.3793253 L28.3998492,7.3793253 C28.7874911,7.3793253 29.1016842,7.06721907 29.1016842,6.68215181 L29.1016842,2.96392218 C29.1016842,2.57894188 28.7875787,2.26683565 28.3998492,2.26683565 Z M27.6981017,5.98497832 L24.9844331,5.98497832 L24.9844331,3.66109567 L27.6981017,3.66109567 L27.6981017,5.98497832 Z" id="Shape"></path>
                    <path d="M20.5395948,2.26683565 L16.4223437,2.26683565 C16.0347018,2.26683565 15.7205087,2.57894188 15.7205087,2.96400914 L15.7205087,6.68215181 C15.7205087,7.06713211 16.0346143,7.3793253 16.4223437,7.3793253 L20.5395948,7.3793253 C20.9272368,7.3793253 21.2414298,7.06721907 21.2414298,6.68215181 L21.2414298,2.96392218 C21.2414298,2.57894188 20.9273243,2.26683565 20.5395948,2.26683565 Z M19.8377598,5.98497832 L17.1240912,5.98497832 L17.1240912,3.66109567 L19.8377598,3.66109567 L19.8377598,5.98497832 Z" id="Shape"></path>
                    <path d="M44.120358,3.66109567 C44.5079999,3.66109567 44.822193,3.34898944 44.822193,2.96392218 L44.822193,0.733088753 C44.822193,0.348108455 44.5080874,0.0359152616 44.120358,0.0359152616 L0.701835002,0.0359152616 C0.314105524,0.0359152616 0,0.348108455 0,0.733088753 L0,2.96392218 C0,3.34898944 0.314105524,3.66109567 0.701835002,3.66109567 L4.11733863,3.66109567 L4.11733863,5.98489136 L0.701835002,5.98489136 C0.314105524,5.98497832 0,6.29708455 0,6.68206485 L0,9.65659638 L0,33.8243498 L0,36.4270323 C0,36.8120126 0.314105524,37.1242058 0.701835002,37.1242058 L4.11733863,37.1242058 L4.11733863,39.4480015 L0.701835002,39.4480015 C0.314193067,39.4480015 0,39.7601077 0,40.145175 L0,42.7478575 C0,43.1328377 0.314105524,43.4450309 0.701835002,43.4450309 L44.1204455,43.4450309 C44.5080874,43.4450309 44.8222805,43.1329247 44.8222805,42.7478575 L44.8222805,40.145175 C44.8222805,39.7601947 44.508175,39.4480015 44.1204455,39.4480015 L40.7049419,39.4480015 L40.7049419,37.1242058 L44.1204455,37.1242058 C44.5080874,37.1242058 44.8222805,36.8120996 44.8222805,36.4270323 L44.8222805,33.8243498 L44.8222805,9.65659638 L44.8222805,6.68206485 C44.8222805,6.29708455 44.508175,5.98489136 44.1204455,5.98489136 L40.7049419,5.98489136 L40.7049419,3.66109567 L44.120358,3.66109567 Z M43.4186105,35.7298588 L40.0031069,35.7298588 C39.6154649,35.7298588 39.3012719,36.041965 39.3012719,36.4270323 L39.3012719,40.145175 C39.3012719,40.5301553 39.6153774,40.8423485 40.0031069,40.8423485 L43.4186105,40.8423485 L43.4186105,42.0507709 L1.40358246,42.0507709 L1.40358246,40.8423485 L4.81908609,40.8423485 C5.20672802,40.8423485 5.52092109,40.5302422 5.52092109,40.145175 L5.52092109,36.4270323 C5.52092109,36.042052 5.20681557,35.7298588 4.81908609,35.7298588 L1.40358246,35.7298588 L1.40358246,34.5214364 L43.4186105,34.5214364 L43.418523,35.7298588 L43.4186105,35.7298588 Z M43.4186105,33.1271763 L1.40358246,33.1271763 L1.40358246,10.3537699 L43.4186105,10.3537699 L43.4186105,33.1271763 Z M40.0031069,7.37923834 L43.4186105,7.37923834 L43.4186105,8.95942289 L1.40358246,8.95942289 L1.40358246,7.37923834 L4.81908609,7.37923834 C5.20672802,7.37923834 5.52092109,7.06713211 5.52092109,6.68206485 L5.52092109,2.96392218 C5.52092109,2.57894188 5.20681557,2.26674869 4.81908609,2.26674869 L1.40358246,2.26674869 L1.40358246,1.43017528 L43.4186105,1.43017528 L43.418523,2.26674869 L40.0030193,2.26674869 C39.6153774,2.26674869 39.3011843,2.57885492 39.3011843,2.96392218 L39.3011843,6.68206485 C39.3012719,7.06713211 39.6154649,7.37923834 40.0031069,7.37923834 Z" id="Shape"></path>
                    <path d="M36.2601036,35.7298588 L32.1428525,35.7298588 C31.7552106,35.7298588 31.4410175,36.041965 31.4410175,36.4270323 L31.4410175,40.145175 C31.4410175,40.5301553 31.755123,40.8423485 32.1428525,40.8423485 L36.2601036,40.8423485 C36.6477455,40.8423485 36.9619386,40.5302422 36.9619386,40.145175 L36.9619386,36.4270323 C36.9619386,36.042052 36.6478331,35.7298588 36.2601036,35.7298588 Z M35.5583561,39.4480015 L32.8446875,39.4480015 L32.8446875,37.1242058 L35.5583561,37.1242058 L35.5583561,39.4480015 Z" id="Shape"></path>
                    <path d="M22.4110965,11.7480299 C16.8644376,11.7480299 12.3518408,16.2305676 12.3518408,21.7404731 C12.3518408,27.2503786 16.8644376,31.7329163 22.4110965,31.7329163 C27.9577553,31.7329163 32.4703521,27.2503786 32.4703521,21.7404731 C32.4703521,16.2305676 27.9577553,11.7480299 22.4110965,11.7480299 Z M22.4110965,30.3386563 C17.6383208,30.3386563 13.7554233,26.4815485 13.7554233,21.7404731 C13.7554233,16.9993977 17.6383208,13.1422899 22.4110965,13.1422899 C27.1838721,13.1422899 31.0667697,16.9993977 31.0667697,21.7404731 C31.0667697,26.4815485 27.1838721,30.3386563 22.4110965,30.3386563 Z" id="Shape"></path>
                    <path d="M29.4267327,19.2771905 C28.7884541,17.4832537 27.4366098,15.9676818 25.7178713,15.1191946 C25.3706744,14.9476188 24.9494158,15.0884971 24.7770429,15.433301 C24.6045825,15.7781918 24.7461401,16.1965655 25.0932495,16.3679674 C26.4882527,17.0566186 27.585521,18.2864337 28.1033399,19.7420019 C28.2051528,20.0281934 28.4759244,20.2069871 28.7649925,20.2069871 C28.8425559,20.2069871 28.92152,20.1940298 28.9988208,20.1668977 C29.3643142,20.0386289 29.5559466,19.6402564 29.4267327,19.2771905 Z" id="Shape"></path>
                    <path d="M26.2096898,21.1100863 L20.5154329,16.7276418 C20.303578,16.5646752 20.0171361,16.5358038 19.7766546,16.6526806 C19.5362606,16.7698183 19.3838476,17.0127029 19.3838476,17.2786323 L19.3838476,26.20214 C19.3838476,26.4704174 19.5387118,26.7148673 19.7820823,26.8308744 C19.8786426,26.8768773 19.9822939,26.8994004 20.08542,26.8994004 C20.2422976,26.8994004 20.3978622,26.8472233 20.5248876,26.7459127 L26.2191445,22.2048496 C26.3867024,22.0711892 26.4834378,21.8686549 26.4815994,21.6551635 C26.4795859,21.441759 26.3795239,21.240877 26.2096898,21.1100863 Z M20.78743,24.748485 L20.78743,18.7007202 L24.6466034,21.6709036 L20.78743,24.748485 Z" id="Shape"></path>
                </g>
            </g>
        </g>
    </g>
</svg>